<svg width="74" height="70" viewBox="0 0 74 70" fill="none" xmlns="http://www.w3.org/2000/svg">
<path d="M36.6554 1.85683H34.8293V0H36.6554V1.85683Z" fill="black"/>
<path d="M34.8294 3.69162H33.0033V1.85718H34.8294V3.69162Z" fill="black"/>
<path d="M36.6554 3.69162H34.8293V1.85718H36.6554V3.69162Z" fill="black"/>
<path d="M34.8294 5.52561H33.0033V3.69116H34.8294V5.52561Z" fill="black"/>
<path d="M36.6554 5.52561H34.8293V3.69116H36.6554V5.52561Z" fill="#00B590"/>
<path d="M34.8294 7.38245H33.0033V5.52563H34.8294V7.38245Z" fill="black"/>
<path d="M36.6554 7.38245H34.8293V5.52563H36.6554V7.38245Z" fill="#00B590"/>
<path d="M33.0034 9.21727H31.155V7.38281H33.0034V9.21727Z" fill="black"/>
<path d="M34.8294 9.21727H33.0033V7.38281H34.8294V9.21727Z" fill="black"/>
<path d="M36.6554 9.21727H34.8293V7.38281H36.6554V9.21727Z" fill="#00B590"/>
<path d="M33.0034 11.0515H31.155V9.21704H33.0034V11.0515Z" fill="black"/>
<path d="M34.8294 11.0515H33.0033V9.21704H34.8294V11.0515Z" fill="#00B590"/>
<path d="M36.6554 11.0515H34.8293V9.21704H36.6554V11.0515Z" fill="#00B590"/>
<path d="M33.0034 12.886H31.155V11.0515H33.0034V12.886Z" fill="black"/>
<path d="M34.8294 12.886H33.0033V11.0515H34.8294V12.886Z" fill="#00B590"/>
<path d="M36.6554 12.886H34.8293V11.0515H36.6554V12.886Z" fill="#00B590"/>
<path d="M31.155 14.7428H29.3289V12.886H31.155V14.7428Z" fill="black"/>
<path d="M33.0034 14.7428H31.155V12.886H33.0034V14.7428Z" fill="black"/>
<path d="M34.8294 14.7428H33.0033V12.886H34.8294V14.7428Z" fill="#00B590"/>
<path d="M36.6554 14.7428H34.8293V12.886H36.6554V14.7428Z" fill="#00B590"/>
<path d="M31.155 16.5774H29.3289V14.7429H31.155V16.5774Z" fill="black"/>
<path d="M33.0034 16.5774H31.155V14.7429H33.0034V16.5774Z" fill="#00B590"/>
<path d="M34.8294 16.5774H33.0033V14.7429H34.8294V16.5774Z" fill="#00B590"/>
<path d="M36.6554 16.5774H34.8293V14.7429H36.6554V16.5774Z" fill="#00B590"/>
<path d="M31.155 18.4116H29.3289V16.5771H31.155V18.4116Z" fill="black"/>
<path d="M33.0034 18.4116H31.155V16.5771H33.0034V18.4116Z" fill="#00B590"/>
<path d="M34.8294 18.4116H33.0033V16.5771H34.8294V18.4116Z" fill="#00B590"/>
<path d="M36.6554 18.4116H34.8293V16.5771H36.6554V18.4116Z" fill="#00B590"/>
<path d="M29.3288 20.2684H27.5027V18.4116H29.3288V20.2684Z" fill="black"/>
<path d="M31.155 20.2684H29.3289V18.4116H31.155V20.2684Z" fill="black"/>
<path d="M33.0034 20.2684H31.155V18.4116H33.0034V20.2684Z" fill="#00B590"/>
<path d="M34.8294 20.2684H33.0033V18.4116H34.8294V20.2684Z" fill="#00B590"/>
<path d="M36.6554 20.2684H34.8293V18.4116H36.6554V20.2684Z" fill="#00B590"/>
<path d="M29.3288 22.103H27.5027V20.2686H29.3288V22.103Z" fill="black"/>
<path d="M31.155 22.103H29.3289V20.2686H31.155V22.103Z" fill="#00B590"/>
<path d="M33.0034 22.103H31.155V20.2686H33.0034V22.103Z" fill="#00B590"/>
<path d="M34.8294 22.103H33.0033V20.2686H34.8294V22.103Z" fill="#00B590"/>
<path d="M36.6554 22.103H34.8293V20.2686H36.6554V22.103Z" fill="#CFF1DF"/>
<path d="M29.3288 23.9372H27.5027V22.1028H29.3288V23.9372Z" fill="black"/>
<path d="M31.155 23.9372H29.3289V22.1028H31.155V23.9372Z" fill="#00B590"/>
<path d="M33.0034 23.9372H31.155V22.1028H33.0034V23.9372Z" fill="#00B590"/>
<path d="M34.8294 23.9372H33.0033V22.1028H34.8294V23.9372Z" fill="#00B590"/>
<path d="M36.6554 23.9372H34.8293V22.1028H36.6554V23.9372Z" fill="#CFF1DF"/>
<path d="M29.3288 25.7941H27.5027V23.9373H29.3288V25.7941Z" fill="black"/>
<path d="M31.155 25.7941H29.3289V23.9373H31.155V25.7941Z" fill="#00B590"/>
<path d="M33.0034 25.7941H31.155V23.9373H33.0034V25.7941Z" fill="#00B590"/>
<path d="M34.8294 25.7941H33.0033V23.9373H34.8294V25.7941Z" fill="#00B590"/>
<path d="M36.6554 25.7941H34.8293V23.9373H36.6554V25.7941Z" fill="#CFF1DF"/>
<path d="M1.8261 27.6286H0V25.7942H1.8261V27.6286Z" fill="black"/>
<path d="M3.65239 27.6286H1.82629V25.7942H3.65239V27.6286Z" fill="black"/>
<path d="M5.50059 27.6286H3.65222V25.7942H5.50059V27.6286Z" fill="black"/>
<path d="M7.32652 27.6286H5.50043V25.7942H7.32652V27.6286Z" fill="black"/>
<path d="M9.15276 27.6286H7.32666V25.7942H9.15276V27.6286Z" fill="black"/>
<path d="M11.0012 27.6286H9.15283V25.7942H11.0012V27.6286Z" fill="black"/>
<path d="M12.8272 27.6286H11.0011V25.7942H12.8272V27.6286Z" fill="black"/>
<path d="M14.6532 27.6286H12.8271V25.7942H14.6532V27.6286Z" fill="black"/>
<path d="M16.5015 27.6286H14.6531V25.7942H16.5015V27.6286Z" fill="black"/>
<path d="M18.3277 27.6286H16.5016V25.7942H18.3277V27.6286Z" fill="black"/>
<path d="M20.1538 27.6286H18.3277V25.7942H20.1538V27.6286Z" fill="black"/>
<path d="M22.0023 27.6286H20.1539V25.7942H22.0023V27.6286Z" fill="black"/>
<path d="M23.8283 27.6286H22.0022V25.7942H23.8283V27.6286Z" fill="black"/>
<path d="M25.6545 27.6286H23.8284V25.7942H25.6545V27.6286Z" fill="black"/>
<path d="M27.5028 27.6286H25.6544V25.7942H27.5028V27.6286Z" fill="black"/>
<path d="M29.3288 27.6286H27.5027V25.7942H29.3288V27.6286Z" fill="black"/>
<path d="M31.155 27.6286H29.3289V25.7942H31.155V27.6286Z" fill="#00B590"/>
<path d="M33.0034 27.6286H31.155V25.7942H33.0034V27.6286Z" fill="#00B590"/>
<path d="M34.8294 27.6286H33.0033V25.7942H34.8294V27.6286Z" fill="#CFF1DF"/>
<path d="M36.6554 27.6286H34.8293V25.7942H36.6554V27.6286Z" fill="#CFF1DF"/>
<path d="M1.8261 29.4631H0V27.6287H1.8261V29.4631Z" fill="black"/>
<path d="M3.65239 29.4631H1.82629V27.6287H3.65239V29.4631Z" fill="black"/>
<path d="M5.50059 29.4631H3.65222V27.6287H5.50059V29.4631Z" fill="#81DEAD"/>
<path d="M7.32652 29.4631H5.50043V27.6287H7.32652V29.4631Z" fill="#81DEAD"/>
<path d="M9.15276 29.4631H7.32666V27.6287H9.15276V29.4631Z" fill="#81DEAD"/>
<path d="M11.0012 29.4631H9.15283V27.6287H11.0012V29.4631Z" fill="#81DEAD"/>
<path d="M12.8272 29.4631H11.0011V27.6287H12.8272V29.4631Z" fill="#81DEAD"/>
<path d="M14.6532 29.4631H12.8271V27.6287H14.6532V29.4631Z" fill="#81DEAD"/>
<path d="M16.5015 29.4631H14.6531V27.6287H16.5015V29.4631Z" fill="#81DEAD"/>
<path d="M18.3277 29.4631H16.5016V27.6287H18.3277V29.4631Z" fill="#81DEAD"/>
<path d="M20.1538 29.4631H18.3277V27.6287H20.1538V29.4631Z" fill="#81DEAD"/>
<path d="M22.0023 29.4631H20.1539V27.6287H22.0023V29.4631Z" fill="#81DEAD"/>
<path d="M23.8283 29.4631H22.0022V27.6287H23.8283V29.4631Z" fill="#81DEAD"/>
<path d="M25.6545 29.4631H23.8284V27.6287H25.6545V29.4631Z" fill="#81DEAD"/>
<path d="M27.5028 29.4631H25.6544V27.6287H27.5028V29.4631Z" fill="#81DEAD"/>
<path d="M29.3288 29.4631H27.5027V27.6287H29.3288V29.4631Z" fill="#81DEAD"/>
<path d="M31.155 29.4631H29.3289V27.6287H31.155V29.4631Z" fill="#81DEAD"/>
<path d="M33.0034 29.4631H31.155V27.6287H33.0034V29.4631Z" fill="#00B590"/>
<path d="M34.8294 29.4631H33.0033V27.6287H34.8294V29.4631Z" fill="#CFF1DF"/>
<path d="M36.6554 29.4631H34.8293V27.6287H36.6554V29.4631Z" fill="#CFF1DF"/>
<path d="M3.65239 31.32H1.82629V29.4631H3.65239V31.32Z" fill="black"/>
<path d="M5.50059 31.32H3.65222V29.4631H5.50059V31.32Z" fill="black"/>
<path d="M7.32652 31.32H5.50043V29.4631H7.32652V31.32Z" fill="#00B590"/>
<path d="M9.15276 31.32H7.32666V29.4631H9.15276V31.32Z" fill="#00B590"/>
<path d="M11.0012 31.32H9.15283V29.4631H11.0012V31.32Z" fill="#00B590"/>
<path d="M12.8272 31.32H11.0011V29.4631H12.8272V31.32Z" fill="#81DEAD"/>
<path d="M14.6532 31.32H12.8271V29.4631H14.6532V31.32Z" fill="#81DEAD"/>
<path d="M16.5015 31.32H14.6531V29.4631H16.5015V31.32Z" fill="#81DEAD"/>
<path d="M18.3277 31.32H16.5016V29.4631H18.3277V31.32Z" fill="#81DEAD"/>
<path d="M20.1538 31.32H18.3277V29.4631H20.1538V31.32Z" fill="#81DEAD"/>
<path d="M22.0023 31.32H20.1539V29.4631H22.0023V31.32Z" fill="#81DEAD"/>
<path d="M23.8283 31.32H22.0022V29.4631H23.8283V31.32Z" fill="#81DEAD"/>
<path d="M25.6545 31.32H23.8284V29.4631H25.6545V31.32Z" fill="#81DEAD"/>
<path d="M27.5028 31.32H25.6544V29.4631H27.5028V31.32Z" fill="#81DEAD"/>
<path d="M29.3288 31.32H27.5027V29.4631H29.3288V31.32Z" fill="#81DEAD"/>
<path d="M31.155 31.32H29.3289V29.4631H31.155V31.32Z" fill="#81DEAD"/>
<path d="M33.0034 31.32H31.155V29.4631H33.0034V31.32Z" fill="#81DEAD"/>
<path d="M34.8294 31.32H33.0033V29.4631H34.8294V31.32Z" fill="#CFF1DF"/>
<path d="M36.6554 31.32H34.8293V29.4631H36.6554V31.32Z" fill="#CFF1DF"/>
<path d="M5.50059 33.1545H3.65222V31.3201H5.50059V33.1545Z" fill="black"/>
<path d="M7.32652 33.1545H5.50043V31.3201H7.32652V33.1545Z" fill="black"/>
<path d="M9.15276 33.1545H7.32666V31.3201H9.15276V33.1545Z" fill="black"/>
<path d="M11.0012 33.1545H9.15283V31.3201H11.0012V33.1545Z" fill="#00B590"/>
<path d="M12.8272 33.1545H11.0011V31.3201H12.8272V33.1545Z" fill="#00B590"/>
<path d="M14.6532 33.1545H12.8271V31.3201H14.6532V33.1545Z" fill="#00B590"/>
<path d="M16.5015 33.1545H14.6531V31.3201H16.5015V33.1545Z" fill="#00B590"/>
<path d="M18.3277 33.1545H16.5016V31.3201H18.3277V33.1545Z" fill="#81DEAD"/>
<path d="M20.1538 33.1545H18.3277V31.3201H20.1538V33.1545Z" fill="#81DEAD"/>
<path d="M22.0023 33.1545H20.1539V31.3201H22.0023V33.1545Z" fill="#81DEAD"/>
<path d="M23.8283 33.1545H22.0022V31.3201H23.8283V33.1545Z" fill="#81DEAD"/>
<path d="M25.6545 33.1545H23.8284V31.3201H25.6545V33.1545Z" fill="#81DEAD"/>
<path d="M27.5028 33.1545H25.6544V31.3201H27.5028V33.1545Z" fill="#81DEAD"/>
<path d="M29.3288 33.1545H27.5027V31.3201H29.3288V33.1545Z" fill="#81DEAD"/>
<path d="M31.155 33.1545H29.3289V31.3201H31.155V33.1545Z" fill="#81DEAD"/>
<path d="M33.0034 33.1545H31.155V31.3201H33.0034V33.1545Z" fill="#CFF1DF"/>
<path d="M34.8294 33.1545H33.0033V31.3201H34.8294V33.1545Z" fill="#CFF1DF"/>
<path d="M36.6554 33.1545H34.8293V31.3201H36.6554V33.1545Z" fill="#CFF1DF"/>
<path d="M7.32652 34.9885H5.50043V33.1541H7.32652V34.9885Z" fill="black"/>
<path d="M9.15276 34.9885H7.32666V33.1541H9.15276V34.9885Z" fill="black"/>
<path d="M11.0012 34.9885H9.15283V33.1541H11.0012V34.9885Z" fill="black"/>
<path d="M12.8272 34.9885H11.0011V33.1541H12.8272V34.9885Z" fill="#00B590"/>
<path d="M14.6532 34.9885H12.8271V33.1541H14.6532V34.9885Z" fill="#00B590"/>
<path d="M16.5015 34.9885H14.6531V33.1541H16.5015V34.9885Z" fill="#00B590"/>
<path d="M18.3277 34.9885H16.5016V33.1541H18.3277V34.9885Z" fill="#00B590"/>
<path d="M20.1538 34.9885H18.3277V33.1541H20.1538V34.9885Z" fill="#00B590"/>
<path d="M22.0023 34.9885H20.1539V33.1541H22.0023V34.9885Z" fill="#CFF1DF"/>
<path d="M23.8283 34.9885H22.0022V33.1541H23.8283V34.9885Z" fill="#CFF1DF"/>
<path d="M25.6545 34.9885H23.8284V33.1541H25.6545V34.9885Z" fill="#CFF1DF"/>
<path d="M27.5028 34.9885H25.6544V33.1541H27.5028V34.9885Z" fill="#CFF1DF"/>
<path d="M29.3288 34.9885H27.5027V33.1541H29.3288V34.9885Z" fill="#CFF1DF"/>
<path d="M31.155 34.9885H29.3289V33.1541H31.155V34.9885Z" fill="#CFF1DF"/>
<path d="M33.0034 34.9885H31.155V33.1541H33.0034V34.9885Z" fill="#CFF1DF"/>
<path d="M34.8294 34.9885H33.0033V33.1541H34.8294V34.9885Z" fill="#CFF1DF"/>
<path d="M36.6554 34.9885H34.8293V33.1541H36.6554V34.9885Z" fill="#CFF1DF"/>
<path d="M11.0012 36.8453H9.15283V34.9885H11.0012V36.8453Z" fill="black"/>
<path d="M12.8272 36.8453H11.0011V34.9885H12.8272V36.8453Z" fill="black"/>
<path d="M14.6532 36.8453H12.8271V34.9885H14.6532V36.8453Z" fill="#00B590"/>
<path d="M16.5015 36.8453H14.6531V34.9885H16.5015V36.8453Z" fill="#00B590"/>
<path d="M18.3277 36.8453H16.5016V34.9885H18.3277V36.8453Z" fill="#00B590"/>
<path d="M20.1538 36.8453H18.3277V34.9885H20.1538V36.8453Z" fill="#00B590"/>
<path d="M22.0023 36.8453H20.1539V34.9885H22.0023V36.8453Z" fill="#00B590"/>
<path d="M23.8283 36.8453H22.0022V34.9885H23.8283V36.8453Z" fill="#CFF1DF"/>
<path d="M25.6545 36.8453H23.8284V34.9885H25.6545V36.8453Z" fill="#CFF1DF"/>
<path d="M27.5028 36.8453H25.6544V34.9885H27.5028V36.8453Z" fill="#CFF1DF"/>
<path d="M29.3288 36.8453H27.5027V34.9885H29.3288V36.8453Z" fill="#CFF1DF"/>
<path d="M31.155 36.8453H29.3289V34.9885H31.155V36.8453Z" fill="#CFF1DF"/>
<path d="M33.0034 36.8453H31.155V34.9885H33.0034V36.8453Z" fill="#CFF1DF"/>
<path d="M34.8294 36.8453H33.0033V34.9885H34.8294V36.8453Z" fill="#CFF1DF"/>
<path d="M36.6554 36.8453H34.8293V34.9885H36.6554V36.8453Z" fill="#CFF1DF"/>
<path d="M12.8272 38.6802H11.0011V36.8457H12.8272V38.6802Z" fill="black"/>
<path d="M14.6532 38.6802H12.8271V36.8457H14.6532V38.6802Z" fill="black"/>
<path d="M16.5015 38.6802H14.6531V36.8457H16.5015V38.6802Z" fill="#00B590"/>
<path d="M18.3277 38.6802H16.5016V36.8457H18.3277V38.6802Z" fill="#00B590"/>
<path d="M20.1538 38.6802H18.3277V36.8457H20.1538V38.6802Z" fill="#00B590"/>
<path d="M22.0023 38.6802H20.1539V36.8457H22.0023V38.6802Z" fill="#00B590"/>
<path d="M23.8283 38.6802H22.0022V36.8457H23.8283V38.6802Z" fill="#00B590"/>
<path d="M25.6545 38.6802H23.8284V36.8457H25.6545V38.6802Z" fill="#CFF1DF"/>
<path d="M27.5028 38.6802H25.6544V36.8457H27.5028V38.6802Z" fill="#CFF1DF"/>
<path d="M29.3288 38.6802H27.5027V36.8457H29.3288V38.6802Z" fill="#CFF1DF"/>
<path d="M31.155 38.6802H29.3289V36.8457H31.155V38.6802Z" fill="#CFF1DF"/>
<path d="M33.0034 38.6802H31.155V36.8457H33.0034V38.6802Z" fill="#CFF1DF"/>
<path d="M34.8294 38.6802H33.0033V36.8457H34.8294V38.6802Z" fill="#CFF1DF"/>
<path d="M36.6554 38.6802H34.8293V36.8457H36.6554V38.6802Z" fill="#CFF1DF"/>
<path d="M14.6532 40.5146H12.8271V38.6802H14.6532V40.5146Z" fill="black"/>
<path d="M16.5015 40.5146H14.6531V38.6802H16.5015V40.5146Z" fill="black"/>
<path d="M18.3277 40.5146H16.5016V38.6802H18.3277V40.5146Z" fill="black"/>
<path d="M20.1538 40.5146H18.3277V38.6802H20.1538V40.5146Z" fill="#00B590"/>
<path d="M22.0023 40.5146H20.1539V38.6802H22.0023V40.5146Z" fill="#00B590"/>
<path d="M23.8283 40.5146H22.0022V38.6802H23.8283V40.5146Z" fill="#00B590"/>
<path d="M25.6545 40.5146H23.8284V38.6802H25.6545V40.5146Z" fill="#00B590"/>
<path d="M27.5028 40.5146H25.6544V38.6802H27.5028V40.5146Z" fill="#CFF1DF"/>
<path d="M29.3288 40.5146H27.5027V38.6802H29.3288V40.5146Z" fill="#CFF1DF"/>
<path d="M31.155 40.5146H29.3289V38.6802H31.155V40.5146Z" fill="#CFF1DF"/>
<path d="M33.0034 40.5146H31.155V38.6802H33.0034V40.5146Z" fill="#CFF1DF"/>
<path d="M34.8294 40.5146H33.0033V38.6802H34.8294V40.5146Z" fill="#CFF1DF"/>
<path d="M36.6554 40.5146H34.8293V38.6802H36.6554V40.5146Z" fill="#CFF1DF"/>
<path d="M18.3277 42.3715H16.5016V40.5146H18.3277V42.3715Z" fill="black"/>
<path d="M20.1538 42.3715H18.3277V40.5146H20.1538V42.3715Z" fill="black"/>
<path d="M22.0023 42.3715H20.1539V40.5146H22.0023V42.3715Z" fill="#00B590"/>
<path d="M23.8283 42.3715H22.0022V40.5146H23.8283V42.3715Z" fill="#00B590"/>
<path d="M25.6545 42.3715H23.8284V40.5146H25.6545V42.3715Z" fill="#00B590"/>
<path d="M27.5028 42.3715H25.6544V40.5146H27.5028V42.3715Z" fill="#00B590"/>
<path d="M29.3288 42.3715H27.5027V40.5146H29.3288V42.3715Z" fill="#81DEAD"/>
<path d="M31.155 42.3715H29.3289V40.5146H31.155V42.3715Z" fill="#CFF1DF"/>
<path d="M33.0034 42.3715H31.155V40.5146H33.0034V42.3715Z" fill="#CFF1DF"/>
<path d="M34.8294 42.3715H33.0033V40.5146H34.8294V42.3715Z" fill="#CFF1DF"/>
<path d="M36.6554 42.3715H34.8293V40.5146H36.6554V42.3715Z" fill="#CFF1DF"/>
<path d="M20.1538 44.2058H18.3277V42.3713H20.1538V44.2058Z" fill="black"/>
<path d="M22.0023 44.2058H20.1539V42.3713H22.0023V44.2058Z" fill="black"/>
<path d="M23.8283 44.2058H22.0022V42.3713H23.8283V44.2058Z" fill="#00B590"/>
<path d="M25.6545 44.2058H23.8284V42.3713H25.6545V44.2058Z" fill="#00B590"/>
<path d="M27.5028 44.2058H25.6544V42.3713H27.5028V44.2058Z" fill="#00B590"/>
<path d="M29.3288 44.2058H27.5027V42.3713H29.3288V44.2058Z" fill="#81DEAD"/>
<path d="M31.155 44.2058H29.3289V42.3713H31.155V44.2058Z" fill="#CFF1DF"/>
<path d="M33.0034 44.2058H31.155V42.3713H33.0034V44.2058Z" fill="#CFF1DF"/>
<path d="M34.8294 44.2058H33.0033V42.3713H34.8294V44.2058Z" fill="#CFF1DF"/>
<path d="M36.6554 44.2058H34.8293V42.3713H36.6554V44.2058Z" fill="#CFF1DF"/>
<path d="M22.0023 46.0403H20.1539V44.2058H22.0023V46.0403Z" fill="black"/>
<path d="M23.8283 46.0403H22.0022V44.2058H23.8283V46.0403Z" fill="black"/>
<path d="M25.6545 46.0403H23.8284V44.2058H25.6545V46.0403Z" fill="#00B590"/>
<path d="M27.5028 46.0403H25.6544V44.2058H27.5028V46.0403Z" fill="#81DEAD"/>
<path d="M29.3288 46.0403H27.5027V44.2058H29.3288V46.0403Z" fill="#CFF1DF"/>
<path d="M31.155 46.0403H29.3289V44.2058H31.155V46.0403Z" fill="#CFF1DF"/>
<path d="M33.0034 46.0403H31.155V44.2058H33.0034V46.0403Z" fill="#CFF1DF"/>
<path d="M34.8294 46.0403H33.0033V44.2058H34.8294V46.0403Z" fill="#CFF1DF"/>
<path d="M36.6554 46.0403H34.8293V44.2058H36.6554V46.0403Z" fill="#CFF1DF"/>
<path d="M22.0023 47.8969H20.1539V46.04H22.0023V47.8969Z" fill="black"/>
<path d="M23.8283 47.8969H22.0022V46.04H23.8283V47.8969Z" fill="#81DEAD"/>
<path d="M25.6545 47.8969H23.8284V46.04H25.6545V47.8969Z" fill="#81DEAD"/>
<path d="M27.5028 47.8969H25.6544V46.04H27.5028V47.8969Z" fill="#81DEAD"/>
<path d="M29.3288 47.8969H27.5027V46.04H29.3288V47.8969Z" fill="#CFF1DF"/>
<path d="M31.155 47.8969H29.3289V46.04H31.155V47.8969Z" fill="#CFF1DF"/>
<path d="M33.0034 47.8969H31.155V46.04H33.0034V47.8969Z" fill="#CFF1DF"/>
<path d="M34.8294 47.8969H33.0033V46.04H34.8294V47.8969Z" fill="#CFF1DF"/>
<path d="M36.6554 47.8969H34.8293V46.04H36.6554V47.8969Z" fill="#CFF1DF"/>
<path d="M20.1538 49.7317H18.3277V47.8972H20.1538V49.7317Z" fill="black"/>
<path d="M22.0023 49.7317H20.1539V47.8972H22.0023V49.7317Z" fill="black"/>
<path d="M23.8283 49.7317H22.0022V47.8972H23.8283V49.7317Z" fill="#81DEAD"/>
<path d="M25.6545 49.7317H23.8284V47.8972H25.6545V49.7317Z" fill="#81DEAD"/>
<path d="M27.5028 49.7317H25.6544V47.8972H27.5028V49.7317Z" fill="#81DEAD"/>
<path d="M29.3288 49.7317H27.5027V47.8972H29.3288V49.7317Z" fill="#CFF1DF"/>
<path d="M31.1327 49.7317H29.2843V47.8972H31.1327V49.7317Z" fill="#CFF1DF"/>
<path d="M33.0032 49.7317H31.1326V47.8972H33.0032V49.7317Z" fill="#CFF1DF"/>
<path d="M34.8294 49.7317H33.0033V47.8972H34.8294V49.7317Z" fill="#CFF1DF"/>
<path d="M36.6554 49.7317H34.8293V47.8972H36.6554V49.7317Z" fill="#00B590"/>
<path d="M20.1538 51.5661H18.3277V49.7317H20.1538V51.5661Z" fill="black"/>
<path d="M22.0023 51.5661H20.1539V49.7317H22.0023V51.5661Z" fill="#81DEAD"/>
<path d="M23.8283 51.5661H22.0022V49.7317H23.8283V51.5661Z" fill="#81DEAD"/>
<path d="M25.6545 51.5661H23.8284V49.7317H25.6545V51.5661Z" fill="#81DEAD"/>
<path d="M27.5028 51.5661H25.6544V49.7317H27.5028V51.5661Z" fill="#CFF1DF"/>
<path d="M29.3288 51.5661H27.5027V49.7317H29.3288V51.5661Z" fill="#CFF1DF"/>
<path d="M31.1327 51.5661H29.2843V49.7317H31.1327V51.5661Z" fill="#CFF1DF"/>
<path d="M33.0032 51.5661H31.1326V49.7317H33.0032V51.5661Z" fill="#00B590"/>
<path d="M34.8294 51.5661H33.0033V49.7317H34.8294V51.5661Z" fill="#00B590"/>
<path d="M36.6554 51.5661H34.8293V49.7317H36.6554V51.5661Z" fill="#00B590"/>
<path d="M20.1538 53.4228H18.3277V51.5659H20.1538V53.4228Z" fill="black"/>
<path d="M22.0023 53.4228H20.1539V51.5659H22.0023V53.4228Z" fill="#81DEAD"/>
<path d="M23.8283 53.4228H22.0022V51.5659H23.8283V53.4228Z" fill="#81DEAD"/>
<path d="M25.6545 53.4228H23.8284V51.5659H25.6545V53.4228Z" fill="#81DEAD"/>
<path d="M27.5028 53.4228H25.6544V51.5659H27.5028V53.4228Z" fill="#CFF1DF"/>
<path d="M29.3288 53.4228H27.5027V51.5659H29.3288V53.4228Z" fill="#CFF1DF"/>
<path d="M31.1327 53.4228H29.2843V51.5659H31.1327V53.4228Z" fill="#00B590"/>
<path d="M33.0032 53.4228H31.1326V51.5659H33.0032V53.4228Z" fill="#00B590"/>
<path d="M34.8294 53.4228H33.0033V51.5659H34.8294V53.4228Z" fill="#00B590"/>
<path d="M36.6554 53.4228H34.8293V51.5659H36.6554V53.4228Z" fill="#00B590"/>
<path d="M18.3277 55.257H16.5016V53.4226H18.3277V55.257Z" fill="black"/>
<path d="M20.1538 55.257H18.3277V53.4226H20.1538V55.257Z" fill="black"/>
<path d="M22.0023 55.257H20.1539V53.4226H22.0023V55.257Z" fill="#81DEAD"/>
<path d="M23.8283 55.257H22.0022V53.4226H23.8283V55.257Z" fill="#81DEAD"/>
<path d="M25.6545 55.257H23.8284V53.4226H25.6545V55.257Z" fill="#81DEAD"/>
<path d="M27.5028 55.257H25.6544V53.4226H27.5028V55.257Z" fill="#CFF1DF"/>
<path d="M29.2842 55.257H27.4581V53.4226H29.2842V55.257Z" fill="#00B590"/>
<path d="M31.1327 55.257H29.2843V53.4226H31.1327V55.257Z" fill="#00B590"/>
<path d="M33.0032 55.257H31.1326V53.4226H33.0032V55.257Z" fill="#00B590"/>
<path d="M34.8294 55.257H33.0033V53.4226H34.8294V55.257Z" fill="#00B590"/>
<path d="M36.6554 55.257H34.8293V53.4226H36.6554V55.257Z" fill="black"/>
<path d="M18.3277 57.0918H16.5016V55.2573H18.3277V57.0918Z" fill="black"/>
<path d="M20.1538 57.0918H18.3277V55.2573H20.1538V57.0918Z" fill="black"/>
<path d="M22.0023 57.0918H20.1539V55.2573H22.0023V57.0918Z" fill="#81DEAD"/>
<path d="M23.8283 57.0918H22.0022V55.2573H23.8283V57.0918Z" fill="#81DEAD"/>
<path d="M25.6321 57.0918H23.7838V55.2573H25.6321V57.0918Z" fill="#81DEAD"/>
<path d="M27.4584 57.0918H25.6323V55.2573H27.4584V57.0918Z" fill="#00B590"/>
<path d="M29.2842 57.0918H27.4581V55.2573H29.2842V57.0918Z" fill="#00B590"/>
<path d="M31.1327 57.0918H29.2843V55.2573H31.1327V57.0918Z" fill="#00B590"/>
<path d="M33.0032 57.0918H31.1326V55.2573H33.0032V57.0918Z" fill="#00B590"/>
<path d="M34.8294 57.0918H33.0033V55.2573H34.8294V57.0918Z" fill="black"/>
<path d="M36.6554 57.0918H34.8293V55.2573H36.6554V57.0918Z" fill="black"/>
<path d="M18.3277 58.9486H16.5016V57.0918H18.3277V58.9486Z" fill="black"/>
<path d="M20.1538 58.9486H18.3277V57.0918H20.1538V58.9486Z" fill="#81DEAD"/>
<path d="M22.0023 58.9486H20.1539V57.0918H22.0023V58.9486Z" fill="#81DEAD"/>
<path d="M23.8283 58.9486H22.0022V57.0918H23.8283V58.9486Z" fill="#81DEAD"/>
<path d="M25.6321 58.9486H23.7838V57.0918H25.6321V58.9486Z" fill="#00B590"/>
<path d="M27.4584 58.9486H25.6323V57.0918H27.4584V58.9486Z" fill="#00B590"/>
<path d="M29.2842 58.9486H27.4581V57.0918H29.2842V58.9486Z" fill="#00B590"/>
<path d="M31.1327 58.9486H29.2843V57.0918H31.1327V58.9486Z" fill="black"/>
<path d="M33.0032 58.9486H31.1326V57.0918H33.0032V58.9486Z" fill="black"/>
<path d="M34.8294 58.9486H33.0033V57.0918H34.8294V58.9486Z" fill="black"/>
<path d="M16.5015 60.7829H14.6531V58.9485H16.5015V60.7829Z" fill="black"/>
<path d="M18.3277 60.7829H16.5016V58.9485H18.3277V60.7829Z" fill="black"/>
<path d="M20.1538 60.7829H18.3277V58.9485H20.1538V60.7829Z" fill="#81DEAD"/>
<path d="M22.0023 60.7829H20.1539V58.9485H22.0023V60.7829Z" fill="#81DEAD"/>
<path d="M23.8283 60.7829H22.0022V58.9485H23.8283V60.7829Z" fill="#00B590"/>
<path d="M25.6545 60.7829H23.8284V58.9485H25.6545V60.7829Z" fill="#00B590"/>
<path d="M27.4584 60.7829H25.6323V58.9485H27.4584V60.7829Z" fill="#00B590"/>
<path d="M29.2842 60.7829H27.4581V58.9485H29.2842V60.7829Z" fill="black"/>
<path d="M31.1327 60.7829H29.2843V58.9485H31.1327V60.7829Z" fill="black"/>
<path d="M16.5015 62.6174H14.6531V60.783H16.5015V62.6174Z" fill="black"/>
<path d="M18.3277 62.6174H16.5016V60.783H18.3277V62.6174Z" fill="#81DEAD"/>
<path d="M20.1538 62.6174H18.3277V60.783H20.1538V62.6174Z" fill="#81DEAD"/>
<path d="M22.0023 62.6174H20.1539V60.783H22.0023V62.6174Z" fill="#00B590"/>
<path d="M23.8283 62.6174H22.0022V60.783H23.8283V62.6174Z" fill="#00B590"/>
<path d="M25.6545 62.6174H23.8284V60.783H25.6545V62.6174Z" fill="black"/>
<path d="M27.4584 62.6174H25.6323V60.783H27.4584V62.6174Z" fill="black"/>
<path d="M29.2842 62.6174H27.4581V60.783H29.2842V62.6174Z" fill="black"/>
<path d="M16.5015 64.4743H14.6531V62.6174H16.5015V64.4743Z" fill="black"/>
<path d="M18.3277 64.4743H16.5016V62.6174H18.3277V64.4743Z" fill="#81DEAD"/>
<path d="M20.1538 64.4743H18.3277V62.6174H20.1538V64.4743Z" fill="#00B590"/>
<path d="M22.0023 64.4743H20.1539V62.6174H22.0023V64.4743Z" fill="#00B590"/>
<path d="M23.8283 64.4743H22.0022V62.6174H23.8283V64.4743Z" fill="black"/>
<path d="M25.6321 64.4743H23.7838V62.6174H25.6321V64.4743Z" fill="black"/>
<path d="M14.6532 66.3088H12.8271V64.4744H14.6532V66.3088Z" fill="black"/>
<path d="M16.5015 66.3088H14.6531V64.4744H16.5015V66.3088Z" fill="black"/>
<path d="M18.3277 66.3088H16.5016V64.4744H18.3277V66.3088Z" fill="#00B590"/>
<path d="M20.1538 66.3088H18.3277V64.4744H20.1538V66.3088Z" fill="#00B590"/>
<path d="M22.0023 66.3088H20.1539V64.4744H22.0023V66.3088Z" fill="black"/>
<path d="M23.8283 66.3088H22.0022V64.4744H23.8283V66.3088Z" fill="black"/>
<path d="M14.6532 68.143H12.8271V66.3086H14.6532V68.143Z" fill="black"/>
<path d="M16.5015 68.143H14.6531V66.3086H16.5015V68.143Z" fill="#00B590"/>
<path d="M18.3277 68.143H16.5016V66.3086H18.3277V68.143Z" fill="black"/>
<path d="M20.1538 68.143H18.3277V66.3086H20.1538V68.143Z" fill="black"/>
<path d="M22.0023 68.143H20.1539V66.3086H22.0023V68.143Z" fill="black"/>
<path d="M14.6532 69.9999H12.8271V68.1431H14.6532V69.9999Z" fill="black"/>
<path d="M16.5015 69.9999H14.6531V68.1431H16.5015V69.9999Z" fill="black"/>
<path d="M18.3277 69.9999H16.5016V68.1431H18.3277V69.9999Z" fill="black"/>
<path d="M36.6555 1.85683H38.5038V0H36.6555V1.85683Z" fill="black"/>
<path d="M38.504 3.69162H40.3301V1.85718H38.504V3.69162Z" fill="black"/>
<path d="M36.6555 3.69162H38.5038V1.85718H36.6555V3.69162Z" fill="black"/>
<path d="M38.504 5.52561H40.3301V3.69116H38.504V5.52561Z" fill="black"/>
<path d="M36.6555 5.52561H38.5038V3.69116H36.6555V5.52561Z" fill="#81DEAD"/>
<path d="M38.504 7.38245H40.3301V5.52563H38.504V7.38245Z" fill="black"/>
<path d="M36.6555 7.38245H38.5038V5.52563H36.6555V7.38245Z" fill="#81DEAD"/>
<path d="M40.3299 9.21727H42.156V7.38281H40.3299V9.21727Z" fill="black"/>
<path d="M38.504 9.21727H40.3301V7.38281H38.504V9.21727Z" fill="black"/>
<path d="M36.6555 9.21727H38.5038V7.38281H36.6555V9.21727Z" fill="#81DEAD"/>
<path d="M40.3299 11.0515H42.156V9.21704H40.3299V11.0515Z" fill="black"/>
<path d="M38.504 11.0515H40.3301V9.21704H38.504V11.0515Z" fill="#81DEAD"/>
<path d="M36.6555 11.0515H38.5038V9.21704H36.6555V11.0515Z" fill="#81DEAD"/>
<path d="M40.3299 12.886H42.156V11.0515H40.3299V12.886Z" fill="black"/>
<path d="M38.504 12.886H40.3301V11.0515H38.504V12.886Z" fill="#81DEAD"/>
<path d="M36.6555 12.886H38.5038V11.0515H36.6555V12.886Z" fill="#81DEAD"/>
<path d="M42.1559 14.7428H44.0043V12.886H42.1559V14.7428Z" fill="black"/>
<path d="M40.3299 14.7428H42.156V12.886H40.3299V14.7428Z" fill="black"/>
<path d="M38.504 14.7428H40.3301V12.886H38.504V14.7428Z" fill="#81DEAD"/>
<path d="M36.6555 14.7428H38.5038V12.886H36.6555V14.7428Z" fill="#81DEAD"/>
<path d="M42.1559 16.5774H44.0043V14.7429H42.1559V16.5774Z" fill="black"/>
<path d="M40.3299 16.5774H42.156V14.7429H40.3299V16.5774Z" fill="#81DEAD"/>
<path d="M38.504 16.5774H40.3301V14.7429H38.504V16.5774Z" fill="#81DEAD"/>
<path d="M36.6555 16.5774H38.5038V14.7429H36.6555V16.5774Z" fill="#81DEAD"/>
<path d="M42.1559 18.4116H44.0043V16.5771H42.1559V18.4116Z" fill="black"/>
<path d="M40.3299 18.4116H42.156V16.5771H40.3299V18.4116Z" fill="#81DEAD"/>
<path d="M38.504 18.4116H40.3301V16.5771H38.504V18.4116Z" fill="#81DEAD"/>
<path d="M36.6555 18.4116H38.5038V16.5771H36.6555V18.4116Z" fill="#81DEAD"/>
<path d="M44.0046 20.2684H45.8307V18.4116H44.0046V20.2684Z" fill="black"/>
<path d="M42.1559 20.2684H44.0043V18.4116H42.1559V20.2684Z" fill="black"/>
<path d="M40.3299 20.2684H42.156V18.4116H40.3299V20.2684Z" fill="#81DEAD"/>
<path d="M38.504 20.2684H40.3301V18.4116H38.504V20.2684Z" fill="#81DEAD"/>
<path d="M36.6555 20.2684H38.5038V18.4116H36.6555V20.2684Z" fill="#81DEAD"/>
<path d="M44.0046 22.103H45.8307V20.2686H44.0046V22.103Z" fill="black"/>
<path d="M42.1559 22.103H44.0043V20.2686H42.1559V22.103Z" fill="#81DEAD"/>
<path d="M40.3299 22.103H42.156V20.2686H40.3299V22.103Z" fill="#81DEAD"/>
<path d="M38.504 22.103H40.3301V20.2686H38.504V22.103Z" fill="#81DEAD"/>
<path d="M36.6555 22.103H38.5038V20.2686H36.6555V22.103Z" fill="#CFF1DF"/>
<path d="M44.0046 23.9372H45.8307V22.1028H44.0046V23.9372Z" fill="black"/>
<path d="M42.1559 23.9372H44.0043V22.1028H42.1559V23.9372Z" fill="#81DEAD"/>
<path d="M40.3299 23.9372H42.156V22.1028H40.3299V23.9372Z" fill="#81DEAD"/>
<path d="M38.504 23.9372H40.3301V22.1028H38.504V23.9372Z" fill="#81DEAD"/>
<path d="M36.6555 23.9372H38.5038V22.1028H36.6555V23.9372Z" fill="#CFF1DF"/>
<path d="M44.0046 25.7941H45.8307V23.9373H44.0046V25.7941Z" fill="black"/>
<path d="M42.1559 25.7941H44.0043V23.9373H42.1559V25.7941Z" fill="#81DEAD"/>
<path d="M40.3299 25.7941H42.156V23.9373H40.3299V25.7941Z" fill="#81DEAD"/>
<path d="M38.504 25.7941H40.3301V23.9373H38.504V25.7941Z" fill="#81DEAD"/>
<path d="M36.6555 25.7941H38.5038V23.9373H36.6555V25.7941Z" fill="#CFF1DF"/>
<path d="M71.5071 27.6286H73.3332V25.7942H71.5071V27.6286Z" fill="black"/>
<path d="M69.6588 27.6286H71.5072V25.7942H69.6588V27.6286Z" fill="black"/>
<path d="M67.8326 27.6286H69.6587V25.7942H67.8326V27.6286Z" fill="black"/>
<path d="M66.0065 27.6286H67.8326V25.7942H66.0065V27.6286Z" fill="black"/>
<path d="M64.1582 27.6286H66.0066V25.7942H64.1582V27.6286Z" fill="black"/>
<path d="M62.3322 27.6286H64.1583V25.7942H62.3322V27.6286Z" fill="black"/>
<path d="M60.506 27.6286H62.3321V25.7942H60.506V27.6286Z" fill="black"/>
<path d="M58.6578 27.6286H60.5062V25.7942H58.6578V27.6286Z" fill="black"/>
<path d="M56.8318 27.6286H58.6579V25.7942H56.8318V27.6286Z" fill="black"/>
<path d="M55.0056 27.6286H56.8317V25.7942H55.0056V27.6286Z" fill="black"/>
<path d="M53.1573 27.6286H55.0057V25.7942H53.1573V27.6286Z" fill="black"/>
<path d="M51.3311 27.6286H53.1571V25.7942H51.3311V27.6286Z" fill="black"/>
<path d="M49.5049 27.6286H51.331V25.7942H49.5049V27.6286Z" fill="black"/>
<path d="M47.6565 27.6286H49.5049V25.7942H47.6565V27.6286Z" fill="black"/>
<path d="M45.8304 27.6286H47.6565V25.7942H45.8304V27.6286Z" fill="black"/>
<path d="M44.0046 27.6286H45.8307V25.7942H44.0046V27.6286Z" fill="black"/>
<path d="M42.1559 27.6286H44.0043V25.7942H42.1559V27.6286Z" fill="#81DEAD"/>
<path d="M40.3299 27.6286H42.156V25.7942H40.3299V27.6286Z" fill="#81DEAD"/>
<path d="M38.504 27.6286H40.3301V25.7942H38.504V27.6286Z" fill="#CFF1DF"/>
<path d="M36.6555 27.6286H38.5038V25.7942H36.6555V27.6286Z" fill="#CFF1DF"/>
<path d="M71.5071 29.4631H73.3332V27.6287H71.5071V29.4631Z" fill="black"/>
<path d="M69.6588 29.4631H71.5072V27.6287H69.6588V29.4631Z" fill="black"/>
<path d="M67.8326 29.4631H69.6587V27.6287H67.8326V29.4631Z" fill="#81DEAD"/>
<path d="M66.0065 29.4631H67.8326V27.6287H66.0065V29.4631Z" fill="#00B590"/>
<path d="M64.1582 29.4631H66.0066V27.6287H64.1582V29.4631Z" fill="#00B590"/>
<path d="M62.3322 29.4631H64.1583V27.6287H62.3322V29.4631Z" fill="#00B590"/>
<path d="M60.506 29.4631H62.3321V27.6287H60.506V29.4631Z" fill="#00B590"/>
<path d="M58.6578 29.4631H60.5062V27.6287H58.6578V29.4631Z" fill="#00B590"/>
<path d="M56.8318 29.4631H58.6579V27.6287H56.8318V29.4631Z" fill="#00B590"/>
<path d="M55.0056 29.4631H56.8317V27.6287H55.0056V29.4631Z" fill="#00B590"/>
<path d="M53.1573 29.4631H55.0057V27.6287H53.1573V29.4631Z" fill="#00B590"/>
<path d="M51.3311 29.4631H53.1571V27.6287H51.3311V29.4631Z" fill="#00B590"/>
<path d="M49.5049 29.4631H51.331V27.6287H49.5049V29.4631Z" fill="#00B590"/>
<path d="M47.6565 29.4631H49.5049V27.6287H47.6565V29.4631Z" fill="#00B590"/>
<path d="M45.8304 29.4631H47.6565V27.6287H45.8304V29.4631Z" fill="#00B590"/>
<path d="M44.0046 29.4631H45.8307V27.6287H44.0046V29.4631Z" fill="#00B590"/>
<path d="M42.1559 29.4631H44.0043V27.6287H42.1559V29.4631Z" fill="#81DEAD"/>
<path d="M40.3299 29.4631H42.156V27.6287H40.3299V29.4631Z" fill="#81DEAD"/>
<path d="M38.504 29.4631H40.3301V27.6287H38.504V29.4631Z" fill="#CFF1DF"/>
<path d="M36.6555 29.4631H38.5038V27.6287H36.6555V29.4631Z" fill="#CFF1DF"/>
<path d="M69.6588 31.32H71.5072V29.4631H69.6588V31.32Z" fill="black"/>
<path d="M67.8326 31.32H69.6587V29.4631H67.8326V31.32Z" fill="black"/>
<path d="M66.0065 31.32H67.8326V29.4631H66.0065V31.32Z" fill="#81DEAD"/>
<path d="M64.1582 31.32H66.0066V29.4631H64.1582V31.32Z" fill="#81DEAD"/>
<path d="M62.3322 31.32H64.1583V29.4631H62.3322V31.32Z" fill="#81DEAD"/>
<path d="M60.506 31.32H62.3321V29.4631H60.506V31.32Z" fill="#00B590"/>
<path d="M58.6578 31.32H60.5062V29.4631H58.6578V31.32Z" fill="#00B590"/>
<path d="M56.8318 31.32H58.6579V29.4631H56.8318V31.32Z" fill="#00B590"/>
<path d="M55.0056 31.32H56.8317V29.4631H55.0056V31.32Z" fill="#00B590"/>
<path d="M53.1573 31.32H55.0057V29.4631H53.1573V31.32Z" fill="#00B590"/>
<path d="M51.3311 31.32H53.1571V29.4631H51.3311V31.32Z" fill="#00B590"/>
<path d="M49.5049 31.32H51.331V29.4631H49.5049V31.32Z" fill="#00B590"/>
<path d="M47.6565 31.32H49.5049V29.4631H47.6565V31.32Z" fill="#00B590"/>
<path d="M45.8304 31.32H47.6565V29.4631H45.8304V31.32Z" fill="#00B590"/>
<path d="M44.0046 31.32H45.8307V29.4631H44.0046V31.32Z" fill="#00B590"/>
<path d="M42.1559 31.32H44.0043V29.4631H42.1559V31.32Z" fill="#00B590"/>
<path d="M40.3299 31.32H42.156V29.4631H40.3299V31.32Z" fill="#81DEAD"/>
<path d="M38.504 31.32H40.3301V29.4631H38.504V31.32Z" fill="#CFF1DF"/>
<path d="M36.6555 31.32H38.5038V29.4631H36.6555V31.32Z" fill="#CFF1DF"/>
<path d="M67.8326 33.1545H69.6587V31.3201H67.8326V33.1545Z" fill="black"/>
<path d="M66.0065 33.1545H67.8326V31.3201H66.0065V33.1545Z" fill="black"/>
<path d="M64.1582 33.1545H66.0066V31.3201H64.1582V33.1545Z" fill="black"/>
<path d="M62.3322 33.1545H64.1583V31.3201H62.3322V33.1545Z" fill="#81DEAD"/>
<path d="M60.506 33.1545H62.3321V31.3201H60.506V33.1545Z" fill="#81DEAD"/>
<path d="M58.6578 33.1545H60.5062V31.3201H58.6578V33.1545Z" fill="#81DEAD"/>
<path d="M56.8318 33.1545H58.6579V31.3201H56.8318V33.1545Z" fill="#00B590"/>
<path d="M55.0056 33.1545H56.8317V31.3201H55.0056V33.1545Z" fill="#00B590"/>
<path d="M53.1573 33.1545H55.0057V31.3201H53.1573V33.1545Z" fill="#00B590"/>
<path d="M51.3311 33.1545H53.1571V31.3201H51.3311V33.1545Z" fill="#00B590"/>
<path d="M49.5049 33.1545H51.331V31.3201H49.5049V33.1545Z" fill="#00B590"/>
<path d="M47.6565 33.1545H49.5049V31.3201H47.6565V33.1545Z" fill="#00B590"/>
<path d="M45.8304 33.1545H47.6565V31.3201H45.8304V33.1545Z" fill="#00B590"/>
<path d="M44.0046 33.1545H45.8307V31.3201H44.0046V33.1545Z" fill="#00B590"/>
<path d="M42.1559 33.1545H44.0043V31.3201H42.1559V33.1545Z" fill="#00B590"/>
<path d="M40.3299 33.1545H42.156V31.3201H40.3299V33.1545Z" fill="#CFF1DF"/>
<path d="M38.504 33.1545H40.3301V31.3201H38.504V33.1545Z" fill="#CFF1DF"/>
<path d="M36.6555 33.1545H38.5038V31.3201H36.6555V33.1545Z" fill="#CFF1DF"/>
<path d="M66.0065 34.9885H67.8326V33.1541H66.0065V34.9885Z" fill="black"/>
<path d="M64.1582 34.9885H66.0066V33.1541H64.1582V34.9885Z" fill="black"/>
<path d="M62.3322 34.9885H64.1583V33.1541H62.3322V34.9885Z" fill="black"/>
<path d="M60.506 34.9885H62.3321V33.1541H60.506V34.9885Z" fill="#81DEAD"/>
<path d="M58.6578 34.9885H60.5062V33.1541H58.6578V34.9885Z" fill="#81DEAD"/>
<path d="M56.8318 34.9885H58.6579V33.1541H56.8318V34.9885Z" fill="#81DEAD"/>
<path d="M55.0056 34.9885H56.8317V33.1541H55.0056V34.9885Z" fill="#81DEAD"/>
<path d="M53.1573 34.9885H55.0057V33.1541H53.1573V34.9885Z" fill="#81DEAD"/>
<path d="M51.3311 34.9885H53.1571V33.1541H51.3311V34.9885Z" fill="#CFF1DF"/>
<path d="M49.5049 34.9885H51.331V33.1541H49.5049V34.9885Z" fill="#CFF1DF"/>
<path d="M47.6565 34.9885H49.5049V33.1541H47.6565V34.9885Z" fill="#CFF1DF"/>
<path d="M45.8304 34.9885H47.6565V33.1541H45.8304V34.9885Z" fill="#CFF1DF"/>
<path d="M44.0046 34.9885H45.8307V33.1541H44.0046V34.9885Z" fill="#CFF1DF"/>
<path d="M42.1559 34.9885H44.0043V33.1541H42.1559V34.9885Z" fill="#CFF1DF"/>
<path d="M40.3299 34.9885H42.156V33.1541H40.3299V34.9885Z" fill="#CFF1DF"/>
<path d="M38.504 34.9885H40.3301V33.1541H38.504V34.9885Z" fill="#CFF1DF"/>
<path d="M36.6555 34.9885H38.5038V33.1541H36.6555V34.9885Z" fill="#CFF1DF"/>
<path d="M62.3322 36.8453H64.1583V34.9885H62.3322V36.8453Z" fill="black"/>
<path d="M60.506 36.8453H62.3321V34.9885H60.506V36.8453Z" fill="black"/>
<path d="M58.6578 36.8453H60.5062V34.9885H58.6578V36.8453Z" fill="#81DEAD"/>
<path d="M56.8318 36.8453H58.6579V34.9885H56.8318V36.8453Z" fill="#81DEAD"/>
<path d="M55.0056 36.8453H56.8317V34.9885H55.0056V36.8453Z" fill="#81DEAD"/>
<path d="M53.1573 36.8453H55.0057V34.9885H53.1573V36.8453Z" fill="#81DEAD"/>
<path d="M51.3311 36.8453H53.1571V34.9885H51.3311V36.8453Z" fill="#81DEAD"/>
<path d="M49.5049 36.8453H51.331V34.9885H49.5049V36.8453Z" fill="#CFF1DF"/>
<path d="M47.6565 36.8453H49.5049V34.9885H47.6565V36.8453Z" fill="#CFF1DF"/>
<path d="M45.8304 36.8453H47.6565V34.9885H45.8304V36.8453Z" fill="#CFF1DF"/>
<path d="M44.0046 36.8453H45.8307V34.9885H44.0046V36.8453Z" fill="#CFF1DF"/>
<path d="M42.1559 36.8453H44.0043V34.9885H42.1559V36.8453Z" fill="#CFF1DF"/>
<path d="M40.3299 36.8453H42.156V34.9885H40.3299V36.8453Z" fill="#CFF1DF"/>
<path d="M38.504 36.8453H40.3301V34.9885H38.504V36.8453Z" fill="#CFF1DF"/>
<path d="M36.6555 36.8453H38.5038V34.9885H36.6555V36.8453Z" fill="#CFF1DF"/>
<path d="M60.506 38.6802H62.3321V36.8457H60.506V38.6802Z" fill="black"/>
<path d="M58.6578 38.6802H60.5062V36.8457H58.6578V38.6802Z" fill="black"/>
<path d="M56.8318 38.6802H58.6579V36.8457H56.8318V38.6802Z" fill="#81DEAD"/>
<path d="M55.0056 38.6802H56.8317V36.8457H55.0056V38.6802Z" fill="#81DEAD"/>
<path d="M53.1573 38.6802H55.0057V36.8457H53.1573V38.6802Z" fill="#81DEAD"/>
<path d="M51.3311 38.6802H53.1571V36.8457H51.3311V38.6802Z" fill="#81DEAD"/>
<path d="M49.5049 38.6802H51.331V36.8457H49.5049V38.6802Z" fill="#81DEAD"/>
<path d="M47.6565 38.6802H49.5049V36.8457H47.6565V38.6802Z" fill="#CFF1DF"/>
<path d="M45.8304 38.6802H47.6565V36.8457H45.8304V38.6802Z" fill="#CFF1DF"/>
<path d="M44.0046 38.6802H45.8307V36.8457H44.0046V38.6802Z" fill="#CFF1DF"/>
<path d="M42.1559 38.6802H44.0043V36.8457H42.1559V38.6802Z" fill="#CFF1DF"/>
<path d="M40.3299 38.6802H42.156V36.8457H40.3299V38.6802Z" fill="#CFF1DF"/>
<path d="M38.504 38.6802H40.3301V36.8457H38.504V38.6802Z" fill="#CFF1DF"/>
<path d="M36.6555 38.6802H38.5038V36.8457H36.6555V38.6802Z" fill="#CFF1DF"/>
<path d="M58.6578 40.5146H60.5062V38.6802H58.6578V40.5146Z" fill="black"/>
<path d="M56.8318 40.5146H58.6579V38.6802H56.8318V40.5146Z" fill="black"/>
<path d="M55.0056 40.5146H56.8317V38.6802H55.0056V40.5146Z" fill="black"/>
<path d="M53.1573 40.5146H55.0057V38.6802H53.1573V40.5146Z" fill="#81DEAD"/>
<path d="M51.3311 40.5146H53.1571V38.6802H51.3311V40.5146Z" fill="#81DEAD"/>
<path d="M49.5049 40.5146H51.331V38.6802H49.5049V40.5146Z" fill="#81DEAD"/>
<path d="M47.6565 40.5146H49.5049V38.6802H47.6565V40.5146Z" fill="#81DEAD"/>
<path d="M45.8304 40.5146H47.6565V38.6802H45.8304V40.5146Z" fill="#CFF1DF"/>
<path d="M44.0046 40.5146H45.8307V38.6802H44.0046V40.5146Z" fill="#CFF1DF"/>
<path d="M42.1559 40.5146H44.0043V38.6802H42.1559V40.5146Z" fill="#CFF1DF"/>
<path d="M40.3299 40.5146H42.156V38.6802H40.3299V40.5146Z" fill="#CFF1DF"/>
<path d="M38.504 40.5146H40.3301V38.6802H38.504V40.5146Z" fill="#CFF1DF"/>
<path d="M36.6555 40.5146H38.5038V38.6802H36.6555V40.5146Z" fill="#CFF1DF"/>
<path d="M55.0056 42.3715H56.8317V40.5146H55.0056V42.3715Z" fill="black"/>
<path d="M53.1573 42.3715H55.0057V40.5146H53.1573V42.3715Z" fill="black"/>
<path d="M51.3311 42.3715H53.1571V40.5146H51.3311V42.3715Z" fill="#81DEAD"/>
<path d="M49.5049 42.3715H51.331V40.5146H49.5049V42.3715Z" fill="#81DEAD"/>
<path d="M47.6565 42.3715H49.5049V40.5146H47.6565V42.3715Z" fill="#81DEAD"/>
<path d="M45.8304 42.3715H47.6565V40.5146H45.8304V42.3715Z" fill="#81DEAD"/>
<path d="M44.0046 42.3715H45.8307V40.5146H44.0046V42.3715Z" fill="#81DEAD"/>
<path d="M42.1559 42.3715H44.0043V40.5146H42.1559V42.3715Z" fill="#CFF1DF"/>
<path d="M40.3299 42.3715H42.156V40.5146H40.3299V42.3715Z" fill="#CFF1DF"/>
<path d="M38.504 42.3715H40.3301V40.5146H38.504V42.3715Z" fill="#CFF1DF"/>
<path d="M36.6555 42.3715H38.5038V40.5146H36.6555V42.3715Z" fill="#CFF1DF"/>
<path d="M53.1573 44.2058H55.0057V42.3713H53.1573V44.2058Z" fill="black"/>
<path d="M51.3311 44.2058H53.1571V42.3713H51.3311V44.2058Z" fill="black"/>
<path d="M49.5049 44.2058H51.331V42.3713H49.5049V44.2058Z" fill="#81DEAD"/>
<path d="M47.6565 44.2058H49.5049V42.3713H47.6565V44.2058Z" fill="#81DEAD"/>
<path d="M45.8304 44.2058H47.6565V42.3713H45.8304V44.2058Z" fill="#81DEAD"/>
<path d="M44.0046 44.2058H45.8307V42.3713H44.0046V44.2058Z" fill="#81DEAD"/>
<path d="M42.1559 44.2058H44.0043V42.3713H42.1559V44.2058Z" fill="#CFF1DF"/>
<path d="M40.3299 44.2058H42.156V42.3713H40.3299V44.2058Z" fill="#CFF1DF"/>
<path d="M38.504 44.2058H40.3301V42.3713H38.504V44.2058Z" fill="#CFF1DF"/>
<path d="M36.6555 44.2058H38.5038V42.3713H36.6555V44.2058Z" fill="#CFF1DF"/>
<path d="M51.3311 46.0403H53.1571V44.2058H51.3311V46.0403Z" fill="black"/>
<path d="M49.5049 46.0403H51.331V44.2058H49.5049V46.0403Z" fill="black"/>
<path d="M47.6565 46.0403H49.5049V44.2058H47.6565V46.0403Z" fill="#81DEAD"/>
<path d="M45.8304 46.0403H47.6565V44.2058H45.8304V46.0403Z" fill="#00B590"/>
<path d="M44.0046 46.0403H45.8307V44.2058H44.0046V46.0403Z" fill="#CFF1DF"/>
<path d="M42.1559 46.0403H44.0043V44.2058H42.1559V46.0403Z" fill="#CFF1DF"/>
<path d="M40.3299 46.0403H42.156V44.2058H40.3299V46.0403Z" fill="#CFF1DF"/>
<path d="M38.504 46.0403H40.3301V44.2058H38.504V46.0403Z" fill="#CFF1DF"/>
<path d="M36.6555 46.0403H38.5038V44.2058H36.6555V46.0403Z" fill="#CFF1DF"/>
<path d="M51.3311 47.8969H53.1571V46.04H51.3311V47.8969Z" fill="black"/>
<path d="M49.5049 47.8969H51.331V46.04H49.5049V47.8969Z" fill="#00B590"/>
<path d="M47.6565 47.8969H49.5049V46.04H47.6565V47.8969Z" fill="#00B590"/>
<path d="M45.8304 47.8969H47.6565V46.04H45.8304V47.8969Z" fill="#00B590"/>
<path d="M44.0046 47.8969H45.8307V46.04H44.0046V47.8969Z" fill="#CFF1DF"/>
<path d="M42.1559 47.8969H44.0043V46.04H42.1559V47.8969Z" fill="#CFF1DF"/>
<path d="M40.3299 47.8969H42.156V46.04H40.3299V47.8969Z" fill="#CFF1DF"/>
<path d="M38.504 47.8969H40.3301V46.04H38.504V47.8969Z" fill="#CFF1DF"/>
<path d="M36.6555 47.8969H38.5038V46.04H36.6555V47.8969Z" fill="#CFF1DF"/>
<path d="M53.1573 49.7317H55.0057V47.8972H53.1573V49.7317Z" fill="black"/>
<path d="M51.3311 49.7317H53.1571V47.8972H51.3311V49.7317Z" fill="black"/>
<path d="M49.5049 49.7317H51.331V47.8972H49.5049V49.7317Z" fill="#00B590"/>
<path d="M47.6565 49.7317H49.5049V47.8972H47.6565V49.7317Z" fill="#00B590"/>
<path d="M45.8304 49.7317H47.6565V47.8972H45.8304V49.7317Z" fill="#00B590"/>
<path d="M44.0046 49.7317H45.8307V47.8972H44.0046V49.7317Z" fill="#CFF1DF"/>
<path d="M42.2007 49.7317H44.0268V47.8972H42.2007V49.7317Z" fill="#CFF1DF"/>
<path d="M40.3299 49.7317H42.2005V47.8972H40.3299V49.7317Z" fill="#CFF1DF"/>
<path d="M38.504 49.7317H40.3301V47.8972H38.504V49.7317Z" fill="#CFF1DF"/>
<path d="M36.6555 49.7317H38.5038V47.8972H36.6555V49.7317Z" fill="#81DEAD"/>
<path d="M53.1573 51.5661H55.0057V49.7317H53.1573V51.5661Z" fill="black"/>
<path d="M51.3311 51.5661H53.1571V49.7317H51.3311V51.5661Z" fill="#00B590"/>
<path d="M49.5049 51.5661H51.331V49.7317H49.5049V51.5661Z" fill="#00B590"/>
<path d="M47.6565 51.5661H49.5049V49.7317H47.6565V51.5661Z" fill="#00B590"/>
<path d="M45.8304 51.5661H47.6565V49.7317H45.8304V51.5661Z" fill="#CFF1DF"/>
<path d="M44.0046 51.5661H45.8307V49.7317H44.0046V51.5661Z" fill="#CFF1DF"/>
<path d="M42.2007 51.5661H44.0268V49.7317H42.2007V51.5661Z" fill="#CFF1DF"/>
<path d="M40.3299 51.5661H42.2005V49.7317H40.3299V51.5661Z" fill="#81DEAD"/>
<path d="M38.504 51.5661H40.3301V49.7317H38.504V51.5661Z" fill="#81DEAD"/>
<path d="M36.6555 51.5661H38.5038V49.7317H36.6555V51.5661Z" fill="#81DEAD"/>
<path d="M53.1573 53.4228H55.0057V51.5659H53.1573V53.4228Z" fill="black"/>
<path d="M51.3311 53.4228H53.1571V51.5659H51.3311V53.4228Z" fill="#00B590"/>
<path d="M49.5049 53.4228H51.331V51.5659H49.5049V53.4228Z" fill="#00B590"/>
<path d="M47.6565 53.4228H49.5049V51.5659H47.6565V53.4228Z" fill="#00B590"/>
<path d="M45.8304 53.4228H47.6565V51.5659H45.8304V53.4228Z" fill="#CFF1DF"/>
<path d="M44.0046 53.4228H45.8307V51.5659H44.0046V53.4228Z" fill="#CFF1DF"/>
<path d="M42.2007 53.4228H44.0268V51.5659H42.2007V53.4228Z" fill="#81DEAD"/>
<path d="M40.3299 53.4228H42.2005V51.5659H40.3299V53.4228Z" fill="#81DEAD"/>
<path d="M38.504 53.4228H40.3301V51.5659H38.504V53.4228Z" fill="#81DEAD"/>
<path d="M36.6555 53.4228H38.5038V51.5659H36.6555V53.4228Z" fill="#81DEAD"/>
<path d="M55.0056 55.257H56.8317V53.4226H55.0056V55.257Z" fill="black"/>
<path d="M53.1573 55.257H55.0057V53.4226H53.1573V55.257Z" fill="black"/>
<path d="M51.3311 55.257H53.1571V53.4226H51.3311V55.257Z" fill="#00B590"/>
<path d="M49.5049 55.257H51.331V53.4226H49.5049V55.257Z" fill="#00B590"/>
<path d="M47.6565 55.257H49.5049V53.4226H47.6565V55.257Z" fill="#00B590"/>
<path d="M45.8304 55.257H47.6565V53.4226H45.8304V55.257Z" fill="#CFF1DF"/>
<path d="M44.0267 55.257H45.875V53.4226H44.0267V55.257Z" fill="#81DEAD"/>
<path d="M42.2007 55.257H44.0268V53.4226H42.2007V55.257Z" fill="#81DEAD"/>
<path d="M40.3299 55.257H42.2005V53.4226H40.3299V55.257Z" fill="#81DEAD"/>
<path d="M38.504 55.257H40.3301V53.4226H38.504V55.257Z" fill="#81DEAD"/>
<path d="M36.6555 55.257H38.5038V53.4226H36.6555V55.257Z" fill="black"/>
<path d="M55.0056 57.0918H56.8317V55.2573H55.0056V57.0918Z" fill="black"/>
<path d="M53.1573 57.0918H55.0057V55.2573H53.1573V57.0918Z" fill="black"/>
<path d="M51.3311 57.0918H53.1571V55.2573H51.3311V57.0918Z" fill="#00B590"/>
<path d="M49.5049 57.0918H51.331V55.2573H49.5049V57.0918Z" fill="#00B590"/>
<path d="M47.7012 57.0918H49.5273V55.2573H47.7012V57.0918Z" fill="#00B590"/>
<path d="M45.8751 57.0918H47.7012V55.2573H45.8751V57.0918Z" fill="#81DEAD"/>
<path d="M44.0267 57.0918H45.875V55.2573H44.0267V57.0918Z" fill="#81DEAD"/>
<path d="M42.2007 57.0918H44.0268V55.2573H42.2007V57.0918Z" fill="#81DEAD"/>
<path d="M40.3299 57.0918H42.2005V55.2573H40.3299V57.0918Z" fill="#81DEAD"/>
<path d="M38.504 57.0918H40.3301V55.2573H38.504V57.0918Z" fill="black"/>
<path d="M36.6555 57.0918H38.5038V55.2573H36.6555V57.0918Z" fill="black"/>
<path d="M55.0056 58.9486H56.8317V57.0918H55.0056V58.9486Z" fill="black"/>
<path d="M53.1573 58.9486H55.0057V57.0918H53.1573V58.9486Z" fill="#00B590"/>
<path d="M51.3311 58.9486H53.1571V57.0918H51.3311V58.9486Z" fill="#00B590"/>
<path d="M49.5049 58.9486H51.331V57.0918H49.5049V58.9486Z" fill="#81DEAD"/>
<path d="M47.7012 58.9486H49.5273V57.0918H47.7012V58.9486Z" fill="#81DEAD"/>
<path d="M45.8751 58.9486H47.7012V57.0918H45.8751V58.9486Z" fill="#81DEAD"/>
<path d="M44.0267 58.9486H45.875V57.0918H44.0267V58.9486Z" fill="#81DEAD"/>
<path d="M42.2007 58.9486H44.0268V57.0918H42.2007V58.9486Z" fill="black"/>
<path d="M40.3299 58.9486H42.2005V57.0918H40.3299V58.9486Z" fill="black"/>
<path d="M38.504 58.9486H40.3301V57.0918H38.504V58.9486Z" fill="black"/>
<path d="M56.8318 60.7829H58.6579V58.9485H56.8318V60.7829Z" fill="black"/>
<path d="M55.0056 60.7829H56.8317V58.9485H55.0056V60.7829Z" fill="black"/>
<path d="M53.1573 60.7829H55.0057V58.9485H53.1573V60.7829Z" fill="#00B590"/>
<path d="M51.3311 60.7829H53.1571V58.9485H51.3311V60.7829Z" fill="#00B590"/>
<path d="M49.5049 60.7829H51.331V58.9485H49.5049V60.7829Z" fill="#81DEAD"/>
<path d="M47.6565 60.7829H49.5049V58.9485H47.6565V60.7829Z" fill="#81DEAD"/>
<path d="M45.8751 60.7829H47.7012V58.9485H45.8751V60.7829Z" fill="#81DEAD"/>
<path d="M44.0267 60.7829H45.875V58.9485H44.0267V60.7829Z" fill="black"/>
<path d="M42.2007 60.7829H44.0268V58.9485H42.2007V60.7829Z" fill="black"/>
<path d="M56.8318 62.6174H58.6579V60.783H56.8318V62.6174Z" fill="black"/>
<path d="M55.0056 62.6174H56.8317V60.783H55.0056V62.6174Z" fill="#00B590"/>
<path d="M53.1573 62.6174H55.0057V60.783H53.1573V62.6174Z" fill="#00B590"/>
<path d="M51.3311 62.6174H53.1571V60.783H51.3311V62.6174Z" fill="#81DEAD"/>
<path d="M49.5049 62.6174H51.331V60.783H49.5049V62.6174Z" fill="#81DEAD"/>
<path d="M47.6565 62.6174H49.5049V60.783H47.6565V62.6174Z" fill="black"/>
<path d="M45.8751 62.6174H47.7012V60.783H45.8751V62.6174Z" fill="black"/>
<path d="M44.0267 62.6174H45.875V60.783H44.0267V62.6174Z" fill="black"/>
<path d="M56.8318 64.4743H58.6579V62.6174H56.8318V64.4743Z" fill="black"/>
<path d="M55.0056 64.4743H56.8317V62.6174H55.0056V64.4743Z" fill="#00B590"/>
<path d="M53.1573 64.4743H55.0057V62.6174H53.1573V64.4743Z" fill="#81DEAD"/>
<path d="M51.3311 64.4743H53.1571V62.6174H51.3311V64.4743Z" fill="#81DEAD"/>
<path d="M49.5049 64.4743H51.331V62.6174H49.5049V64.4743Z" fill="black"/>
<path d="M47.7012 64.4743H49.5273V62.6174H47.7012V64.4743Z" fill="black"/>
<path d="M58.6578 66.3088H60.5062V64.4744H58.6578V66.3088Z" fill="black"/>
<path d="M56.8318 66.3088H58.6579V64.4744H56.8318V66.3088Z" fill="black"/>
<path d="M55.0056 66.3088H56.8317V64.4744H55.0056V66.3088Z" fill="#81DEAD"/>
<path d="M53.1573 66.3088H55.0057V64.4744H53.1573V66.3088Z" fill="#81DEAD"/>
<path d="M51.3311 66.3088H53.1571V64.4744H51.3311V66.3088Z" fill="black"/>
<path d="M49.5049 66.3088H51.331V64.4744H49.5049V66.3088Z" fill="black"/>
<path d="M58.6578 68.143H60.5062V66.3086H58.6578V68.143Z" fill="black"/>
<path d="M56.8318 68.143H58.6579V66.3086H56.8318V68.143Z" fill="#00B590"/>
<path d="M55.0056 68.143H56.8317V66.3086H55.0056V68.143Z" fill="black"/>
<path d="M53.1573 68.143H55.0057V66.3086H53.1573V68.143Z" fill="black"/>
<path d="M51.3311 68.143H53.1571V66.3086H51.3311V68.143Z" fill="black"/>
<path d="M58.6578 69.9999H60.5062V68.1431H58.6578V69.9999Z" fill="black"/>
<path d="M56.8318 69.9999H58.6579V68.1431H56.8318V69.9999Z" fill="black"/>
<path d="M55.0056 69.9999H56.8317V68.1431H55.0056V69.9999Z" fill="black"/>
</svg>
