<svg width="74" height="70" viewBox="0 0 74 70" fill="none" xmlns="http://www.w3.org/2000/svg">
<path d="M36.6554 1.85683H34.8293V0H36.6554V1.85683Z" fill="black"/>
<path d="M34.8293 3.69162H33.0032V1.85718H34.8293V3.69162Z" fill="black"/>
<path d="M36.6554 3.69162H34.8293V1.85718H36.6554V3.69162Z" fill="black"/>
<path d="M34.8293 5.52561H33.0032V3.69116H34.8293V5.52561Z" fill="black"/>
<path d="M36.6554 5.52561H34.8293V3.69116H36.6554V5.52561Z" fill="#B74217"/>
<path d="M34.8293 7.38245H33.0032V5.52563H34.8293V7.38245Z" fill="black"/>
<path d="M36.6554 7.38245H34.8293V5.52563H36.6554V7.38245Z" fill="#B74217"/>
<path d="M33.0034 9.21727H31.155V7.38281H33.0034V9.21727Z" fill="black"/>
<path d="M34.8293 9.21727H33.0032V7.38281H34.8293V9.21727Z" fill="black"/>
<path d="M36.6554 9.21727H34.8293V7.38281H36.6554V9.21727Z" fill="#B74217"/>
<path d="M33.0034 11.0515H31.155V9.21704H33.0034V11.0515Z" fill="black"/>
<path d="M34.8293 11.0515H33.0032V9.21704H34.8293V11.0515Z" fill="#B74217"/>
<path d="M36.6554 11.0515H34.8293V9.21704H36.6554V11.0515Z" fill="#B74217"/>
<path d="M33.0034 12.886H31.155V11.0515H33.0034V12.886Z" fill="black"/>
<path d="M34.8293 12.886H33.0032V11.0515H34.8293V12.886Z" fill="#B74217"/>
<path d="M36.6554 12.886H34.8293V11.0515H36.6554V12.886Z" fill="#B74217"/>
<path d="M31.155 14.7428H29.3289V12.886H31.155V14.7428Z" fill="black"/>
<path d="M33.0034 14.7428H31.155V12.886H33.0034V14.7428Z" fill="black"/>
<path d="M34.8293 14.7428H33.0032V12.886H34.8293V14.7428Z" fill="#B74217"/>
<path d="M36.6554 14.7428H34.8293V12.886H36.6554V14.7428Z" fill="#B74217"/>
<path d="M31.155 16.5774H29.3289V14.7429H31.155V16.5774Z" fill="black"/>
<path d="M33.0034 16.5774H31.155V14.7429H33.0034V16.5774Z" fill="#B74217"/>
<path d="M34.8293 16.5774H33.0032V14.7429H34.8293V16.5774Z" fill="#B74217"/>
<path d="M36.6554 16.5774H34.8293V14.7429H36.6554V16.5774Z" fill="#B74217"/>
<path d="M31.155 18.4116H29.3289V16.5771H31.155V18.4116Z" fill="black"/>
<path d="M33.0034 18.4116H31.155V16.5771H33.0034V18.4116Z" fill="#B74217"/>
<path d="M34.8293 18.4116H33.0032V16.5771H34.8293V18.4116Z" fill="#B74217"/>
<path d="M36.6554 18.4116H34.8293V16.5771H36.6554V18.4116Z" fill="#B74217"/>
<path d="M29.3288 20.2684H27.5027V18.4116H29.3288V20.2684Z" fill="black"/>
<path d="M31.155 20.2684H29.3289V18.4116H31.155V20.2684Z" fill="black"/>
<path d="M33.0034 20.2684H31.155V18.4116H33.0034V20.2684Z" fill="#B74217"/>
<path d="M34.8293 20.2684H33.0032V18.4116H34.8293V20.2684Z" fill="#B74217"/>
<path d="M36.6554 20.2684H34.8293V18.4116H36.6554V20.2684Z" fill="#B74217"/>
<path d="M29.3288 22.103H27.5027V20.2686H29.3288V22.103Z" fill="black"/>
<path d="M31.155 22.103H29.3289V20.2686H31.155V22.103Z" fill="#B74217"/>
<path d="M33.0034 22.103H31.155V20.2686H33.0034V22.103Z" fill="#B74217"/>
<path d="M34.8293 22.103H33.0032V20.2686H34.8293V22.103Z" fill="#B74217"/>
<path d="M36.6554 22.103H34.8293V20.2686H36.6554V22.103Z" fill="#F9632C"/>
<path d="M29.3288 23.9372H27.5027V22.1028H29.3288V23.9372Z" fill="black"/>
<path d="M31.155 23.9372H29.3289V22.1028H31.155V23.9372Z" fill="#B74217"/>
<path d="M33.0034 23.9372H31.155V22.1028H33.0034V23.9372Z" fill="#B74217"/>
<path d="M34.8293 23.9372H33.0032V22.1028H34.8293V23.9372Z" fill="#B74217"/>
<path d="M36.6554 23.9372H34.8293V22.1028H36.6554V23.9372Z" fill="#F9632C"/>
<path d="M29.3288 25.7941H27.5027V23.9373H29.3288V25.7941Z" fill="black"/>
<path d="M31.155 25.7941H29.3289V23.9373H31.155V25.7941Z" fill="#B74217"/>
<path d="M33.0034 25.7941H31.155V23.9373H33.0034V25.7941Z" fill="#B74217"/>
<path d="M34.8293 25.7941H33.0032V23.9373H34.8293V25.7941Z" fill="#B74217"/>
<path d="M36.6554 25.7941H34.8293V23.9373H36.6554V25.7941Z" fill="#F9632C"/>
<path d="M1.8261 27.6286H0V25.7942H1.8261V27.6286Z" fill="black"/>
<path d="M3.65251 27.6286H1.82642V25.7942H3.65251V27.6286Z" fill="black"/>
<path d="M5.50047 27.6286H3.6521V25.7942H5.50047V27.6286Z" fill="black"/>
<path d="M7.32658 27.6286H5.50049V25.7942H7.32658V27.6286Z" fill="black"/>
<path d="M9.15276 27.6286H7.32666V25.7942H9.15276V27.6286Z" fill="black"/>
<path d="M11.0012 27.6286H9.15283V25.7942H11.0012V27.6286Z" fill="black"/>
<path d="M12.8271 27.6286H11.001V25.7942H12.8271V27.6286Z" fill="black"/>
<path d="M14.6532 27.6286H12.8271V25.7942H14.6532V27.6286Z" fill="black"/>
<path d="M16.5014 27.6286H14.6531V25.7942H16.5014V27.6286Z" fill="black"/>
<path d="M18.3276 27.6286H16.5015V25.7942H18.3276V27.6286Z" fill="black"/>
<path d="M20.1537 27.6286H18.3276V25.7942H20.1537V27.6286Z" fill="black"/>
<path d="M22.0024 27.6286H20.1541V25.7942H22.0024V27.6286Z" fill="black"/>
<path d="M23.8283 27.6286H22.0022V25.7942H23.8283V27.6286Z" fill="black"/>
<path d="M25.6545 27.6286H23.8284V25.7942H25.6545V27.6286Z" fill="black"/>
<path d="M27.5027 27.6286H25.6543V25.7942H27.5027V27.6286Z" fill="black"/>
<path d="M29.3288 27.6286H27.5027V25.7942H29.3288V27.6286Z" fill="black"/>
<path d="M31.155 27.6286H29.3289V25.7942H31.155V27.6286Z" fill="#B74217"/>
<path d="M33.0034 27.6286H31.155V25.7942H33.0034V27.6286Z" fill="#B74217"/>
<path d="M34.8293 27.6286H33.0032V25.7942H34.8293V27.6286Z" fill="#F9632C"/>
<path d="M36.6554 27.6286H34.8293V25.7942H36.6554V27.6286Z" fill="#F9632C"/>
<path d="M1.8261 29.4631H0V27.6287H1.8261V29.4631Z" fill="black"/>
<path d="M3.65251 29.4631H1.82642V27.6287H3.65251V29.4631Z" fill="black"/>
<path d="M5.50047 29.4631H3.6521V27.6287H5.50047V29.4631Z" fill="#F9632C"/>
<path d="M7.32658 29.4631H5.50049V27.6287H7.32658V29.4631Z" fill="#F9632C"/>
<path d="M9.15276 29.4631H7.32666V27.6287H9.15276V29.4631Z" fill="#F9632C"/>
<path d="M11.0012 29.4631H9.15283V27.6287H11.0012V29.4631Z" fill="#F9632C"/>
<path d="M12.8271 29.4631H11.001V27.6287H12.8271V29.4631Z" fill="#F9632C"/>
<path d="M14.6532 29.4631H12.8271V27.6287H14.6532V29.4631Z" fill="#F9632C"/>
<path d="M16.5014 29.4631H14.6531V27.6287H16.5014V29.4631Z" fill="#F9632C"/>
<path d="M18.3276 29.4631H16.5015V27.6287H18.3276V29.4631Z" fill="#F9632C"/>
<path d="M20.1537 29.4631H18.3276V27.6287H20.1537V29.4631Z" fill="#F9632C"/>
<path d="M22.0024 29.4631H20.1541V27.6287H22.0024V29.4631Z" fill="#F9632C"/>
<path d="M23.8283 29.4631H22.0022V27.6287H23.8283V29.4631Z" fill="#F9632C"/>
<path d="M25.6545 29.4631H23.8284V27.6287H25.6545V29.4631Z" fill="#F9632C"/>
<path d="M27.5027 29.4631H25.6543V27.6287H27.5027V29.4631Z" fill="#F9632C"/>
<path d="M29.3288 29.4631H27.5027V27.6287H29.3288V29.4631Z" fill="#F9632C"/>
<path d="M31.155 29.4631H29.3289V27.6287H31.155V29.4631Z" fill="#F9632C"/>
<path d="M33.0034 29.4631H31.155V27.6287H33.0034V29.4631Z" fill="#B74217"/>
<path d="M34.8293 29.4631H33.0032V27.6287H34.8293V29.4631Z" fill="#F9632C"/>
<path d="M36.6554 29.4631H34.8293V27.6287H36.6554V29.4631Z" fill="#F9632C"/>
<path d="M3.65251 31.32H1.82642V29.4631H3.65251V31.32Z" fill="black"/>
<path d="M5.50047 31.32H3.6521V29.4631H5.50047V31.32Z" fill="black"/>
<path d="M7.32658 31.32H5.50049V29.4631H7.32658V31.32Z" fill="#B74217"/>
<path d="M9.15276 31.32H7.32666V29.4631H9.15276V31.32Z" fill="#B74217"/>
<path d="M11.0012 31.32H9.15283V29.4631H11.0012V31.32Z" fill="#B74217"/>
<path d="M12.8271 31.32H11.001V29.4631H12.8271V31.32Z" fill="#F9632C"/>
<path d="M14.6532 31.32H12.8271V29.4631H14.6532V31.32Z" fill="#F9632C"/>
<path d="M16.5014 31.32H14.6531V29.4631H16.5014V31.32Z" fill="#F9632C"/>
<path d="M18.3276 31.32H16.5015V29.4631H18.3276V31.32Z" fill="#F9632C"/>
<path d="M20.1537 31.32H18.3276V29.4631H20.1537V31.32Z" fill="#F9632C"/>
<path d="M22.0024 31.32H20.1541V29.4631H22.0024V31.32Z" fill="#F9632C"/>
<path d="M23.8283 31.32H22.0022V29.4631H23.8283V31.32Z" fill="#F9632C"/>
<path d="M25.6545 31.32H23.8284V29.4631H25.6545V31.32Z" fill="#F9632C"/>
<path d="M27.5027 31.32H25.6543V29.4631H27.5027V31.32Z" fill="#F9632C"/>
<path d="M29.3288 31.32H27.5027V29.4631H29.3288V31.32Z" fill="#F9632C"/>
<path d="M31.155 31.32H29.3289V29.4631H31.155V31.32Z" fill="#F9632C"/>
<path d="M33.0034 31.32H31.155V29.4631H33.0034V31.32Z" fill="#F9632C"/>
<path d="M34.8293 31.32H33.0032V29.4631H34.8293V31.32Z" fill="#F9632C"/>
<path d="M36.6554 31.32H34.8293V29.4631H36.6554V31.32Z" fill="#F9632C"/>
<path d="M5.50047 33.1545H3.6521V31.3201H5.50047V33.1545Z" fill="black"/>
<path d="M7.32658 33.1545H5.50049V31.3201H7.32658V33.1545Z" fill="black"/>
<path d="M9.15276 33.1545H7.32666V31.3201H9.15276V33.1545Z" fill="black"/>
<path d="M11.0012 33.1545H9.15283V31.3201H11.0012V33.1545Z" fill="#B74217"/>
<path d="M12.8271 33.1545H11.001V31.3201H12.8271V33.1545Z" fill="#B74217"/>
<path d="M14.6532 33.1545H12.8271V31.3201H14.6532V33.1545Z" fill="#B74217"/>
<path d="M16.5014 33.1545H14.6531V31.3201H16.5014V33.1545Z" fill="#B74217"/>
<path d="M18.3276 33.1545H16.5015V31.3201H18.3276V33.1545Z" fill="#F9632C"/>
<path d="M20.1537 33.1545H18.3276V31.3201H20.1537V33.1545Z" fill="#F9632C"/>
<path d="M22.0024 33.1545H20.1541V31.3201H22.0024V33.1545Z" fill="#F9632C"/>
<path d="M23.8283 33.1545H22.0022V31.3201H23.8283V33.1545Z" fill="#F9632C"/>
<path d="M25.6545 33.1545H23.8284V31.3201H25.6545V33.1545Z" fill="#F9632C"/>
<path d="M27.5027 33.1545H25.6543V31.3201H27.5027V33.1545Z" fill="#F9632C"/>
<path d="M29.3288 33.1545H27.5027V31.3201H29.3288V33.1545Z" fill="#F9632C"/>
<path d="M31.155 33.1545H29.3289V31.3201H31.155V33.1545Z" fill="#F9632C"/>
<path d="M33.0034 33.1545H31.155V31.3201H33.0034V33.1545Z" fill="#F9632C"/>
<path d="M34.8293 33.1545H33.0032V31.3201H34.8293V33.1545Z" fill="#F9632C"/>
<path d="M36.6554 33.1545H34.8293V31.3201H36.6554V33.1545Z" fill="#F9632C"/>
<path d="M7.32658 34.9885H5.50049V33.1541H7.32658V34.9885Z" fill="black"/>
<path d="M9.15276 34.9885H7.32666V33.1541H9.15276V34.9885Z" fill="black"/>
<path d="M11.0012 34.9885H9.15283V33.1541H11.0012V34.9885Z" fill="black"/>
<path d="M12.8271 34.9885H11.001V33.1541H12.8271V34.9885Z" fill="#B74217"/>
<path d="M14.6532 34.9885H12.8271V33.1541H14.6532V34.9885Z" fill="#B74217"/>
<path d="M16.5014 34.9885H14.6531V33.1541H16.5014V34.9885Z" fill="#B74217"/>
<path d="M18.3276 34.9885H16.5015V33.1541H18.3276V34.9885Z" fill="#B74217"/>
<path d="M20.1537 34.9885H18.3276V33.1541H20.1537V34.9885Z" fill="#B74217"/>
<path d="M22.0024 34.9885H20.1541V33.1541H22.0024V34.9885Z" fill="#F9632C"/>
<path d="M23.8283 34.9885H22.0022V33.1541H23.8283V34.9885Z" fill="#F9632C"/>
<path d="M25.6545 34.9885H23.8284V33.1541H25.6545V34.9885Z" fill="#F9632C"/>
<path d="M27.5027 34.9885H25.6543V33.1541H27.5027V34.9885Z" fill="#F9632C"/>
<path d="M29.3288 34.9885H27.5027V33.1541H29.3288V34.9885Z" fill="#F9632C"/>
<path d="M31.155 34.9885H29.3289V33.1541H31.155V34.9885Z" fill="#F9632C"/>
<path d="M33.0034 34.9885H31.155V33.1541H33.0034V34.9885Z" fill="#F9632C"/>
<path d="M34.8293 34.9885H33.0032V33.1541H34.8293V34.9885Z" fill="#F9632C"/>
<path d="M36.6554 34.9885H34.8293V33.1541H36.6554V34.9885Z" fill="#F9632C"/>
<path d="M11.0012 36.8453H9.15283V34.9885H11.0012V36.8453Z" fill="black"/>
<path d="M12.8271 36.8453H11.001V34.9885H12.8271V36.8453Z" fill="black"/>
<path d="M14.6532 36.8453H12.8271V34.9885H14.6532V36.8453Z" fill="#B74217"/>
<path d="M16.5014 36.8453H14.6531V34.9885H16.5014V36.8453Z" fill="#B74217"/>
<path d="M18.3276 36.8453H16.5015V34.9885H18.3276V36.8453Z" fill="#B74217"/>
<path d="M20.1537 36.8453H18.3276V34.9885H20.1537V36.8453Z" fill="#B74217"/>
<path d="M22.0024 36.8453H20.1541V34.9885H22.0024V36.8453Z" fill="#B74217"/>
<path d="M23.8283 36.8453H22.0022V34.9885H23.8283V36.8453Z" fill="#F9632C"/>
<path d="M25.6545 36.8453H23.8284V34.9885H25.6545V36.8453Z" fill="#F9632C"/>
<path d="M27.5027 36.8453H25.6543V34.9885H27.5027V36.8453Z" fill="#F9632C"/>
<path d="M29.3288 36.8453H27.5027V34.9885H29.3288V36.8453Z" fill="#F9632C"/>
<path d="M31.155 36.8453H29.3289V34.9885H31.155V36.8453Z" fill="#F9632C"/>
<path d="M33.0034 36.8453H31.155V34.9885H33.0034V36.8453Z" fill="#F9632C"/>
<path d="M34.8293 36.8453H33.0032V34.9885H34.8293V36.8453Z" fill="#F9632C"/>
<path d="M36.6554 36.8453H34.8293V34.9885H36.6554V36.8453Z" fill="#F9632C"/>
<path d="M12.8271 38.6802H11.001V36.8457H12.8271V38.6802Z" fill="black"/>
<path d="M14.6532 38.6802H12.8271V36.8457H14.6532V38.6802Z" fill="black"/>
<path d="M16.5014 38.6802H14.6531V36.8457H16.5014V38.6802Z" fill="#B74217"/>
<path d="M18.3276 38.6802H16.5015V36.8457H18.3276V38.6802Z" fill="#B74217"/>
<path d="M20.1537 38.6802H18.3276V36.8457H20.1537V38.6802Z" fill="#B74217"/>
<path d="M22.0024 38.6802H20.1541V36.8457H22.0024V38.6802Z" fill="#B74217"/>
<path d="M23.8283 38.6802H22.0022V36.8457H23.8283V38.6802Z" fill="#B74217"/>
<path d="M25.6545 38.6802H23.8284V36.8457H25.6545V38.6802Z" fill="#F9632C"/>
<path d="M27.5027 38.6802H25.6543V36.8457H27.5027V38.6802Z" fill="#F9632C"/>
<path d="M29.3288 38.6802H27.5027V36.8457H29.3288V38.6802Z" fill="#F9632C"/>
<path d="M31.155 38.6802H29.3289V36.8457H31.155V38.6802Z" fill="#F9632C"/>
<path d="M33.0034 38.6802H31.155V36.8457H33.0034V38.6802Z" fill="#F9632C"/>
<path d="M34.8293 38.6802H33.0032V36.8457H34.8293V38.6802Z" fill="#F9632C"/>
<path d="M36.6554 38.6802H34.8293V36.8457H36.6554V38.6802Z" fill="#F9632C"/>
<path d="M14.6532 40.5146H12.8271V38.6802H14.6532V40.5146Z" fill="black"/>
<path d="M16.5014 40.5146H14.6531V38.6802H16.5014V40.5146Z" fill="black"/>
<path d="M18.3276 40.5146H16.5015V38.6802H18.3276V40.5146Z" fill="black"/>
<path d="M20.1537 40.5146H18.3276V38.6802H20.1537V40.5146Z" fill="#B74217"/>
<path d="M22.0024 40.5146H20.1541V38.6802H22.0024V40.5146Z" fill="#B74217"/>
<path d="M23.8283 40.5146H22.0022V38.6802H23.8283V40.5146Z" fill="#B74217"/>
<path d="M25.6545 40.5146H23.8284V38.6802H25.6545V40.5146Z" fill="#B74217"/>
<path d="M27.5027 40.5146H25.6543V38.6802H27.5027V40.5146Z" fill="#F9632C"/>
<path d="M29.3288 40.5146H27.5027V38.6802H29.3288V40.5146Z" fill="#F9632C"/>
<path d="M31.155 40.5146H29.3289V38.6802H31.155V40.5146Z" fill="#F9632C"/>
<path d="M33.0034 40.5146H31.155V38.6802H33.0034V40.5146Z" fill="#F9632C"/>
<path d="M34.8293 40.5146H33.0032V38.6802H34.8293V40.5146Z" fill="#F9632C"/>
<path d="M36.6554 40.5146H34.8293V38.6802H36.6554V40.5146Z" fill="#F9632C"/>
<path d="M18.3276 42.3715H16.5015V40.5146H18.3276V42.3715Z" fill="black"/>
<path d="M20.1537 42.3715H18.3276V40.5146H20.1537V42.3715Z" fill="black"/>
<path d="M22.0024 42.3715H20.1541V40.5146H22.0024V42.3715Z" fill="#B74217"/>
<path d="M23.8283 42.3715H22.0022V40.5146H23.8283V42.3715Z" fill="#B74217"/>
<path d="M25.6545 42.3715H23.8284V40.5146H25.6545V42.3715Z" fill="#B74217"/>
<path d="M27.5027 42.3715H25.6543V40.5146H27.5027V42.3715Z" fill="#B74217"/>
<path d="M29.3288 42.3715H27.5027V40.5146H29.3288V42.3715Z" fill="#F9632C"/>
<path d="M31.155 42.3715H29.3289V40.5146H31.155V42.3715Z" fill="#F9632C"/>
<path d="M33.0034 42.3715H31.155V40.5146H33.0034V42.3715Z" fill="#F9632C"/>
<path d="M34.8293 42.3715H33.0032V40.5146H34.8293V42.3715Z" fill="#F9632C"/>
<path d="M36.6554 42.3715H34.8293V40.5146H36.6554V42.3715Z" fill="#F9632C"/>
<path d="M20.1537 44.2058H18.3276V42.3713H20.1537V44.2058Z" fill="black"/>
<path d="M22.0024 44.2058H20.1541V42.3713H22.0024V44.2058Z" fill="black"/>
<path d="M23.8283 44.2058H22.0022V42.3713H23.8283V44.2058Z" fill="#B74217"/>
<path d="M25.6545 44.2058H23.8284V42.3713H25.6545V44.2058Z" fill="#B74217"/>
<path d="M27.5027 44.2058H25.6543V42.3713H27.5027V44.2058Z" fill="#B74217"/>
<path d="M29.3288 44.2058H27.5027V42.3713H29.3288V44.2058Z" fill="#F9632C"/>
<path d="M31.155 44.2058H29.3289V42.3713H31.155V44.2058Z" fill="#F9632C"/>
<path d="M33.0034 44.2058H31.155V42.3713H33.0034V44.2058Z" fill="#F9632C"/>
<path d="M34.8293 44.2058H33.0032V42.3713H34.8293V44.2058Z" fill="#F9632C"/>
<path d="M36.6554 44.2058H34.8293V42.3713H36.6554V44.2058Z" fill="#F9632C"/>
<path d="M22.0024 46.0403H20.1541V44.2058H22.0024V46.0403Z" fill="black"/>
<path d="M23.8283 46.0403H22.0022V44.2058H23.8283V46.0403Z" fill="black"/>
<path d="M25.6545 46.0403H23.8284V44.2058H25.6545V46.0403Z" fill="#B74217"/>
<path d="M27.5027 46.0403H25.6543V44.2058H27.5027V46.0403Z" fill="#F9632C"/>
<path d="M29.3288 46.0403H27.5027V44.2058H29.3288V46.0403Z" fill="#F9632C"/>
<path d="M31.155 46.0403H29.3289V44.2058H31.155V46.0403Z" fill="#F9632C"/>
<path d="M33.0034 46.0403H31.155V44.2058H33.0034V46.0403Z" fill="#F9632C"/>
<path d="M34.8293 46.0403H33.0032V44.2058H34.8293V46.0403Z" fill="#F9632C"/>
<path d="M36.6554 46.0403H34.8293V44.2058H36.6554V46.0403Z" fill="#F9632C"/>
<path d="M22.0024 47.8969H20.1541V46.04H22.0024V47.8969Z" fill="black"/>
<path d="M23.8283 47.8969H22.0022V46.04H23.8283V47.8969Z" fill="#F9632C"/>
<path d="M25.6545 47.8969H23.8284V46.04H25.6545V47.8969Z" fill="#F9632C"/>
<path d="M27.5027 47.8969H25.6543V46.04H27.5027V47.8969Z" fill="#F9632C"/>
<path d="M29.3288 47.8969H27.5027V46.04H29.3288V47.8969Z" fill="#F9632C"/>
<path d="M31.155 47.8969H29.3289V46.04H31.155V47.8969Z" fill="#F9632C"/>
<path d="M33.0034 47.8969H31.155V46.04H33.0034V47.8969Z" fill="#F9632C"/>
<path d="M34.8293 47.8969H33.0032V46.04H34.8293V47.8969Z" fill="#F9632C"/>
<path d="M36.6554 47.8969H34.8293V46.04H36.6554V47.8969Z" fill="#F9632C"/>
<path d="M20.1537 49.7317H18.3276V47.8972H20.1537V49.7317Z" fill="black"/>
<path d="M22.0024 49.7317H20.1541V47.8972H22.0024V49.7317Z" fill="black"/>
<path d="M23.8283 49.7317H22.0022V47.8972H23.8283V49.7317Z" fill="#F9632C"/>
<path d="M25.6545 49.7317H23.8284V47.8972H25.6545V49.7317Z" fill="#F9632C"/>
<path d="M27.5027 49.7317H25.6543V47.8972H27.5027V49.7317Z" fill="#F9632C"/>
<path d="M29.3288 49.7317H27.5027V47.8972H29.3288V49.7317Z" fill="#F9632C"/>
<path d="M31.1328 49.7317H29.2844V47.8972H31.1328V49.7317Z" fill="#F9632C"/>
<path d="M33.0032 49.7317H31.1326V47.8972H33.0032V49.7317Z" fill="#F9632C"/>
<path d="M34.8293 49.7317H33.0032V47.8972H34.8293V49.7317Z" fill="#F9632C"/>
<path d="M36.6554 49.7317H34.8293V47.8972H36.6554V49.7317Z" fill="#B74217"/>
<path d="M20.1537 51.5661H18.3276V49.7317H20.1537V51.5661Z" fill="black"/>
<path d="M22.0024 51.5661H20.1541V49.7317H22.0024V51.5661Z" fill="#F9632C"/>
<path d="M23.8283 51.5661H22.0022V49.7317H23.8283V51.5661Z" fill="#F9632C"/>
<path d="M25.6545 51.5661H23.8284V49.7317H25.6545V51.5661Z" fill="#F9632C"/>
<path d="M27.5027 51.5661H25.6543V49.7317H27.5027V51.5661Z" fill="#F9632C"/>
<path d="M29.3288 51.5661H27.5027V49.7317H29.3288V51.5661Z" fill="#F9632C"/>
<path d="M31.1328 51.5661H29.2844V49.7317H31.1328V51.5661Z" fill="#F9632C"/>
<path d="M33.0032 51.5661H31.1326V49.7317H33.0032V51.5661Z" fill="#B74217"/>
<path d="M34.8293 51.5661H33.0032V49.7317H34.8293V51.5661Z" fill="#B74217"/>
<path d="M36.6554 51.5661H34.8293V49.7317H36.6554V51.5661Z" fill="#B74217"/>
<path d="M20.1537 53.4228H18.3276V51.5659H20.1537V53.4228Z" fill="black"/>
<path d="M22.0024 53.4228H20.1541V51.5659H22.0024V53.4228Z" fill="#F9632C"/>
<path d="M23.8283 53.4228H22.0022V51.5659H23.8283V53.4228Z" fill="#F9632C"/>
<path d="M25.6545 53.4228H23.8284V51.5659H25.6545V53.4228Z" fill="#F9632C"/>
<path d="M27.5027 53.4228H25.6543V51.5659H27.5027V53.4228Z" fill="#F9632C"/>
<path d="M29.3288 53.4228H27.5027V51.5659H29.3288V53.4228Z" fill="#F9632C"/>
<path d="M31.1328 53.4228H29.2844V51.5659H31.1328V53.4228Z" fill="#B74217"/>
<path d="M33.0032 53.4228H31.1326V51.5659H33.0032V53.4228Z" fill="#B74217"/>
<path d="M34.8293 53.4228H33.0032V51.5659H34.8293V53.4228Z" fill="#B74217"/>
<path d="M36.6554 53.4228H34.8293V51.5659H36.6554V53.4228Z" fill="#B74217"/>
<path d="M18.3276 55.257H16.5015V53.4226H18.3276V55.257Z" fill="black"/>
<path d="M20.1537 55.257H18.3276V53.4226H20.1537V55.257Z" fill="black"/>
<path d="M22.0024 55.257H20.1541V53.4226H22.0024V55.257Z" fill="#F9632C"/>
<path d="M23.8283 55.257H22.0022V53.4226H23.8283V55.257Z" fill="#F9632C"/>
<path d="M25.6545 55.257H23.8284V53.4226H25.6545V55.257Z" fill="#F9632C"/>
<path d="M27.5027 55.257H25.6543V53.4226H27.5027V55.257Z" fill="#F9632C"/>
<path d="M29.2841 55.257H27.458V53.4226H29.2841V55.257Z" fill="#B74217"/>
<path d="M31.1328 55.257H29.2844V53.4226H31.1328V55.257Z" fill="#B74217"/>
<path d="M33.0032 55.257H31.1326V53.4226H33.0032V55.257Z" fill="#B74217"/>
<path d="M34.8293 55.257H33.0032V53.4226H34.8293V55.257Z" fill="#B74217"/>
<path d="M36.6554 55.257H34.8293V53.4226H36.6554V55.257Z" fill="black"/>
<path d="M18.3276 57.0918H16.5015V55.2573H18.3276V57.0918Z" fill="black"/>
<path d="M20.1537 57.0918H18.3276V55.2573H20.1537V57.0918Z" fill="black"/>
<path d="M22.0024 57.0918H20.1541V55.2573H22.0024V57.0918Z" fill="#F9632C"/>
<path d="M23.8283 57.0918H22.0022V55.2573H23.8283V57.0918Z" fill="#F9632C"/>
<path d="M25.6321 57.0918H23.7837V55.2573H25.6321V57.0918Z" fill="#F9632C"/>
<path d="M27.4584 57.0918H25.6323V55.2573H27.4584V57.0918Z" fill="#B74217"/>
<path d="M29.2841 57.0918H27.458V55.2573H29.2841V57.0918Z" fill="#B74217"/>
<path d="M31.1328 57.0918H29.2844V55.2573H31.1328V57.0918Z" fill="#B74217"/>
<path d="M33.0032 57.0918H31.1326V55.2573H33.0032V57.0918Z" fill="#B74217"/>
<path d="M34.8293 57.0918H33.0032V55.2573H34.8293V57.0918Z" fill="black"/>
<path d="M36.6554 57.0918H34.8293V55.2573H36.6554V57.0918Z" fill="black"/>
<path d="M18.3276 58.9486H16.5015V57.0918H18.3276V58.9486Z" fill="black"/>
<path d="M20.1537 58.9486H18.3276V57.0918H20.1537V58.9486Z" fill="#F9632C"/>
<path d="M22.0024 58.9486H20.1541V57.0918H22.0024V58.9486Z" fill="#F9632C"/>
<path d="M23.8283 58.9486H22.0022V57.0918H23.8283V58.9486Z" fill="#F9632C"/>
<path d="M25.6321 58.9486H23.7837V57.0918H25.6321V58.9486Z" fill="#B74217"/>
<path d="M27.4584 58.9486H25.6323V57.0918H27.4584V58.9486Z" fill="#B74217"/>
<path d="M29.2841 58.9486H27.458V57.0918H29.2841V58.9486Z" fill="#B74217"/>
<path d="M31.1328 58.9486H29.2844V57.0918H31.1328V58.9486Z" fill="black"/>
<path d="M33.0032 58.9486H31.1326V57.0918H33.0032V58.9486Z" fill="black"/>
<path d="M34.8293 58.9486H33.0032V57.0918H34.8293V58.9486Z" fill="black"/>
<path d="M16.5014 60.7829H14.6531V58.9485H16.5014V60.7829Z" fill="black"/>
<path d="M18.3276 60.7829H16.5015V58.9485H18.3276V60.7829Z" fill="black"/>
<path d="M20.1537 60.7829H18.3276V58.9485H20.1537V60.7829Z" fill="#F9632C"/>
<path d="M22.0024 60.7829H20.1541V58.9485H22.0024V60.7829Z" fill="#F9632C"/>
<path d="M23.8283 60.7829H22.0022V58.9485H23.8283V60.7829Z" fill="#B74217"/>
<path d="M25.6545 60.7829H23.8284V58.9485H25.6545V60.7829Z" fill="#B74217"/>
<path d="M27.4584 60.7829H25.6323V58.9485H27.4584V60.7829Z" fill="#B74217"/>
<path d="M29.2841 60.7829H27.458V58.9485H29.2841V60.7829Z" fill="black"/>
<path d="M31.1328 60.7829H29.2844V58.9485H31.1328V60.7829Z" fill="black"/>
<path d="M16.5014 62.6174H14.6531V60.783H16.5014V62.6174Z" fill="black"/>
<path d="M18.3276 62.6174H16.5015V60.783H18.3276V62.6174Z" fill="#F9632C"/>
<path d="M20.1537 62.6174H18.3276V60.783H20.1537V62.6174Z" fill="#F9632C"/>
<path d="M22.0024 62.6174H20.1541V60.783H22.0024V62.6174Z" fill="#B74217"/>
<path d="M23.8283 62.6174H22.0022V60.783H23.8283V62.6174Z" fill="#B74217"/>
<path d="M25.6545 62.6174H23.8284V60.783H25.6545V62.6174Z" fill="black"/>
<path d="M27.4584 62.6174H25.6323V60.783H27.4584V62.6174Z" fill="black"/>
<path d="M29.2841 62.6174H27.458V60.783H29.2841V62.6174Z" fill="black"/>
<path d="M16.5014 64.4743H14.6531V62.6174H16.5014V64.4743Z" fill="black"/>
<path d="M18.3276 64.4743H16.5015V62.6174H18.3276V64.4743Z" fill="#F9632C"/>
<path d="M20.1537 64.4743H18.3276V62.6174H20.1537V64.4743Z" fill="#B74217"/>
<path d="M22.0024 64.4743H20.1541V62.6174H22.0024V64.4743Z" fill="#B74217"/>
<path d="M23.8283 64.4743H22.0022V62.6174H23.8283V64.4743Z" fill="black"/>
<path d="M25.6321 64.4743H23.7837V62.6174H25.6321V64.4743Z" fill="black"/>
<path d="M14.6532 66.3088H12.8271V64.4744H14.6532V66.3088Z" fill="black"/>
<path d="M16.5014 66.3088H14.6531V64.4744H16.5014V66.3088Z" fill="black"/>
<path d="M18.3276 66.3088H16.5015V64.4744H18.3276V66.3088Z" fill="#B74217"/>
<path d="M20.1537 66.3088H18.3276V64.4744H20.1537V66.3088Z" fill="#B74217"/>
<path d="M22.0024 66.3088H20.1541V64.4744H22.0024V66.3088Z" fill="black"/>
<path d="M23.8283 66.3088H22.0022V64.4744H23.8283V66.3088Z" fill="black"/>
<path d="M14.6532 68.143H12.8271V66.3086H14.6532V68.143Z" fill="black"/>
<path d="M16.5014 68.143H14.6531V66.3086H16.5014V68.143Z" fill="#B74217"/>
<path d="M18.3276 68.143H16.5015V66.3086H18.3276V68.143Z" fill="black"/>
<path d="M20.1537 68.143H18.3276V66.3086H20.1537V68.143Z" fill="black"/>
<path d="M22.0024 68.143H20.1541V66.3086H22.0024V68.143Z" fill="black"/>
<path d="M14.6532 69.9999H12.8271V68.1431H14.6532V69.9999Z" fill="black"/>
<path d="M16.5014 69.9999H14.6531V68.1431H16.5014V69.9999Z" fill="black"/>
<path d="M18.3276 69.9999H16.5015V68.1431H18.3276V69.9999Z" fill="black"/>
<path d="M36.6555 1.85683H38.5039V0H36.6555V1.85683Z" fill="black"/>
<path d="M38.5039 3.69162H40.33V1.85718H38.5039V3.69162Z" fill="black"/>
<path d="M36.6555 3.69162H38.5039V1.85718H36.6555V3.69162Z" fill="black"/>
<path d="M38.5039 5.52561H40.33V3.69116H38.5039V5.52561Z" fill="black"/>
<path d="M36.6555 5.52561H38.5039V3.69116H36.6555V5.52561Z" fill="#F9632C"/>
<path d="M38.5039 7.38245H40.33V5.52563H38.5039V7.38245Z" fill="black"/>
<path d="M36.6555 7.38245H38.5039V5.52563H36.6555V7.38245Z" fill="#F9632C"/>
<path d="M40.3298 9.21727H42.1559V7.38281H40.3298V9.21727Z" fill="black"/>
<path d="M38.5039 9.21727H40.33V7.38281H38.5039V9.21727Z" fill="black"/>
<path d="M36.6555 9.21727H38.5039V7.38281H36.6555V9.21727Z" fill="#F9632C"/>
<path d="M40.3298 11.0515H42.1559V9.21704H40.3298V11.0515Z" fill="black"/>
<path d="M38.5039 11.0515H40.33V9.21704H38.5039V11.0515Z" fill="#F9632C"/>
<path d="M36.6555 11.0515H38.5039V9.21704H36.6555V11.0515Z" fill="#F9632C"/>
<path d="M40.3298 12.886H42.1559V11.0515H40.3298V12.886Z" fill="black"/>
<path d="M38.5039 12.886H40.33V11.0515H38.5039V12.886Z" fill="#F9632C"/>
<path d="M36.6555 12.886H38.5039V11.0515H36.6555V12.886Z" fill="#F9632C"/>
<path d="M42.1558 14.7428H44.0041V12.886H42.1558V14.7428Z" fill="black"/>
<path d="M40.3298 14.7428H42.1559V12.886H40.3298V14.7428Z" fill="black"/>
<path d="M38.5039 14.7428H40.33V12.886H38.5039V14.7428Z" fill="#F9632C"/>
<path d="M36.6555 14.7428H38.5039V12.886H36.6555V14.7428Z" fill="#F9632C"/>
<path d="M42.1558 16.5774H44.0041V14.7429H42.1558V16.5774Z" fill="black"/>
<path d="M40.3298 16.5774H42.1559V14.7429H40.3298V16.5774Z" fill="#F9632C"/>
<path d="M38.5039 16.5774H40.33V14.7429H38.5039V16.5774Z" fill="#F9632C"/>
<path d="M36.6555 16.5774H38.5039V14.7429H36.6555V16.5774Z" fill="#F9632C"/>
<path d="M42.1558 18.4116H44.0041V16.5771H42.1558V18.4116Z" fill="black"/>
<path d="M40.3298 18.4116H42.1559V16.5771H40.3298V18.4116Z" fill="#F9632C"/>
<path d="M38.5039 18.4116H40.33V16.5771H38.5039V18.4116Z" fill="#F9632C"/>
<path d="M36.6555 18.4116H38.5039V16.5771H36.6555V18.4116Z" fill="#F9632C"/>
<path d="M44.0046 20.2684H45.8307V18.4116H44.0046V20.2684Z" fill="black"/>
<path d="M42.1558 20.2684H44.0041V18.4116H42.1558V20.2684Z" fill="black"/>
<path d="M40.3298 20.2684H42.1559V18.4116H40.3298V20.2684Z" fill="#F9632C"/>
<path d="M38.5039 20.2684H40.33V18.4116H38.5039V20.2684Z" fill="#F9632C"/>
<path d="M36.6555 20.2684H38.5039V18.4116H36.6555V20.2684Z" fill="#F9632C"/>
<path d="M44.0046 22.103H45.8307V20.2686H44.0046V22.103Z" fill="black"/>
<path d="M42.1558 22.103H44.0041V20.2686H42.1558V22.103Z" fill="#F9632C"/>
<path d="M40.3298 22.103H42.1559V20.2686H40.3298V22.103Z" fill="#F9632C"/>
<path d="M38.5039 22.103H40.33V20.2686H38.5039V22.103Z" fill="#F9632C"/>
<path d="M36.6555 22.103H38.5039V20.2686H36.6555V22.103Z" fill="#F9632C"/>
<path d="M44.0046 23.9372H45.8307V22.1028H44.0046V23.9372Z" fill="black"/>
<path d="M42.1558 23.9372H44.0041V22.1028H42.1558V23.9372Z" fill="#F9632C"/>
<path d="M40.3298 23.9372H42.1559V22.1028H40.3298V23.9372Z" fill="#F9632C"/>
<path d="M38.5039 23.9372H40.33V22.1028H38.5039V23.9372Z" fill="#F9632C"/>
<path d="M36.6555 23.9372H38.5039V22.1028H36.6555V23.9372Z" fill="#F9632C"/>
<path d="M44.0046 25.7941H45.8307V23.9373H44.0046V25.7941Z" fill="black"/>
<path d="M42.1558 25.7941H44.0041V23.9373H42.1558V25.7941Z" fill="#F9632C"/>
<path d="M40.3298 25.7941H42.1559V23.9373H40.3298V25.7941Z" fill="#F9632C"/>
<path d="M38.5039 25.7941H40.33V23.9373H38.5039V25.7941Z" fill="#F9632C"/>
<path d="M36.6555 25.7941H38.5039V23.9373H36.6555V25.7941Z" fill="#F9632C"/>
<path d="M71.5071 27.6286H73.3332V25.7942H71.5071V27.6286Z" fill="black"/>
<path d="M69.6587 27.6286H71.5071V25.7942H69.6587V27.6286Z" fill="black"/>
<path d="M67.8325 27.6286H69.6586V25.7942H67.8325V27.6286Z" fill="black"/>
<path d="M66.0066 27.6286H67.8327V25.7942H66.0066V27.6286Z" fill="black"/>
<path d="M64.1582 27.6286H66.0066V25.7942H64.1582V27.6286Z" fill="black"/>
<path d="M62.3323 27.6286H64.1584V25.7942H62.3323V27.6286Z" fill="black"/>
<path d="M60.5061 27.6286H62.3322V25.7942H60.5061V27.6286Z" fill="black"/>
<path d="M58.6577 27.6286H60.5061V25.7942H58.6577V27.6286Z" fill="black"/>
<path d="M56.8318 27.6286H58.6579V25.7942H56.8318V27.6286Z" fill="black"/>
<path d="M55.0056 27.6286H56.8317V25.7942H55.0056V27.6286Z" fill="black"/>
<path d="M53.1572 27.6286H55.0056V25.7942H53.1572V27.6286Z" fill="black"/>
<path d="M51.3311 27.6286H53.1571V25.7942H51.3311V27.6286Z" fill="black"/>
<path d="M49.5049 27.6286H51.331V25.7942H49.5049V27.6286Z" fill="black"/>
<path d="M47.6565 27.6286H49.5049V25.7942H47.6565V27.6286Z" fill="black"/>
<path d="M45.8303 27.6286H47.6564V25.7942H45.8303V27.6286Z" fill="black"/>
<path d="M44.0046 27.6286H45.8307V25.7942H44.0046V27.6286Z" fill="black"/>
<path d="M42.1558 27.6286H44.0041V25.7942H42.1558V27.6286Z" fill="#F9632C"/>
<path d="M40.3298 27.6286H42.1559V25.7942H40.3298V27.6286Z" fill="#F9632C"/>
<path d="M38.5039 27.6286H40.33V25.7942H38.5039V27.6286Z" fill="#F9632C"/>
<path d="M36.6555 27.6286H38.5039V25.7942H36.6555V27.6286Z" fill="#F9632C"/>
<path d="M71.5071 29.4631H73.3332V27.6287H71.5071V29.4631Z" fill="black"/>
<path d="M69.6587 29.4631H71.5071V27.6287H69.6587V29.4631Z" fill="black"/>
<path d="M67.8325 29.4631H69.6586V27.6287H67.8325V29.4631Z" fill="#F9632C"/>
<path d="M66.0066 29.4631H67.8327V27.6287H66.0066V29.4631Z" fill="#B74217"/>
<path d="M64.1582 29.4631H66.0066V27.6287H64.1582V29.4631Z" fill="#B74217"/>
<path d="M62.3323 29.4631H64.1584V27.6287H62.3323V29.4631Z" fill="#B74217"/>
<path d="M60.5061 29.4631H62.3322V27.6287H60.5061V29.4631Z" fill="#B74217"/>
<path d="M58.6577 29.4631H60.5061V27.6287H58.6577V29.4631Z" fill="#B74217"/>
<path d="M56.8318 29.4631H58.6579V27.6287H56.8318V29.4631Z" fill="#B74217"/>
<path d="M55.0056 29.4631H56.8317V27.6287H55.0056V29.4631Z" fill="#B74217"/>
<path d="M53.1572 29.4631H55.0056V27.6287H53.1572V29.4631Z" fill="#B74217"/>
<path d="M51.3311 29.4631H53.1571V27.6287H51.3311V29.4631Z" fill="#B74217"/>
<path d="M49.5049 29.4631H51.331V27.6287H49.5049V29.4631Z" fill="#B74217"/>
<path d="M47.6565 29.4631H49.5049V27.6287H47.6565V29.4631Z" fill="#B74217"/>
<path d="M45.8303 29.4631H47.6564V27.6287H45.8303V29.4631Z" fill="#B74217"/>
<path d="M44.0046 29.4631H45.8307V27.6287H44.0046V29.4631Z" fill="#B74217"/>
<path d="M42.1558 29.4631H44.0041V27.6287H42.1558V29.4631Z" fill="#F9632C"/>
<path d="M40.3298 29.4631H42.1559V27.6287H40.3298V29.4631Z" fill="#F9632C"/>
<path d="M38.5039 29.4631H40.33V27.6287H38.5039V29.4631Z" fill="#F9632C"/>
<path d="M36.6555 29.4631H38.5039V27.6287H36.6555V29.4631Z" fill="#F9632C"/>
<path d="M69.6587 31.32H71.5071V29.4631H69.6587V31.32Z" fill="black"/>
<path d="M67.8325 31.32H69.6586V29.4631H67.8325V31.32Z" fill="black"/>
<path d="M66.0066 31.32H67.8327V29.4631H66.0066V31.32Z" fill="#F9632C"/>
<path d="M64.1582 31.32H66.0066V29.4631H64.1582V31.32Z" fill="#F9632C"/>
<path d="M62.3323 31.32H64.1584V29.4631H62.3323V31.32Z" fill="#F9632C"/>
<path d="M60.5061 31.32H62.3322V29.4631H60.5061V31.32Z" fill="#B74217"/>
<path d="M58.6577 31.32H60.5061V29.4631H58.6577V31.32Z" fill="#B74217"/>
<path d="M56.8318 31.32H58.6579V29.4631H56.8318V31.32Z" fill="#B74217"/>
<path d="M55.0056 31.32H56.8317V29.4631H55.0056V31.32Z" fill="#B74217"/>
<path d="M53.1572 31.32H55.0056V29.4631H53.1572V31.32Z" fill="#B74217"/>
<path d="M51.3311 31.32H53.1571V29.4631H51.3311V31.32Z" fill="#B74217"/>
<path d="M49.5049 31.32H51.331V29.4631H49.5049V31.32Z" fill="#B74217"/>
<path d="M47.6565 31.32H49.5049V29.4631H47.6565V31.32Z" fill="#B74217"/>
<path d="M45.8303 31.32H47.6564V29.4631H45.8303V31.32Z" fill="#B74217"/>
<path d="M44.0046 31.32H45.8307V29.4631H44.0046V31.32Z" fill="#B74217"/>
<path d="M42.1558 31.32H44.0041V29.4631H42.1558V31.32Z" fill="#B74217"/>
<path d="M40.3298 31.32H42.1559V29.4631H40.3298V31.32Z" fill="#F9632C"/>
<path d="M38.5039 31.32H40.33V29.4631H38.5039V31.32Z" fill="#F9632C"/>
<path d="M36.6555 31.32H38.5039V29.4631H36.6555V31.32Z" fill="#F9632C"/>
<path d="M67.8325 33.1545H69.6586V31.3201H67.8325V33.1545Z" fill="black"/>
<path d="M66.0066 33.1545H67.8327V31.3201H66.0066V33.1545Z" fill="black"/>
<path d="M64.1582 33.1545H66.0066V31.3201H64.1582V33.1545Z" fill="black"/>
<path d="M62.3323 33.1545H64.1584V31.3201H62.3323V33.1545Z" fill="#F9632C"/>
<path d="M60.5061 33.1545H62.3322V31.3201H60.5061V33.1545Z" fill="#F9632C"/>
<path d="M58.6577 33.1545H60.5061V31.3201H58.6577V33.1545Z" fill="#F9632C"/>
<path d="M56.8318 33.1545H58.6579V31.3201H56.8318V33.1545Z" fill="#B74217"/>
<path d="M55.0056 33.1545H56.8317V31.3201H55.0056V33.1545Z" fill="#B74217"/>
<path d="M53.1572 33.1545H55.0056V31.3201H53.1572V33.1545Z" fill="#B74217"/>
<path d="M51.3311 33.1545H53.1571V31.3201H51.3311V33.1545Z" fill="#B74217"/>
<path d="M49.5049 33.1545H51.331V31.3201H49.5049V33.1545Z" fill="#B74217"/>
<path d="M47.6565 33.1545H49.5049V31.3201H47.6565V33.1545Z" fill="#B74217"/>
<path d="M45.8303 33.1545H47.6564V31.3201H45.8303V33.1545Z" fill="#B74217"/>
<path d="M44.0046 33.1545H45.8307V31.3201H44.0046V33.1545Z" fill="#B74217"/>
<path d="M42.1558 33.1545H44.0041V31.3201H42.1558V33.1545Z" fill="#B74217"/>
<path d="M40.3298 33.1545H42.1559V31.3201H40.3298V33.1545Z" fill="#F9632C"/>
<path d="M38.5039 33.1545H40.33V31.3201H38.5039V33.1545Z" fill="#F9632C"/>
<path d="M36.6555 33.1545H38.5039V31.3201H36.6555V33.1545Z" fill="#F9632C"/>
<path d="M66.0066 34.9885H67.8327V33.1541H66.0066V34.9885Z" fill="black"/>
<path d="M64.1582 34.9885H66.0066V33.1541H64.1582V34.9885Z" fill="black"/>
<path d="M62.3323 34.9885H64.1584V33.1541H62.3323V34.9885Z" fill="black"/>
<path d="M60.5061 34.9885H62.3322V33.1541H60.5061V34.9885Z" fill="#F9632C"/>
<path d="M58.6577 34.9885H60.5061V33.1541H58.6577V34.9885Z" fill="#F9632C"/>
<path d="M56.8318 34.9885H58.6579V33.1541H56.8318V34.9885Z" fill="#F9632C"/>
<path d="M55.0056 34.9885H56.8317V33.1541H55.0056V34.9885Z" fill="#F9632C"/>
<path d="M53.1572 34.9885H55.0056V33.1541H53.1572V34.9885Z" fill="#F9632C"/>
<path d="M51.3311 34.9885H53.1571V33.1541H51.3311V34.9885Z" fill="#F9632C"/>
<path d="M49.5049 34.9885H51.331V33.1541H49.5049V34.9885Z" fill="#F9632C"/>
<path d="M47.6565 34.9885H49.5049V33.1541H47.6565V34.9885Z" fill="#F9632C"/>
<path d="M45.8303 34.9885H47.6564V33.1541H45.8303V34.9885Z" fill="#F9632C"/>
<path d="M44.0046 34.9885H45.8307V33.1541H44.0046V34.9885Z" fill="#F9632C"/>
<path d="M42.1558 34.9885H44.0041V33.1541H42.1558V34.9885Z" fill="#F9632C"/>
<path d="M40.3298 34.9885H42.1559V33.1541H40.3298V34.9885Z" fill="#F9632C"/>
<path d="M38.5039 34.9885H40.33V33.1541H38.5039V34.9885Z" fill="#F9632C"/>
<path d="M36.6555 34.9885H38.5039V33.1541H36.6555V34.9885Z" fill="#F9632C"/>
<path d="M62.3323 36.8453H64.1584V34.9885H62.3323V36.8453Z" fill="black"/>
<path d="M60.5061 36.8453H62.3322V34.9885H60.5061V36.8453Z" fill="black"/>
<path d="M58.6577 36.8453H60.5061V34.9885H58.6577V36.8453Z" fill="#F9632C"/>
<path d="M56.8318 36.8453H58.6579V34.9885H56.8318V36.8453Z" fill="#F9632C"/>
<path d="M55.0056 36.8453H56.8317V34.9885H55.0056V36.8453Z" fill="#F9632C"/>
<path d="M53.1572 36.8453H55.0056V34.9885H53.1572V36.8453Z" fill="#F9632C"/>
<path d="M51.3311 36.8453H53.1571V34.9885H51.3311V36.8453Z" fill="#F9632C"/>
<path d="M49.5049 36.8453H51.331V34.9885H49.5049V36.8453Z" fill="#F9632C"/>
<path d="M47.6565 36.8453H49.5049V34.9885H47.6565V36.8453Z" fill="#F9632C"/>
<path d="M45.8303 36.8453H47.6564V34.9885H45.8303V36.8453Z" fill="#F9632C"/>
<path d="M44.0046 36.8453H45.8307V34.9885H44.0046V36.8453Z" fill="#F9632C"/>
<path d="M42.1558 36.8453H44.0041V34.9885H42.1558V36.8453Z" fill="#F9632C"/>
<path d="M40.3298 36.8453H42.1559V34.9885H40.3298V36.8453Z" fill="#F9632C"/>
<path d="M38.5039 36.8453H40.33V34.9885H38.5039V36.8453Z" fill="#F9632C"/>
<path d="M36.6555 36.8453H38.5039V34.9885H36.6555V36.8453Z" fill="#F9632C"/>
<path d="M60.5061 38.6802H62.3322V36.8457H60.5061V38.6802Z" fill="black"/>
<path d="M58.6577 38.6802H60.5061V36.8457H58.6577V38.6802Z" fill="black"/>
<path d="M56.8318 38.6802H58.6579V36.8457H56.8318V38.6802Z" fill="#F9632C"/>
<path d="M55.0056 38.6802H56.8317V36.8457H55.0056V38.6802Z" fill="#F9632C"/>
<path d="M53.1572 38.6802H55.0056V36.8457H53.1572V38.6802Z" fill="#F9632C"/>
<path d="M51.3311 38.6802H53.1571V36.8457H51.3311V38.6802Z" fill="#F9632C"/>
<path d="M49.5049 38.6802H51.331V36.8457H49.5049V38.6802Z" fill="#F9632C"/>
<path d="M47.6565 38.6802H49.5049V36.8457H47.6565V38.6802Z" fill="#F9632C"/>
<path d="M45.8303 38.6802H47.6564V36.8457H45.8303V38.6802Z" fill="#F9632C"/>
<path d="M44.0046 38.6802H45.8307V36.8457H44.0046V38.6802Z" fill="#F9632C"/>
<path d="M42.1558 38.6802H44.0041V36.8457H42.1558V38.6802Z" fill="#F9632C"/>
<path d="M40.3298 38.6802H42.1559V36.8457H40.3298V38.6802Z" fill="#F9632C"/>
<path d="M38.5039 38.6802H40.33V36.8457H38.5039V38.6802Z" fill="#F9632C"/>
<path d="M36.6555 38.6802H38.5039V36.8457H36.6555V38.6802Z" fill="#F9632C"/>
<path d="M58.6577 40.5146H60.5061V38.6802H58.6577V40.5146Z" fill="black"/>
<path d="M56.8318 40.5146H58.6579V38.6802H56.8318V40.5146Z" fill="black"/>
<path d="M55.0056 40.5146H56.8317V38.6802H55.0056V40.5146Z" fill="black"/>
<path d="M53.1572 40.5146H55.0056V38.6802H53.1572V40.5146Z" fill="#F9632C"/>
<path d="M51.3311 40.5146H53.1571V38.6802H51.3311V40.5146Z" fill="#F9632C"/>
<path d="M49.5049 40.5146H51.331V38.6802H49.5049V40.5146Z" fill="#F9632C"/>
<path d="M47.6565 40.5146H49.5049V38.6802H47.6565V40.5146Z" fill="#F9632C"/>
<path d="M45.8303 40.5146H47.6564V38.6802H45.8303V40.5146Z" fill="#F9632C"/>
<path d="M44.0046 40.5146H45.8307V38.6802H44.0046V40.5146Z" fill="#F9632C"/>
<path d="M42.1558 40.5146H44.0041V38.6802H42.1558V40.5146Z" fill="#F9632C"/>
<path d="M40.3298 40.5146H42.1559V38.6802H40.3298V40.5146Z" fill="#F9632C"/>
<path d="M38.5039 40.5146H40.33V38.6802H38.5039V40.5146Z" fill="#F9632C"/>
<path d="M36.6555 40.5146H38.5039V38.6802H36.6555V40.5146Z" fill="#F9632C"/>
<path d="M55.0056 42.3715H56.8317V40.5146H55.0056V42.3715Z" fill="black"/>
<path d="M53.1572 42.3715H55.0056V40.5146H53.1572V42.3715Z" fill="black"/>
<path d="M51.3311 42.3715H53.1571V40.5146H51.3311V42.3715Z" fill="#F9632C"/>
<path d="M49.5049 42.3715H51.331V40.5146H49.5049V42.3715Z" fill="#F9632C"/>
<path d="M47.6565 42.3715H49.5049V40.5146H47.6565V42.3715Z" fill="#F9632C"/>
<path d="M45.8303 42.3715H47.6564V40.5146H45.8303V42.3715Z" fill="#F9632C"/>
<path d="M44.0046 42.3715H45.8307V40.5146H44.0046V42.3715Z" fill="#F9632C"/>
<path d="M42.1558 42.3715H44.0041V40.5146H42.1558V42.3715Z" fill="#F9632C"/>
<path d="M40.3298 42.3715H42.1559V40.5146H40.3298V42.3715Z" fill="#F9632C"/>
<path d="M38.5039 42.3715H40.33V40.5146H38.5039V42.3715Z" fill="#F9632C"/>
<path d="M36.6555 42.3715H38.5039V40.5146H36.6555V42.3715Z" fill="#F9632C"/>
<path d="M53.1572 44.2058H55.0056V42.3713H53.1572V44.2058Z" fill="black"/>
<path d="M51.3311 44.2058H53.1571V42.3713H51.3311V44.2058Z" fill="black"/>
<path d="M49.5049 44.2058H51.331V42.3713H49.5049V44.2058Z" fill="#F9632C"/>
<path d="M47.6565 44.2058H49.5049V42.3713H47.6565V44.2058Z" fill="#F9632C"/>
<path d="M45.8303 44.2058H47.6564V42.3713H45.8303V44.2058Z" fill="#F9632C"/>
<path d="M44.0046 44.2058H45.8307V42.3713H44.0046V44.2058Z" fill="#F9632C"/>
<path d="M42.1558 44.2058H44.0041V42.3713H42.1558V44.2058Z" fill="#F9632C"/>
<path d="M40.3298 44.2058H42.1559V42.3713H40.3298V44.2058Z" fill="#F9632C"/>
<path d="M38.5039 44.2058H40.33V42.3713H38.5039V44.2058Z" fill="#F9632C"/>
<path d="M36.6555 44.2058H38.5039V42.3713H36.6555V44.2058Z" fill="#F9632C"/>
<path d="M51.3311 46.0403H53.1571V44.2058H51.3311V46.0403Z" fill="black"/>
<path d="M49.5049 46.0403H51.331V44.2058H49.5049V46.0403Z" fill="black"/>
<path d="M47.6565 46.0403H49.5049V44.2058H47.6565V46.0403Z" fill="#F9632C"/>
<path d="M45.8303 46.0403H47.6564V44.2058H45.8303V46.0403Z" fill="#B74217"/>
<path d="M44.0046 46.0403H45.8307V44.2058H44.0046V46.0403Z" fill="#F9632C"/>
<path d="M42.1558 46.0403H44.0041V44.2058H42.1558V46.0403Z" fill="#F9632C"/>
<path d="M40.3298 46.0403H42.1559V44.2058H40.3298V46.0403Z" fill="#F9632C"/>
<path d="M38.5039 46.0403H40.33V44.2058H38.5039V46.0403Z" fill="#F9632C"/>
<path d="M36.6555 46.0403H38.5039V44.2058H36.6555V46.0403Z" fill="#F9632C"/>
<path d="M51.3311 47.8969H53.1571V46.04H51.3311V47.8969Z" fill="black"/>
<path d="M49.5049 47.8969H51.331V46.04H49.5049V47.8969Z" fill="#B74217"/>
<path d="M47.6565 47.8969H49.5049V46.04H47.6565V47.8969Z" fill="#B74217"/>
<path d="M45.8303 47.8969H47.6564V46.04H45.8303V47.8969Z" fill="#B74217"/>
<path d="M44.0046 47.8969H45.8307V46.04H44.0046V47.8969Z" fill="#F9632C"/>
<path d="M42.1558 47.8969H44.0041V46.04H42.1558V47.8969Z" fill="#F9632C"/>
<path d="M40.3298 47.8969H42.1559V46.04H40.3298V47.8969Z" fill="#F9632C"/>
<path d="M38.5039 47.8969H40.33V46.04H38.5039V47.8969Z" fill="#F9632C"/>
<path d="M36.6555 47.8969H38.5039V46.04H36.6555V47.8969Z" fill="#F9632C"/>
<path d="M53.1572 49.7317H55.0056V47.8972H53.1572V49.7317Z" fill="black"/>
<path d="M51.3311 49.7317H53.1571V47.8972H51.3311V49.7317Z" fill="black"/>
<path d="M49.5049 49.7317H51.331V47.8972H49.5049V49.7317Z" fill="#B74217"/>
<path d="M47.6565 49.7317H49.5049V47.8972H47.6565V49.7317Z" fill="#B74217"/>
<path d="M45.8303 49.7317H47.6564V47.8972H45.8303V49.7317Z" fill="#B74217"/>
<path d="M44.0046 49.7317H45.8307V47.8972H44.0046V49.7317Z" fill="#F9632C"/>
<path d="M42.2007 49.7317H44.0268V47.8972H42.2007V49.7317Z" fill="#F9632C"/>
<path d="M40.3298 49.7317H42.2005V47.8972H40.3298V49.7317Z" fill="#F9632C"/>
<path d="M38.5039 49.7317H40.33V47.8972H38.5039V49.7317Z" fill="#F9632C"/>
<path d="M36.6555 49.7317H38.5039V47.8972H36.6555V49.7317Z" fill="#F9632C"/>
<path d="M53.1572 51.5661H55.0056V49.7317H53.1572V51.5661Z" fill="black"/>
<path d="M51.3311 51.5661H53.1571V49.7317H51.3311V51.5661Z" fill="#B74217"/>
<path d="M49.5049 51.5661H51.331V49.7317H49.5049V51.5661Z" fill="#B74217"/>
<path d="M47.6565 51.5661H49.5049V49.7317H47.6565V51.5661Z" fill="#B74217"/>
<path d="M45.8303 51.5661H47.6564V49.7317H45.8303V51.5661Z" fill="#F9632C"/>
<path d="M44.0046 51.5661H45.8307V49.7317H44.0046V51.5661Z" fill="#F9632C"/>
<path d="M42.2007 51.5661H44.0268V49.7317H42.2007V51.5661Z" fill="#F9632C"/>
<path d="M40.3298 51.5661H42.2005V49.7317H40.3298V51.5661Z" fill="#F9632C"/>
<path d="M38.5039 51.5661H40.33V49.7317H38.5039V51.5661Z" fill="#F9632C"/>
<path d="M36.6555 51.5661H38.5039V49.7317H36.6555V51.5661Z" fill="#F9632C"/>
<path d="M53.1572 53.4228H55.0056V51.5659H53.1572V53.4228Z" fill="black"/>
<path d="M51.3311 53.4228H53.1571V51.5659H51.3311V53.4228Z" fill="#B74217"/>
<path d="M49.5049 53.4228H51.331V51.5659H49.5049V53.4228Z" fill="#B74217"/>
<path d="M47.6565 53.4228H49.5049V51.5659H47.6565V53.4228Z" fill="#B74217"/>
<path d="M45.8303 53.4228H47.6564V51.5659H45.8303V53.4228Z" fill="#F9632C"/>
<path d="M44.0046 53.4228H45.8307V51.5659H44.0046V53.4228Z" fill="#F9632C"/>
<path d="M42.2007 53.4228H44.0268V51.5659H42.2007V53.4228Z" fill="#F9632C"/>
<path d="M40.3298 53.4228H42.2005V51.5659H40.3298V53.4228Z" fill="#F9632C"/>
<path d="M38.5039 53.4228H40.33V51.5659H38.5039V53.4228Z" fill="#F9632C"/>
<path d="M36.6555 53.4228H38.5039V51.5659H36.6555V53.4228Z" fill="#F9632C"/>
<path d="M55.0056 55.257H56.8317V53.4226H55.0056V55.257Z" fill="black"/>
<path d="M53.1572 55.257H55.0056V53.4226H53.1572V55.257Z" fill="black"/>
<path d="M51.3311 55.257H53.1571V53.4226H51.3311V55.257Z" fill="#B74217"/>
<path d="M49.5049 55.257H51.331V53.4226H49.5049V55.257Z" fill="#B74217"/>
<path d="M47.6565 55.257H49.5049V53.4226H47.6565V55.257Z" fill="#B74217"/>
<path d="M45.8303 55.257H47.6564V53.4226H45.8303V55.257Z" fill="#F9632C"/>
<path d="M44.0266 55.257H45.875V53.4226H44.0266V55.257Z" fill="#F9632C"/>
<path d="M42.2007 55.257H44.0268V53.4226H42.2007V55.257Z" fill="#F9632C"/>
<path d="M40.3298 55.257H42.2005V53.4226H40.3298V55.257Z" fill="#F9632C"/>
<path d="M38.5039 55.257H40.33V53.4226H38.5039V55.257Z" fill="#F9632C"/>
<path d="M36.6555 55.257H38.5039V53.4226H36.6555V55.257Z" fill="black"/>
<path d="M55.0056 57.0918H56.8317V55.2573H55.0056V57.0918Z" fill="black"/>
<path d="M53.1572 57.0918H55.0056V55.2573H53.1572V57.0918Z" fill="black"/>
<path d="M51.3311 57.0918H53.1571V55.2573H51.3311V57.0918Z" fill="#B74217"/>
<path d="M49.5049 57.0918H51.331V55.2573H49.5049V57.0918Z" fill="#B74217"/>
<path d="M47.7012 57.0918H49.5273V55.2573H47.7012V57.0918Z" fill="#B74217"/>
<path d="M45.8752 57.0918H47.7013V55.2573H45.8752V57.0918Z" fill="#F9632C"/>
<path d="M44.0266 57.0918H45.875V55.2573H44.0266V57.0918Z" fill="#F9632C"/>
<path d="M42.2007 57.0918H44.0268V55.2573H42.2007V57.0918Z" fill="#F9632C"/>
<path d="M40.3298 57.0918H42.2005V55.2573H40.3298V57.0918Z" fill="#F9632C"/>
<path d="M38.5039 57.0918H40.33V55.2573H38.5039V57.0918Z" fill="black"/>
<path d="M36.6555 57.0918H38.5039V55.2573H36.6555V57.0918Z" fill="black"/>
<path d="M55.0056 58.9486H56.8317V57.0918H55.0056V58.9486Z" fill="black"/>
<path d="M53.1572 58.9486H55.0056V57.0918H53.1572V58.9486Z" fill="#B74217"/>
<path d="M51.3311 58.9486H53.1571V57.0918H51.3311V58.9486Z" fill="#B74217"/>
<path d="M49.5049 58.9486H51.331V57.0918H49.5049V58.9486Z" fill="#F9632C"/>
<path d="M47.7012 58.9486H49.5273V57.0918H47.7012V58.9486Z" fill="#F9632C"/>
<path d="M45.8752 58.9486H47.7013V57.0918H45.8752V58.9486Z" fill="#F9632C"/>
<path d="M44.0266 58.9486H45.875V57.0918H44.0266V58.9486Z" fill="#F9632C"/>
<path d="M42.2007 58.9486H44.0268V57.0918H42.2007V58.9486Z" fill="black"/>
<path d="M40.3298 58.9486H42.2005V57.0918H40.3298V58.9486Z" fill="black"/>
<path d="M38.5039 58.9486H40.33V57.0918H38.5039V58.9486Z" fill="black"/>
<path d="M56.8318 60.7829H58.6579V58.9485H56.8318V60.7829Z" fill="black"/>
<path d="M55.0056 60.7829H56.8317V58.9485H55.0056V60.7829Z" fill="black"/>
<path d="M53.1572 60.7829H55.0056V58.9485H53.1572V60.7829Z" fill="#B74217"/>
<path d="M51.3311 60.7829H53.1571V58.9485H51.3311V60.7829Z" fill="#B74217"/>
<path d="M49.5049 60.7829H51.331V58.9485H49.5049V60.7829Z" fill="#F9632C"/>
<path d="M47.6565 60.7829H49.5049V58.9485H47.6565V60.7829Z" fill="#F9632C"/>
<path d="M45.8752 60.7829H47.7013V58.9485H45.8752V60.7829Z" fill="#F9632C"/>
<path d="M44.0266 60.7829H45.875V58.9485H44.0266V60.7829Z" fill="black"/>
<path d="M42.2007 60.7829H44.0268V58.9485H42.2007V60.7829Z" fill="black"/>
<path d="M56.8318 62.6174H58.6579V60.783H56.8318V62.6174Z" fill="black"/>
<path d="M55.0056 62.6174H56.8317V60.783H55.0056V62.6174Z" fill="#B74217"/>
<path d="M53.1572 62.6174H55.0056V60.783H53.1572V62.6174Z" fill="#B74217"/>
<path d="M51.3311 62.6174H53.1571V60.783H51.3311V62.6174Z" fill="#F9632C"/>
<path d="M49.5049 62.6174H51.331V60.783H49.5049V62.6174Z" fill="#F9632C"/>
<path d="M47.6565 62.6174H49.5049V60.783H47.6565V62.6174Z" fill="black"/>
<path d="M45.8752 62.6174H47.7013V60.783H45.8752V62.6174Z" fill="black"/>
<path d="M44.0266 62.6174H45.875V60.783H44.0266V62.6174Z" fill="black"/>
<path d="M56.8318 64.4743H58.6579V62.6174H56.8318V64.4743Z" fill="black"/>
<path d="M55.0056 64.4743H56.8317V62.6174H55.0056V64.4743Z" fill="#B74217"/>
<path d="M53.1572 64.4743H55.0056V62.6174H53.1572V64.4743Z" fill="#F9632C"/>
<path d="M51.3311 64.4743H53.1571V62.6174H51.3311V64.4743Z" fill="#F9632C"/>
<path d="M49.5049 64.4743H51.331V62.6174H49.5049V64.4743Z" fill="black"/>
<path d="M47.7012 64.4743H49.5273V62.6174H47.7012V64.4743Z" fill="black"/>
<path d="M58.6577 66.3088H60.5061V64.4744H58.6577V66.3088Z" fill="black"/>
<path d="M56.8318 66.3088H58.6579V64.4744H56.8318V66.3088Z" fill="black"/>
<path d="M55.0056 66.3088H56.8317V64.4744H55.0056V66.3088Z" fill="#F9632C"/>
<path d="M53.1572 66.3088H55.0056V64.4744H53.1572V66.3088Z" fill="#F9632C"/>
<path d="M51.3311 66.3088H53.1571V64.4744H51.3311V66.3088Z" fill="black"/>
<path d="M49.5049 66.3088H51.331V64.4744H49.5049V66.3088Z" fill="black"/>
<path d="M58.6577 68.143H60.5061V66.3086H58.6577V68.143Z" fill="black"/>
<path d="M56.8318 68.143H58.6579V66.3086H56.8318V68.143Z" fill="#B74217"/>
<path d="M55.0056 68.143H56.8317V66.3086H55.0056V68.143Z" fill="black"/>
<path d="M53.1572 68.143H55.0056V66.3086H53.1572V68.143Z" fill="black"/>
<path d="M51.3311 68.143H53.1571V66.3086H51.3311V68.143Z" fill="black"/>
<path d="M58.6577 69.9999H60.5061V68.1431H58.6577V69.9999Z" fill="black"/>
<path d="M56.8318 69.9999H58.6579V68.1431H56.8318V69.9999Z" fill="black"/>
<path d="M55.0056 69.9999H56.8317V68.1431H55.0056V69.9999Z" fill="black"/>
</svg>
