<svg width="63" height="67" viewBox="0 0 63 67" fill="none" xmlns="http://www.w3.org/2000/svg">
<path d="M28.4823 1.93228H27.1081V0.534912H28.4823V1.93228Z" fill="black"/>
<path d="M27.1081 3.31289H25.7338V1.93237H27.1081V3.31289Z" fill="black"/>
<path d="M28.4823 3.31289H27.1081V1.93237H28.4823V3.31289Z" fill="black"/>
<path d="M27.1081 4.69302H25.7338V3.3125H27.1081V4.69302Z" fill="black"/>
<path d="M28.4823 4.69302H27.1081V3.3125H28.4823V4.69302Z" fill="#D065FE"/>
<path d="M27.1081 6.09072H25.7338V4.69336H27.1081V6.09072Z" fill="black"/>
<path d="M28.4823 6.09072H27.1081V4.69336H28.4823V6.09072Z" fill="#D065FE"/>
<path d="M25.734 7.4711H24.343V6.09058H25.734V7.4711Z" fill="black"/>
<path d="M27.1081 7.4711H25.7338V6.09058H27.1081V7.4711Z" fill="black"/>
<path d="M28.4823 7.4711H27.1081V6.09058H28.4823V7.4711Z" fill="#D065FE"/>
<path d="M25.734 8.85196H24.343V7.47144H25.734V8.85196Z" fill="black"/>
<path d="M27.1081 8.85196H25.7338V7.47144H27.1081V8.85196Z" fill="#D065FE"/>
<path d="M28.4823 8.85196H27.1081V7.47144H28.4823V8.85196Z" fill="#D065FE"/>
<path d="M25.734 10.2323H24.343V8.85181H25.734V10.2323Z" fill="black"/>
<path d="M27.1081 10.2323H25.7338V8.85181H27.1081V10.2323Z" fill="#D065FE"/>
<path d="M28.4823 10.2323H27.1081V8.85181H28.4823V10.2323Z" fill="#D065FE"/>
<path d="M24.343 11.6298H22.9688V10.2324H24.343V11.6298Z" fill="black"/>
<path d="M25.734 11.6298H24.343V10.2324H25.734V11.6298Z" fill="black"/>
<path d="M27.1081 11.6298H25.7338V10.2324H27.1081V11.6298Z" fill="#D065FE"/>
<path d="M28.4823 11.6298H27.1081V10.2324H28.4823V11.6298Z" fill="#D065FE"/>
<path d="M24.343 13.0104H22.9688V11.6299H24.343V13.0104Z" fill="black"/>
<path d="M25.734 13.0104H24.343V11.6299H25.734V13.0104Z" fill="#D065FE"/>
<path d="M27.1081 13.0104H25.7338V11.6299H27.1081V13.0104Z" fill="#D065FE"/>
<path d="M28.4823 13.0104H27.1081V11.6299H28.4823V13.0104Z" fill="#D065FE"/>
<path d="M24.343 14.3908H22.9688V13.0103H24.343V14.3908Z" fill="black"/>
<path d="M25.734 14.3908H24.343V13.0103H25.734V14.3908Z" fill="#D065FE"/>
<path d="M27.1081 14.3908H25.7338V13.0103H27.1081V14.3908Z" fill="#D065FE"/>
<path d="M28.4823 14.3908H27.1081V13.0103H28.4823V14.3908Z" fill="#D065FE"/>
<path d="M22.9687 15.7882H21.5945V14.3909H22.9687V15.7882Z" fill="black"/>
<path d="M24.343 15.7882H22.9688V14.3909H24.343V15.7882Z" fill="black"/>
<path d="M25.734 15.7882H24.343V14.3909H25.734V15.7882Z" fill="#D065FE"/>
<path d="M27.1081 15.7882H25.7338V14.3909H27.1081V15.7882Z" fill="#D065FE"/>
<path d="M28.4823 15.7882H27.1081V14.3909H28.4823V15.7882Z" fill="#D065FE"/>
<path d="M22.9687 17.1686H21.5945V15.7881H22.9687V17.1686Z" fill="black"/>
<path d="M24.343 17.1686H22.9688V15.7881H24.343V17.1686Z" fill="#D065FE"/>
<path d="M25.734 17.1686H24.343V15.7881H25.734V17.1686Z" fill="#D065FE"/>
<path d="M27.1081 17.1686H25.7338V15.7881H27.1081V17.1686Z" fill="#D065FE"/>
<path d="M28.4823 17.1686H27.1081V15.7881H28.4823V17.1686Z" fill="#ECBFFF"/>
<path d="M22.9687 18.549H21.5945V17.1685H22.9687V18.549Z" fill="black"/>
<path d="M24.343 18.549H22.9688V17.1685H24.343V18.549Z" fill="#D065FE"/>
<path d="M25.734 18.549H24.343V17.1685H25.734V18.549Z" fill="#D065FE"/>
<path d="M27.1081 18.549H25.7338V17.1685H27.1081V18.549Z" fill="#D065FE"/>
<path d="M28.4823 18.549H27.1081V17.1685H28.4823V18.549Z" fill="#ECBFFF"/>
<path d="M22.9687 19.9462H21.5945V18.5488H22.9687V19.9462Z" fill="black"/>
<path d="M24.343 19.9462H22.9688V18.5488H24.343V19.9462Z" fill="#D065FE"/>
<path d="M25.734 19.9462H24.343V18.5488H25.734V19.9462Z" fill="#D065FE"/>
<path d="M27.1081 19.9462H25.7338V18.5488H27.1081V19.9462Z" fill="#D065FE"/>
<path d="M28.4823 19.9462H27.1081V18.5488H28.4823V19.9462Z" fill="#ECBFFF"/>
<path d="M2.27133 21.3273H0.897095V19.9468H2.27133V21.3273Z" fill="black"/>
<path d="M3.64572 21.3273H2.27148V19.9468H3.64572V21.3273Z" fill="black"/>
<path d="M5.03669 21.3273H3.64569V19.9468H5.03669V21.3273Z" fill="black"/>
<path d="M6.41067 21.3273H5.03644V19.9468H6.41067V21.3273Z" fill="black"/>
<path d="M7.78513 21.3273H6.41089V19.9468H7.78513V21.3273Z" fill="black"/>
<path d="M9.17603 21.3273H7.78503V19.9468H9.17603V21.3273Z" fill="black"/>
<path d="M10.5502 21.3273H9.17596V19.9468H10.5502V21.3273Z" fill="black"/>
<path d="M11.9244 21.3273H10.5502V19.9468H11.9244V21.3273Z" fill="black"/>
<path d="M13.3155 21.3273H11.9245V19.9468H13.3155V21.3273Z" fill="black"/>
<path d="M14.6896 21.3273H13.3154V19.9468H14.6896V21.3273Z" fill="black"/>
<path d="M16.0639 21.3273H14.6897V19.9468H16.0639V21.3273Z" fill="black"/>
<path d="M17.4551 21.3273H16.0641V19.9468H17.4551V21.3273Z" fill="black"/>
<path d="M18.8292 21.3273H17.455V19.9468H18.8292V21.3273Z" fill="black"/>
<path d="M20.2035 21.3273H18.8293V19.9468H20.2035V21.3273Z" fill="black"/>
<path d="M21.5944 21.3273H20.2034V19.9468H21.5944V21.3273Z" fill="black"/>
<path d="M22.9687 21.3273H21.5945V19.9468H22.9687V21.3273Z" fill="black"/>
<path d="M24.343 21.3273H22.9688V19.9468H24.343V21.3273Z" fill="#D065FE"/>
<path d="M25.734 21.3273H24.343V19.9468H25.734V21.3273Z" fill="#D065FE"/>
<path d="M27.1081 21.3273H25.7338V19.9468H27.1081V21.3273Z" fill="#ECBFFF"/>
<path d="M28.4823 21.3273H27.1081V19.9468H28.4823V21.3273Z" fill="#ECBFFF"/>
<path d="M2.27133 22.7074H0.897095V21.3269H2.27133V22.7074Z" fill="black"/>
<path d="M3.64572 22.7074H2.27148V21.3269H3.64572V22.7074Z" fill="black"/>
<path d="M5.03669 22.7074H3.64569V21.3269H5.03669V22.7074Z" fill="#E3A1FF"/>
<path d="M6.41067 22.7074H5.03644V21.3269H6.41067V22.7074Z" fill="#E3A1FF"/>
<path d="M7.78513 22.7074H6.41089V21.3269H7.78513V22.7074Z" fill="#E3A1FF"/>
<path d="M9.17603 22.7074H7.78503V21.3269H9.17603V22.7074Z" fill="#E3A1FF"/>
<path d="M10.5502 22.7074H9.17596V21.3269H10.5502V22.7074Z" fill="#E3A1FF"/>
<path d="M11.9244 22.7074H10.5502V21.3269H11.9244V22.7074Z" fill="#E3A1FF"/>
<path d="M13.3155 22.7074H11.9245V21.3269H13.3155V22.7074Z" fill="#E3A1FF"/>
<path d="M14.6896 22.7074H13.3154V21.3269H14.6896V22.7074Z" fill="#E3A1FF"/>
<path d="M16.0639 22.7074H14.6897V21.3269H16.0639V22.7074Z" fill="#E3A1FF"/>
<path d="M17.4551 22.7074H16.0641V21.3269H17.4551V22.7074Z" fill="#E3A1FF"/>
<path d="M18.8292 22.7074H17.455V21.3269H18.8292V22.7074Z" fill="#E3A1FF"/>
<path d="M20.2035 22.7074H18.8293V21.3269H20.2035V22.7074Z" fill="#E3A1FF"/>
<path d="M21.5944 22.7074H20.2034V21.3269H21.5944V22.7074Z" fill="#E3A1FF"/>
<path d="M22.9687 22.7074H21.5945V21.3269H22.9687V22.7074Z" fill="#E3A1FF"/>
<path d="M24.343 22.7074H22.9688V21.3269H24.343V22.7074Z" fill="#E3A1FF"/>
<path d="M25.734 22.7074H24.343V21.3269H25.734V22.7074Z" fill="#D065FE"/>
<path d="M27.1081 22.7074H25.7338V21.3269H27.1081V22.7074Z" fill="#ECBFFF"/>
<path d="M28.4823 22.7074H27.1081V21.3269H28.4823V22.7074Z" fill="#ECBFFF"/>
<path d="M3.64572 24.1051H2.27148V22.7078H3.64572V24.1051Z" fill="black"/>
<path d="M5.03669 24.1051H3.64569V22.7078H5.03669V24.1051Z" fill="black"/>
<path d="M6.41067 24.1051H5.03644V22.7078H6.41067V24.1051Z" fill="#D065FE"/>
<path d="M7.78513 24.1051H6.41089V22.7078H7.78513V24.1051Z" fill="#D065FE"/>
<path d="M9.17603 24.1051H7.78503V22.7078H9.17603V24.1051Z" fill="#D065FE"/>
<path d="M10.5502 24.1051H9.17596V22.7078H10.5502V24.1051Z" fill="#E3A1FF"/>
<path d="M11.9244 24.1051H10.5502V22.7078H11.9244V24.1051Z" fill="#E3A1FF"/>
<path d="M13.3155 24.1051H11.9245V22.7078H13.3155V24.1051Z" fill="#E3A1FF"/>
<path d="M14.6896 24.1051H13.3154V22.7078H14.6896V24.1051Z" fill="#E3A1FF"/>
<path d="M16.0639 24.1051H14.6897V22.7078H16.0639V24.1051Z" fill="#E3A1FF"/>
<path d="M17.4551 24.1051H16.0641V22.7078H17.4551V24.1051Z" fill="#E3A1FF"/>
<path d="M18.8292 24.1051H17.455V22.7078H18.8292V24.1051Z" fill="#E3A1FF"/>
<path d="M20.2035 24.1051H18.8293V22.7078H20.2035V24.1051Z" fill="#E3A1FF"/>
<path d="M21.5944 24.1051H20.2034V22.7078H21.5944V24.1051Z" fill="#E3A1FF"/>
<path d="M22.9687 24.1051H21.5945V22.7078H22.9687V24.1051Z" fill="#E3A1FF"/>
<path d="M24.343 24.1051H22.9688V22.7078H24.343V24.1051Z" fill="#E3A1FF"/>
<path d="M25.734 24.1051H24.343V22.7078H25.734V24.1051Z" fill="#E3A1FF"/>
<path d="M27.1081 24.1051H25.7338V22.7078H27.1081V24.1051Z" fill="#ECBFFF"/>
<path d="M28.4823 24.1051H27.1081V22.7078H28.4823V24.1051Z" fill="#ECBFFF"/>
<path d="M5.03669 25.4853H3.64569V24.1047H5.03669V25.4853Z" fill="black"/>
<path d="M6.41067 25.4853H5.03644V24.1047H6.41067V25.4853Z" fill="black"/>
<path d="M7.78513 25.4853H6.41089V24.1047H7.78513V25.4853Z" fill="black"/>
<path d="M9.17603 25.4853H7.78503V24.1047H9.17603V25.4853Z" fill="#D065FE"/>
<path d="M10.5502 25.4853H9.17596V24.1047H10.5502V25.4853Z" fill="#D065FE"/>
<path d="M11.9244 25.4853H10.5502V24.1047H11.9244V25.4853Z" fill="#D065FE"/>
<path d="M13.3155 25.4853H11.9245V24.1047H13.3155V25.4853Z" fill="#D065FE"/>
<path d="M14.6896 25.4853H13.3154V24.1047H14.6896V25.4853Z" fill="#E3A1FF"/>
<path d="M16.0639 25.4853H14.6897V24.1047H16.0639V25.4853Z" fill="#E3A1FF"/>
<path d="M17.4551 25.4853H16.0641V24.1047H17.4551V25.4853Z" fill="#E3A1FF"/>
<path d="M18.8292 25.4853H17.455V24.1047H18.8292V25.4853Z" fill="#E3A1FF"/>
<path d="M20.2035 25.4853H18.8293V24.1047H20.2035V25.4853Z" fill="#E3A1FF"/>
<path d="M21.5944 25.4853H20.2034V24.1047H21.5944V25.4853Z" fill="#E3A1FF"/>
<path d="M22.9687 25.4853H21.5945V24.1047H22.9687V25.4853Z" fill="#E3A1FF"/>
<path d="M24.343 25.4853H22.9688V24.1047H24.343V25.4853Z" fill="#E3A1FF"/>
<path d="M25.734 25.4853H24.343V24.1047H25.734V25.4853Z" fill="#ECBFFF"/>
<path d="M27.1081 25.4853H25.7338V24.1047H27.1081V25.4853Z" fill="#ECBFFF"/>
<path d="M28.4823 25.4853H27.1081V24.1047H28.4823V25.4853Z" fill="#ECBFFF"/>
<path d="M6.41067 26.8654H5.03644V25.4849H6.41067V26.8654Z" fill="black"/>
<path d="M7.78513 26.8654H6.41089V25.4849H7.78513V26.8654Z" fill="black"/>
<path d="M9.17603 26.8654H7.78503V25.4849H9.17603V26.8654Z" fill="black"/>
<path d="M10.5502 26.8654H9.17596V25.4849H10.5502V26.8654Z" fill="#D065FE"/>
<path d="M11.9244 26.8654H10.5502V25.4849H11.9244V26.8654Z" fill="#D065FE"/>
<path d="M13.3155 26.8654H11.9245V25.4849H13.3155V26.8654Z" fill="#D065FE"/>
<path d="M14.6896 26.8654H13.3154V25.4849H14.6896V26.8654Z" fill="#D065FE"/>
<path d="M16.0639 26.8654H14.6897V25.4849H16.0639V26.8654Z" fill="#D065FE"/>
<path d="M17.4551 26.8654H16.0641V25.4849H17.4551V26.8654Z" fill="#ECBFFF"/>
<path d="M18.8292 26.8654H17.455V25.4849H18.8292V26.8654Z" fill="#ECBFFF"/>
<path d="M20.2035 26.8654H18.8293V25.4849H20.2035V26.8654Z" fill="#ECBFFF"/>
<path d="M21.5944 26.8654H20.2034V25.4849H21.5944V26.8654Z" fill="#ECBFFF"/>
<path d="M22.9687 26.8654H21.5945V25.4849H22.9687V26.8654Z" fill="#ECBFFF"/>
<path d="M24.343 26.8654H22.9688V25.4849H24.343V26.8654Z" fill="#ECBFFF"/>
<path d="M25.734 26.8654H24.343V25.4849H25.734V26.8654Z" fill="#ECBFFF"/>
<path d="M27.1081 26.8654H25.7338V25.4849H27.1081V26.8654Z" fill="#ECBFFF"/>
<path d="M28.4823 26.8654H27.1081V25.4849H28.4823V26.8654Z" fill="#ECBFFF"/>
<path d="M9.17603 28.2631H7.78503V26.8657H9.17603V28.2631Z" fill="black"/>
<path d="M10.5502 28.2631H9.17596V26.8657H10.5502V28.2631Z" fill="black"/>
<path d="M11.9244 28.2631H10.5502V26.8657H11.9244V28.2631Z" fill="#D065FE"/>
<path d="M13.3155 28.2631H11.9245V26.8657H13.3155V28.2631Z" fill="#D065FE"/>
<path d="M14.6896 28.2631H13.3154V26.8657H14.6896V28.2631Z" fill="#D065FE"/>
<path d="M16.0639 28.2631H14.6897V26.8657H16.0639V28.2631Z" fill="#D065FE"/>
<path d="M17.4551 28.2631H16.0641V26.8657H17.4551V28.2631Z" fill="#D065FE"/>
<path d="M18.8292 28.2631H17.455V26.8657H18.8292V28.2631Z" fill="#ECBFFF"/>
<path d="M20.2035 28.2631H18.8293V26.8657H20.2035V28.2631Z" fill="#ECBFFF"/>
<path d="M21.5944 28.2631H20.2034V26.8657H21.5944V28.2631Z" fill="#ECBFFF"/>
<path d="M22.9687 28.2631H21.5945V26.8657H22.9687V28.2631Z" fill="#ECBFFF"/>
<path d="M24.343 28.2631H22.9688V26.8657H24.343V28.2631Z" fill="#ECBFFF"/>
<path d="M25.734 28.2631H24.343V26.8657H25.734V28.2631Z" fill="#ECBFFF"/>
<path d="M27.1081 28.2631H25.7338V26.8657H27.1081V28.2631Z" fill="#ECBFFF"/>
<path d="M28.4823 28.2631H27.1081V26.8657H28.4823V28.2631Z" fill="#ECBFFF"/>
<path d="M10.5502 29.6437H9.17596V28.2632H10.5502V29.6437Z" fill="black"/>
<path d="M11.9244 29.6437H10.5502V28.2632H11.9244V29.6437Z" fill="black"/>
<path d="M13.3155 29.6437H11.9245V28.2632H13.3155V29.6437Z" fill="#D065FE"/>
<path d="M14.6896 29.6437H13.3154V28.2632H14.6896V29.6437Z" fill="#D065FE"/>
<path d="M16.0639 29.6437H14.6897V28.2632H16.0639V29.6437Z" fill="#D065FE"/>
<path d="M17.4551 29.6437H16.0641V28.2632H17.4551V29.6437Z" fill="#D065FE"/>
<path d="M18.8292 29.6437H17.455V28.2632H18.8292V29.6437Z" fill="#D065FE"/>
<path d="M20.2035 29.6437H18.8293V28.2632H20.2035V29.6437Z" fill="#ECBFFF"/>
<path d="M21.5944 29.6437H20.2034V28.2632H21.5944V29.6437Z" fill="#ECBFFF"/>
<path d="M22.9687 29.6437H21.5945V28.2632H22.9687V29.6437Z" fill="#ECBFFF"/>
<path d="M24.343 29.6437H22.9688V28.2632H24.343V29.6437Z" fill="#ECBFFF"/>
<path d="M25.734 29.6437H24.343V28.2632H25.734V29.6437Z" fill="#ECBFFF"/>
<path d="M27.1081 29.6437H25.7338V28.2632H27.1081V29.6437Z" fill="#ECBFFF"/>
<path d="M28.4823 29.6437H27.1081V28.2632H28.4823V29.6437Z" fill="#ECBFFF"/>
<path d="M11.9244 31.0246H10.5502V29.644H11.9244V31.0246Z" fill="black"/>
<path d="M13.3155 31.0246H11.9245V29.644H13.3155V31.0246Z" fill="black"/>
<path d="M14.6896 31.0246H13.3154V29.644H14.6896V31.0246Z" fill="black"/>
<path d="M16.0639 31.0246H14.6897V29.644H16.0639V31.0246Z" fill="#D065FE"/>
<path d="M17.4551 31.0246H16.0641V29.644H17.4551V31.0246Z" fill="#D065FE"/>
<path d="M18.8292 31.0246H17.455V29.644H18.8292V31.0246Z" fill="#D065FE"/>
<path d="M20.2035 31.0246H18.8293V29.644H20.2035V31.0246Z" fill="#D065FE"/>
<path d="M21.5944 31.0246H20.2034V29.644H21.5944V31.0246Z" fill="#ECBFFF"/>
<path d="M22.9687 31.0246H21.5945V29.644H22.9687V31.0246Z" fill="#ECBFFF"/>
<path d="M24.343 31.0246H22.9688V29.644H24.343V31.0246Z" fill="#ECBFFF"/>
<path d="M25.734 31.0246H24.343V29.644H25.734V31.0246Z" fill="#ECBFFF"/>
<path d="M27.1081 31.0246H25.7338V29.644H27.1081V31.0246Z" fill="#ECBFFF"/>
<path d="M28.4823 31.0246H27.1081V29.644H28.4823V31.0246Z" fill="#ECBFFF"/>
<path d="M14.6896 32.4218H13.3154V31.0244H14.6896V32.4218Z" fill="black"/>
<path d="M16.0639 32.4218H14.6897V31.0244H16.0639V32.4218Z" fill="black"/>
<path d="M17.4551 32.4218H16.0641V31.0244H17.4551V32.4218Z" fill="#D065FE"/>
<path d="M18.8292 32.4218H17.455V31.0244H18.8292V32.4218Z" fill="#D065FE"/>
<path d="M20.2035 32.4218H18.8293V31.0244H20.2035V32.4218Z" fill="#D065FE"/>
<path d="M21.5944 32.4218H20.2034V31.0244H21.5944V32.4218Z" fill="#D065FE"/>
<path d="M22.9687 32.4218H21.5945V31.0244H22.9687V32.4218Z" fill="#E3A1FF"/>
<path d="M24.343 32.4218H22.9688V31.0244H24.343V32.4218Z" fill="#ECBFFF"/>
<path d="M25.734 32.4218H24.343V31.0244H25.734V32.4218Z" fill="#ECBFFF"/>
<path d="M27.1081 32.4218H25.7338V31.0244H27.1081V32.4218Z" fill="#ECBFFF"/>
<path d="M28.4823 32.4218H27.1081V31.0244H28.4823V32.4218Z" fill="#ECBFFF"/>
<path d="M16.0639 33.8022H14.6897V32.4216H16.0639V33.8022Z" fill="black"/>
<path d="M17.4551 33.8022H16.0641V32.4216H17.4551V33.8022Z" fill="black"/>
<path d="M18.8292 33.8022H17.455V32.4216H18.8292V33.8022Z" fill="#D065FE"/>
<path d="M20.2035 33.8022H18.8293V32.4216H20.2035V33.8022Z" fill="#D065FE"/>
<path d="M21.5944 33.8022H20.2034V32.4216H21.5944V33.8022Z" fill="#D065FE"/>
<path d="M22.9687 33.8022H21.5945V32.4216H22.9687V33.8022Z" fill="#E3A1FF"/>
<path d="M24.343 33.8022H22.9688V32.4216H24.343V33.8022Z" fill="#ECBFFF"/>
<path d="M25.734 33.8022H24.343V32.4216H25.734V33.8022Z" fill="#ECBFFF"/>
<path d="M27.1081 33.8022H25.7338V32.4216H27.1081V33.8022Z" fill="#ECBFFF"/>
<path d="M28.4823 33.8022H27.1081V32.4216H28.4823V33.8022Z" fill="#ECBFFF"/>
<path d="M17.4551 35.1825H16.0641V33.802H17.4551V35.1825Z" fill="black"/>
<path d="M18.8292 35.1825H17.455V33.802H18.8292V35.1825Z" fill="black"/>
<path d="M20.2035 35.1825H18.8293V33.802H20.2035V35.1825Z" fill="#D065FE"/>
<path d="M21.5944 35.1825H20.2034V33.802H21.5944V35.1825Z" fill="#E3A1FF"/>
<path d="M22.9687 35.1825H21.5945V33.802H22.9687V35.1825Z" fill="#ECBFFF"/>
<path d="M24.343 35.1825H22.9688V33.802H24.343V35.1825Z" fill="#ECBFFF"/>
<path d="M25.734 35.1825H24.343V33.802H25.734V35.1825Z" fill="#ECBFFF"/>
<path d="M27.1081 35.1825H25.7338V33.802H27.1081V35.1825Z" fill="#ECBFFF"/>
<path d="M28.4823 35.1825H27.1081V33.802H28.4823V35.1825Z" fill="#ECBFFF"/>
<path d="M17.4551 36.5797H16.0641V35.1824H17.4551V36.5797Z" fill="black"/>
<path d="M18.8292 36.5797H17.455V35.1824H18.8292V36.5797Z" fill="#E3A1FF"/>
<path d="M20.2035 36.5797H18.8293V35.1824H20.2035V36.5797Z" fill="#E3A1FF"/>
<path d="M21.5944 36.5797H20.2034V35.1824H21.5944V36.5797Z" fill="#E3A1FF"/>
<path d="M22.9687 36.5797H21.5945V35.1824H22.9687V36.5797Z" fill="#ECBFFF"/>
<path d="M24.343 36.5797H22.9688V35.1824H24.343V36.5797Z" fill="#ECBFFF"/>
<path d="M25.734 36.5797H24.343V35.1824H25.734V36.5797Z" fill="#ECBFFF"/>
<path d="M27.1081 36.5797H25.7338V35.1824H27.1081V36.5797Z" fill="#ECBFFF"/>
<path d="M28.4823 36.5797H27.1081V35.1824H28.4823V36.5797Z" fill="#ECBFFF"/>
<path d="M16.0639 37.9606H14.6897V36.5801H16.0639V37.9606Z" fill="black"/>
<path d="M17.4551 37.9606H16.0641V36.5801H17.4551V37.9606Z" fill="black"/>
<path d="M18.8292 37.9606H17.455V36.5801H18.8292V37.9606Z" fill="#E3A1FF"/>
<path d="M20.2035 37.9606H18.8293V36.5801H20.2035V37.9606Z" fill="#E3A1FF"/>
<path d="M21.5944 37.9606H20.2034V36.5801H21.5944V37.9606Z" fill="#E3A1FF"/>
<path d="M22.9687 37.9606H21.5945V36.5801H22.9687V37.9606Z" fill="#ECBFFF"/>
<path d="M24.3262 37.9606H22.9352V36.5801H24.3262V37.9606Z" fill="#ECBFFF"/>
<path d="M25.7339 37.9606H24.3261V36.5801H25.7339V37.9606Z" fill="#ECBFFF"/>
<path d="M27.1081 37.9606H25.7338V36.5801H27.1081V37.9606Z" fill="#ECBFFF"/>
<path d="M28.4823 37.9606H27.1081V36.5801H28.4823V37.9606Z" fill="#D065FE"/>
<path d="M16.0639 39.3412H14.6897V37.9607H16.0639V39.3412Z" fill="black"/>
<path d="M17.4551 39.3412H16.0641V37.9607H17.4551V39.3412Z" fill="#E3A1FF"/>
<path d="M18.8292 39.3412H17.455V37.9607H18.8292V39.3412Z" fill="#E3A1FF"/>
<path d="M20.2035 39.3412H18.8293V37.9607H20.2035V39.3412Z" fill="#E3A1FF"/>
<path d="M21.5944 39.3412H20.2034V37.9607H21.5944V39.3412Z" fill="#ECBFFF"/>
<path d="M22.9687 39.3412H21.5945V37.9607H22.9687V39.3412Z" fill="#ECBFFF"/>
<path d="M24.3262 39.3412H22.9352V37.9607H24.3262V39.3412Z" fill="#ECBFFF"/>
<path d="M25.7339 39.3412H24.3261V37.9607H25.7339V39.3412Z" fill="#D065FE"/>
<path d="M27.1081 39.3412H25.7338V37.9607H27.1081V39.3412Z" fill="#D065FE"/>
<path d="M28.4823 39.3412H27.1081V37.9607H28.4823V39.3412Z" fill="#D065FE"/>
<path d="M16.0639 40.7387H14.6897V39.3413H16.0639V40.7387Z" fill="black"/>
<path d="M17.4551 40.7387H16.0641V39.3413H17.4551V40.7387Z" fill="#E3A1FF"/>
<path d="M18.8292 40.7387H17.455V39.3413H18.8292V40.7387Z" fill="#E3A1FF"/>
<path d="M20.2035 40.7387H18.8293V39.3413H20.2035V40.7387Z" fill="#E3A1FF"/>
<path d="M21.5944 40.7387H20.2034V39.3413H21.5944V40.7387Z" fill="#ECBFFF"/>
<path d="M22.9687 40.7387H21.5945V39.3413H22.9687V40.7387Z" fill="#ECBFFF"/>
<path d="M24.3262 40.7387H22.9352V39.3413H24.3262V40.7387Z" fill="#D065FE"/>
<path d="M25.7339 40.7387H24.3261V39.3413H25.7339V40.7387Z" fill="#D065FE"/>
<path d="M27.1081 40.7387H25.7338V39.3413H27.1081V40.7387Z" fill="#D065FE"/>
<path d="M28.4823 40.7387H27.1081V39.3413H28.4823V40.7387Z" fill="#D065FE"/>
<path d="M14.6896 42.1188H13.3154V40.7383H14.6896V42.1188Z" fill="black"/>
<path d="M16.0639 42.1188H14.6897V40.7383H16.0639V42.1188Z" fill="black"/>
<path d="M17.4551 42.1188H16.0641V40.7383H17.4551V42.1188Z" fill="#E3A1FF"/>
<path d="M18.8292 42.1188H17.455V40.7383H18.8292V42.1188Z" fill="#E3A1FF"/>
<path d="M20.2035 42.1188H18.8293V40.7383H20.2035V42.1188Z" fill="#E3A1FF"/>
<path d="M21.5944 42.1188H20.2034V40.7383H21.5944V42.1188Z" fill="#ECBFFF"/>
<path d="M22.935 42.1188H21.5607V40.7383H22.935V42.1188Z" fill="#D065FE"/>
<path d="M24.3262 42.1188H22.9352V40.7383H24.3262V42.1188Z" fill="#D065FE"/>
<path d="M25.7339 42.1188H24.3261V40.7383H25.7339V42.1188Z" fill="#D065FE"/>
<path d="M27.1081 42.1188H25.7338V40.7383H27.1081V42.1188Z" fill="#D065FE"/>
<path d="M28.4823 42.1188H27.1081V40.7383H28.4823V42.1188Z" fill="black"/>
<path d="M14.6896 43.4997H13.3154V42.1191H14.6896V43.4997Z" fill="black"/>
<path d="M16.0639 43.4997H14.6897V42.1191H16.0639V43.4997Z" fill="black"/>
<path d="M17.4551 43.4997H16.0641V42.1191H17.4551V43.4997Z" fill="#E3A1FF"/>
<path d="M18.8292 43.4997H17.455V42.1191H18.8292V43.4997Z" fill="#E3A1FF"/>
<path d="M20.1867 43.4997H18.7957V42.1191H20.1867V43.4997Z" fill="#E3A1FF"/>
<path d="M21.561 43.4997H20.1868V42.1191H21.561V43.4997Z" fill="#D065FE"/>
<path d="M22.935 43.4997H21.5607V42.1191H22.935V43.4997Z" fill="#D065FE"/>
<path d="M24.3262 43.4997H22.9352V42.1191H24.3262V43.4997Z" fill="#D065FE"/>
<path d="M25.7339 43.4997H24.3261V42.1191H25.7339V43.4997Z" fill="#D065FE"/>
<path d="M27.1081 43.4997H25.7338V42.1191H27.1081V43.4997Z" fill="black"/>
<path d="M28.4823 43.4997H27.1081V42.1191H28.4823V43.4997Z" fill="black"/>
<path d="M14.6896 44.8971H13.3154V43.4998H14.6896V44.8971Z" fill="black"/>
<path d="M16.0639 44.8971H14.6897V43.4998H16.0639V44.8971Z" fill="#E3A1FF"/>
<path d="M17.4551 44.8971H16.0641V43.4998H17.4551V44.8971Z" fill="#E3A1FF"/>
<path d="M18.8292 44.8971H17.455V43.4998H18.8292V44.8971Z" fill="#E3A1FF"/>
<path d="M20.1867 44.8971H18.7957V43.4998H20.1867V44.8971Z" fill="#D065FE"/>
<path d="M21.561 44.8971H20.1868V43.4998H21.561V44.8971Z" fill="#D065FE"/>
<path d="M22.935 44.8971H21.5607V43.4998H22.935V44.8971Z" fill="#D065FE"/>
<path d="M24.3262 44.8971H22.9352V43.4998H24.3262V44.8971Z" fill="black"/>
<path d="M25.7339 44.8971H24.3261V43.4998H25.7339V44.8971Z" fill="black"/>
<path d="M27.1081 44.8971H25.7338V43.4998H27.1081V44.8971Z" fill="black"/>
<path d="M13.3155 46.2775H11.9245V44.897H13.3155V46.2775Z" fill="black"/>
<path d="M14.6896 46.2775H13.3154V44.897H14.6896V46.2775Z" fill="black"/>
<path d="M16.0639 46.2775H14.6897V44.897H16.0639V46.2775Z" fill="#E3A1FF"/>
<path d="M17.4551 46.2775H16.0641V44.897H17.4551V46.2775Z" fill="#E3A1FF"/>
<path d="M18.8292 46.2775H17.455V44.897H18.8292V46.2775Z" fill="#D065FE"/>
<path d="M20.2035 46.2775H18.8293V44.897H20.2035V46.2775Z" fill="#D065FE"/>
<path d="M21.561 46.2775H20.1868V44.897H21.561V46.2775Z" fill="#D065FE"/>
<path d="M22.935 46.2775H21.5607V44.897H22.935V46.2775Z" fill="black"/>
<path d="M24.3262 46.2775H22.9352V44.897H24.3262V46.2775Z" fill="black"/>
<path d="M13.3155 47.6581H11.9245V46.2776H13.3155V47.6581Z" fill="black"/>
<path d="M14.6896 47.6581H13.3154V46.2776H14.6896V47.6581Z" fill="#E3A1FF"/>
<path d="M16.0639 47.6581H14.6897V46.2776H16.0639V47.6581Z" fill="#E3A1FF"/>
<path d="M17.4551 47.6581H16.0641V46.2776H17.4551V47.6581Z" fill="#D065FE"/>
<path d="M18.8292 47.6581H17.455V46.2776H18.8292V47.6581Z" fill="#D065FE"/>
<path d="M20.2035 47.6581H18.8293V46.2776H20.2035V47.6581Z" fill="black"/>
<path d="M21.561 47.6581H20.1868V46.2776H21.561V47.6581Z" fill="black"/>
<path d="M22.935 47.6581H21.5607V46.2776H22.935V47.6581Z" fill="black"/>
<path d="M13.3155 49.0551H11.9245V47.6577H13.3155V49.0551Z" fill="black"/>
<path d="M14.6896 49.0551H13.3154V47.6577H14.6896V49.0551Z" fill="#E3A1FF"/>
<path d="M16.0639 49.0551H14.6897V47.6577H16.0639V49.0551Z" fill="#D065FE"/>
<path d="M17.4551 49.0551H16.0641V47.6577H17.4551V49.0551Z" fill="#D065FE"/>
<path d="M18.8292 49.0551H17.455V47.6577H18.8292V49.0551Z" fill="black"/>
<path d="M20.1867 49.0551H18.7957V47.6577H20.1867V49.0551Z" fill="black"/>
<path d="M11.9244 50.4357H10.5502V49.0552H11.9244V50.4357Z" fill="black"/>
<path d="M13.3155 50.4357H11.9245V49.0552H13.3155V50.4357Z" fill="black"/>
<path d="M14.6896 50.4357H13.3154V49.0552H14.6896V50.4357Z" fill="#D065FE"/>
<path d="M16.0639 50.4357H14.6897V49.0552H16.0639V50.4357Z" fill="#D065FE"/>
<path d="M17.4551 50.4357H16.0641V49.0552H17.4551V50.4357Z" fill="black"/>
<path d="M18.8292 50.4357H17.455V49.0552H18.8292V50.4357Z" fill="black"/>
<path d="M11.9244 51.8163H10.5502V50.4358H11.9244V51.8163Z" fill="black"/>
<path d="M13.3155 51.8163H11.9245V50.4358H13.3155V51.8163Z" fill="#D065FE"/>
<path d="M14.6896 51.8163H13.3154V50.4358H14.6896V51.8163Z" fill="black"/>
<path d="M16.0639 51.8163H14.6897V50.4358H16.0639V51.8163Z" fill="black"/>
<path d="M17.4551 51.8163H16.0641V50.4358H17.4551V51.8163Z" fill="black"/>
<path d="M11.9244 53.2135H10.5502V51.8162H11.9244V53.2135Z" fill="black"/>
<path d="M13.3155 53.2135H11.9245V51.8162H13.3155V53.2135Z" fill="black"/>
<path d="M14.6896 53.2135H13.3154V51.8162H14.6896V53.2135Z" fill="black"/>
<path d="M28.4823 1.93228H29.8733V0.534912H28.4823V1.93228Z" fill="black"/>
<path d="M29.8734 3.31289H31.2476V1.93237H29.8734V3.31289Z" fill="black"/>
<path d="M28.4823 3.31289H29.8733V1.93237H28.4823V3.31289Z" fill="black"/>
<path d="M29.8734 4.69302H31.2476V3.3125H29.8734V4.69302Z" fill="black"/>
<path d="M28.4823 4.69302H29.8733V3.3125H28.4823V4.69302Z" fill="#E3A1FF"/>
<path d="M29.8734 6.09072H31.2476V4.69336H29.8734V6.09072Z" fill="black"/>
<path d="M28.4823 6.09072H29.8733V4.69336H28.4823V6.09072Z" fill="#E3A1FF"/>
<path d="M31.2476 7.4711H32.6219V6.09058H31.2476V7.4711Z" fill="black"/>
<path d="M29.8734 7.4711H31.2476V6.09058H29.8734V7.4711Z" fill="black"/>
<path d="M28.4823 7.4711H29.8733V6.09058H28.4823V7.4711Z" fill="#E3A1FF"/>
<path d="M31.2476 8.85196H32.6219V7.47144H31.2476V8.85196Z" fill="black"/>
<path d="M29.8734 8.85196H31.2476V7.47144H29.8734V8.85196Z" fill="#E3A1FF"/>
<path d="M28.4823 8.85196H29.8733V7.47144H28.4823V8.85196Z" fill="#E3A1FF"/>
<path d="M31.2476 10.2323H32.6219V8.85181H31.2476V10.2323Z" fill="black"/>
<path d="M29.8734 10.2323H31.2476V8.85181H29.8734V10.2323Z" fill="#E3A1FF"/>
<path d="M28.4823 10.2323H29.8733V8.85181H28.4823V10.2323Z" fill="#E3A1FF"/>
<path d="M32.6217 11.6298H34.0127V10.2324H32.6217V11.6298Z" fill="black"/>
<path d="M31.2476 11.6298H32.6219V10.2324H31.2476V11.6298Z" fill="black"/>
<path d="M29.8734 11.6298H31.2476V10.2324H29.8734V11.6298Z" fill="#E3A1FF"/>
<path d="M28.4823 11.6298H29.8733V10.2324H28.4823V11.6298Z" fill="#E3A1FF"/>
<path d="M32.6217 13.0104H34.0127V11.6299H32.6217V13.0104Z" fill="black"/>
<path d="M31.2476 13.0104H32.6219V11.6299H31.2476V13.0104Z" fill="#E3A1FF"/>
<path d="M29.8734 13.0104H31.2476V11.6299H29.8734V13.0104Z" fill="#E3A1FF"/>
<path d="M28.4823 13.0104H29.8733V11.6299H28.4823V13.0104Z" fill="#E3A1FF"/>
<path d="M32.6217 14.3908H34.0127V13.0103H32.6217V14.3908Z" fill="black"/>
<path d="M31.2476 14.3908H32.6219V13.0103H31.2476V14.3908Z" fill="#E3A1FF"/>
<path d="M29.8734 14.3908H31.2476V13.0103H29.8734V14.3908Z" fill="#E3A1FF"/>
<path d="M28.4823 14.3908H29.8733V13.0103H28.4823V14.3908Z" fill="#E3A1FF"/>
<path d="M34.0129 15.7882H35.3872V14.3909H34.0129V15.7882Z" fill="black"/>
<path d="M32.6217 15.7882H34.0127V14.3909H32.6217V15.7882Z" fill="black"/>
<path d="M31.2476 15.7882H32.6219V14.3909H31.2476V15.7882Z" fill="#E3A1FF"/>
<path d="M29.8734 15.7882H31.2476V14.3909H29.8734V15.7882Z" fill="#E3A1FF"/>
<path d="M28.4823 15.7882H29.8733V14.3909H28.4823V15.7882Z" fill="#E3A1FF"/>
<path d="M34.0129 17.1686H35.3872V15.7881H34.0129V17.1686Z" fill="black"/>
<path d="M32.6217 17.1686H34.0127V15.7881H32.6217V17.1686Z" fill="#E3A1FF"/>
<path d="M31.2476 17.1686H32.6219V15.7881H31.2476V17.1686Z" fill="#E3A1FF"/>
<path d="M29.8734 17.1686H31.2476V15.7881H29.8734V17.1686Z" fill="#E3A1FF"/>
<path d="M28.4823 17.1686H29.8733V15.7881H28.4823V17.1686Z" fill="#ECBFFF"/>
<path d="M34.0129 18.549H35.3872V17.1685H34.0129V18.549Z" fill="black"/>
<path d="M32.6217 18.549H34.0127V17.1685H32.6217V18.549Z" fill="#E3A1FF"/>
<path d="M31.2476 18.549H32.6219V17.1685H31.2476V18.549Z" fill="#E3A1FF"/>
<path d="M29.8734 18.549H31.2476V17.1685H29.8734V18.549Z" fill="#E3A1FF"/>
<path d="M28.4823 18.549H29.8733V17.1685H28.4823V18.549Z" fill="#ECBFFF"/>
<path d="M34.0129 19.9462H35.3872V18.5488H34.0129V19.9462Z" fill="black"/>
<path d="M32.6217 19.9462H34.0127V18.5488H32.6217V19.9462Z" fill="#E3A1FF"/>
<path d="M31.2476 19.9462H32.6219V18.5488H31.2476V19.9462Z" fill="#E3A1FF"/>
<path d="M29.8734 19.9462H31.2476V18.5488H29.8734V19.9462Z" fill="#E3A1FF"/>
<path d="M28.4823 19.9462H29.8733V18.5488H28.4823V19.9462Z" fill="#ECBFFF"/>
<path d="M54.7102 21.3273H56.0844V19.9468H54.7102V21.3273Z" fill="black"/>
<path d="M53.3191 21.3273H54.7101V19.9468H53.3191V21.3273Z" fill="black"/>
<path d="M51.9449 21.3273H53.3191V19.9468H51.9449V21.3273Z" fill="black"/>
<path d="M50.5707 21.3273H51.9449V19.9468H50.5707V21.3273Z" fill="black"/>
<path d="M49.1797 21.3273H50.5707V19.9468H49.1797V21.3273Z" fill="black"/>
<path d="M47.8055 21.3273H49.1798V19.9468H47.8055V21.3273Z" fill="black"/>
<path d="M46.4312 21.3273H47.8055V19.9468H46.4312V21.3273Z" fill="black"/>
<path d="M45.0403 21.3273H46.4313V19.9468H45.0403V21.3273Z" fill="black"/>
<path d="M43.6662 21.3273H45.0404V19.9468H43.6662V21.3273Z" fill="black"/>
<path d="M42.2917 21.3273H43.666V19.9468H42.2917V21.3273Z" fill="black"/>
<path d="M40.9009 21.3273H42.2919V19.9468H40.9009V21.3273Z" fill="black"/>
<path d="M39.5266 21.3273H40.9008V19.9468H39.5266V21.3273Z" fill="black"/>
<path d="M38.1523 21.3273H39.5265V19.9468H38.1523V21.3273Z" fill="black"/>
<path d="M36.7612 21.3273H38.1522V19.9468H36.7612V21.3273Z" fill="black"/>
<path d="M35.387 21.3273H36.7612V19.9468H35.387V21.3273Z" fill="black"/>
<path d="M34.0129 21.3273H35.3872V19.9468H34.0129V21.3273Z" fill="black"/>
<path d="M32.6217 21.3273H34.0127V19.9468H32.6217V21.3273Z" fill="#E3A1FF"/>
<path d="M31.2476 21.3273H32.6219V19.9468H31.2476V21.3273Z" fill="#E3A1FF"/>
<path d="M29.8734 21.3273H31.2476V19.9468H29.8734V21.3273Z" fill="#ECBFFF"/>
<path d="M28.4823 21.3273H29.8733V19.9468H28.4823V21.3273Z" fill="#ECBFFF"/>
<path d="M54.7102 22.7074H56.0844V21.3269H54.7102V22.7074Z" fill="black"/>
<path d="M53.3191 22.7074H54.7101V21.3269H53.3191V22.7074Z" fill="black"/>
<path d="M51.9449 22.7074H53.3191V21.3269H51.9449V22.7074Z" fill="#E3A1FF"/>
<path d="M50.5707 22.7074H51.9449V21.3269H50.5707V22.7074Z" fill="#D065FE"/>
<path d="M49.1797 22.7074H50.5707V21.3269H49.1797V22.7074Z" fill="#D065FE"/>
<path d="M47.8055 22.7074H49.1798V21.3269H47.8055V22.7074Z" fill="#D065FE"/>
<path d="M46.4312 22.7074H47.8055V21.3269H46.4312V22.7074Z" fill="#D065FE"/>
<path d="M45.0403 22.7074H46.4313V21.3269H45.0403V22.7074Z" fill="#D065FE"/>
<path d="M43.6662 22.7074H45.0404V21.3269H43.6662V22.7074Z" fill="#D065FE"/>
<path d="M42.2917 22.7074H43.666V21.3269H42.2917V22.7074Z" fill="#D065FE"/>
<path d="M40.9009 22.7074H42.2919V21.3269H40.9009V22.7074Z" fill="#D065FE"/>
<path d="M39.5266 22.7074H40.9008V21.3269H39.5266V22.7074Z" fill="#D065FE"/>
<path d="M38.1523 22.7074H39.5265V21.3269H38.1523V22.7074Z" fill="#D065FE"/>
<path d="M36.7612 22.7074H38.1522V21.3269H36.7612V22.7074Z" fill="#D065FE"/>
<path d="M35.387 22.7074H36.7612V21.3269H35.387V22.7074Z" fill="#D065FE"/>
<path d="M34.0129 22.7074H35.3872V21.3269H34.0129V22.7074Z" fill="#D065FE"/>
<path d="M32.6217 22.7074H34.0127V21.3269H32.6217V22.7074Z" fill="#E3A1FF"/>
<path d="M31.2476 22.7074H32.6219V21.3269H31.2476V22.7074Z" fill="#E3A1FF"/>
<path d="M29.8734 22.7074H31.2476V21.3269H29.8734V22.7074Z" fill="#ECBFFF"/>
<path d="M28.4823 22.7074H29.8733V21.3269H28.4823V22.7074Z" fill="#ECBFFF"/>
<path d="M53.3191 24.1051H54.7101V22.7078H53.3191V24.1051Z" fill="black"/>
<path d="M51.9449 24.1051H53.3191V22.7078H51.9449V24.1051Z" fill="black"/>
<path d="M50.5707 24.1051H51.9449V22.7078H50.5707V24.1051Z" fill="#E3A1FF"/>
<path d="M49.1797 24.1051H50.5707V22.7078H49.1797V24.1051Z" fill="#E3A1FF"/>
<path d="M47.8055 24.1051H49.1798V22.7078H47.8055V24.1051Z" fill="#E3A1FF"/>
<path d="M46.4312 24.1051H47.8055V22.7078H46.4312V24.1051Z" fill="#D065FE"/>
<path d="M45.0403 24.1051H46.4313V22.7078H45.0403V24.1051Z" fill="#D065FE"/>
<path d="M43.6662 24.1051H45.0404V22.7078H43.6662V24.1051Z" fill="#D065FE"/>
<path d="M42.2917 24.1051H43.666V22.7078H42.2917V24.1051Z" fill="#D065FE"/>
<path d="M40.9009 24.1051H42.2919V22.7078H40.9009V24.1051Z" fill="#D065FE"/>
<path d="M39.5266 24.1051H40.9008V22.7078H39.5266V24.1051Z" fill="#D065FE"/>
<path d="M38.1523 24.1051H39.5265V22.7078H38.1523V24.1051Z" fill="#D065FE"/>
<path d="M36.7612 24.1051H38.1522V22.7078H36.7612V24.1051Z" fill="#D065FE"/>
<path d="M35.387 24.1051H36.7612V22.7078H35.387V24.1051Z" fill="#D065FE"/>
<path d="M34.0129 24.1051H35.3872V22.7078H34.0129V24.1051Z" fill="#D065FE"/>
<path d="M32.6217 24.1051H34.0127V22.7078H32.6217V24.1051Z" fill="#D065FE"/>
<path d="M31.2476 24.1051H32.6219V22.7078H31.2476V24.1051Z" fill="#E3A1FF"/>
<path d="M29.8734 24.1051H31.2476V22.7078H29.8734V24.1051Z" fill="#ECBFFF"/>
<path d="M28.4823 24.1051H29.8733V22.7078H28.4823V24.1051Z" fill="#ECBFFF"/>
<path d="M51.9449 25.4853H53.3191V24.1047H51.9449V25.4853Z" fill="black"/>
<path d="M50.5707 25.4853H51.9449V24.1047H50.5707V25.4853Z" fill="black"/>
<path d="M49.1797 25.4853H50.5707V24.1047H49.1797V25.4853Z" fill="black"/>
<path d="M47.8055 25.4853H49.1798V24.1047H47.8055V25.4853Z" fill="#E3A1FF"/>
<path d="M46.4312 25.4853H47.8055V24.1047H46.4312V25.4853Z" fill="#E3A1FF"/>
<path d="M45.0403 25.4853H46.4313V24.1047H45.0403V25.4853Z" fill="#E3A1FF"/>
<path d="M43.6662 25.4853H45.0404V24.1047H43.6662V25.4853Z" fill="#D065FE"/>
<path d="M42.2917 25.4853H43.666V24.1047H42.2917V25.4853Z" fill="#D065FE"/>
<path d="M40.9009 25.4853H42.2919V24.1047H40.9009V25.4853Z" fill="#D065FE"/>
<path d="M39.5266 25.4853H40.9008V24.1047H39.5266V25.4853Z" fill="#D065FE"/>
<path d="M38.1523 25.4853H39.5265V24.1047H38.1523V25.4853Z" fill="#D065FE"/>
<path d="M36.7612 25.4853H38.1522V24.1047H36.7612V25.4853Z" fill="#D065FE"/>
<path d="M35.387 25.4853H36.7612V24.1047H35.387V25.4853Z" fill="#D065FE"/>
<path d="M34.0129 25.4853H35.3872V24.1047H34.0129V25.4853Z" fill="#D065FE"/>
<path d="M32.6217 25.4853H34.0127V24.1047H32.6217V25.4853Z" fill="#D065FE"/>
<path d="M31.2476 25.4853H32.6219V24.1047H31.2476V25.4853Z" fill="#ECBFFF"/>
<path d="M29.8734 25.4853H31.2476V24.1047H29.8734V25.4853Z" fill="#ECBFFF"/>
<path d="M28.4823 25.4853H29.8733V24.1047H28.4823V25.4853Z" fill="#ECBFFF"/>
<path d="M50.5707 26.8654H51.9449V25.4849H50.5707V26.8654Z" fill="black"/>
<path d="M49.1797 26.8654H50.5707V25.4849H49.1797V26.8654Z" fill="black"/>
<path d="M47.8055 26.8654H49.1798V25.4849H47.8055V26.8654Z" fill="black"/>
<path d="M46.4312 26.8654H47.8055V25.4849H46.4312V26.8654Z" fill="#E3A1FF"/>
<path d="M45.0403 26.8654H46.4313V25.4849H45.0403V26.8654Z" fill="#E3A1FF"/>
<path d="M43.6662 26.8654H45.0404V25.4849H43.6662V26.8654Z" fill="#E3A1FF"/>
<path d="M42.2917 26.8654H43.666V25.4849H42.2917V26.8654Z" fill="#E3A1FF"/>
<path d="M40.9009 26.8654H42.2919V25.4849H40.9009V26.8654Z" fill="#E3A1FF"/>
<path d="M39.5266 26.8654H40.9008V25.4849H39.5266V26.8654Z" fill="#ECBFFF"/>
<path d="M38.1523 26.8654H39.5265V25.4849H38.1523V26.8654Z" fill="#ECBFFF"/>
<path d="M36.7612 26.8654H38.1522V25.4849H36.7612V26.8654Z" fill="#ECBFFF"/>
<path d="M35.387 26.8654H36.7612V25.4849H35.387V26.8654Z" fill="#ECBFFF"/>
<path d="M34.0129 26.8654H35.3872V25.4849H34.0129V26.8654Z" fill="#ECBFFF"/>
<path d="M32.6217 26.8654H34.0127V25.4849H32.6217V26.8654Z" fill="#ECBFFF"/>
<path d="M31.2476 26.8654H32.6219V25.4849H31.2476V26.8654Z" fill="#ECBFFF"/>
<path d="M29.8734 26.8654H31.2476V25.4849H29.8734V26.8654Z" fill="#ECBFFF"/>
<path d="M28.4823 26.8654H29.8733V25.4849H28.4823V26.8654Z" fill="#ECBFFF"/>
<path d="M47.8055 28.2631H49.1798V26.8657H47.8055V28.2631Z" fill="black"/>
<path d="M46.4312 28.2631H47.8055V26.8657H46.4312V28.2631Z" fill="black"/>
<path d="M45.0403 28.2631H46.4313V26.8657H45.0403V28.2631Z" fill="#E3A1FF"/>
<path d="M43.6662 28.2631H45.0404V26.8657H43.6662V28.2631Z" fill="#E3A1FF"/>
<path d="M42.2917 28.2631H43.666V26.8657H42.2917V28.2631Z" fill="#E3A1FF"/>
<path d="M40.9009 28.2631H42.2919V26.8657H40.9009V28.2631Z" fill="#E3A1FF"/>
<path d="M39.5266 28.2631H40.9008V26.8657H39.5266V28.2631Z" fill="#E3A1FF"/>
<path d="M38.1523 28.2631H39.5265V26.8657H38.1523V28.2631Z" fill="#ECBFFF"/>
<path d="M36.7612 28.2631H38.1522V26.8657H36.7612V28.2631Z" fill="#ECBFFF"/>
<path d="M35.387 28.2631H36.7612V26.8657H35.387V28.2631Z" fill="#ECBFFF"/>
<path d="M34.0129 28.2631H35.3872V26.8657H34.0129V28.2631Z" fill="#ECBFFF"/>
<path d="M32.6217 28.2631H34.0127V26.8657H32.6217V28.2631Z" fill="#ECBFFF"/>
<path d="M31.2476 28.2631H32.6219V26.8657H31.2476V28.2631Z" fill="#ECBFFF"/>
<path d="M29.8734 28.2631H31.2476V26.8657H29.8734V28.2631Z" fill="#ECBFFF"/>
<path d="M28.4823 28.2631H29.8733V26.8657H28.4823V28.2631Z" fill="#ECBFFF"/>
<path d="M46.4312 29.6437H47.8055V28.2632H46.4312V29.6437Z" fill="black"/>
<path d="M45.0403 29.6437H46.4313V28.2632H45.0403V29.6437Z" fill="black"/>
<path d="M43.6662 29.6437H45.0404V28.2632H43.6662V29.6437Z" fill="#E3A1FF"/>
<path d="M42.2917 29.6437H43.666V28.2632H42.2917V29.6437Z" fill="#E3A1FF"/>
<path d="M40.9009 29.6437H42.2919V28.2632H40.9009V29.6437Z" fill="#E3A1FF"/>
<path d="M39.5266 29.6437H40.9008V28.2632H39.5266V29.6437Z" fill="#E3A1FF"/>
<path d="M38.1523 29.6437H39.5265V28.2632H38.1523V29.6437Z" fill="#E3A1FF"/>
<path d="M36.7612 29.6437H38.1522V28.2632H36.7612V29.6437Z" fill="#ECBFFF"/>
<path d="M35.387 29.6437H36.7612V28.2632H35.387V29.6437Z" fill="#ECBFFF"/>
<path d="M34.0129 29.6437H35.3872V28.2632H34.0129V29.6437Z" fill="#ECBFFF"/>
<path d="M32.6217 29.6437H34.0127V28.2632H32.6217V29.6437Z" fill="#ECBFFF"/>
<path d="M31.2476 29.6437H32.6219V28.2632H31.2476V29.6437Z" fill="#ECBFFF"/>
<path d="M29.8734 29.6437H31.2476V28.2632H29.8734V29.6437Z" fill="#ECBFFF"/>
<path d="M28.4823 29.6437H29.8733V28.2632H28.4823V29.6437Z" fill="#ECBFFF"/>
<path d="M45.0403 31.0246H46.4313V29.644H45.0403V31.0246Z" fill="black"/>
<path d="M43.6662 31.0246H45.0404V29.644H43.6662V31.0246Z" fill="black"/>
<path d="M42.2917 31.0246H43.666V29.644H42.2917V31.0246Z" fill="black"/>
<path d="M40.9009 31.0246H42.2919V29.644H40.9009V31.0246Z" fill="#E3A1FF"/>
<path d="M39.5266 31.0246H40.9008V29.644H39.5266V31.0246Z" fill="#E3A1FF"/>
<path d="M38.1523 31.0246H39.5265V29.644H38.1523V31.0246Z" fill="#E3A1FF"/>
<path d="M36.7612 31.0246H38.1522V29.644H36.7612V31.0246Z" fill="#E3A1FF"/>
<path d="M35.387 31.0246H36.7612V29.644H35.387V31.0246Z" fill="#ECBFFF"/>
<path d="M34.0129 31.0246H35.3872V29.644H34.0129V31.0246Z" fill="#ECBFFF"/>
<path d="M32.6217 31.0246H34.0127V29.644H32.6217V31.0246Z" fill="#ECBFFF"/>
<path d="M31.2476 31.0246H32.6219V29.644H31.2476V31.0246Z" fill="#ECBFFF"/>
<path d="M29.8734 31.0246H31.2476V29.644H29.8734V31.0246Z" fill="#ECBFFF"/>
<path d="M28.4823 31.0246H29.8733V29.644H28.4823V31.0246Z" fill="#ECBFFF"/>
<path d="M42.2917 32.4218H43.666V31.0244H42.2917V32.4218Z" fill="black"/>
<path d="M40.9009 32.4218H42.2919V31.0244H40.9009V32.4218Z" fill="black"/>
<path d="M39.5266 32.4218H40.9008V31.0244H39.5266V32.4218Z" fill="#E3A1FF"/>
<path d="M38.1523 32.4218H39.5265V31.0244H38.1523V32.4218Z" fill="#E3A1FF"/>
<path d="M36.7612 32.4218H38.1522V31.0244H36.7612V32.4218Z" fill="#E3A1FF"/>
<path d="M35.387 32.4218H36.7612V31.0244H35.387V32.4218Z" fill="#E3A1FF"/>
<path d="M34.0129 32.4218H35.3872V31.0244H34.0129V32.4218Z" fill="#E3A1FF"/>
<path d="M32.6217 32.4218H34.0127V31.0244H32.6217V32.4218Z" fill="#ECBFFF"/>
<path d="M31.2476 32.4218H32.6219V31.0244H31.2476V32.4218Z" fill="#ECBFFF"/>
<path d="M29.8734 32.4218H31.2476V31.0244H29.8734V32.4218Z" fill="#ECBFFF"/>
<path d="M28.4823 32.4218H29.8733V31.0244H28.4823V32.4218Z" fill="#ECBFFF"/>
<path d="M40.9009 33.8022H42.2919V32.4216H40.9009V33.8022Z" fill="black"/>
<path d="M39.5266 33.8022H40.9008V32.4216H39.5266V33.8022Z" fill="black"/>
<path d="M38.1523 33.8022H39.5265V32.4216H38.1523V33.8022Z" fill="#E3A1FF"/>
<path d="M36.7612 33.8022H38.1522V32.4216H36.7612V33.8022Z" fill="#E3A1FF"/>
<path d="M35.387 33.8022H36.7612V32.4216H35.387V33.8022Z" fill="#E3A1FF"/>
<path d="M34.0129 33.8022H35.3872V32.4216H34.0129V33.8022Z" fill="#E3A1FF"/>
<path d="M32.6217 33.8022H34.0127V32.4216H32.6217V33.8022Z" fill="#ECBFFF"/>
<path d="M31.2476 33.8022H32.6219V32.4216H31.2476V33.8022Z" fill="#ECBFFF"/>
<path d="M29.8734 33.8022H31.2476V32.4216H29.8734V33.8022Z" fill="#ECBFFF"/>
<path d="M28.4823 33.8022H29.8733V32.4216H28.4823V33.8022Z" fill="#ECBFFF"/>
<path d="M39.5266 35.1825H40.9008V33.802H39.5266V35.1825Z" fill="black"/>
<path d="M38.1523 35.1825H39.5265V33.802H38.1523V35.1825Z" fill="black"/>
<path d="M36.7612 35.1825H38.1522V33.802H36.7612V35.1825Z" fill="#E3A1FF"/>
<path d="M35.387 35.1825H36.7612V33.802H35.387V35.1825Z" fill="#D065FE"/>
<path d="M34.0129 35.1825H35.3872V33.802H34.0129V35.1825Z" fill="#ECBFFF"/>
<path d="M32.6217 35.1825H34.0127V33.802H32.6217V35.1825Z" fill="#ECBFFF"/>
<path d="M31.2476 35.1825H32.6219V33.802H31.2476V35.1825Z" fill="#ECBFFF"/>
<path d="M29.8734 35.1825H31.2476V33.802H29.8734V35.1825Z" fill="#ECBFFF"/>
<path d="M28.4823 35.1825H29.8733V33.802H28.4823V35.1825Z" fill="#ECBFFF"/>
<path d="M39.5266 36.5797H40.9008V35.1824H39.5266V36.5797Z" fill="black"/>
<path d="M38.1523 36.5797H39.5265V35.1824H38.1523V36.5797Z" fill="#D065FE"/>
<path d="M36.7612 36.5797H38.1522V35.1824H36.7612V36.5797Z" fill="#D065FE"/>
<path d="M35.387 36.5797H36.7612V35.1824H35.387V36.5797Z" fill="#D065FE"/>
<path d="M34.0129 36.5797H35.3872V35.1824H34.0129V36.5797Z" fill="#ECBFFF"/>
<path d="M32.6217 36.5797H34.0127V35.1824H32.6217V36.5797Z" fill="#ECBFFF"/>
<path d="M31.2476 36.5797H32.6219V35.1824H31.2476V36.5797Z" fill="#ECBFFF"/>
<path d="M29.8734 36.5797H31.2476V35.1824H29.8734V36.5797Z" fill="#ECBFFF"/>
<path d="M28.4823 36.5797H29.8733V35.1824H28.4823V36.5797Z" fill="#ECBFFF"/>
<path d="M40.9009 37.9606H42.2919V36.5801H40.9009V37.9606Z" fill="black"/>
<path d="M39.5266 37.9606H40.9008V36.5801H39.5266V37.9606Z" fill="black"/>
<path d="M38.1523 37.9606H39.5265V36.5801H38.1523V37.9606Z" fill="#D065FE"/>
<path d="M36.7612 37.9606H38.1522V36.5801H36.7612V37.9606Z" fill="#D065FE"/>
<path d="M35.387 37.9606H36.7612V36.5801H35.387V37.9606Z" fill="#D065FE"/>
<path d="M34.0129 37.9606H35.3872V36.5801H34.0129V37.9606Z" fill="#ECBFFF"/>
<path d="M32.6555 37.9606H34.0297V36.5801H32.6555V37.9606Z" fill="#ECBFFF"/>
<path d="M31.2476 37.9606H32.6554V36.5801H31.2476V37.9606Z" fill="#ECBFFF"/>
<path d="M29.8734 37.9606H31.2476V36.5801H29.8734V37.9606Z" fill="#ECBFFF"/>
<path d="M28.4823 37.9606H29.8733V36.5801H28.4823V37.9606Z" fill="#E3A1FF"/>
<path d="M40.9009 39.3412H42.2919V37.9607H40.9009V39.3412Z" fill="black"/>
<path d="M39.5266 39.3412H40.9008V37.9607H39.5266V39.3412Z" fill="#D065FE"/>
<path d="M38.1523 39.3412H39.5265V37.9607H38.1523V39.3412Z" fill="#D065FE"/>
<path d="M36.7612 39.3412H38.1522V37.9607H36.7612V39.3412Z" fill="#D065FE"/>
<path d="M35.387 39.3412H36.7612V37.9607H35.387V39.3412Z" fill="#ECBFFF"/>
<path d="M34.0129 39.3412H35.3872V37.9607H34.0129V39.3412Z" fill="#ECBFFF"/>
<path d="M32.6555 39.3412H34.0297V37.9607H32.6555V39.3412Z" fill="#ECBFFF"/>
<path d="M31.2476 39.3412H32.6554V37.9607H31.2476V39.3412Z" fill="#E3A1FF"/>
<path d="M29.8734 39.3412H31.2476V37.9607H29.8734V39.3412Z" fill="#E3A1FF"/>
<path d="M28.4823 39.3412H29.8733V37.9607H28.4823V39.3412Z" fill="#E3A1FF"/>
<path d="M40.9009 40.7387H42.2919V39.3413H40.9009V40.7387Z" fill="black"/>
<path d="M39.5266 40.7387H40.9008V39.3413H39.5266V40.7387Z" fill="#D065FE"/>
<path d="M38.1523 40.7387H39.5265V39.3413H38.1523V40.7387Z" fill="#D065FE"/>
<path d="M36.7612 40.7387H38.1522V39.3413H36.7612V40.7387Z" fill="#D065FE"/>
<path d="M35.387 40.7387H36.7612V39.3413H35.387V40.7387Z" fill="#ECBFFF"/>
<path d="M34.0129 40.7387H35.3872V39.3413H34.0129V40.7387Z" fill="#ECBFFF"/>
<path d="M32.6555 40.7387H34.0297V39.3413H32.6555V40.7387Z" fill="#E3A1FF"/>
<path d="M31.2476 40.7387H32.6554V39.3413H31.2476V40.7387Z" fill="#E3A1FF"/>
<path d="M29.8734 40.7387H31.2476V39.3413H29.8734V40.7387Z" fill="#E3A1FF"/>
<path d="M28.4823 40.7387H29.8733V39.3413H28.4823V40.7387Z" fill="#E3A1FF"/>
<path d="M42.2917 42.1188H43.666V40.7383H42.2917V42.1188Z" fill="black"/>
<path d="M40.9009 42.1188H42.2919V40.7383H40.9009V42.1188Z" fill="black"/>
<path d="M39.5266 42.1188H40.9008V40.7383H39.5266V42.1188Z" fill="#D065FE"/>
<path d="M38.1523 42.1188H39.5265V40.7383H38.1523V42.1188Z" fill="#D065FE"/>
<path d="M36.7612 42.1188H38.1522V40.7383H36.7612V42.1188Z" fill="#D065FE"/>
<path d="M35.387 42.1188H36.7612V40.7383H35.387V42.1188Z" fill="#ECBFFF"/>
<path d="M34.0295 42.1188H35.4205V40.7383H34.0295V42.1188Z" fill="#E3A1FF"/>
<path d="M32.6555 42.1188H34.0297V40.7383H32.6555V42.1188Z" fill="#E3A1FF"/>
<path d="M31.2476 42.1188H32.6554V40.7383H31.2476V42.1188Z" fill="#E3A1FF"/>
<path d="M29.8734 42.1188H31.2476V40.7383H29.8734V42.1188Z" fill="#E3A1FF"/>
<path d="M28.4823 42.1188H29.8733V40.7383H28.4823V42.1188Z" fill="black"/>
<path d="M42.2917 43.4997H43.666V42.1191H42.2917V43.4997Z" fill="black"/>
<path d="M40.9009 43.4997H42.2919V42.1191H40.9009V43.4997Z" fill="black"/>
<path d="M39.5266 43.4997H40.9008V42.1191H39.5266V43.4997Z" fill="#D065FE"/>
<path d="M38.1523 43.4997H39.5265V42.1191H38.1523V43.4997Z" fill="#D065FE"/>
<path d="M36.7949 43.4997H38.1692V42.1191H36.7949V43.4997Z" fill="#D065FE"/>
<path d="M35.4207 43.4997H36.7949V42.1191H35.4207V43.4997Z" fill="#E3A1FF"/>
<path d="M34.0295 43.4997H35.4205V42.1191H34.0295V43.4997Z" fill="#E3A1FF"/>
<path d="M32.6555 43.4997H34.0297V42.1191H32.6555V43.4997Z" fill="#E3A1FF"/>
<path d="M31.2476 43.4997H32.6554V42.1191H31.2476V43.4997Z" fill="#E3A1FF"/>
<path d="M29.8734 43.4997H31.2476V42.1191H29.8734V43.4997Z" fill="black"/>
<path d="M28.4823 43.4997H29.8733V42.1191H28.4823V43.4997Z" fill="black"/>
<path d="M42.2917 44.8971H43.666V43.4998H42.2917V44.8971Z" fill="black"/>
<path d="M40.9009 44.8971H42.2919V43.4998H40.9009V44.8971Z" fill="#D065FE"/>
<path d="M39.5266 44.8971H40.9008V43.4998H39.5266V44.8971Z" fill="#D065FE"/>
<path d="M38.1523 44.8971H39.5265V43.4998H38.1523V44.8971Z" fill="#E3A1FF"/>
<path d="M36.7949 44.8971H38.1692V43.4998H36.7949V44.8971Z" fill="#E3A1FF"/>
<path d="M35.4207 44.8971H36.7949V43.4998H35.4207V44.8971Z" fill="#E3A1FF"/>
<path d="M34.0295 44.8971H35.4205V43.4998H34.0295V44.8971Z" fill="#E3A1FF"/>
<path d="M32.6555 44.8971H34.0297V43.4998H32.6555V44.8971Z" fill="black"/>
<path d="M31.2476 44.8971H32.6554V43.4998H31.2476V44.8971Z" fill="black"/>
<path d="M29.8734 44.8971H31.2476V43.4998H29.8734V44.8971Z" fill="black"/>
<path d="M43.6662 46.2775H45.0404V44.897H43.6662V46.2775Z" fill="black"/>
<path d="M42.2917 46.2775H43.666V44.897H42.2917V46.2775Z" fill="black"/>
<path d="M40.9009 46.2775H42.2919V44.897H40.9009V46.2775Z" fill="#D065FE"/>
<path d="M39.5266 46.2775H40.9008V44.897H39.5266V46.2775Z" fill="#D065FE"/>
<path d="M38.1523 46.2775H39.5265V44.897H38.1523V46.2775Z" fill="#E3A1FF"/>
<path d="M36.7612 46.2775H38.1522V44.897H36.7612V46.2775Z" fill="#E3A1FF"/>
<path d="M35.4207 46.2775H36.7949V44.897H35.4207V46.2775Z" fill="#E3A1FF"/>
<path d="M34.0295 46.2775H35.4205V44.897H34.0295V46.2775Z" fill="black"/>
<path d="M32.6555 46.2775H34.0297V44.897H32.6555V46.2775Z" fill="black"/>
<path d="M43.6662 47.6581H45.0404V46.2776H43.6662V47.6581Z" fill="black"/>
<path d="M42.2917 47.6581H43.666V46.2776H42.2917V47.6581Z" fill="#D065FE"/>
<path d="M40.9009 47.6581H42.2919V46.2776H40.9009V47.6581Z" fill="#D065FE"/>
<path d="M39.5266 47.6581H40.9008V46.2776H39.5266V47.6581Z" fill="#E3A1FF"/>
<path d="M38.1523 47.6581H39.5265V46.2776H38.1523V47.6581Z" fill="#E3A1FF"/>
<path d="M36.7612 47.6581H38.1522V46.2776H36.7612V47.6581Z" fill="black"/>
<path d="M35.4207 47.6581H36.7949V46.2776H35.4207V47.6581Z" fill="black"/>
<path d="M34.0295 47.6581H35.4205V46.2776H34.0295V47.6581Z" fill="black"/>
<path d="M43.6662 49.0551H45.0404V47.6577H43.6662V49.0551Z" fill="black"/>
<path d="M42.2917 49.0551H43.666V47.6577H42.2917V49.0551Z" fill="#D065FE"/>
<path d="M40.9009 49.0551H42.2919V47.6577H40.9009V49.0551Z" fill="#E3A1FF"/>
<path d="M39.5266 49.0551H40.9008V47.6577H39.5266V49.0551Z" fill="#E3A1FF"/>
<path d="M38.1523 49.0551H39.5265V47.6577H38.1523V49.0551Z" fill="black"/>
<path d="M36.7949 49.0551H38.1692V47.6577H36.7949V49.0551Z" fill="black"/>
<path d="M45.0403 50.4357H46.4313V49.0552H45.0403V50.4357Z" fill="black"/>
<path d="M43.6662 50.4357H45.0404V49.0552H43.6662V50.4357Z" fill="black"/>
<path d="M42.2917 50.4357H43.666V49.0552H42.2917V50.4357Z" fill="#E3A1FF"/>
<path d="M40.9009 50.4357H42.2919V49.0552H40.9009V50.4357Z" fill="#E3A1FF"/>
<path d="M39.5266 50.4357H40.9008V49.0552H39.5266V50.4357Z" fill="black"/>
<path d="M38.1523 50.4357H39.5265V49.0552H38.1523V50.4357Z" fill="black"/>
<path d="M45.0403 51.8163H46.4313V50.4358H45.0403V51.8163Z" fill="black"/>
<path d="M43.6662 51.8163H45.0404V50.4358H43.6662V51.8163Z" fill="#D065FE"/>
<path d="M42.2917 51.8163H43.666V50.4358H42.2917V51.8163Z" fill="black"/>
<path d="M40.9009 51.8163H42.2919V50.4358H40.9009V51.8163Z" fill="black"/>
<path d="M39.5266 51.8163H40.9008V50.4358H39.5266V51.8163Z" fill="black"/>
<path d="M45.0403 53.2135H46.4313V51.8162H45.0403V53.2135Z" fill="black"/>
<path d="M43.6662 53.2135H45.0404V51.8162H43.6662V53.2135Z" fill="black"/>
<path d="M42.2917 53.2135H43.666V51.8162H42.2917V53.2135Z" fill="black"/>
<path d="M46.6727 37.7022H45.8918V36.9082H46.6727V37.7022Z" fill="black"/>
<path d="M45.8919 38.4865H45.1111V37.7021H45.8919V38.4865Z" fill="black"/>
<path d="M46.6727 38.4865H45.8918V37.7021H46.6727V38.4865Z" fill="black"/>
<path d="M45.8919 39.271H45.1111V38.4866H45.8919V39.271Z" fill="black"/>
<path d="M46.6727 39.271H45.8918V38.4866H46.6727V39.271Z" fill="#D065FE"/>
<path d="M45.8919 40.0652H45.1111V39.2712H45.8919V40.0652Z" fill="black"/>
<path d="M46.6727 40.0652H45.8918V39.2712H46.6727V40.0652Z" fill="#D065FE"/>
<path d="M45.111 40.8496H44.3207V40.0652H45.111V40.8496Z" fill="black"/>
<path d="M45.8919 40.8496H45.1111V40.0652H45.8919V40.8496Z" fill="black"/>
<path d="M46.6727 40.8496H45.8918V40.0652H46.6727V40.8496Z" fill="#D065FE"/>
<path d="M45.111 41.634H44.3207V40.8496H45.111V41.634Z" fill="black"/>
<path d="M45.8919 41.634H45.1111V40.8496H45.8919V41.634Z" fill="#D065FE"/>
<path d="M46.6727 41.634H45.8918V40.8496H46.6727V41.634Z" fill="#D065FE"/>
<path d="M45.111 42.4182H44.3207V41.6338H45.111V42.4182Z" fill="black"/>
<path d="M45.8919 42.4182H45.1111V41.6338H45.8919V42.4182Z" fill="#D065FE"/>
<path d="M46.6727 42.4182H45.8918V41.6338H46.6727V42.4182Z" fill="#D065FE"/>
<path d="M44.3206 43.2122H43.5398V42.4182H44.3206V43.2122Z" fill="black"/>
<path d="M45.111 43.2122H44.3207V42.4182H45.111V43.2122Z" fill="black"/>
<path d="M45.8919 43.2122H45.1111V42.4182H45.8919V43.2122Z" fill="#D065FE"/>
<path d="M46.6727 43.2122H45.8918V42.4182H46.6727V43.2122Z" fill="#D065FE"/>
<path d="M44.3206 43.9965H43.5398V43.2122H44.3206V43.9965Z" fill="black"/>
<path d="M45.111 43.9965H44.3207V43.2122H45.111V43.9965Z" fill="#D065FE"/>
<path d="M45.8919 43.9965H45.1111V43.2122H45.8919V43.9965Z" fill="#D065FE"/>
<path d="M46.6727 43.9965H45.8918V43.2122H46.6727V43.9965Z" fill="#D065FE"/>
<path d="M44.3206 44.781H43.5398V43.9966H44.3206V44.781Z" fill="black"/>
<path d="M45.111 44.781H44.3207V43.9966H45.111V44.781Z" fill="#D065FE"/>
<path d="M45.8919 44.781H45.1111V43.9966H45.8919V44.781Z" fill="#D065FE"/>
<path d="M46.6727 44.781H45.8918V43.9966H46.6727V44.781Z" fill="#D065FE"/>
<path d="M43.5399 45.575H42.7591V44.781H43.5399V45.575Z" fill="black"/>
<path d="M44.3206 45.575H43.5398V44.781H44.3206V45.575Z" fill="black"/>
<path d="M45.111 45.575H44.3207V44.781H45.111V45.575Z" fill="#D065FE"/>
<path d="M45.8919 45.575H45.1111V44.781H45.8919V45.575Z" fill="#D065FE"/>
<path d="M46.6727 45.575H45.8918V44.781H46.6727V45.575Z" fill="#D065FE"/>
<path d="M43.5399 46.3593H42.7591V45.575H43.5399V46.3593Z" fill="black"/>
<path d="M44.3206 46.3593H43.5398V45.575H44.3206V46.3593Z" fill="#D065FE"/>
<path d="M45.111 46.3593H44.3207V45.575H45.111V46.3593Z" fill="#D065FE"/>
<path d="M45.8919 46.3593H45.1111V45.575H45.8919V46.3593Z" fill="#D065FE"/>
<path d="M46.6727 46.3593H45.8918V45.575H46.6727V46.3593Z" fill="#ECBFFF"/>
<path d="M43.5399 47.1438H42.7591V46.3594H43.5399V47.1438Z" fill="black"/>
<path d="M44.3206 47.1438H43.5398V46.3594H44.3206V47.1438Z" fill="#D065FE"/>
<path d="M45.111 47.1438H44.3207V46.3594H45.111V47.1438Z" fill="#D065FE"/>
<path d="M45.8919 47.1438H45.1111V46.3594H45.8919V47.1438Z" fill="#D065FE"/>
<path d="M46.6727 47.1438H45.8918V46.3594H46.6727V47.1438Z" fill="#ECBFFF"/>
<path d="M43.5399 47.9375H42.7591V47.1436H43.5399V47.9375Z" fill="black"/>
<path d="M44.3206 47.9375H43.5398V47.1436H44.3206V47.9375Z" fill="#D065FE"/>
<path d="M45.111 47.9375H44.3207V47.1436H45.111V47.9375Z" fill="#D065FE"/>
<path d="M45.8919 47.9375H45.1111V47.1436H45.8919V47.9375Z" fill="#D065FE"/>
<path d="M46.6727 47.9375H45.8918V47.1436H46.6727V47.9375Z" fill="#ECBFFF"/>
<path d="M31.7801 48.7219H30.9993V47.9375H31.7801V48.7219Z" fill="black"/>
<path d="M32.561 48.7219H31.7802V47.9375H32.561V48.7219Z" fill="black"/>
<path d="M33.3512 48.7219H32.5609V47.9375H33.3512V48.7219Z" fill="black"/>
<path d="M34.1321 48.7219H33.3513V47.9375H34.1321V48.7219Z" fill="black"/>
<path d="M34.9128 48.7219H34.132V47.9375H34.9128V48.7219Z" fill="black"/>
<path d="M35.7032 48.7219H34.9128V47.9375H35.7032V48.7219Z" fill="black"/>
<path d="M36.484 48.7219H35.7032V47.9375H36.484V48.7219Z" fill="black"/>
<path d="M37.2647 48.7219H36.4839V47.9375H37.2647V48.7219Z" fill="black"/>
<path d="M38.0552 48.7219H37.2648V47.9375H38.0552V48.7219Z" fill="black"/>
<path d="M38.8359 48.7219H38.0551V47.9375H38.8359V48.7219Z" fill="black"/>
<path d="M39.6168 48.7219H38.836V47.9375H39.6168V48.7219Z" fill="black"/>
<path d="M40.4071 48.7219H39.6168V47.9375H40.4071V48.7219Z" fill="black"/>
<path d="M41.1879 48.7219H40.4071V47.9375H41.1879V48.7219Z" fill="black"/>
<path d="M41.9689 48.7219H41.188V47.9375H41.9689V48.7219Z" fill="black"/>
<path d="M42.7591 48.7219H41.9688V47.9375H42.7591V48.7219Z" fill="black"/>
<path d="M43.5399 48.7219H42.7591V47.9375H43.5399V48.7219Z" fill="black"/>
<path d="M44.3206 48.7219H43.5398V47.9375H44.3206V48.7219Z" fill="#D065FE"/>
<path d="M45.111 48.7219H44.3207V47.9375H45.111V48.7219Z" fill="#D065FE"/>
<path d="M45.8919 48.7219H45.1111V47.9375H45.8919V48.7219Z" fill="#ECBFFF"/>
<path d="M46.6727 48.7219H45.8918V47.9375H46.6727V48.7219Z" fill="#ECBFFF"/>
<path d="M31.7801 49.5066H30.9993V48.7222H31.7801V49.5066Z" fill="black"/>
<path d="M32.561 49.5066H31.7802V48.7222H32.561V49.5066Z" fill="black"/>
<path d="M33.3512 49.5066H32.5609V48.7222H33.3512V49.5066Z" fill="#E3A1FF"/>
<path d="M34.1321 49.5066H33.3513V48.7222H34.1321V49.5066Z" fill="#E3A1FF"/>
<path d="M34.9128 49.5066H34.132V48.7222H34.9128V49.5066Z" fill="#E3A1FF"/>
<path d="M35.7032 49.5066H34.9128V48.7222H35.7032V49.5066Z" fill="#E3A1FF"/>
<path d="M36.484 49.5066H35.7032V48.7222H36.484V49.5066Z" fill="#E3A1FF"/>
<path d="M37.2647 49.5066H36.4839V48.7222H37.2647V49.5066Z" fill="#E3A1FF"/>
<path d="M38.0552 49.5066H37.2648V48.7222H38.0552V49.5066Z" fill="#E3A1FF"/>
<path d="M38.8359 49.5066H38.0551V48.7222H38.8359V49.5066Z" fill="#E3A1FF"/>
<path d="M39.6168 49.5066H38.836V48.7222H39.6168V49.5066Z" fill="#E3A1FF"/>
<path d="M40.4071 49.5066H39.6168V48.7222H40.4071V49.5066Z" fill="#E3A1FF"/>
<path d="M41.1879 49.5066H40.4071V48.7222H41.1879V49.5066Z" fill="#E3A1FF"/>
<path d="M41.9689 49.5066H41.188V48.7222H41.9689V49.5066Z" fill="#E3A1FF"/>
<path d="M42.7591 49.5066H41.9688V48.7222H42.7591V49.5066Z" fill="#E3A1FF"/>
<path d="M43.5399 49.5066H42.7591V48.7222H43.5399V49.5066Z" fill="#E3A1FF"/>
<path d="M44.3206 49.5066H43.5398V48.7222H44.3206V49.5066Z" fill="#E3A1FF"/>
<path d="M45.111 49.5066H44.3207V48.7222H45.111V49.5066Z" fill="#D065FE"/>
<path d="M45.8919 49.5066H45.1111V48.7222H45.8919V49.5066Z" fill="#ECBFFF"/>
<path d="M46.6727 49.5066H45.8918V48.7222H46.6727V49.5066Z" fill="#ECBFFF"/>
<path d="M32.561 50.3003H31.7802V49.5063H32.561V50.3003Z" fill="black"/>
<path d="M33.3512 50.3003H32.5609V49.5063H33.3512V50.3003Z" fill="black"/>
<path d="M34.1321 50.3003H33.3513V49.5063H34.1321V50.3003Z" fill="#D065FE"/>
<path d="M34.9128 50.3003H34.132V49.5063H34.9128V50.3003Z" fill="#D065FE"/>
<path d="M35.7032 50.3003H34.9128V49.5063H35.7032V50.3003Z" fill="#D065FE"/>
<path d="M36.484 50.3003H35.7032V49.5063H36.484V50.3003Z" fill="#E3A1FF"/>
<path d="M37.2647 50.3003H36.4839V49.5063H37.2647V50.3003Z" fill="#E3A1FF"/>
<path d="M38.0552 50.3003H37.2648V49.5063H38.0552V50.3003Z" fill="#E3A1FF"/>
<path d="M38.8359 50.3003H38.0551V49.5063H38.8359V50.3003Z" fill="#E3A1FF"/>
<path d="M39.6168 50.3003H38.836V49.5063H39.6168V50.3003Z" fill="#E3A1FF"/>
<path d="M40.4071 50.3003H39.6168V49.5063H40.4071V50.3003Z" fill="#E3A1FF"/>
<path d="M41.1879 50.3003H40.4071V49.5063H41.1879V50.3003Z" fill="#E3A1FF"/>
<path d="M41.9689 50.3003H41.188V49.5063H41.9689V50.3003Z" fill="#E3A1FF"/>
<path d="M42.7591 50.3003H41.9688V49.5063H42.7591V50.3003Z" fill="#E3A1FF"/>
<path d="M43.5399 50.3003H42.7591V49.5063H43.5399V50.3003Z" fill="#E3A1FF"/>
<path d="M44.3206 50.3003H43.5398V49.5063H44.3206V50.3003Z" fill="#E3A1FF"/>
<path d="M45.111 50.3003H44.3207V49.5063H45.111V50.3003Z" fill="#E3A1FF"/>
<path d="M45.8919 50.3003H45.1111V49.5063H45.8919V50.3003Z" fill="#ECBFFF"/>
<path d="M46.6727 50.3003H45.8918V49.5063H46.6727V50.3003Z" fill="#ECBFFF"/>
<path d="M33.3512 51.0847H32.5609V50.3003H33.3512V51.0847Z" fill="black"/>
<path d="M34.1321 51.0847H33.3513V50.3003H34.1321V51.0847Z" fill="black"/>
<path d="M34.9128 51.0847H34.132V50.3003H34.9128V51.0847Z" fill="black"/>
<path d="M35.7032 51.0847H34.9128V50.3003H35.7032V51.0847Z" fill="#D065FE"/>
<path d="M36.484 51.0847H35.7032V50.3003H36.484V51.0847Z" fill="#D065FE"/>
<path d="M37.2647 51.0847H36.4839V50.3003H37.2647V51.0847Z" fill="#D065FE"/>
<path d="M38.0552 51.0847H37.2648V50.3003H38.0552V51.0847Z" fill="#D065FE"/>
<path d="M38.8359 51.0847H38.0551V50.3003H38.8359V51.0847Z" fill="#E3A1FF"/>
<path d="M39.6168 51.0847H38.836V50.3003H39.6168V51.0847Z" fill="#E3A1FF"/>
<path d="M40.4071 51.0847H39.6168V50.3003H40.4071V51.0847Z" fill="#E3A1FF"/>
<path d="M41.1879 51.0847H40.4071V50.3003H41.1879V51.0847Z" fill="#E3A1FF"/>
<path d="M41.9689 51.0847H41.188V50.3003H41.9689V51.0847Z" fill="#E3A1FF"/>
<path d="M42.7591 51.0847H41.9688V50.3003H42.7591V51.0847Z" fill="#E3A1FF"/>
<path d="M43.5399 51.0847H42.7591V50.3003H43.5399V51.0847Z" fill="#E3A1FF"/>
<path d="M44.3206 51.0847H43.5398V50.3003H44.3206V51.0847Z" fill="#E3A1FF"/>
<path d="M45.111 51.0847H44.3207V50.3003H45.111V51.0847Z" fill="#ECBFFF"/>
<path d="M45.8919 51.0847H45.1111V50.3003H45.8919V51.0847Z" fill="#ECBFFF"/>
<path d="M46.6727 51.0847H45.8918V50.3003H46.6727V51.0847Z" fill="#ECBFFF"/>
<path d="M34.1321 51.8691H33.3513V51.0847H34.1321V51.8691Z" fill="black"/>
<path d="M34.9128 51.8691H34.132V51.0847H34.9128V51.8691Z" fill="black"/>
<path d="M35.7032 51.8691H34.9128V51.0847H35.7032V51.8691Z" fill="black"/>
<path d="M36.484 51.8691H35.7032V51.0847H36.484V51.8691Z" fill="#D065FE"/>
<path d="M37.2647 51.8691H36.4839V51.0847H37.2647V51.8691Z" fill="#D065FE"/>
<path d="M38.0552 51.8691H37.2648V51.0847H38.0552V51.8691Z" fill="#D065FE"/>
<path d="M38.8359 51.8691H38.0551V51.0847H38.8359V51.8691Z" fill="#D065FE"/>
<path d="M39.6168 51.8691H38.836V51.0847H39.6168V51.8691Z" fill="#D065FE"/>
<path d="M40.4071 51.8691H39.6168V51.0847H40.4071V51.8691Z" fill="#ECBFFF"/>
<path d="M41.1879 51.8691H40.4071V51.0847H41.1879V51.8691Z" fill="#ECBFFF"/>
<path d="M41.9689 51.8691H41.188V51.0847H41.9689V51.8691Z" fill="#ECBFFF"/>
<path d="M42.7591 51.8691H41.9688V51.0847H42.7591V51.8691Z" fill="#ECBFFF"/>
<path d="M43.5399 51.8691H42.7591V51.0847H43.5399V51.8691Z" fill="#ECBFFF"/>
<path d="M44.3206 51.8691H43.5398V51.0847H44.3206V51.8691Z" fill="#ECBFFF"/>
<path d="M45.111 51.8691H44.3207V51.0847H45.111V51.8691Z" fill="#ECBFFF"/>
<path d="M45.8919 51.8691H45.1111V51.0847H45.8919V51.8691Z" fill="#ECBFFF"/>
<path d="M46.6727 51.8691H45.8918V51.0847H46.6727V51.8691Z" fill="#ECBFFF"/>
<path d="M35.7032 52.6633H34.9128V51.8694H35.7032V52.6633Z" fill="black"/>
<path d="M36.484 52.6633H35.7032V51.8694H36.484V52.6633Z" fill="black"/>
<path d="M37.2647 52.6633H36.4839V51.8694H37.2647V52.6633Z" fill="#D065FE"/>
<path d="M38.0552 52.6633H37.2648V51.8694H38.0552V52.6633Z" fill="#D065FE"/>
<path d="M38.8359 52.6633H38.0551V51.8694H38.8359V52.6633Z" fill="#D065FE"/>
<path d="M39.6168 52.6633H38.836V51.8694H39.6168V52.6633Z" fill="#D065FE"/>
<path d="M40.4071 52.6633H39.6168V51.8694H40.4071V52.6633Z" fill="#D065FE"/>
<path d="M41.1879 52.6633H40.4071V51.8694H41.1879V52.6633Z" fill="#ECBFFF"/>
<path d="M41.9689 52.6633H41.188V51.8694H41.9689V52.6633Z" fill="#ECBFFF"/>
<path d="M42.7591 52.6633H41.9688V51.8694H42.7591V52.6633Z" fill="#ECBFFF"/>
<path d="M43.5399 52.6633H42.7591V51.8694H43.5399V52.6633Z" fill="#ECBFFF"/>
<path d="M44.3206 52.6633H43.5398V51.8694H44.3206V52.6633Z" fill="#ECBFFF"/>
<path d="M45.111 52.6633H44.3207V51.8694H45.111V52.6633Z" fill="#ECBFFF"/>
<path d="M45.8919 52.6633H45.1111V51.8694H45.8919V52.6633Z" fill="#ECBFFF"/>
<path d="M46.6727 52.6633H45.8918V51.8694H46.6727V52.6633Z" fill="#ECBFFF"/>
<path d="M36.484 53.4477H35.7032V52.6633H36.484V53.4477Z" fill="black"/>
<path d="M37.2647 53.4477H36.4839V52.6633H37.2647V53.4477Z" fill="black"/>
<path d="M38.0552 53.4477H37.2648V52.6633H38.0552V53.4477Z" fill="#D065FE"/>
<path d="M38.8359 53.4477H38.0551V52.6633H38.8359V53.4477Z" fill="#D065FE"/>
<path d="M39.6168 53.4477H38.836V52.6633H39.6168V53.4477Z" fill="#D065FE"/>
<path d="M40.4071 53.4477H39.6168V52.6633H40.4071V53.4477Z" fill="#D065FE"/>
<path d="M41.1879 53.4477H40.4071V52.6633H41.1879V53.4477Z" fill="#D065FE"/>
<path d="M41.9689 53.4477H41.188V52.6633H41.9689V53.4477Z" fill="#ECBFFF"/>
<path d="M42.7591 53.4477H41.9688V52.6633H42.7591V53.4477Z" fill="#ECBFFF"/>
<path d="M43.5399 53.4477H42.7591V52.6633H43.5399V53.4477Z" fill="#ECBFFF"/>
<path d="M44.3206 53.4477H43.5398V52.6633H44.3206V53.4477Z" fill="#ECBFFF"/>
<path d="M45.111 53.4477H44.3207V52.6633H45.111V53.4477Z" fill="#ECBFFF"/>
<path d="M45.8919 53.4477H45.1111V52.6633H45.8919V53.4477Z" fill="#ECBFFF"/>
<path d="M46.6727 53.4477H45.8918V52.6633H46.6727V53.4477Z" fill="#ECBFFF"/>
<path d="M37.2647 54.2321H36.4839V53.4478H37.2647V54.2321Z" fill="black"/>
<path d="M38.0552 54.2321H37.2648V53.4478H38.0552V54.2321Z" fill="black"/>
<path d="M38.8359 54.2321H38.0551V53.4478H38.8359V54.2321Z" fill="black"/>
<path d="M39.6168 54.2321H38.836V53.4478H39.6168V54.2321Z" fill="#D065FE"/>
<path d="M40.4071 54.2321H39.6168V53.4478H40.4071V54.2321Z" fill="#D065FE"/>
<path d="M41.1879 54.2321H40.4071V53.4478H41.1879V54.2321Z" fill="#D065FE"/>
<path d="M41.9689 54.2321H41.188V53.4478H41.9689V54.2321Z" fill="#D065FE"/>
<path d="M42.7591 54.2321H41.9688V53.4478H42.7591V54.2321Z" fill="#ECBFFF"/>
<path d="M43.5399 54.2321H42.7591V53.4478H43.5399V54.2321Z" fill="#ECBFFF"/>
<path d="M44.3206 54.2321H43.5398V53.4478H44.3206V54.2321Z" fill="#ECBFFF"/>
<path d="M45.111 54.2321H44.3207V53.4478H45.111V54.2321Z" fill="#ECBFFF"/>
<path d="M45.8919 54.2321H45.1111V53.4478H45.8919V54.2321Z" fill="#ECBFFF"/>
<path d="M46.6727 54.2321H45.8918V53.4478H46.6727V54.2321Z" fill="#ECBFFF"/>
<path d="M38.8359 55.0259H38.0551V54.2319H38.8359V55.0259Z" fill="black"/>
<path d="M39.6168 55.0259H38.836V54.2319H39.6168V55.0259Z" fill="black"/>
<path d="M40.4071 55.0259H39.6168V54.2319H40.4071V55.0259Z" fill="#D065FE"/>
<path d="M41.1879 55.0259H40.4071V54.2319H41.1879V55.0259Z" fill="#D065FE"/>
<path d="M41.9689 55.0259H41.188V54.2319H41.9689V55.0259Z" fill="#D065FE"/>
<path d="M42.7591 55.0259H41.9688V54.2319H42.7591V55.0259Z" fill="#D065FE"/>
<path d="M43.5399 55.0259H42.7591V54.2319H43.5399V55.0259Z" fill="#E3A1FF"/>
<path d="M44.3206 55.0259H43.5398V54.2319H44.3206V55.0259Z" fill="#ECBFFF"/>
<path d="M45.111 55.0259H44.3207V54.2319H45.111V55.0259Z" fill="#ECBFFF"/>
<path d="M45.8919 55.0259H45.1111V54.2319H45.8919V55.0259Z" fill="#ECBFFF"/>
<path d="M46.6727 55.0259H45.8918V54.2319H46.6727V55.0259Z" fill="#ECBFFF"/>
<path d="M39.6168 55.8103H38.836V55.0259H39.6168V55.8103Z" fill="black"/>
<path d="M40.4071 55.8103H39.6168V55.0259H40.4071V55.8103Z" fill="black"/>
<path d="M41.1879 55.8103H40.4071V55.0259H41.1879V55.8103Z" fill="#D065FE"/>
<path d="M41.9689 55.8103H41.188V55.0259H41.9689V55.8103Z" fill="#D065FE"/>
<path d="M42.7591 55.8103H41.9688V55.0259H42.7591V55.8103Z" fill="#D065FE"/>
<path d="M43.5399 55.8103H42.7591V55.0259H43.5399V55.8103Z" fill="#E3A1FF"/>
<path d="M44.3206 55.8103H43.5398V55.0259H44.3206V55.8103Z" fill="#ECBFFF"/>
<path d="M45.111 55.8103H44.3207V55.0259H45.111V55.8103Z" fill="#ECBFFF"/>
<path d="M45.8919 55.8103H45.1111V55.0259H45.8919V55.8103Z" fill="#ECBFFF"/>
<path d="M46.6727 55.8103H45.8918V55.0259H46.6727V55.8103Z" fill="#ECBFFF"/>
<path d="M40.4071 56.5944H39.6168V55.8101H40.4071V56.5944Z" fill="black"/>
<path d="M41.1879 56.5944H40.4071V55.8101H41.1879V56.5944Z" fill="black"/>
<path d="M41.9689 56.5944H41.188V55.8101H41.9689V56.5944Z" fill="#D065FE"/>
<path d="M42.7591 56.5944H41.9688V55.8101H42.7591V56.5944Z" fill="#E3A1FF"/>
<path d="M43.5399 56.5944H42.7591V55.8101H43.5399V56.5944Z" fill="#ECBFFF"/>
<path d="M44.3206 56.5944H43.5398V55.8101H44.3206V56.5944Z" fill="#ECBFFF"/>
<path d="M45.111 56.5944H44.3207V55.8101H45.111V56.5944Z" fill="#ECBFFF"/>
<path d="M45.8919 56.5944H45.1111V55.8101H45.8919V56.5944Z" fill="#ECBFFF"/>
<path d="M46.6727 56.5944H45.8918V55.8101H46.6727V56.5944Z" fill="#ECBFFF"/>
<path d="M40.4071 57.3884H39.6168V56.5945H40.4071V57.3884Z" fill="black"/>
<path d="M41.1879 57.3884H40.4071V56.5945H41.1879V57.3884Z" fill="#E3A1FF"/>
<path d="M41.9689 57.3884H41.188V56.5945H41.9689V57.3884Z" fill="#E3A1FF"/>
<path d="M42.7591 57.3884H41.9688V56.5945H42.7591V57.3884Z" fill="#E3A1FF"/>
<path d="M43.5399 57.3884H42.7591V56.5945H43.5399V57.3884Z" fill="#ECBFFF"/>
<path d="M44.3206 57.3884H43.5398V56.5945H44.3206V57.3884Z" fill="#ECBFFF"/>
<path d="M45.111 57.3884H44.3207V56.5945H45.111V57.3884Z" fill="#ECBFFF"/>
<path d="M45.8919 57.3884H45.1111V56.5945H45.8919V57.3884Z" fill="#ECBFFF"/>
<path d="M46.6727 57.3884H45.8918V56.5945H46.6727V57.3884Z" fill="#ECBFFF"/>
<path d="M39.6168 58.1733H38.836V57.3889H39.6168V58.1733Z" fill="black"/>
<path d="M40.4071 58.1733H39.6168V57.3889H40.4071V58.1733Z" fill="black"/>
<path d="M41.1879 58.1733H40.4071V57.3889H41.1879V58.1733Z" fill="#E3A1FF"/>
<path d="M41.9689 58.1733H41.188V57.3889H41.9689V58.1733Z" fill="#E3A1FF"/>
<path d="M42.7591 58.1733H41.9688V57.3889H42.7591V58.1733Z" fill="#E3A1FF"/>
<path d="M43.5399 58.1733H42.7591V57.3889H43.5399V58.1733Z" fill="#ECBFFF"/>
<path d="M44.3112 58.1733H43.5209V57.3889H44.3112V58.1733Z" fill="#ECBFFF"/>
<path d="M45.111 58.1733H44.3111V57.3889H45.111V58.1733Z" fill="#ECBFFF"/>
<path d="M45.8919 58.1733H45.1111V57.3889H45.8919V58.1733Z" fill="#ECBFFF"/>
<path d="M46.6727 58.1733H45.8918V57.3889H46.6727V58.1733Z" fill="#D065FE"/>
<path d="M39.6168 58.9575H38.836V58.1731H39.6168V58.9575Z" fill="black"/>
<path d="M40.4071 58.9575H39.6168V58.1731H40.4071V58.9575Z" fill="#E3A1FF"/>
<path d="M41.1879 58.9575H40.4071V58.1731H41.1879V58.9575Z" fill="#E3A1FF"/>
<path d="M41.9689 58.9575H41.188V58.1731H41.9689V58.9575Z" fill="#E3A1FF"/>
<path d="M42.7591 58.9575H41.9688V58.1731H42.7591V58.9575Z" fill="#ECBFFF"/>
<path d="M43.5399 58.9575H42.7591V58.1731H43.5399V58.9575Z" fill="#ECBFFF"/>
<path d="M44.3112 58.9575H43.5209V58.1731H44.3112V58.9575Z" fill="#ECBFFF"/>
<path d="M45.111 58.9575H44.3111V58.1731H45.111V58.9575Z" fill="#D065FE"/>
<path d="M45.8919 58.9575H45.1111V58.1731H45.8919V58.9575Z" fill="#D065FE"/>
<path d="M46.6727 58.9575H45.8918V58.1731H46.6727V58.9575Z" fill="#D065FE"/>
<path d="M39.6168 59.7512H38.836V58.9573H39.6168V59.7512Z" fill="black"/>
<path d="M40.4071 59.7512H39.6168V58.9573H40.4071V59.7512Z" fill="#E3A1FF"/>
<path d="M41.1879 59.7512H40.4071V58.9573H41.1879V59.7512Z" fill="#E3A1FF"/>
<path d="M41.9689 59.7512H41.188V58.9573H41.9689V59.7512Z" fill="#E3A1FF"/>
<path d="M42.7591 59.7512H41.9688V58.9573H42.7591V59.7512Z" fill="#ECBFFF"/>
<path d="M43.5399 59.7512H42.7591V58.9573H43.5399V59.7512Z" fill="#ECBFFF"/>
<path d="M44.3112 59.7512H43.5209V58.9573H44.3112V59.7512Z" fill="#D065FE"/>
<path d="M45.111 59.7512H44.3111V58.9573H45.111V59.7512Z" fill="#D065FE"/>
<path d="M45.8919 59.7512H45.1111V58.9573H45.8919V59.7512Z" fill="#D065FE"/>
<path d="M46.6727 59.7512H45.8918V58.9573H46.6727V59.7512Z" fill="#D065FE"/>
<path d="M38.8359 60.5351H38.0551V59.7507H38.8359V60.5351Z" fill="black"/>
<path d="M39.6168 60.5351H38.836V59.7507H39.6168V60.5351Z" fill="black"/>
<path d="M40.4071 60.5351H39.6168V59.7507H40.4071V60.5351Z" fill="#E3A1FF"/>
<path d="M41.1879 60.5351H40.4071V59.7507H41.1879V60.5351Z" fill="#E3A1FF"/>
<path d="M41.9689 60.5351H41.188V59.7507H41.9689V60.5351Z" fill="#E3A1FF"/>
<path d="M42.7591 60.5351H41.9688V59.7507H42.7591V60.5351Z" fill="#ECBFFF"/>
<path d="M43.5208 60.5351H42.74V59.7507H43.5208V60.5351Z" fill="#D065FE"/>
<path d="M44.3112 60.5351H43.5209V59.7507H44.3112V60.5351Z" fill="#D065FE"/>
<path d="M45.111 60.5351H44.3111V59.7507H45.111V60.5351Z" fill="#D065FE"/>
<path d="M45.8919 60.5351H45.1111V59.7507H45.8919V60.5351Z" fill="#D065FE"/>
<path d="M46.6727 60.5351H45.8918V59.7507H46.6727V60.5351Z" fill="black"/>
<path d="M38.8359 61.32H38.0551V60.5356H38.8359V61.32Z" fill="black"/>
<path d="M39.6168 61.32H38.836V60.5356H39.6168V61.32Z" fill="black"/>
<path d="M40.4071 61.32H39.6168V60.5356H40.4071V61.32Z" fill="#E3A1FF"/>
<path d="M41.1879 61.32H40.4071V60.5356H41.1879V61.32Z" fill="#E3A1FF"/>
<path d="M41.9592 61.32H41.1689V60.5356H41.9592V61.32Z" fill="#E3A1FF"/>
<path d="M42.7401 61.32H41.9593V60.5356H42.7401V61.32Z" fill="#D065FE"/>
<path d="M43.5208 61.32H42.74V60.5356H43.5208V61.32Z" fill="#D065FE"/>
<path d="M44.3112 61.32H43.5209V60.5356H44.3112V61.32Z" fill="#D065FE"/>
<path d="M45.111 61.32H44.3111V60.5356H45.111V61.32Z" fill="#D065FE"/>
<path d="M45.8919 61.32H45.1111V60.5356H45.8919V61.32Z" fill="black"/>
<path d="M46.6727 61.32H45.8918V60.5356H46.6727V61.32Z" fill="black"/>
<path d="M38.8359 62.1138H38.0551V61.3198H38.8359V62.1138Z" fill="black"/>
<path d="M39.6168 62.1138H38.836V61.3198H39.6168V62.1138Z" fill="#E3A1FF"/>
<path d="M40.4071 62.1138H39.6168V61.3198H40.4071V62.1138Z" fill="#E3A1FF"/>
<path d="M41.1879 62.1138H40.4071V61.3198H41.1879V62.1138Z" fill="#E3A1FF"/>
<path d="M41.9592 62.1138H41.1689V61.3198H41.9592V62.1138Z" fill="#D065FE"/>
<path d="M42.7401 62.1138H41.9593V61.3198H42.7401V62.1138Z" fill="#D065FE"/>
<path d="M43.5208 62.1138H42.74V61.3198H43.5208V62.1138Z" fill="#D065FE"/>
<path d="M44.3112 62.1138H43.5209V61.3198H44.3112V62.1138Z" fill="black"/>
<path d="M45.111 62.1138H44.3111V61.3198H45.111V62.1138Z" fill="black"/>
<path d="M45.8919 62.1138H45.1111V61.3198H45.8919V62.1138Z" fill="black"/>
<path d="M38.0552 62.8984H37.2648V62.114H38.0552V62.8984Z" fill="black"/>
<path d="M38.8359 62.8984H38.0551V62.114H38.8359V62.8984Z" fill="black"/>
<path d="M39.6168 62.8984H38.836V62.114H39.6168V62.8984Z" fill="#E3A1FF"/>
<path d="M40.4071 62.8984H39.6168V62.114H40.4071V62.8984Z" fill="#E3A1FF"/>
<path d="M41.1879 62.8984H40.4071V62.114H41.1879V62.8984Z" fill="#D065FE"/>
<path d="M41.9689 62.8984H41.188V62.114H41.9689V62.8984Z" fill="#D065FE"/>
<path d="M42.7401 62.8984H41.9593V62.114H42.7401V62.8984Z" fill="#D065FE"/>
<path d="M43.5208 62.8984H42.74V62.114H43.5208V62.8984Z" fill="black"/>
<path d="M44.3112 62.8984H43.5209V62.114H44.3112V62.8984Z" fill="black"/>
<path d="M38.0552 63.6826H37.2648V62.8982H38.0552V63.6826Z" fill="black"/>
<path d="M38.8359 63.6826H38.0551V62.8982H38.8359V63.6826Z" fill="#E3A1FF"/>
<path d="M39.6168 63.6826H38.836V62.8982H39.6168V63.6826Z" fill="#E3A1FF"/>
<path d="M40.4071 63.6826H39.6168V62.8982H40.4071V63.6826Z" fill="#D065FE"/>
<path d="M41.1879 63.6826H40.4071V62.8982H41.1879V63.6826Z" fill="#D065FE"/>
<path d="M41.9689 63.6826H41.188V62.8982H41.9689V63.6826Z" fill="black"/>
<path d="M42.7401 63.6826H41.9593V62.8982H42.7401V63.6826Z" fill="black"/>
<path d="M43.5208 63.6826H42.74V62.8982H43.5208V63.6826Z" fill="black"/>
<path d="M38.0552 64.4768H37.2648V63.6829H38.0552V64.4768Z" fill="black"/>
<path d="M38.8359 64.4768H38.0551V63.6829H38.8359V64.4768Z" fill="#E3A1FF"/>
<path d="M39.6168 64.4768H38.836V63.6829H39.6168V64.4768Z" fill="#D065FE"/>
<path d="M40.4071 64.4768H39.6168V63.6829H40.4071V64.4768Z" fill="#D065FE"/>
<path d="M41.1879 64.4768H40.4071V63.6829H41.1879V64.4768Z" fill="black"/>
<path d="M41.9592 64.4768H41.1689V63.6829H41.9592V64.4768Z" fill="black"/>
<path d="M37.2647 65.2612H36.4839V64.4768H37.2647V65.2612Z" fill="black"/>
<path d="M38.0552 65.2612H37.2648V64.4768H38.0552V65.2612Z" fill="black"/>
<path d="M38.8359 65.2612H38.0551V64.4768H38.8359V65.2612Z" fill="#D065FE"/>
<path d="M39.6168 65.2612H38.836V64.4768H39.6168V65.2612Z" fill="#D065FE"/>
<path d="M40.4071 65.2612H39.6168V64.4768H40.4071V65.2612Z" fill="black"/>
<path d="M41.1879 65.2612H40.4071V64.4768H41.1879V65.2612Z" fill="black"/>
<path d="M37.2647 66.0456H36.4839V65.2612H37.2647V66.0456Z" fill="black"/>
<path d="M38.0552 66.0456H37.2648V65.2612H38.0552V66.0456Z" fill="#D065FE"/>
<path d="M38.8359 66.0456H38.0551V65.2612H38.8359V66.0456Z" fill="black"/>
<path d="M39.6168 66.0456H38.836V65.2612H39.6168V66.0456Z" fill="black"/>
<path d="M40.4071 66.0456H39.6168V65.2612H40.4071V66.0456Z" fill="black"/>
<path d="M37.2647 66.8396H36.4839V66.0457H37.2647V66.8396Z" fill="black"/>
<path d="M38.0552 66.8396H37.2648V66.0457H38.0552V66.8396Z" fill="black"/>
<path d="M38.8359 66.8396H38.0551V66.0457H38.8359V66.8396Z" fill="black"/>
<path d="M46.6727 37.7022H47.4631V36.9082H46.6727V37.7022Z" fill="black"/>
<path d="M47.463 38.4865H48.2438V37.7021H47.463V38.4865Z" fill="black"/>
<path d="M46.6727 38.4865H47.4631V37.7021H46.6727V38.4865Z" fill="black"/>
<path d="M47.463 39.271H48.2438V38.4866H47.463V39.271Z" fill="black"/>
<path d="M46.6727 39.271H47.4631V38.4866H46.6727V39.271Z" fill="#E3A1FF"/>
<path d="M47.463 40.0652H48.2438V39.2712H47.463V40.0652Z" fill="black"/>
<path d="M46.6727 40.0652H47.4631V39.2712H46.6727V40.0652Z" fill="#E3A1FF"/>
<path d="M48.2438 40.8496H49.0246V40.0652H48.2438V40.8496Z" fill="black"/>
<path d="M47.463 40.8496H48.2438V40.0652H47.463V40.8496Z" fill="black"/>
<path d="M46.6727 40.8496H47.4631V40.0652H46.6727V40.8496Z" fill="#E3A1FF"/>
<path d="M48.2438 41.634H49.0246V40.8496H48.2438V41.634Z" fill="black"/>
<path d="M47.463 41.634H48.2438V40.8496H47.463V41.634Z" fill="#E3A1FF"/>
<path d="M46.6727 41.634H47.4631V40.8496H46.6727V41.634Z" fill="#E3A1FF"/>
<path d="M48.2438 42.4182H49.0246V41.6338H48.2438V42.4182Z" fill="black"/>
<path d="M47.463 42.4182H48.2438V41.6338H47.463V42.4182Z" fill="#E3A1FF"/>
<path d="M46.6727 42.4182H47.4631V41.6338H46.6727V42.4182Z" fill="#E3A1FF"/>
<path d="M49.0246 43.2122H49.8149V42.4182H49.0246V43.2122Z" fill="black"/>
<path d="M48.2438 43.2122H49.0246V42.4182H48.2438V43.2122Z" fill="black"/>
<path d="M47.463 43.2122H48.2438V42.4182H47.463V43.2122Z" fill="#E3A1FF"/>
<path d="M46.6727 43.2122H47.4631V42.4182H46.6727V43.2122Z" fill="#E3A1FF"/>
<path d="M49.0246 43.9965H49.8149V43.2122H49.0246V43.9965Z" fill="black"/>
<path d="M48.2438 43.9965H49.0246V43.2122H48.2438V43.9965Z" fill="#E3A1FF"/>
<path d="M47.463 43.9965H48.2438V43.2122H47.463V43.9965Z" fill="#E3A1FF"/>
<path d="M46.6727 43.9965H47.4631V43.2122H46.6727V43.9965Z" fill="#E3A1FF"/>
<path d="M49.0246 44.781H49.8149V43.9966H49.0246V44.781Z" fill="black"/>
<path d="M48.2438 44.781H49.0246V43.9966H48.2438V44.781Z" fill="#E3A1FF"/>
<path d="M47.463 44.781H48.2438V43.9966H47.463V44.781Z" fill="#E3A1FF"/>
<path d="M46.6727 44.781H47.4631V43.9966H46.6727V44.781Z" fill="#E3A1FF"/>
<path d="M49.8151 45.575H50.5959V44.781H49.8151V45.575Z" fill="black"/>
<path d="M49.0246 45.575H49.8149V44.781H49.0246V45.575Z" fill="black"/>
<path d="M48.2438 45.575H49.0246V44.781H48.2438V45.575Z" fill="#E3A1FF"/>
<path d="M47.463 45.575H48.2438V44.781H47.463V45.575Z" fill="#E3A1FF"/>
<path d="M46.6727 45.575H47.4631V44.781H46.6727V45.575Z" fill="#E3A1FF"/>
<path d="M49.8151 46.3593H50.5959V45.575H49.8151V46.3593Z" fill="black"/>
<path d="M49.0246 46.3593H49.8149V45.575H49.0246V46.3593Z" fill="#E3A1FF"/>
<path d="M48.2438 46.3593H49.0246V45.575H48.2438V46.3593Z" fill="#E3A1FF"/>
<path d="M47.463 46.3593H48.2438V45.575H47.463V46.3593Z" fill="#E3A1FF"/>
<path d="M46.6727 46.3593H47.4631V45.575H46.6727V46.3593Z" fill="#ECBFFF"/>
<path d="M49.8151 47.1438H50.5959V46.3594H49.8151V47.1438Z" fill="black"/>
<path d="M49.0246 47.1438H49.8149V46.3594H49.0246V47.1438Z" fill="#E3A1FF"/>
<path d="M48.2438 47.1438H49.0246V46.3594H48.2438V47.1438Z" fill="#E3A1FF"/>
<path d="M47.463 47.1438H48.2438V46.3594H47.463V47.1438Z" fill="#E3A1FF"/>
<path d="M46.6727 47.1438H47.4631V46.3594H46.6727V47.1438Z" fill="#ECBFFF"/>
<path d="M49.8151 47.9375H50.5959V47.1436H49.8151V47.9375Z" fill="black"/>
<path d="M49.0246 47.9375H49.8149V47.1436H49.0246V47.9375Z" fill="#E3A1FF"/>
<path d="M48.2438 47.9375H49.0246V47.1436H48.2438V47.9375Z" fill="#E3A1FF"/>
<path d="M47.463 47.9375H48.2438V47.1436H47.463V47.9375Z" fill="#E3A1FF"/>
<path d="M46.6727 47.9375H47.4631V47.1436H46.6727V47.9375Z" fill="#ECBFFF"/>
<path d="M61.5748 48.7219H62.3556V47.9375H61.5748V48.7219Z" fill="black"/>
<path d="M60.7845 48.7219H61.5749V47.9375H60.7845V48.7219Z" fill="black"/>
<path d="M60.0037 48.7219H60.7845V47.9375H60.0037V48.7219Z" fill="black"/>
<path d="M59.2229 48.7219H60.0037V47.9375H59.2229V48.7219Z" fill="black"/>
<path d="M58.4324 48.7219H59.2227V47.9375H58.4324V48.7219Z" fill="black"/>
<path d="M57.6517 48.7219H58.4326V47.9375H57.6517V48.7219Z" fill="black"/>
<path d="M56.871 48.7219H57.6518V47.9375H56.871V48.7219Z" fill="black"/>
<path d="M56.0807 48.7219H56.871V47.9375H56.0807V48.7219Z" fill="black"/>
<path d="M55.2998 48.7219H56.0806V47.9375H55.2998V48.7219Z" fill="black"/>
<path d="M54.519 48.7219H55.2998V47.9375H54.519V48.7219Z" fill="black"/>
<path d="M53.7286 48.7219H54.519V47.9375H53.7286V48.7219Z" fill="black"/>
<path d="M52.9478 48.7219H53.7286V47.9375H52.9478V48.7219Z" fill="black"/>
<path d="M52.1669 48.7219H52.9477V47.9375H52.1669V48.7219Z" fill="black"/>
<path d="M51.3766 48.7219H52.1669V47.9375H51.3766V48.7219Z" fill="black"/>
<path d="M50.5958 48.7219H51.3766V47.9375H50.5958V48.7219Z" fill="black"/>
<path d="M49.8151 48.7219H50.5959V47.9375H49.8151V48.7219Z" fill="black"/>
<path d="M49.0246 48.7219H49.8149V47.9375H49.0246V48.7219Z" fill="#E3A1FF"/>
<path d="M48.2438 48.7219H49.0246V47.9375H48.2438V48.7219Z" fill="#E3A1FF"/>
<path d="M47.463 48.7219H48.2438V47.9375H47.463V48.7219Z" fill="#ECBFFF"/>
<path d="M46.6727 48.7219H47.4631V47.9375H46.6727V48.7219Z" fill="#ECBFFF"/>
<path d="M61.5748 49.5066H62.3556V48.7222H61.5748V49.5066Z" fill="black"/>
<path d="M60.7845 49.5066H61.5749V48.7222H60.7845V49.5066Z" fill="black"/>
<path d="M60.0037 49.5066H60.7845V48.7222H60.0037V49.5066Z" fill="#E3A1FF"/>
<path d="M59.2229 49.5066H60.0037V48.7222H59.2229V49.5066Z" fill="#D065FE"/>
<path d="M58.4324 49.5066H59.2227V48.7222H58.4324V49.5066Z" fill="#D065FE"/>
<path d="M57.6517 49.5066H58.4326V48.7222H57.6517V49.5066Z" fill="#D065FE"/>
<path d="M56.871 49.5066H57.6518V48.7222H56.871V49.5066Z" fill="#D065FE"/>
<path d="M56.0807 49.5066H56.871V48.7222H56.0807V49.5066Z" fill="#D065FE"/>
<path d="M55.2998 49.5066H56.0806V48.7222H55.2998V49.5066Z" fill="#D065FE"/>
<path d="M54.519 49.5066H55.2998V48.7222H54.519V49.5066Z" fill="#D065FE"/>
<path d="M53.7286 49.5066H54.519V48.7222H53.7286V49.5066Z" fill="#D065FE"/>
<path d="M52.9478 49.5066H53.7286V48.7222H52.9478V49.5066Z" fill="#D065FE"/>
<path d="M52.1669 49.5066H52.9477V48.7222H52.1669V49.5066Z" fill="#D065FE"/>
<path d="M51.3766 49.5066H52.1669V48.7222H51.3766V49.5066Z" fill="#D065FE"/>
<path d="M50.5958 49.5066H51.3766V48.7222H50.5958V49.5066Z" fill="#D065FE"/>
<path d="M49.8151 49.5066H50.5959V48.7222H49.8151V49.5066Z" fill="#D065FE"/>
<path d="M49.0246 49.5066H49.8149V48.7222H49.0246V49.5066Z" fill="#E3A1FF"/>
<path d="M48.2438 49.5066H49.0246V48.7222H48.2438V49.5066Z" fill="#E3A1FF"/>
<path d="M47.463 49.5066H48.2438V48.7222H47.463V49.5066Z" fill="#ECBFFF"/>
<path d="M46.6727 49.5066H47.4631V48.7222H46.6727V49.5066Z" fill="#ECBFFF"/>
<path d="M60.7845 50.3003H61.5749V49.5063H60.7845V50.3003Z" fill="black"/>
<path d="M60.0037 50.3003H60.7845V49.5063H60.0037V50.3003Z" fill="black"/>
<path d="M59.2229 50.3003H60.0037V49.5063H59.2229V50.3003Z" fill="#E3A1FF"/>
<path d="M58.4324 50.3003H59.2227V49.5063H58.4324V50.3003Z" fill="#E3A1FF"/>
<path d="M57.6517 50.3003H58.4326V49.5063H57.6517V50.3003Z" fill="#E3A1FF"/>
<path d="M56.871 50.3003H57.6518V49.5063H56.871V50.3003Z" fill="#D065FE"/>
<path d="M56.0807 50.3003H56.871V49.5063H56.0807V50.3003Z" fill="#D065FE"/>
<path d="M55.2998 50.3003H56.0806V49.5063H55.2998V50.3003Z" fill="#D065FE"/>
<path d="M54.519 50.3003H55.2998V49.5063H54.519V50.3003Z" fill="#D065FE"/>
<path d="M53.7286 50.3003H54.519V49.5063H53.7286V50.3003Z" fill="#D065FE"/>
<path d="M52.9478 50.3003H53.7286V49.5063H52.9478V50.3003Z" fill="#D065FE"/>
<path d="M52.1669 50.3003H52.9477V49.5063H52.1669V50.3003Z" fill="#D065FE"/>
<path d="M51.3766 50.3003H52.1669V49.5063H51.3766V50.3003Z" fill="#D065FE"/>
<path d="M50.5958 50.3003H51.3766V49.5063H50.5958V50.3003Z" fill="#D065FE"/>
<path d="M49.8151 50.3003H50.5959V49.5063H49.8151V50.3003Z" fill="#D065FE"/>
<path d="M49.0246 50.3003H49.8149V49.5063H49.0246V50.3003Z" fill="#D065FE"/>
<path d="M48.2438 50.3003H49.0246V49.5063H48.2438V50.3003Z" fill="#E3A1FF"/>
<path d="M47.463 50.3003H48.2438V49.5063H47.463V50.3003Z" fill="#ECBFFF"/>
<path d="M46.6727 50.3003H47.4631V49.5063H46.6727V50.3003Z" fill="#ECBFFF"/>
<path d="M60.0037 51.0847H60.7845V50.3003H60.0037V51.0847Z" fill="black"/>
<path d="M59.2229 51.0847H60.0037V50.3003H59.2229V51.0847Z" fill="black"/>
<path d="M58.4324 51.0847H59.2227V50.3003H58.4324V51.0847Z" fill="black"/>
<path d="M57.6517 51.0847H58.4326V50.3003H57.6517V51.0847Z" fill="#E3A1FF"/>
<path d="M56.871 51.0847H57.6518V50.3003H56.871V51.0847Z" fill="#E3A1FF"/>
<path d="M56.0807 51.0847H56.871V50.3003H56.0807V51.0847Z" fill="#E3A1FF"/>
<path d="M55.2998 51.0847H56.0806V50.3003H55.2998V51.0847Z" fill="#D065FE"/>
<path d="M54.519 51.0847H55.2998V50.3003H54.519V51.0847Z" fill="#D065FE"/>
<path d="M53.7286 51.0847H54.519V50.3003H53.7286V51.0847Z" fill="#D065FE"/>
<path d="M52.9478 51.0847H53.7286V50.3003H52.9478V51.0847Z" fill="#D065FE"/>
<path d="M52.1669 51.0847H52.9477V50.3003H52.1669V51.0847Z" fill="#D065FE"/>
<path d="M51.3766 51.0847H52.1669V50.3003H51.3766V51.0847Z" fill="#D065FE"/>
<path d="M50.5958 51.0847H51.3766V50.3003H50.5958V51.0847Z" fill="#D065FE"/>
<path d="M49.8151 51.0847H50.5959V50.3003H49.8151V51.0847Z" fill="#D065FE"/>
<path d="M49.0246 51.0847H49.8149V50.3003H49.0246V51.0847Z" fill="#D065FE"/>
<path d="M48.2438 51.0847H49.0246V50.3003H48.2438V51.0847Z" fill="#ECBFFF"/>
<path d="M47.463 51.0847H48.2438V50.3003H47.463V51.0847Z" fill="#ECBFFF"/>
<path d="M46.6727 51.0847H47.4631V50.3003H46.6727V51.0847Z" fill="#ECBFFF"/>
<path d="M59.2229 51.8691H60.0037V51.0847H59.2229V51.8691Z" fill="black"/>
<path d="M58.4324 51.8691H59.2227V51.0847H58.4324V51.8691Z" fill="black"/>
<path d="M57.6517 51.8691H58.4326V51.0847H57.6517V51.8691Z" fill="black"/>
<path d="M56.871 51.8691H57.6518V51.0847H56.871V51.8691Z" fill="#E3A1FF"/>
<path d="M56.0807 51.8691H56.871V51.0847H56.0807V51.8691Z" fill="#E3A1FF"/>
<path d="M55.2998 51.8691H56.0806V51.0847H55.2998V51.8691Z" fill="#E3A1FF"/>
<path d="M54.519 51.8691H55.2998V51.0847H54.519V51.8691Z" fill="#E3A1FF"/>
<path d="M53.7286 51.8691H54.519V51.0847H53.7286V51.8691Z" fill="#E3A1FF"/>
<path d="M52.9478 51.8691H53.7286V51.0847H52.9478V51.8691Z" fill="#ECBFFF"/>
<path d="M52.1669 51.8691H52.9477V51.0847H52.1669V51.8691Z" fill="#ECBFFF"/>
<path d="M51.3766 51.8691H52.1669V51.0847H51.3766V51.8691Z" fill="#ECBFFF"/>
<path d="M50.5958 51.8691H51.3766V51.0847H50.5958V51.8691Z" fill="#ECBFFF"/>
<path d="M49.8151 51.8691H50.5959V51.0847H49.8151V51.8691Z" fill="#ECBFFF"/>
<path d="M49.0246 51.8691H49.8149V51.0847H49.0246V51.8691Z" fill="#ECBFFF"/>
<path d="M48.2438 51.8691H49.0246V51.0847H48.2438V51.8691Z" fill="#ECBFFF"/>
<path d="M47.463 51.8691H48.2438V51.0847H47.463V51.8691Z" fill="#ECBFFF"/>
<path d="M46.6727 51.8691H47.4631V51.0847H46.6727V51.8691Z" fill="#ECBFFF"/>
<path d="M57.6517 52.6633H58.4326V51.8694H57.6517V52.6633Z" fill="black"/>
<path d="M56.871 52.6633H57.6518V51.8694H56.871V52.6633Z" fill="black"/>
<path d="M56.0807 52.6633H56.871V51.8694H56.0807V52.6633Z" fill="#E3A1FF"/>
<path d="M55.2998 52.6633H56.0806V51.8694H55.2998V52.6633Z" fill="#E3A1FF"/>
<path d="M54.519 52.6633H55.2998V51.8694H54.519V52.6633Z" fill="#E3A1FF"/>
<path d="M53.7286 52.6633H54.519V51.8694H53.7286V52.6633Z" fill="#E3A1FF"/>
<path d="M52.9478 52.6633H53.7286V51.8694H52.9478V52.6633Z" fill="#E3A1FF"/>
<path d="M52.1669 52.6633H52.9477V51.8694H52.1669V52.6633Z" fill="#ECBFFF"/>
<path d="M51.3766 52.6633H52.1669V51.8694H51.3766V52.6633Z" fill="#ECBFFF"/>
<path d="M50.5958 52.6633H51.3766V51.8694H50.5958V52.6633Z" fill="#ECBFFF"/>
<path d="M49.8151 52.6633H50.5959V51.8694H49.8151V52.6633Z" fill="#ECBFFF"/>
<path d="M49.0246 52.6633H49.8149V51.8694H49.0246V52.6633Z" fill="#ECBFFF"/>
<path d="M48.2438 52.6633H49.0246V51.8694H48.2438V52.6633Z" fill="#ECBFFF"/>
<path d="M47.463 52.6633H48.2438V51.8694H47.463V52.6633Z" fill="#ECBFFF"/>
<path d="M46.6727 52.6633H47.4631V51.8694H46.6727V52.6633Z" fill="#ECBFFF"/>
<path d="M56.871 53.4477H57.6518V52.6633H56.871V53.4477Z" fill="black"/>
<path d="M56.0807 53.4477H56.871V52.6633H56.0807V53.4477Z" fill="black"/>
<path d="M55.2998 53.4477H56.0806V52.6633H55.2998V53.4477Z" fill="#E3A1FF"/>
<path d="M54.519 53.4477H55.2998V52.6633H54.519V53.4477Z" fill="#E3A1FF"/>
<path d="M53.7286 53.4477H54.519V52.6633H53.7286V53.4477Z" fill="#E3A1FF"/>
<path d="M52.9478 53.4477H53.7286V52.6633H52.9478V53.4477Z" fill="#E3A1FF"/>
<path d="M52.1669 53.4477H52.9477V52.6633H52.1669V53.4477Z" fill="#E3A1FF"/>
<path d="M51.3766 53.4477H52.1669V52.6633H51.3766V53.4477Z" fill="#ECBFFF"/>
<path d="M50.5958 53.4477H51.3766V52.6633H50.5958V53.4477Z" fill="#ECBFFF"/>
<path d="M49.8151 53.4477H50.5959V52.6633H49.8151V53.4477Z" fill="#ECBFFF"/>
<path d="M49.0246 53.4477H49.8149V52.6633H49.0246V53.4477Z" fill="#ECBFFF"/>
<path d="M48.2438 53.4477H49.0246V52.6633H48.2438V53.4477Z" fill="#ECBFFF"/>
<path d="M47.463 53.4477H48.2438V52.6633H47.463V53.4477Z" fill="#ECBFFF"/>
<path d="M46.6727 53.4477H47.4631V52.6633H46.6727V53.4477Z" fill="#ECBFFF"/>
<path d="M56.0807 54.2321H56.871V53.4478H56.0807V54.2321Z" fill="black"/>
<path d="M55.2998 54.2321H56.0806V53.4478H55.2998V54.2321Z" fill="black"/>
<path d="M54.519 54.2321H55.2998V53.4478H54.519V54.2321Z" fill="black"/>
<path d="M53.7286 54.2321H54.519V53.4478H53.7286V54.2321Z" fill="#E3A1FF"/>
<path d="M52.9478 54.2321H53.7286V53.4478H52.9478V54.2321Z" fill="#E3A1FF"/>
<path d="M52.1669 54.2321H52.9477V53.4478H52.1669V54.2321Z" fill="#E3A1FF"/>
<path d="M51.3766 54.2321H52.1669V53.4478H51.3766V54.2321Z" fill="#E3A1FF"/>
<path d="M50.5958 54.2321H51.3766V53.4478H50.5958V54.2321Z" fill="#ECBFFF"/>
<path d="M49.8151 54.2321H50.5959V53.4478H49.8151V54.2321Z" fill="#ECBFFF"/>
<path d="M49.0246 54.2321H49.8149V53.4478H49.0246V54.2321Z" fill="#ECBFFF"/>
<path d="M48.2438 54.2321H49.0246V53.4478H48.2438V54.2321Z" fill="#ECBFFF"/>
<path d="M47.463 54.2321H48.2438V53.4478H47.463V54.2321Z" fill="#ECBFFF"/>
<path d="M46.6727 54.2321H47.4631V53.4478H46.6727V54.2321Z" fill="#ECBFFF"/>
<path d="M54.519 55.0259H55.2998V54.2319H54.519V55.0259Z" fill="black"/>
<path d="M53.7286 55.0259H54.519V54.2319H53.7286V55.0259Z" fill="black"/>
<path d="M52.9478 55.0259H53.7286V54.2319H52.9478V55.0259Z" fill="#E3A1FF"/>
<path d="M52.1669 55.0259H52.9477V54.2319H52.1669V55.0259Z" fill="#E3A1FF"/>
<path d="M51.3766 55.0259H52.1669V54.2319H51.3766V55.0259Z" fill="#E3A1FF"/>
<path d="M50.5958 55.0259H51.3766V54.2319H50.5958V55.0259Z" fill="#E3A1FF"/>
<path d="M49.8151 55.0259H50.5959V54.2319H49.8151V55.0259Z" fill="#E3A1FF"/>
<path d="M49.0246 55.0259H49.8149V54.2319H49.0246V55.0259Z" fill="#ECBFFF"/>
<path d="M48.2438 55.0259H49.0246V54.2319H48.2438V55.0259Z" fill="#ECBFFF"/>
<path d="M47.463 55.0259H48.2438V54.2319H47.463V55.0259Z" fill="#ECBFFF"/>
<path d="M46.6727 55.0259H47.4631V54.2319H46.6727V55.0259Z" fill="#ECBFFF"/>
<path d="M53.7286 55.8103H54.519V55.0259H53.7286V55.8103Z" fill="black"/>
<path d="M52.9478 55.8103H53.7286V55.0259H52.9478V55.8103Z" fill="black"/>
<path d="M52.1669 55.8103H52.9477V55.0259H52.1669V55.8103Z" fill="#E3A1FF"/>
<path d="M51.3766 55.8103H52.1669V55.0259H51.3766V55.8103Z" fill="#E3A1FF"/>
<path d="M50.5958 55.8103H51.3766V55.0259H50.5958V55.8103Z" fill="#E3A1FF"/>
<path d="M49.8151 55.8103H50.5959V55.0259H49.8151V55.8103Z" fill="#E3A1FF"/>
<path d="M49.0246 55.8103H49.8149V55.0259H49.0246V55.8103Z" fill="#ECBFFF"/>
<path d="M48.2438 55.8103H49.0246V55.0259H48.2438V55.8103Z" fill="#ECBFFF"/>
<path d="M47.463 55.8103H48.2438V55.0259H47.463V55.8103Z" fill="#ECBFFF"/>
<path d="M46.6727 55.8103H47.4631V55.0259H46.6727V55.8103Z" fill="#ECBFFF"/>
<path d="M52.9478 56.5944H53.7286V55.8101H52.9478V56.5944Z" fill="black"/>
<path d="M52.1669 56.5944H52.9477V55.8101H52.1669V56.5944Z" fill="black"/>
<path d="M51.3766 56.5944H52.1669V55.8101H51.3766V56.5944Z" fill="#E3A1FF"/>
<path d="M50.5958 56.5944H51.3766V55.8101H50.5958V56.5944Z" fill="#D065FE"/>
<path d="M49.8151 56.5944H50.5959V55.8101H49.8151V56.5944Z" fill="#ECBFFF"/>
<path d="M49.0246 56.5944H49.8149V55.8101H49.0246V56.5944Z" fill="#ECBFFF"/>
<path d="M48.2438 56.5944H49.0246V55.8101H48.2438V56.5944Z" fill="#ECBFFF"/>
<path d="M47.463 56.5944H48.2438V55.8101H47.463V56.5944Z" fill="#ECBFFF"/>
<path d="M46.6727 56.5944H47.4631V55.8101H46.6727V56.5944Z" fill="#ECBFFF"/>
<path d="M52.9478 57.3884H53.7286V56.5945H52.9478V57.3884Z" fill="black"/>
<path d="M52.1669 57.3884H52.9477V56.5945H52.1669V57.3884Z" fill="#D065FE"/>
<path d="M51.3766 57.3884H52.1669V56.5945H51.3766V57.3884Z" fill="#D065FE"/>
<path d="M50.5958 57.3884H51.3766V56.5945H50.5958V57.3884Z" fill="#D065FE"/>
<path d="M49.8151 57.3884H50.5959V56.5945H49.8151V57.3884Z" fill="#ECBFFF"/>
<path d="M49.0246 57.3884H49.8149V56.5945H49.0246V57.3884Z" fill="#ECBFFF"/>
<path d="M48.2438 57.3884H49.0246V56.5945H48.2438V57.3884Z" fill="#ECBFFF"/>
<path d="M47.463 57.3884H48.2438V56.5945H47.463V57.3884Z" fill="#ECBFFF"/>
<path d="M46.6727 57.3884H47.4631V56.5945H46.6727V57.3884Z" fill="#ECBFFF"/>
<path d="M53.7286 58.1733H54.519V57.3889H53.7286V58.1733Z" fill="black"/>
<path d="M52.9478 58.1733H53.7286V57.3889H52.9478V58.1733Z" fill="black"/>
<path d="M52.1669 58.1733H52.9477V57.3889H52.1669V58.1733Z" fill="#D065FE"/>
<path d="M51.3766 58.1733H52.1669V57.3889H51.3766V58.1733Z" fill="#D065FE"/>
<path d="M50.5958 58.1733H51.3766V57.3889H50.5958V58.1733Z" fill="#D065FE"/>
<path d="M49.8151 58.1733H50.5959V57.3889H49.8151V58.1733Z" fill="#ECBFFF"/>
<path d="M49.0438 58.1733H49.8246V57.3889H49.0438V58.1733Z" fill="#ECBFFF"/>
<path d="M48.2438 58.1733H49.0436V57.3889H48.2438V58.1733Z" fill="#ECBFFF"/>
<path d="M47.463 58.1733H48.2438V57.3889H47.463V58.1733Z" fill="#ECBFFF"/>
<path d="M46.6727 58.1733H47.4631V57.3889H46.6727V58.1733Z" fill="#E3A1FF"/>
<path d="M53.7286 58.9575H54.519V58.1731H53.7286V58.9575Z" fill="black"/>
<path d="M52.9478 58.9575H53.7286V58.1731H52.9478V58.9575Z" fill="#D065FE"/>
<path d="M52.1669 58.9575H52.9477V58.1731H52.1669V58.9575Z" fill="#D065FE"/>
<path d="M51.3766 58.9575H52.1669V58.1731H51.3766V58.9575Z" fill="#D065FE"/>
<path d="M50.5958 58.9575H51.3766V58.1731H50.5958V58.9575Z" fill="#ECBFFF"/>
<path d="M49.8151 58.9575H50.5959V58.1731H49.8151V58.9575Z" fill="#ECBFFF"/>
<path d="M49.0438 58.9575H49.8246V58.1731H49.0438V58.9575Z" fill="#ECBFFF"/>
<path d="M48.2438 58.9575H49.0436V58.1731H48.2438V58.9575Z" fill="#E3A1FF"/>
<path d="M47.463 58.9575H48.2438V58.1731H47.463V58.9575Z" fill="#E3A1FF"/>
<path d="M46.6727 58.9575H47.4631V58.1731H46.6727V58.9575Z" fill="#E3A1FF"/>
<path d="M53.7286 59.7512H54.519V58.9573H53.7286V59.7512Z" fill="black"/>
<path d="M52.9478 59.7512H53.7286V58.9573H52.9478V59.7512Z" fill="#D065FE"/>
<path d="M52.1669 59.7512H52.9477V58.9573H52.1669V59.7512Z" fill="#D065FE"/>
<path d="M51.3766 59.7512H52.1669V58.9573H51.3766V59.7512Z" fill="#D065FE"/>
<path d="M50.5958 59.7512H51.3766V58.9573H50.5958V59.7512Z" fill="#ECBFFF"/>
<path d="M49.8151 59.7512H50.5959V58.9573H49.8151V59.7512Z" fill="#ECBFFF"/>
<path d="M49.0438 59.7512H49.8246V58.9573H49.0438V59.7512Z" fill="#E3A1FF"/>
<path d="M48.2438 59.7512H49.0436V58.9573H48.2438V59.7512Z" fill="#E3A1FF"/>
<path d="M47.463 59.7512H48.2438V58.9573H47.463V59.7512Z" fill="#E3A1FF"/>
<path d="M46.6727 59.7512H47.4631V58.9573H46.6727V59.7512Z" fill="#E3A1FF"/>
<path d="M54.519 60.5351H55.2998V59.7507H54.519V60.5351Z" fill="black"/>
<path d="M53.7286 60.5351H54.519V59.7507H53.7286V60.5351Z" fill="black"/>
<path d="M52.9478 60.5351H53.7286V59.7507H52.9478V60.5351Z" fill="#D065FE"/>
<path d="M52.1669 60.5351H52.9477V59.7507H52.1669V60.5351Z" fill="#D065FE"/>
<path d="M51.3766 60.5351H52.1669V59.7507H51.3766V60.5351Z" fill="#D065FE"/>
<path d="M50.5958 60.5351H51.3766V59.7507H50.5958V60.5351Z" fill="#ECBFFF"/>
<path d="M49.8245 60.5351H50.6148V59.7507H49.8245V60.5351Z" fill="#E3A1FF"/>
<path d="M49.0438 60.5351H49.8246V59.7507H49.0438V60.5351Z" fill="#E3A1FF"/>
<path d="M48.2438 60.5351H49.0436V59.7507H48.2438V60.5351Z" fill="#E3A1FF"/>
<path d="M47.463 60.5351H48.2438V59.7507H47.463V60.5351Z" fill="#E3A1FF"/>
<path d="M46.6727 60.5351H47.4631V59.7507H46.6727V60.5351Z" fill="black"/>
<path d="M54.519 61.32H55.2998V60.5356H54.519V61.32Z" fill="black"/>
<path d="M53.7286 61.32H54.519V60.5356H53.7286V61.32Z" fill="black"/>
<path d="M52.9478 61.32H53.7286V60.5356H52.9478V61.32Z" fill="#D065FE"/>
<path d="M52.1669 61.32H52.9477V60.5356H52.1669V61.32Z" fill="#D065FE"/>
<path d="M51.3958 61.32H52.1766V60.5356H51.3958V61.32Z" fill="#D065FE"/>
<path d="M50.6149 61.32H51.3957V60.5356H50.6149V61.32Z" fill="#E3A1FF"/>
<path d="M49.8245 61.32H50.6148V60.5356H49.8245V61.32Z" fill="#E3A1FF"/>
<path d="M49.0438 61.32H49.8246V60.5356H49.0438V61.32Z" fill="#E3A1FF"/>
<path d="M48.2438 61.32H49.0436V60.5356H48.2438V61.32Z" fill="#E3A1FF"/>
<path d="M47.463 61.32H48.2438V60.5356H47.463V61.32Z" fill="black"/>
<path d="M46.6727 61.32H47.4631V60.5356H46.6727V61.32Z" fill="black"/>
<path d="M54.519 62.1138H55.2998V61.3198H54.519V62.1138Z" fill="black"/>
<path d="M53.7286 62.1138H54.519V61.3198H53.7286V62.1138Z" fill="#D065FE"/>
<path d="M52.9478 62.1138H53.7286V61.3198H52.9478V62.1138Z" fill="#D065FE"/>
<path d="M52.1669 62.1138H52.9477V61.3198H52.1669V62.1138Z" fill="#E3A1FF"/>
<path d="M51.3958 62.1138H52.1766V61.3198H51.3958V62.1138Z" fill="#E3A1FF"/>
<path d="M50.6149 62.1138H51.3957V61.3198H50.6149V62.1138Z" fill="#E3A1FF"/>
<path d="M49.8245 62.1138H50.6148V61.3198H49.8245V62.1138Z" fill="#E3A1FF"/>
<path d="M49.0438 62.1138H49.8246V61.3198H49.0438V62.1138Z" fill="black"/>
<path d="M48.2438 62.1138H49.0436V61.3198H48.2438V62.1138Z" fill="black"/>
<path d="M47.463 62.1138H48.2438V61.3198H47.463V62.1138Z" fill="black"/>
<path d="M55.2998 62.8984H56.0806V62.114H55.2998V62.8984Z" fill="black"/>
<path d="M54.519 62.8984H55.2998V62.114H54.519V62.8984Z" fill="black"/>
<path d="M53.7286 62.8984H54.519V62.114H53.7286V62.8984Z" fill="#D065FE"/>
<path d="M52.9478 62.8984H53.7286V62.114H52.9478V62.8984Z" fill="#D065FE"/>
<path d="M52.1669 62.8984H52.9477V62.114H52.1669V62.8984Z" fill="#E3A1FF"/>
<path d="M51.3766 62.8984H52.1669V62.114H51.3766V62.8984Z" fill="#E3A1FF"/>
<path d="M50.6149 62.8984H51.3957V62.114H50.6149V62.8984Z" fill="#E3A1FF"/>
<path d="M49.8245 62.8984H50.6148V62.114H49.8245V62.8984Z" fill="black"/>
<path d="M49.0438 62.8984H49.8246V62.114H49.0438V62.8984Z" fill="black"/>
<path d="M55.2998 63.6826H56.0806V62.8982H55.2998V63.6826Z" fill="black"/>
<path d="M54.519 63.6826H55.2998V62.8982H54.519V63.6826Z" fill="#D065FE"/>
<path d="M53.7286 63.6826H54.519V62.8982H53.7286V63.6826Z" fill="#D065FE"/>
<path d="M52.9478 63.6826H53.7286V62.8982H52.9478V63.6826Z" fill="#E3A1FF"/>
<path d="M52.1669 63.6826H52.9477V62.8982H52.1669V63.6826Z" fill="#E3A1FF"/>
<path d="M51.3766 63.6826H52.1669V62.8982H51.3766V63.6826Z" fill="black"/>
<path d="M50.6149 63.6826H51.3957V62.8982H50.6149V63.6826Z" fill="black"/>
<path d="M49.8245 63.6826H50.6148V62.8982H49.8245V63.6826Z" fill="black"/>
<path d="M55.2998 64.4768H56.0806V63.6829H55.2998V64.4768Z" fill="black"/>
<path d="M54.519 64.4768H55.2998V63.6829H54.519V64.4768Z" fill="#D065FE"/>
<path d="M53.7286 64.4768H54.519V63.6829H53.7286V64.4768Z" fill="#E3A1FF"/>
<path d="M52.9478 64.4768H53.7286V63.6829H52.9478V64.4768Z" fill="#E3A1FF"/>
<path d="M52.1669 64.4768H52.9477V63.6829H52.1669V64.4768Z" fill="black"/>
<path d="M51.3958 64.4768H52.1766V63.6829H51.3958V64.4768Z" fill="black"/>
<path d="M56.0807 65.2612H56.871V64.4768H56.0807V65.2612Z" fill="black"/>
<path d="M55.2998 65.2612H56.0806V64.4768H55.2998V65.2612Z" fill="black"/>
<path d="M54.519 65.2612H55.2998V64.4768H54.519V65.2612Z" fill="#E3A1FF"/>
<path d="M53.7286 65.2612H54.519V64.4768H53.7286V65.2612Z" fill="#E3A1FF"/>
<path d="M52.9478 65.2612H53.7286V64.4768H52.9478V65.2612Z" fill="black"/>
<path d="M52.1669 65.2612H52.9477V64.4768H52.1669V65.2612Z" fill="black"/>
<path d="M56.0807 66.0456H56.871V65.2612H56.0807V66.0456Z" fill="black"/>
<path d="M55.2998 66.0456H56.0806V65.2612H55.2998V66.0456Z" fill="#D065FE"/>
<path d="M54.519 66.0456H55.2998V65.2612H54.519V66.0456Z" fill="black"/>
<path d="M53.7286 66.0456H54.519V65.2612H53.7286V66.0456Z" fill="black"/>
<path d="M52.9478 66.0456H53.7286V65.2612H52.9478V66.0456Z" fill="black"/>
<path d="M56.0807 66.8396H56.871V66.0457H56.0807V66.8396Z" fill="black"/>
<path d="M55.2998 66.8396H56.0806V66.0457H55.2998V66.8396Z" fill="black"/>
<path d="M54.519 66.8396H55.2998V66.0457H54.519V66.8396Z" fill="black"/>
</svg>
