<svg width="62" height="67" viewBox="0 0 62 67" fill="none" xmlns="http://www.w3.org/2000/svg">
<path d="M27.5852 1.39737H26.2109V0H27.5852V1.39737Z" fill="black"/>
<path d="M26.2109 2.77798H24.8367V1.39746H26.2109V2.77798Z" fill="black"/>
<path d="M27.5852 2.77798H26.2109V1.39746H27.5852V2.77798Z" fill="black"/>
<path d="M26.2109 4.15811H24.8367V2.77759H26.2109V4.15811Z" fill="black"/>
<path d="M27.5852 4.15811H26.2109V2.77759H27.5852V4.15811Z" fill="#B74217"/>
<path d="M26.2109 5.5558H24.8367V4.15845H26.2109V5.5558Z" fill="black"/>
<path d="M27.5852 5.5558H26.2109V4.15845H27.5852V5.5558Z" fill="#B74217"/>
<path d="M24.8368 6.93619H23.4458V5.55566H24.8368V6.93619Z" fill="black"/>
<path d="M26.2109 6.93619H24.8367V5.55566H26.2109V6.93619Z" fill="black"/>
<path d="M27.5852 6.93619H26.2109V5.55566H27.5852V6.93619Z" fill="#B74217"/>
<path d="M24.8368 8.31705H23.4458V6.93652H24.8368V8.31705Z" fill="black"/>
<path d="M26.2109 8.31705H24.8367V6.93652H26.2109V8.31705Z" fill="#B74217"/>
<path d="M27.5852 8.31705H26.2109V6.93652H27.5852V8.31705Z" fill="#B74217"/>
<path d="M24.8368 9.69742H23.4458V8.31689H24.8368V9.69742Z" fill="black"/>
<path d="M26.2109 9.69742H24.8367V8.31689H26.2109V9.69742Z" fill="#B74217"/>
<path d="M27.5852 9.69742H26.2109V8.31689H27.5852V9.69742Z" fill="#B74217"/>
<path d="M23.4458 11.0949H22.0715V9.69751H23.4458V11.0949Z" fill="black"/>
<path d="M24.8368 11.0949H23.4458V9.69751H24.8368V11.0949Z" fill="black"/>
<path d="M26.2109 11.0949H24.8367V9.69751H26.2109V11.0949Z" fill="#B74217"/>
<path d="M27.5852 11.0949H26.2109V9.69751H27.5852V11.0949Z" fill="#B74217"/>
<path d="M23.4458 12.4755H22.0715V11.095H23.4458V12.4755Z" fill="black"/>
<path d="M24.8368 12.4755H23.4458V11.095H24.8368V12.4755Z" fill="#B74217"/>
<path d="M26.2109 12.4755H24.8367V11.095H26.2109V12.4755Z" fill="#B74217"/>
<path d="M27.5852 12.4755H26.2109V11.095H27.5852V12.4755Z" fill="#B74217"/>
<path d="M23.4458 13.8559H22.0715V12.4753H23.4458V13.8559Z" fill="black"/>
<path d="M24.8368 13.8559H23.4458V12.4753H24.8368V13.8559Z" fill="#B74217"/>
<path d="M26.2109 13.8559H24.8367V12.4753H26.2109V13.8559Z" fill="#B74217"/>
<path d="M27.5852 13.8559H26.2109V12.4753H27.5852V13.8559Z" fill="#B74217"/>
<path d="M22.0717 15.2533H20.6975V13.856H22.0717V15.2533Z" fill="black"/>
<path d="M23.4458 15.2533H22.0715V13.856H23.4458V15.2533Z" fill="black"/>
<path d="M24.8368 15.2533H23.4458V13.856H24.8368V15.2533Z" fill="#B74217"/>
<path d="M26.2109 15.2533H24.8367V13.856H26.2109V15.2533Z" fill="#B74217"/>
<path d="M27.5852 15.2533H26.2109V13.856H27.5852V15.2533Z" fill="#B74217"/>
<path d="M22.0717 16.6337H20.6975V15.2532H22.0717V16.6337Z" fill="black"/>
<path d="M23.4458 16.6337H22.0715V15.2532H23.4458V16.6337Z" fill="#B74217"/>
<path d="M24.8368 16.6337H23.4458V15.2532H24.8368V16.6337Z" fill="#B74217"/>
<path d="M26.2109 16.6337H24.8367V15.2532H26.2109V16.6337Z" fill="#B74217"/>
<path d="M27.5852 16.6337H26.2109V15.2532H27.5852V16.6337Z" fill="#F9632C"/>
<path d="M22.0717 18.0141H20.6975V16.6335H22.0717V18.0141Z" fill="black"/>
<path d="M23.4458 18.0141H22.0715V16.6335H23.4458V18.0141Z" fill="#B74217"/>
<path d="M24.8368 18.0141H23.4458V16.6335H24.8368V18.0141Z" fill="#B74217"/>
<path d="M26.2109 18.0141H24.8367V16.6335H26.2109V18.0141Z" fill="#B74217"/>
<path d="M27.5852 18.0141H26.2109V16.6335H27.5852V18.0141Z" fill="#F9632C"/>
<path d="M22.0717 19.4113H20.6975V18.0139H22.0717V19.4113Z" fill="black"/>
<path d="M23.4458 19.4113H22.0715V18.0139H23.4458V19.4113Z" fill="#B74217"/>
<path d="M24.8368 19.4113H23.4458V18.0139H24.8368V19.4113Z" fill="#B74217"/>
<path d="M26.2109 19.4113H24.8367V18.0139H26.2109V19.4113Z" fill="#B74217"/>
<path d="M27.5852 19.4113H26.2109V18.0139H27.5852V19.4113Z" fill="#F9632C"/>
<path d="M1.37424 20.7924H0V19.4119H1.37424V20.7924Z" fill="black"/>
<path d="M2.7485 20.7924H1.37427V19.4119H2.7485V20.7924Z" fill="black"/>
<path d="M4.13953 20.7924H2.74854V19.4119H4.13953V20.7924Z" fill="black"/>
<path d="M5.51364 20.7924H4.1394V19.4119H5.51364V20.7924Z" fill="black"/>
<path d="M6.88791 20.7924H5.51367V19.4119H6.88791V20.7924Z" fill="black"/>
<path d="M8.27894 20.7924H6.88794V19.4119H8.27894V20.7924Z" fill="black"/>
<path d="M9.65305 20.7924H8.27881V19.4119H9.65305V20.7924Z" fill="black"/>
<path d="M11.0273 20.7924H9.65308V19.4119H11.0273V20.7924Z" fill="black"/>
<path d="M12.4183 20.7924H11.0273V19.4119H12.4183V20.7924Z" fill="black"/>
<path d="M13.7924 20.7924H12.4182V19.4119H13.7924V20.7924Z" fill="black"/>
<path d="M15.167 20.7924H13.7927V19.4119H15.167V20.7924Z" fill="black"/>
<path d="M16.558 20.7924H15.167V19.4119H16.558V20.7924Z" fill="black"/>
<path d="M17.9321 20.7924H16.5579V19.4119H17.9321V20.7924Z" fill="black"/>
<path d="M19.3064 20.7924H17.9321V19.4119H19.3064V20.7924Z" fill="black"/>
<path d="M20.6974 20.7924H19.3064V19.4119H20.6974V20.7924Z" fill="black"/>
<path d="M22.0717 20.7924H20.6975V19.4119H22.0717V20.7924Z" fill="black"/>
<path d="M23.4458 20.7924H22.0715V19.4119H23.4458V20.7924Z" fill="#B74217"/>
<path d="M24.8368 20.7924H23.4458V19.4119H24.8368V20.7924Z" fill="#B74217"/>
<path d="M26.2109 20.7924H24.8367V19.4119H26.2109V20.7924Z" fill="#F9632C"/>
<path d="M27.5852 20.7924H26.2109V19.4119H27.5852V20.7924Z" fill="#F9632C"/>
<path d="M1.37424 22.1725H0V20.792H1.37424V22.1725Z" fill="black"/>
<path d="M2.7485 22.1725H1.37427V20.792H2.7485V22.1725Z" fill="black"/>
<path d="M4.13953 22.1725H2.74854V20.792H4.13953V22.1725Z" fill="#F9632C"/>
<path d="M5.51364 22.1725H4.1394V20.792H5.51364V22.1725Z" fill="#F9632C"/>
<path d="M6.88791 22.1725H5.51367V20.792H6.88791V22.1725Z" fill="#F9632C"/>
<path d="M8.27894 22.1725H6.88794V20.792H8.27894V22.1725Z" fill="#F9632C"/>
<path d="M9.65305 22.1725H8.27881V20.792H9.65305V22.1725Z" fill="#F9632C"/>
<path d="M11.0273 22.1725H9.65308V20.792H11.0273V22.1725Z" fill="#F9632C"/>
<path d="M12.4183 22.1725H11.0273V20.792H12.4183V22.1725Z" fill="#F9632C"/>
<path d="M13.7924 22.1725H12.4182V20.792H13.7924V22.1725Z" fill="#F9632C"/>
<path d="M15.167 22.1725H13.7927V20.792H15.167V22.1725Z" fill="#F9632C"/>
<path d="M16.558 22.1725H15.167V20.792H16.558V22.1725Z" fill="#F9632C"/>
<path d="M17.9321 22.1725H16.5579V20.792H17.9321V22.1725Z" fill="#F9632C"/>
<path d="M19.3064 22.1725H17.9321V20.792H19.3064V22.1725Z" fill="#F9632C"/>
<path d="M20.6974 22.1725H19.3064V20.792H20.6974V22.1725Z" fill="#F9632C"/>
<path d="M22.0717 22.1725H20.6975V20.792H22.0717V22.1725Z" fill="#F9632C"/>
<path d="M23.4458 22.1725H22.0715V20.792H23.4458V22.1725Z" fill="#F9632C"/>
<path d="M24.8368 22.1725H23.4458V20.792H24.8368V22.1725Z" fill="#B74217"/>
<path d="M26.2109 22.1725H24.8367V20.792H26.2109V22.1725Z" fill="#F9632C"/>
<path d="M27.5852 22.1725H26.2109V20.792H27.5852V22.1725Z" fill="#F9632C"/>
<path d="M2.7485 23.5702H1.37427V22.1729H2.7485V23.5702Z" fill="black"/>
<path d="M4.13953 23.5702H2.74854V22.1729H4.13953V23.5702Z" fill="black"/>
<path d="M5.51364 23.5702H4.1394V22.1729H5.51364V23.5702Z" fill="#B74217"/>
<path d="M6.88791 23.5702H5.51367V22.1729H6.88791V23.5702Z" fill="#B74217"/>
<path d="M8.27894 23.5702H6.88794V22.1729H8.27894V23.5702Z" fill="#B74217"/>
<path d="M9.65305 23.5702H8.27881V22.1729H9.65305V23.5702Z" fill="#F9632C"/>
<path d="M11.0273 23.5702H9.65308V22.1729H11.0273V23.5702Z" fill="#F9632C"/>
<path d="M12.4183 23.5702H11.0273V22.1729H12.4183V23.5702Z" fill="#F9632C"/>
<path d="M13.7924 23.5702H12.4182V22.1729H13.7924V23.5702Z" fill="#F9632C"/>
<path d="M15.167 23.5702H13.7927V22.1729H15.167V23.5702Z" fill="#F9632C"/>
<path d="M16.558 23.5702H15.167V22.1729H16.558V23.5702Z" fill="#F9632C"/>
<path d="M17.9321 23.5702H16.5579V22.1729H17.9321V23.5702Z" fill="#F9632C"/>
<path d="M19.3064 23.5702H17.9321V22.1729H19.3064V23.5702Z" fill="#F9632C"/>
<path d="M20.6974 23.5702H19.3064V22.1729H20.6974V23.5702Z" fill="#F9632C"/>
<path d="M22.0717 23.5702H20.6975V22.1729H22.0717V23.5702Z" fill="#F9632C"/>
<path d="M23.4458 23.5702H22.0715V22.1729H23.4458V23.5702Z" fill="#F9632C"/>
<path d="M24.8368 23.5702H23.4458V22.1729H24.8368V23.5702Z" fill="#F9632C"/>
<path d="M26.2109 23.5702H24.8367V22.1729H26.2109V23.5702Z" fill="#F9632C"/>
<path d="M27.5852 23.5702H26.2109V22.1729H27.5852V23.5702Z" fill="#F9632C"/>
<path d="M4.13953 24.9503H2.74854V23.5698H4.13953V24.9503Z" fill="black"/>
<path d="M5.51364 24.9503H4.1394V23.5698H5.51364V24.9503Z" fill="black"/>
<path d="M6.88791 24.9503H5.51367V23.5698H6.88791V24.9503Z" fill="black"/>
<path d="M8.27894 24.9503H6.88794V23.5698H8.27894V24.9503Z" fill="#B74217"/>
<path d="M9.65305 24.9503H8.27881V23.5698H9.65305V24.9503Z" fill="#B74217"/>
<path d="M11.0273 24.9503H9.65308V23.5698H11.0273V24.9503Z" fill="#B74217"/>
<path d="M12.4183 24.9503H11.0273V23.5698H12.4183V24.9503Z" fill="#B74217"/>
<path d="M13.7924 24.9503H12.4182V23.5698H13.7924V24.9503Z" fill="#F9632C"/>
<path d="M15.167 24.9503H13.7927V23.5698H15.167V24.9503Z" fill="#F9632C"/>
<path d="M16.558 24.9503H15.167V23.5698H16.558V24.9503Z" fill="#F9632C"/>
<path d="M17.9321 24.9503H16.5579V23.5698H17.9321V24.9503Z" fill="#F9632C"/>
<path d="M19.3064 24.9503H17.9321V23.5698H19.3064V24.9503Z" fill="#F9632C"/>
<path d="M20.6974 24.9503H19.3064V23.5698H20.6974V24.9503Z" fill="#F9632C"/>
<path d="M22.0717 24.9503H20.6975V23.5698H22.0717V24.9503Z" fill="#F9632C"/>
<path d="M23.4458 24.9503H22.0715V23.5698H23.4458V24.9503Z" fill="#F9632C"/>
<path d="M24.8368 24.9503H23.4458V23.5698H24.8368V24.9503Z" fill="#F9632C"/>
<path d="M26.2109 24.9503H24.8367V23.5698H26.2109V24.9503Z" fill="#F9632C"/>
<path d="M27.5852 24.9503H26.2109V23.5698H27.5852V24.9503Z" fill="#F9632C"/>
<path d="M5.51364 26.3305H4.1394V24.95H5.51364V26.3305Z" fill="black"/>
<path d="M6.88791 26.3305H5.51367V24.95H6.88791V26.3305Z" fill="black"/>
<path d="M8.27894 26.3305H6.88794V24.95H8.27894V26.3305Z" fill="black"/>
<path d="M9.65305 26.3305H8.27881V24.95H9.65305V26.3305Z" fill="#B74217"/>
<path d="M11.0273 26.3305H9.65308V24.95H11.0273V26.3305Z" fill="#B74217"/>
<path d="M12.4183 26.3305H11.0273V24.95H12.4183V26.3305Z" fill="#B74217"/>
<path d="M13.7924 26.3305H12.4182V24.95H13.7924V26.3305Z" fill="#B74217"/>
<path d="M15.167 26.3305H13.7927V24.95H15.167V26.3305Z" fill="#B74217"/>
<path d="M16.558 26.3305H15.167V24.95H16.558V26.3305Z" fill="#F9632C"/>
<path d="M17.9321 26.3305H16.5579V24.95H17.9321V26.3305Z" fill="#F9632C"/>
<path d="M19.3064 26.3305H17.9321V24.95H19.3064V26.3305Z" fill="#F9632C"/>
<path d="M20.6974 26.3305H19.3064V24.95H20.6974V26.3305Z" fill="#F9632C"/>
<path d="M22.0717 26.3305H20.6975V24.95H22.0717V26.3305Z" fill="#F9632C"/>
<path d="M23.4458 26.3305H22.0715V24.95H23.4458V26.3305Z" fill="#F9632C"/>
<path d="M24.8368 26.3305H23.4458V24.95H24.8368V26.3305Z" fill="#F9632C"/>
<path d="M26.2109 26.3305H24.8367V24.95H26.2109V26.3305Z" fill="#F9632C"/>
<path d="M27.5852 26.3305H26.2109V24.95H27.5852V26.3305Z" fill="#F9632C"/>
<path d="M8.27894 27.7279H6.88794V26.3306H8.27894V27.7279Z" fill="black"/>
<path d="M9.65305 27.7279H8.27881V26.3306H9.65305V27.7279Z" fill="black"/>
<path d="M11.0273 27.7279H9.65308V26.3306H11.0273V27.7279Z" fill="#B74217"/>
<path d="M12.4183 27.7279H11.0273V26.3306H12.4183V27.7279Z" fill="#B74217"/>
<path d="M13.7924 27.7279H12.4182V26.3306H13.7924V27.7279Z" fill="#B74217"/>
<path d="M15.167 27.7279H13.7927V26.3306H15.167V27.7279Z" fill="#B74217"/>
<path d="M16.558 27.7279H15.167V26.3306H16.558V27.7279Z" fill="#B74217"/>
<path d="M17.9321 27.7279H16.5579V26.3306H17.9321V27.7279Z" fill="#F9632C"/>
<path d="M19.3064 27.7279H17.9321V26.3306H19.3064V27.7279Z" fill="#F9632C"/>
<path d="M20.6974 27.7279H19.3064V26.3306H20.6974V27.7279Z" fill="#F9632C"/>
<path d="M22.0717 27.7279H20.6975V26.3306H22.0717V27.7279Z" fill="#F9632C"/>
<path d="M23.4458 27.7279H22.0715V26.3306H23.4458V27.7279Z" fill="#F9632C"/>
<path d="M24.8368 27.7279H23.4458V26.3306H24.8368V27.7279Z" fill="#F9632C"/>
<path d="M26.2109 27.7279H24.8367V26.3306H26.2109V27.7279Z" fill="#F9632C"/>
<path d="M27.5852 27.7279H26.2109V26.3306H27.5852V27.7279Z" fill="#F9632C"/>
<path d="M9.65305 29.1088H8.27881V27.7283H9.65305V29.1088Z" fill="black"/>
<path d="M11.0273 29.1088H9.65308V27.7283H11.0273V29.1088Z" fill="black"/>
<path d="M12.4183 29.1088H11.0273V27.7283H12.4183V29.1088Z" fill="#B74217"/>
<path d="M13.7924 29.1088H12.4182V27.7283H13.7924V29.1088Z" fill="#B74217"/>
<path d="M15.167 29.1088H13.7927V27.7283H15.167V29.1088Z" fill="#B74217"/>
<path d="M16.558 29.1088H15.167V27.7283H16.558V29.1088Z" fill="#B74217"/>
<path d="M17.9321 29.1088H16.5579V27.7283H17.9321V29.1088Z" fill="#B74217"/>
<path d="M19.3064 29.1088H17.9321V27.7283H19.3064V29.1088Z" fill="#F9632C"/>
<path d="M20.6974 29.1088H19.3064V27.7283H20.6974V29.1088Z" fill="#F9632C"/>
<path d="M22.0717 29.1088H20.6975V27.7283H22.0717V29.1088Z" fill="#F9632C"/>
<path d="M23.4458 29.1088H22.0715V27.7283H23.4458V29.1088Z" fill="#F9632C"/>
<path d="M24.8368 29.1088H23.4458V27.7283H24.8368V29.1088Z" fill="#F9632C"/>
<path d="M26.2109 29.1088H24.8367V27.7283H26.2109V29.1088Z" fill="#F9632C"/>
<path d="M27.5852 29.1088H26.2109V27.7283H27.5852V29.1088Z" fill="#F9632C"/>
<path d="M11.0273 30.4897H9.65308V29.1091H11.0273V30.4897Z" fill="black"/>
<path d="M12.4183 30.4897H11.0273V29.1091H12.4183V30.4897Z" fill="black"/>
<path d="M13.7924 30.4897H12.4182V29.1091H13.7924V30.4897Z" fill="black"/>
<path d="M15.167 30.4897H13.7927V29.1091H15.167V30.4897Z" fill="#B74217"/>
<path d="M16.558 30.4897H15.167V29.1091H16.558V30.4897Z" fill="#B74217"/>
<path d="M17.9321 30.4897H16.5579V29.1091H17.9321V30.4897Z" fill="#B74217"/>
<path d="M19.3064 30.4897H17.9321V29.1091H19.3064V30.4897Z" fill="#B74217"/>
<path d="M20.6974 30.4897H19.3064V29.1091H20.6974V30.4897Z" fill="#F9632C"/>
<path d="M22.0717 30.4897H20.6975V29.1091H22.0717V30.4897Z" fill="#F9632C"/>
<path d="M23.4458 30.4897H22.0715V29.1091H23.4458V30.4897Z" fill="#F9632C"/>
<path d="M24.8368 30.4897H23.4458V29.1091H24.8368V30.4897Z" fill="#F9632C"/>
<path d="M26.2109 30.4897H24.8367V29.1091H26.2109V30.4897Z" fill="#F9632C"/>
<path d="M27.5852 30.4897H26.2109V29.1091H27.5852V30.4897Z" fill="#F9632C"/>
<path d="M13.7924 31.8869H12.4182V30.4895H13.7924V31.8869Z" fill="black"/>
<path d="M15.167 31.8869H13.7927V30.4895H15.167V31.8869Z" fill="black"/>
<path d="M16.558 31.8869H15.167V30.4895H16.558V31.8869Z" fill="#B74217"/>
<path d="M17.9321 31.8869H16.5579V30.4895H17.9321V31.8869Z" fill="#B74217"/>
<path d="M19.3064 31.8869H17.9321V30.4895H19.3064V31.8869Z" fill="#B74217"/>
<path d="M20.6974 31.8869H19.3064V30.4895H20.6974V31.8869Z" fill="#B74217"/>
<path d="M22.0717 31.8869H20.6975V30.4895H22.0717V31.8869Z" fill="#F9632C"/>
<path d="M23.4458 31.8869H22.0715V30.4895H23.4458V31.8869Z" fill="#F9632C"/>
<path d="M24.8368 31.8869H23.4458V30.4895H24.8368V31.8869Z" fill="#F9632C"/>
<path d="M26.2109 31.8869H24.8367V30.4895H26.2109V31.8869Z" fill="#F9632C"/>
<path d="M27.5852 31.8869H26.2109V30.4895H27.5852V31.8869Z" fill="#F9632C"/>
<path d="M15.167 33.2672H13.7927V31.8867H15.167V33.2672Z" fill="black"/>
<path d="M16.558 33.2672H15.167V31.8867H16.558V33.2672Z" fill="black"/>
<path d="M17.9321 33.2672H16.5579V31.8867H17.9321V33.2672Z" fill="#B74217"/>
<path d="M19.3064 33.2672H17.9321V31.8867H19.3064V33.2672Z" fill="#B74217"/>
<path d="M20.6974 33.2672H19.3064V31.8867H20.6974V33.2672Z" fill="#B74217"/>
<path d="M22.0717 33.2672H20.6975V31.8867H22.0717V33.2672Z" fill="#F9632C"/>
<path d="M23.4458 33.2672H22.0715V31.8867H23.4458V33.2672Z" fill="#F9632C"/>
<path d="M24.8368 33.2672H23.4458V31.8867H24.8368V33.2672Z" fill="#F9632C"/>
<path d="M26.2109 33.2672H24.8367V31.8867H26.2109V33.2672Z" fill="#F9632C"/>
<path d="M27.5852 33.2672H26.2109V31.8867H27.5852V33.2672Z" fill="#F9632C"/>
<path d="M16.558 34.6476H15.167V33.2671H16.558V34.6476Z" fill="black"/>
<path d="M17.9321 34.6476H16.5579V33.2671H17.9321V34.6476Z" fill="black"/>
<path d="M19.3064 34.6476H17.9321V33.2671H19.3064V34.6476Z" fill="#B74217"/>
<path d="M20.6974 34.6476H19.3064V33.2671H20.6974V34.6476Z" fill="#F9632C"/>
<path d="M22.0717 34.6476H20.6975V33.2671H22.0717V34.6476Z" fill="#F9632C"/>
<path d="M23.4458 34.6476H22.0715V33.2671H23.4458V34.6476Z" fill="#F9632C"/>
<path d="M24.8368 34.6476H23.4458V33.2671H24.8368V34.6476Z" fill="#F9632C"/>
<path d="M26.2109 34.6476H24.8367V33.2671H26.2109V34.6476Z" fill="#F9632C"/>
<path d="M27.5852 34.6476H26.2109V33.2671H27.5852V34.6476Z" fill="#F9632C"/>
<path d="M16.558 36.0448H15.167V34.6475H16.558V36.0448Z" fill="black"/>
<path d="M17.9321 36.0448H16.5579V34.6475H17.9321V36.0448Z" fill="#F9632C"/>
<path d="M19.3064 36.0448H17.9321V34.6475H19.3064V36.0448Z" fill="#F9632C"/>
<path d="M20.6974 36.0448H19.3064V34.6475H20.6974V36.0448Z" fill="#F9632C"/>
<path d="M22.0717 36.0448H20.6975V34.6475H22.0717V36.0448Z" fill="#F9632C"/>
<path d="M23.4458 36.0448H22.0715V34.6475H23.4458V36.0448Z" fill="#F9632C"/>
<path d="M24.8368 36.0448H23.4458V34.6475H24.8368V36.0448Z" fill="#F9632C"/>
<path d="M26.2109 36.0448H24.8367V34.6475H26.2109V36.0448Z" fill="#F9632C"/>
<path d="M27.5852 36.0448H26.2109V34.6475H27.5852V36.0448Z" fill="#F9632C"/>
<path d="M15.167 37.4257H13.7927V36.0452H15.167V37.4257Z" fill="black"/>
<path d="M16.558 37.4257H15.167V36.0452H16.558V37.4257Z" fill="black"/>
<path d="M17.9321 37.4257H16.5579V36.0452H17.9321V37.4257Z" fill="#F9632C"/>
<path d="M19.3064 37.4257H17.9321V36.0452H19.3064V37.4257Z" fill="#F9632C"/>
<path d="M20.6974 37.4257H19.3064V36.0452H20.6974V37.4257Z" fill="#F9632C"/>
<path d="M22.0717 37.4257H20.6975V36.0452H22.0717V37.4257Z" fill="#F9632C"/>
<path d="M23.4291 37.4257H22.0381V36.0452H23.4291V37.4257Z" fill="#F9632C"/>
<path d="M24.8367 37.4257H23.429V36.0452H24.8367V37.4257Z" fill="#F9632C"/>
<path d="M26.2109 37.4257H24.8367V36.0452H26.2109V37.4257Z" fill="#F9632C"/>
<path d="M27.5852 37.4257H26.2109V36.0452H27.5852V37.4257Z" fill="#B74217"/>
<path d="M15.167 38.8063H13.7927V37.4258H15.167V38.8063Z" fill="black"/>
<path d="M16.558 38.8063H15.167V37.4258H16.558V38.8063Z" fill="#F9632C"/>
<path d="M17.9321 38.8063H16.5579V37.4258H17.9321V38.8063Z" fill="#F9632C"/>
<path d="M19.3064 38.8063H17.9321V37.4258H19.3064V38.8063Z" fill="#F9632C"/>
<path d="M20.6974 38.8063H19.3064V37.4258H20.6974V38.8063Z" fill="#F9632C"/>
<path d="M22.0717 38.8063H20.6975V37.4258H22.0717V38.8063Z" fill="#F9632C"/>
<path d="M23.4291 38.8063H22.0381V37.4258H23.4291V38.8063Z" fill="#F9632C"/>
<path d="M24.8367 38.8063H23.429V37.4258H24.8367V38.8063Z" fill="#B74217"/>
<path d="M26.2109 38.8063H24.8367V37.4258H26.2109V38.8063Z" fill="#B74217"/>
<path d="M27.5852 38.8063H26.2109V37.4258H27.5852V38.8063Z" fill="#B74217"/>
<path d="M15.167 40.2038H13.7927V38.8064H15.167V40.2038Z" fill="black"/>
<path d="M16.558 40.2038H15.167V38.8064H16.558V40.2038Z" fill="#F9632C"/>
<path d="M17.9321 40.2038H16.5579V38.8064H17.9321V40.2038Z" fill="#F9632C"/>
<path d="M19.3064 40.2038H17.9321V38.8064H19.3064V40.2038Z" fill="#F9632C"/>
<path d="M20.6974 40.2038H19.3064V38.8064H20.6974V40.2038Z" fill="#F9632C"/>
<path d="M22.0717 40.2038H20.6975V38.8064H22.0717V40.2038Z" fill="#F9632C"/>
<path d="M23.4291 40.2038H22.0381V38.8064H23.4291V40.2038Z" fill="#B74217"/>
<path d="M24.8367 40.2038H23.429V38.8064H24.8367V40.2038Z" fill="#B74217"/>
<path d="M26.2109 40.2038H24.8367V38.8064H26.2109V40.2038Z" fill="#B74217"/>
<path d="M27.5852 40.2038H26.2109V38.8064H27.5852V40.2038Z" fill="#B74217"/>
<path d="M13.7924 41.5839H12.4182V40.2034H13.7924V41.5839Z" fill="black"/>
<path d="M15.167 41.5839H13.7927V40.2034H15.167V41.5839Z" fill="black"/>
<path d="M16.558 41.5839H15.167V40.2034H16.558V41.5839Z" fill="#F9632C"/>
<path d="M17.9321 41.5839H16.5579V40.2034H17.9321V41.5839Z" fill="#F9632C"/>
<path d="M19.3064 41.5839H17.9321V40.2034H19.3064V41.5839Z" fill="#F9632C"/>
<path d="M20.6974 41.5839H19.3064V40.2034H20.6974V41.5839Z" fill="#F9632C"/>
<path d="M22.0378 41.5839H20.6636V40.2034H22.0378V41.5839Z" fill="#B74217"/>
<path d="M23.4291 41.5839H22.0381V40.2034H23.4291V41.5839Z" fill="#B74217"/>
<path d="M24.8367 41.5839H23.429V40.2034H24.8367V41.5839Z" fill="#B74217"/>
<path d="M26.2109 41.5839H24.8367V40.2034H26.2109V41.5839Z" fill="#B74217"/>
<path d="M27.5852 41.5839H26.2109V40.2034H27.5852V41.5839Z" fill="black"/>
<path d="M13.7924 42.9648H12.4182V41.5842H13.7924V42.9648Z" fill="black"/>
<path d="M15.167 42.9648H13.7927V41.5842H15.167V42.9648Z" fill="black"/>
<path d="M16.558 42.9648H15.167V41.5842H16.558V42.9648Z" fill="#F9632C"/>
<path d="M17.9321 42.9648H16.5579V41.5842H17.9321V42.9648Z" fill="#F9632C"/>
<path d="M19.2897 42.9648H17.8987V41.5842H19.2897V42.9648Z" fill="#F9632C"/>
<path d="M20.6638 42.9648H19.2896V41.5842H20.6638V42.9648Z" fill="#B74217"/>
<path d="M22.0378 42.9648H20.6636V41.5842H22.0378V42.9648Z" fill="#B74217"/>
<path d="M23.4291 42.9648H22.0381V41.5842H23.4291V42.9648Z" fill="#B74217"/>
<path d="M24.8367 42.9648H23.429V41.5842H24.8367V42.9648Z" fill="#B74217"/>
<path d="M26.2109 42.9648H24.8367V41.5842H26.2109V42.9648Z" fill="black"/>
<path d="M27.5852 42.9648H26.2109V41.5842H27.5852V42.9648Z" fill="black"/>
<path d="M13.7924 44.3622H12.4182V42.9648H13.7924V44.3622Z" fill="black"/>
<path d="M15.167 44.3622H13.7927V42.9648H15.167V44.3622Z" fill="#F9632C"/>
<path d="M16.558 44.3622H15.167V42.9648H16.558V44.3622Z" fill="#F9632C"/>
<path d="M17.9321 44.3622H16.5579V42.9648H17.9321V44.3622Z" fill="#F9632C"/>
<path d="M19.2897 44.3622H17.8987V42.9648H19.2897V44.3622Z" fill="#B74217"/>
<path d="M20.6638 44.3622H19.2896V42.9648H20.6638V44.3622Z" fill="#B74217"/>
<path d="M22.0378 44.3622H20.6636V42.9648H22.0378V44.3622Z" fill="#B74217"/>
<path d="M23.4291 44.3622H22.0381V42.9648H23.4291V44.3622Z" fill="black"/>
<path d="M24.8367 44.3622H23.429V42.9648H24.8367V44.3622Z" fill="black"/>
<path d="M26.2109 44.3622H24.8367V42.9648H26.2109V44.3622Z" fill="black"/>
<path d="M12.4183 45.7426H11.0273V44.3621H12.4183V45.7426Z" fill="black"/>
<path d="M13.7924 45.7426H12.4182V44.3621H13.7924V45.7426Z" fill="black"/>
<path d="M15.167 45.7426H13.7927V44.3621H15.167V45.7426Z" fill="#F9632C"/>
<path d="M16.558 45.7426H15.167V44.3621H16.558V45.7426Z" fill="#F9632C"/>
<path d="M17.9321 45.7426H16.5579V44.3621H17.9321V45.7426Z" fill="#B74217"/>
<path d="M19.3064 45.7426H17.9321V44.3621H19.3064V45.7426Z" fill="#B74217"/>
<path d="M20.6638 45.7426H19.2896V44.3621H20.6638V45.7426Z" fill="#B74217"/>
<path d="M22.0378 45.7426H20.6636V44.3621H22.0378V45.7426Z" fill="black"/>
<path d="M23.4291 45.7426H22.0381V44.3621H23.4291V45.7426Z" fill="black"/>
<path d="M12.4183 47.1232H11.0273V45.7427H12.4183V47.1232Z" fill="black"/>
<path d="M13.7924 47.1232H12.4182V45.7427H13.7924V47.1232Z" fill="#F9632C"/>
<path d="M15.167 47.1232H13.7927V45.7427H15.167V47.1232Z" fill="#F9632C"/>
<path d="M16.558 47.1232H15.167V45.7427H16.558V47.1232Z" fill="#B74217"/>
<path d="M17.9321 47.1232H16.5579V45.7427H17.9321V47.1232Z" fill="#B74217"/>
<path d="M19.3064 47.1232H17.9321V45.7427H19.3064V47.1232Z" fill="black"/>
<path d="M20.6638 47.1232H19.2896V45.7427H20.6638V47.1232Z" fill="black"/>
<path d="M22.0378 47.1232H20.6636V45.7427H22.0378V47.1232Z" fill="black"/>
<path d="M12.4183 48.5202H11.0273V47.1228H12.4183V48.5202Z" fill="black"/>
<path d="M13.7924 48.5202H12.4182V47.1228H13.7924V48.5202Z" fill="#F9632C"/>
<path d="M15.167 48.5202H13.7927V47.1228H15.167V48.5202Z" fill="#B74217"/>
<path d="M16.558 48.5202H15.167V47.1228H16.558V48.5202Z" fill="#B74217"/>
<path d="M17.9321 48.5202H16.5579V47.1228H17.9321V48.5202Z" fill="black"/>
<path d="M19.2897 48.5202H17.8987V47.1228H19.2897V48.5202Z" fill="black"/>
<path d="M11.0273 49.9008H9.65308V48.5203H11.0273V49.9008Z" fill="black"/>
<path d="M12.4183 49.9008H11.0273V48.5203H12.4183V49.9008Z" fill="black"/>
<path d="M13.7924 49.9008H12.4182V48.5203H13.7924V49.9008Z" fill="#B74217"/>
<path d="M15.167 49.9008H13.7927V48.5203H15.167V49.9008Z" fill="#B74217"/>
<path d="M16.558 49.9008H15.167V48.5203H16.558V49.9008Z" fill="black"/>
<path d="M17.9321 49.9008H16.5579V48.5203H17.9321V49.9008Z" fill="black"/>
<path d="M11.0273 51.2814H9.65308V49.9009H11.0273V51.2814Z" fill="black"/>
<path d="M12.4183 51.2814H11.0273V49.9009H12.4183V51.2814Z" fill="#B74217"/>
<path d="M13.7924 51.2814H12.4182V49.9009H13.7924V51.2814Z" fill="black"/>
<path d="M15.167 51.2814H13.7927V49.9009H15.167V51.2814Z" fill="black"/>
<path d="M16.558 51.2814H15.167V49.9009H16.558V51.2814Z" fill="black"/>
<path d="M11.0273 52.6786H9.65308V51.2812H11.0273V52.6786Z" fill="black"/>
<path d="M12.4183 52.6786H11.0273V51.2812H12.4183V52.6786Z" fill="black"/>
<path d="M13.7924 52.6786H12.4182V51.2812H13.7924V52.6786Z" fill="black"/>
<path d="M27.5852 1.39737H28.9762V0H27.5852V1.39737Z" fill="black"/>
<path d="M28.9763 2.77798H30.3506V1.39746H28.9763V2.77798Z" fill="black"/>
<path d="M27.5852 2.77798H28.9762V1.39746H27.5852V2.77798Z" fill="black"/>
<path d="M28.9763 4.15811H30.3506V2.77759H28.9763V4.15811Z" fill="black"/>
<path d="M27.5852 4.15811H28.9762V2.77759H27.5852V4.15811Z" fill="#F9632C"/>
<path d="M28.9763 5.5558H30.3506V4.15845H28.9763V5.5558Z" fill="black"/>
<path d="M27.5852 5.5558H28.9762V4.15845H27.5852V5.5558Z" fill="#F9632C"/>
<path d="M30.3506 6.93619H31.7248V5.55566H30.3506V6.93619Z" fill="black"/>
<path d="M28.9763 6.93619H30.3506V5.55566H28.9763V6.93619Z" fill="black"/>
<path d="M27.5852 6.93619H28.9762V5.55566H27.5852V6.93619Z" fill="#F9632C"/>
<path d="M30.3506 8.31705H31.7248V6.93652H30.3506V8.31705Z" fill="black"/>
<path d="M28.9763 8.31705H30.3506V6.93652H28.9763V8.31705Z" fill="#F9632C"/>
<path d="M27.5852 8.31705H28.9762V6.93652H27.5852V8.31705Z" fill="#F9632C"/>
<path d="M30.3506 9.69742H31.7248V8.31689H30.3506V9.69742Z" fill="black"/>
<path d="M28.9763 9.69742H30.3506V8.31689H28.9763V9.69742Z" fill="#F9632C"/>
<path d="M27.5852 9.69742H28.9762V8.31689H27.5852V9.69742Z" fill="#F9632C"/>
<path d="M31.7246 11.0949H33.1156V9.69751H31.7246V11.0949Z" fill="black"/>
<path d="M30.3506 11.0949H31.7248V9.69751H30.3506V11.0949Z" fill="black"/>
<path d="M28.9763 11.0949H30.3506V9.69751H28.9763V11.0949Z" fill="#F9632C"/>
<path d="M27.5852 11.0949H28.9762V9.69751H27.5852V11.0949Z" fill="#F9632C"/>
<path d="M31.7246 12.4755H33.1156V11.095H31.7246V12.4755Z" fill="black"/>
<path d="M30.3506 12.4755H31.7248V11.095H30.3506V12.4755Z" fill="#F9632C"/>
<path d="M28.9763 12.4755H30.3506V11.095H28.9763V12.4755Z" fill="#F9632C"/>
<path d="M27.5852 12.4755H28.9762V11.095H27.5852V12.4755Z" fill="#F9632C"/>
<path d="M31.7246 13.8559H33.1156V12.4753H31.7246V13.8559Z" fill="black"/>
<path d="M30.3506 13.8559H31.7248V12.4753H30.3506V13.8559Z" fill="#F9632C"/>
<path d="M28.9763 13.8559H30.3506V12.4753H28.9763V13.8559Z" fill="#F9632C"/>
<path d="M27.5852 13.8559H28.9762V12.4753H27.5852V13.8559Z" fill="#F9632C"/>
<path d="M33.1157 15.2533H34.49V13.856H33.1157V15.2533Z" fill="black"/>
<path d="M31.7246 15.2533H33.1156V13.856H31.7246V15.2533Z" fill="black"/>
<path d="M30.3506 15.2533H31.7248V13.856H30.3506V15.2533Z" fill="#F9632C"/>
<path d="M28.9763 15.2533H30.3506V13.856H28.9763V15.2533Z" fill="#F9632C"/>
<path d="M27.5852 15.2533H28.9762V13.856H27.5852V15.2533Z" fill="#F9632C"/>
<path d="M33.1157 16.6337H34.49V15.2532H33.1157V16.6337Z" fill="black"/>
<path d="M31.7246 16.6337H33.1156V15.2532H31.7246V16.6337Z" fill="#F9632C"/>
<path d="M30.3506 16.6337H31.7248V15.2532H30.3506V16.6337Z" fill="#F9632C"/>
<path d="M28.9763 16.6337H30.3506V15.2532H28.9763V16.6337Z" fill="#F9632C"/>
<path d="M27.5852 16.6337H28.9762V15.2532H27.5852V16.6337Z" fill="#F9632C"/>
<path d="M33.1157 18.0141H34.49V16.6335H33.1157V18.0141Z" fill="black"/>
<path d="M31.7246 18.0141H33.1156V16.6335H31.7246V18.0141Z" fill="#F9632C"/>
<path d="M30.3506 18.0141H31.7248V16.6335H30.3506V18.0141Z" fill="#F9632C"/>
<path d="M28.9763 18.0141H30.3506V16.6335H28.9763V18.0141Z" fill="#F9632C"/>
<path d="M27.5852 18.0141H28.9762V16.6335H27.5852V18.0141Z" fill="#F9632C"/>
<path d="M33.1157 19.4113H34.49V18.0139H33.1157V19.4113Z" fill="black"/>
<path d="M31.7246 19.4113H33.1156V18.0139H31.7246V19.4113Z" fill="#F9632C"/>
<path d="M30.3506 19.4113H31.7248V18.0139H30.3506V19.4113Z" fill="#F9632C"/>
<path d="M28.9763 19.4113H30.3506V18.0139H28.9763V19.4113Z" fill="#F9632C"/>
<path d="M27.5852 19.4113H28.9762V18.0139H27.5852V19.4113Z" fill="#F9632C"/>
<path d="M53.813 20.7924H55.1872V19.4119H53.813V20.7924Z" fill="black"/>
<path d="M52.4219 20.7924H53.8129V19.4119H52.4219V20.7924Z" fill="black"/>
<path d="M51.0479 20.7924H52.4221V19.4119H51.0479V20.7924Z" fill="black"/>
<path d="M49.6733 20.7924H51.0476V19.4119H49.6733V20.7924Z" fill="black"/>
<path d="M48.2827 20.7924H49.6737V19.4119H48.2827V20.7924Z" fill="black"/>
<path d="M46.9082 20.7924H48.2824V19.4119H46.9082V20.7924Z" fill="black"/>
<path d="M45.5342 20.7924H46.9084V19.4119H45.5342V20.7924Z" fill="black"/>
<path d="M44.1431 20.7924H45.5341V19.4119H44.1431V20.7924Z" fill="black"/>
<path d="M42.769 20.7924H44.1433V19.4119H42.769V20.7924Z" fill="black"/>
<path d="M41.3945 20.7924H42.7688V19.4119H41.3945V20.7924Z" fill="black"/>
<path d="M40.0039 20.7924H41.3949V19.4119H40.0039V20.7924Z" fill="black"/>
<path d="M38.6294 20.7924H40.0036V19.4119H38.6294V20.7924Z" fill="black"/>
<path d="M37.2554 20.7924H38.6296V19.4119H37.2554V20.7924Z" fill="black"/>
<path d="M35.864 20.7924H37.255V19.4119H35.864V20.7924Z" fill="black"/>
<path d="M34.4897 20.7924H35.864V19.4119H34.4897V20.7924Z" fill="black"/>
<path d="M33.1157 20.7924H34.49V19.4119H33.1157V20.7924Z" fill="black"/>
<path d="M31.7246 20.7924H33.1156V19.4119H31.7246V20.7924Z" fill="#F9632C"/>
<path d="M30.3506 20.7924H31.7248V19.4119H30.3506V20.7924Z" fill="#F9632C"/>
<path d="M28.9763 20.7924H30.3506V19.4119H28.9763V20.7924Z" fill="#F9632C"/>
<path d="M27.5852 20.7924H28.9762V19.4119H27.5852V20.7924Z" fill="#F9632C"/>
<path d="M53.813 22.1725H55.1872V20.792H53.813V22.1725Z" fill="black"/>
<path d="M52.4219 22.1725H53.8129V20.792H52.4219V22.1725Z" fill="black"/>
<path d="M51.0479 22.1725H52.4221V20.792H51.0479V22.1725Z" fill="#F9632C"/>
<path d="M49.6733 22.1725H51.0476V20.792H49.6733V22.1725Z" fill="#B74217"/>
<path d="M48.2827 22.1725H49.6737V20.792H48.2827V22.1725Z" fill="#B74217"/>
<path d="M46.9082 22.1725H48.2824V20.792H46.9082V22.1725Z" fill="#B74217"/>
<path d="M45.5342 22.1725H46.9084V20.792H45.5342V22.1725Z" fill="#B74217"/>
<path d="M44.1431 22.1725H45.5341V20.792H44.1431V22.1725Z" fill="#B74217"/>
<path d="M42.769 22.1725H44.1433V20.792H42.769V22.1725Z" fill="#B74217"/>
<path d="M41.3945 22.1725H42.7688V20.792H41.3945V22.1725Z" fill="#B74217"/>
<path d="M40.0039 22.1725H41.3949V20.792H40.0039V22.1725Z" fill="#B74217"/>
<path d="M38.6294 22.1725H40.0036V20.792H38.6294V22.1725Z" fill="#B74217"/>
<path d="M37.2554 22.1725H38.6296V20.792H37.2554V22.1725Z" fill="#B74217"/>
<path d="M35.864 22.1725H37.255V20.792H35.864V22.1725Z" fill="#B74217"/>
<path d="M34.4897 22.1725H35.864V20.792H34.4897V22.1725Z" fill="#B74217"/>
<path d="M33.1157 22.1725H34.49V20.792H33.1157V22.1725Z" fill="#B74217"/>
<path d="M31.7246 22.1725H33.1156V20.792H31.7246V22.1725Z" fill="#F9632C"/>
<path d="M30.3506 22.1725H31.7248V20.792H30.3506V22.1725Z" fill="#F9632C"/>
<path d="M28.9763 22.1725H30.3506V20.792H28.9763V22.1725Z" fill="#F9632C"/>
<path d="M27.5852 22.1725H28.9762V20.792H27.5852V22.1725Z" fill="#F9632C"/>
<path d="M52.4219 23.5702H53.8129V22.1729H52.4219V23.5702Z" fill="black"/>
<path d="M51.0479 23.5702H52.4221V22.1729H51.0479V23.5702Z" fill="black"/>
<path d="M49.6733 23.5702H51.0476V22.1729H49.6733V23.5702Z" fill="#F9632C"/>
<path d="M48.2827 23.5702H49.6737V22.1729H48.2827V23.5702Z" fill="#F9632C"/>
<path d="M46.9082 23.5702H48.2824V22.1729H46.9082V23.5702Z" fill="#F9632C"/>
<path d="M45.5342 23.5702H46.9084V22.1729H45.5342V23.5702Z" fill="#B74217"/>
<path d="M44.1431 23.5702H45.5341V22.1729H44.1431V23.5702Z" fill="#B74217"/>
<path d="M42.769 23.5702H44.1433V22.1729H42.769V23.5702Z" fill="#B74217"/>
<path d="M41.3945 23.5702H42.7688V22.1729H41.3945V23.5702Z" fill="#B74217"/>
<path d="M40.0039 23.5702H41.3949V22.1729H40.0039V23.5702Z" fill="#B74217"/>
<path d="M38.6294 23.5702H40.0036V22.1729H38.6294V23.5702Z" fill="#B74217"/>
<path d="M37.2554 23.5702H38.6296V22.1729H37.2554V23.5702Z" fill="#B74217"/>
<path d="M35.864 23.5702H37.255V22.1729H35.864V23.5702Z" fill="#B74217"/>
<path d="M34.4897 23.5702H35.864V22.1729H34.4897V23.5702Z" fill="#B74217"/>
<path d="M33.1157 23.5702H34.49V22.1729H33.1157V23.5702Z" fill="#B74217"/>
<path d="M31.7246 23.5702H33.1156V22.1729H31.7246V23.5702Z" fill="#B74217"/>
<path d="M30.3506 23.5702H31.7248V22.1729H30.3506V23.5702Z" fill="#F9632C"/>
<path d="M28.9763 23.5702H30.3506V22.1729H28.9763V23.5702Z" fill="#F9632C"/>
<path d="M27.5852 23.5702H28.9762V22.1729H27.5852V23.5702Z" fill="#F9632C"/>
<path d="M51.0479 24.9503H52.4221V23.5698H51.0479V24.9503Z" fill="black"/>
<path d="M49.6733 24.9503H51.0476V23.5698H49.6733V24.9503Z" fill="black"/>
<path d="M48.2827 24.9503H49.6737V23.5698H48.2827V24.9503Z" fill="black"/>
<path d="M46.9082 24.9503H48.2824V23.5698H46.9082V24.9503Z" fill="#F9632C"/>
<path d="M45.5342 24.9503H46.9084V23.5698H45.5342V24.9503Z" fill="#F9632C"/>
<path d="M44.1431 24.9503H45.5341V23.5698H44.1431V24.9503Z" fill="#F9632C"/>
<path d="M42.769 24.9503H44.1433V23.5698H42.769V24.9503Z" fill="#B74217"/>
<path d="M41.3945 24.9503H42.7688V23.5698H41.3945V24.9503Z" fill="#B74217"/>
<path d="M40.0039 24.9503H41.3949V23.5698H40.0039V24.9503Z" fill="#B74217"/>
<path d="M38.6294 24.9503H40.0036V23.5698H38.6294V24.9503Z" fill="#B74217"/>
<path d="M37.2554 24.9503H38.6296V23.5698H37.2554V24.9503Z" fill="#B74217"/>
<path d="M35.864 24.9503H37.255V23.5698H35.864V24.9503Z" fill="#B74217"/>
<path d="M34.4897 24.9503H35.864V23.5698H34.4897V24.9503Z" fill="#B74217"/>
<path d="M33.1157 24.9503H34.49V23.5698H33.1157V24.9503Z" fill="#B74217"/>
<path d="M31.7246 24.9503H33.1156V23.5698H31.7246V24.9503Z" fill="#B74217"/>
<path d="M30.3506 24.9503H31.7248V23.5698H30.3506V24.9503Z" fill="#F9632C"/>
<path d="M28.9763 24.9503H30.3506V23.5698H28.9763V24.9503Z" fill="#F9632C"/>
<path d="M27.5852 24.9503H28.9762V23.5698H27.5852V24.9503Z" fill="#F9632C"/>
<path d="M49.6733 26.3305H51.0476V24.95H49.6733V26.3305Z" fill="black"/>
<path d="M48.2827 26.3305H49.6737V24.95H48.2827V26.3305Z" fill="black"/>
<path d="M46.9082 26.3305H48.2824V24.95H46.9082V26.3305Z" fill="black"/>
<path d="M45.5342 26.3305H46.9084V24.95H45.5342V26.3305Z" fill="#F9632C"/>
<path d="M44.1431 26.3305H45.5341V24.95H44.1431V26.3305Z" fill="#F9632C"/>
<path d="M42.769 26.3305H44.1433V24.95H42.769V26.3305Z" fill="#F9632C"/>
<path d="M41.3945 26.3305H42.7688V24.95H41.3945V26.3305Z" fill="#F9632C"/>
<path d="M40.0039 26.3305H41.3949V24.95H40.0039V26.3305Z" fill="#F9632C"/>
<path d="M38.6294 26.3305H40.0036V24.95H38.6294V26.3305Z" fill="#F9632C"/>
<path d="M37.2554 26.3305H38.6296V24.95H37.2554V26.3305Z" fill="#F9632C"/>
<path d="M35.864 26.3305H37.255V24.95H35.864V26.3305Z" fill="#F9632C"/>
<path d="M34.4897 26.3305H35.864V24.95H34.4897V26.3305Z" fill="#F9632C"/>
<path d="M33.1157 26.3305H34.49V24.95H33.1157V26.3305Z" fill="#F9632C"/>
<path d="M31.7246 26.3305H33.1156V24.95H31.7246V26.3305Z" fill="#F9632C"/>
<path d="M30.3506 26.3305H31.7248V24.95H30.3506V26.3305Z" fill="#F9632C"/>
<path d="M28.9763 26.3305H30.3506V24.95H28.9763V26.3305Z" fill="#F9632C"/>
<path d="M27.5852 26.3305H28.9762V24.95H27.5852V26.3305Z" fill="#F9632C"/>
<path d="M46.9082 27.7279H48.2824V26.3306H46.9082V27.7279Z" fill="black"/>
<path d="M45.5342 27.7279H46.9084V26.3306H45.5342V27.7279Z" fill="black"/>
<path d="M44.1431 27.7279H45.5341V26.3306H44.1431V27.7279Z" fill="#F9632C"/>
<path d="M42.769 27.7279H44.1433V26.3306H42.769V27.7279Z" fill="#F9632C"/>
<path d="M41.3945 27.7279H42.7688V26.3306H41.3945V27.7279Z" fill="#F9632C"/>
<path d="M40.0039 27.7279H41.3949V26.3306H40.0039V27.7279Z" fill="#F9632C"/>
<path d="M38.6294 27.7279H40.0036V26.3306H38.6294V27.7279Z" fill="#F9632C"/>
<path d="M37.2554 27.7279H38.6296V26.3306H37.2554V27.7279Z" fill="#F9632C"/>
<path d="M35.864 27.7279H37.255V26.3306H35.864V27.7279Z" fill="#F9632C"/>
<path d="M34.4897 27.7279H35.864V26.3306H34.4897V27.7279Z" fill="#F9632C"/>
<path d="M33.1157 27.7279H34.49V26.3306H33.1157V27.7279Z" fill="#F9632C"/>
<path d="M31.7246 27.7279H33.1156V26.3306H31.7246V27.7279Z" fill="#F9632C"/>
<path d="M30.3506 27.7279H31.7248V26.3306H30.3506V27.7279Z" fill="#F9632C"/>
<path d="M28.9763 27.7279H30.3506V26.3306H28.9763V27.7279Z" fill="#F9632C"/>
<path d="M27.5852 27.7279H28.9762V26.3306H27.5852V27.7279Z" fill="#F9632C"/>
<path d="M45.5342 29.1088H46.9084V27.7283H45.5342V29.1088Z" fill="black"/>
<path d="M44.1431 29.1088H45.5341V27.7283H44.1431V29.1088Z" fill="black"/>
<path d="M42.769 29.1088H44.1433V27.7283H42.769V29.1088Z" fill="#F9632C"/>
<path d="M41.3945 29.1088H42.7688V27.7283H41.3945V29.1088Z" fill="#F9632C"/>
<path d="M40.0039 29.1088H41.3949V27.7283H40.0039V29.1088Z" fill="#F9632C"/>
<path d="M38.6294 29.1088H40.0036V27.7283H38.6294V29.1088Z" fill="#F9632C"/>
<path d="M37.2554 29.1088H38.6296V27.7283H37.2554V29.1088Z" fill="#F9632C"/>
<path d="M35.864 29.1088H37.255V27.7283H35.864V29.1088Z" fill="#F9632C"/>
<path d="M34.4897 29.1088H35.864V27.7283H34.4897V29.1088Z" fill="#F9632C"/>
<path d="M33.1157 29.1088H34.49V27.7283H33.1157V29.1088Z" fill="#F9632C"/>
<path d="M31.7246 29.1088H33.1156V27.7283H31.7246V29.1088Z" fill="#F9632C"/>
<path d="M30.3506 29.1088H31.7248V27.7283H30.3506V29.1088Z" fill="#F9632C"/>
<path d="M28.9763 29.1088H30.3506V27.7283H28.9763V29.1088Z" fill="#F9632C"/>
<path d="M27.5852 29.1088H28.9762V27.7283H27.5852V29.1088Z" fill="#F9632C"/>
<path d="M44.1431 30.4897H45.5341V29.1091H44.1431V30.4897Z" fill="black"/>
<path d="M42.769 30.4897H44.1433V29.1091H42.769V30.4897Z" fill="black"/>
<path d="M41.3945 30.4897H42.7688V29.1091H41.3945V30.4897Z" fill="black"/>
<path d="M40.0039 30.4897H41.3949V29.1091H40.0039V30.4897Z" fill="#F9632C"/>
<path d="M38.6294 30.4897H40.0036V29.1091H38.6294V30.4897Z" fill="#F9632C"/>
<path d="M37.2554 30.4897H38.6296V29.1091H37.2554V30.4897Z" fill="#F9632C"/>
<path d="M35.864 30.4897H37.255V29.1091H35.864V30.4897Z" fill="#F9632C"/>
<path d="M34.4897 30.4897H35.864V29.1091H34.4897V30.4897Z" fill="#F9632C"/>
<path d="M33.1157 30.4897H34.49V29.1091H33.1157V30.4897Z" fill="#F9632C"/>
<path d="M31.7246 30.4897H33.1156V29.1091H31.7246V30.4897Z" fill="#F9632C"/>
<path d="M30.3506 30.4897H31.7248V29.1091H30.3506V30.4897Z" fill="#F9632C"/>
<path d="M28.9763 30.4897H30.3506V29.1091H28.9763V30.4897Z" fill="#F9632C"/>
<path d="M27.5852 30.4897H28.9762V29.1091H27.5852V30.4897Z" fill="#F9632C"/>
<path d="M41.3945 31.8869H42.7688V30.4895H41.3945V31.8869Z" fill="black"/>
<path d="M40.0039 31.8869H41.3949V30.4895H40.0039V31.8869Z" fill="black"/>
<path d="M38.6294 31.8869H40.0036V30.4895H38.6294V31.8869Z" fill="#F9632C"/>
<path d="M37.2554 31.8869H38.6296V30.4895H37.2554V31.8869Z" fill="#F9632C"/>
<path d="M35.864 31.8869H37.255V30.4895H35.864V31.8869Z" fill="#F9632C"/>
<path d="M34.4897 31.8869H35.864V30.4895H34.4897V31.8869Z" fill="#F9632C"/>
<path d="M33.1157 31.8869H34.49V30.4895H33.1157V31.8869Z" fill="#F9632C"/>
<path d="M31.7246 31.8869H33.1156V30.4895H31.7246V31.8869Z" fill="#F9632C"/>
<path d="M30.3506 31.8869H31.7248V30.4895H30.3506V31.8869Z" fill="#F9632C"/>
<path d="M28.9763 31.8869H30.3506V30.4895H28.9763V31.8869Z" fill="#F9632C"/>
<path d="M27.5852 31.8869H28.9762V30.4895H27.5852V31.8869Z" fill="#F9632C"/>
<path d="M40.0039 33.2672H41.3949V31.8867H40.0039V33.2672Z" fill="black"/>
<path d="M38.6294 33.2672H40.0036V31.8867H38.6294V33.2672Z" fill="black"/>
<path d="M37.2554 33.2672H38.6296V31.8867H37.2554V33.2672Z" fill="#F9632C"/>
<path d="M35.864 33.2672H37.255V31.8867H35.864V33.2672Z" fill="#F9632C"/>
<path d="M34.4897 33.2672H35.864V31.8867H34.4897V33.2672Z" fill="#F9632C"/>
<path d="M33.1157 33.2672H34.49V31.8867H33.1157V33.2672Z" fill="#F9632C"/>
<path d="M31.7246 33.2672H33.1156V31.8867H31.7246V33.2672Z" fill="#F9632C"/>
<path d="M30.3506 33.2672H31.7248V31.8867H30.3506V33.2672Z" fill="#F9632C"/>
<path d="M28.9763 33.2672H30.3506V31.8867H28.9763V33.2672Z" fill="#F9632C"/>
<path d="M27.5852 33.2672H28.9762V31.8867H27.5852V33.2672Z" fill="#F9632C"/>
<path d="M38.6294 34.6476H40.0036V33.2671H38.6294V34.6476Z" fill="black"/>
<path d="M37.2554 34.6476H38.6296V33.2671H37.2554V34.6476Z" fill="black"/>
<path d="M35.864 34.6476H37.255V33.2671H35.864V34.6476Z" fill="#F9632C"/>
<path d="M34.4897 34.6476H35.864V33.2671H34.4897V34.6476Z" fill="#B74217"/>
<path d="M33.1157 34.6476H34.49V33.2671H33.1157V34.6476Z" fill="#F9632C"/>
<path d="M31.7246 34.6476H33.1156V33.2671H31.7246V34.6476Z" fill="#F9632C"/>
<path d="M30.3506 34.6476H31.7248V33.2671H30.3506V34.6476Z" fill="#F9632C"/>
<path d="M28.9763 34.6476H30.3506V33.2671H28.9763V34.6476Z" fill="#F9632C"/>
<path d="M27.5852 34.6476H28.9762V33.2671H27.5852V34.6476Z" fill="#F9632C"/>
<path d="M38.6294 36.0448H40.0036V34.6475H38.6294V36.0448Z" fill="black"/>
<path d="M37.2554 36.0448H38.6296V34.6475H37.2554V36.0448Z" fill="#B74217"/>
<path d="M35.864 36.0448H37.255V34.6475H35.864V36.0448Z" fill="#B74217"/>
<path d="M34.4897 36.0448H35.864V34.6475H34.4897V36.0448Z" fill="#B74217"/>
<path d="M33.1157 36.0448H34.49V34.6475H33.1157V36.0448Z" fill="#F9632C"/>
<path d="M31.7246 36.0448H33.1156V34.6475H31.7246V36.0448Z" fill="#F9632C"/>
<path d="M30.3506 36.0448H31.7248V34.6475H30.3506V36.0448Z" fill="#F9632C"/>
<path d="M28.9763 36.0448H30.3506V34.6475H28.9763V36.0448Z" fill="#F9632C"/>
<path d="M27.5852 36.0448H28.9762V34.6475H27.5852V36.0448Z" fill="#F9632C"/>
<path d="M40.0039 37.4257H41.3949V36.0452H40.0039V37.4257Z" fill="black"/>
<path d="M38.6294 37.4257H40.0036V36.0452H38.6294V37.4257Z" fill="black"/>
<path d="M37.2554 37.4257H38.6296V36.0452H37.2554V37.4257Z" fill="#B74217"/>
<path d="M35.864 37.4257H37.255V36.0452H35.864V37.4257Z" fill="#B74217"/>
<path d="M34.4897 37.4257H35.864V36.0452H34.4897V37.4257Z" fill="#B74217"/>
<path d="M33.1157 37.4257H34.49V36.0452H33.1157V37.4257Z" fill="#F9632C"/>
<path d="M31.7583 37.4257H33.1325V36.0452H31.7583V37.4257Z" fill="#F9632C"/>
<path d="M30.3506 37.4257H31.7583V36.0452H30.3506V37.4257Z" fill="#F9632C"/>
<path d="M28.9763 37.4257H30.3506V36.0452H28.9763V37.4257Z" fill="#F9632C"/>
<path d="M27.5852 37.4257H28.9762V36.0452H27.5852V37.4257Z" fill="#F9632C"/>
<path d="M40.0039 38.8063H41.3949V37.4258H40.0039V38.8063Z" fill="black"/>
<path d="M38.6294 38.8063H40.0036V37.4258H38.6294V38.8063Z" fill="#B74217"/>
<path d="M37.2554 38.8063H38.6296V37.4258H37.2554V38.8063Z" fill="#B74217"/>
<path d="M35.864 38.8063H37.255V37.4258H35.864V38.8063Z" fill="#B74217"/>
<path d="M34.4897 38.8063H35.864V37.4258H34.4897V38.8063Z" fill="#F9632C"/>
<path d="M33.1157 38.8063H34.49V37.4258H33.1157V38.8063Z" fill="#F9632C"/>
<path d="M31.7583 38.8063H33.1325V37.4258H31.7583V38.8063Z" fill="#F9632C"/>
<path d="M30.3506 38.8063H31.7583V37.4258H30.3506V38.8063Z" fill="#F9632C"/>
<path d="M28.9763 38.8063H30.3506V37.4258H28.9763V38.8063Z" fill="#F9632C"/>
<path d="M27.5852 38.8063H28.9762V37.4258H27.5852V38.8063Z" fill="#F9632C"/>
<path d="M40.0039 40.2038H41.3949V38.8064H40.0039V40.2038Z" fill="black"/>
<path d="M38.6294 40.2038H40.0036V38.8064H38.6294V40.2038Z" fill="#B74217"/>
<path d="M37.2554 40.2038H38.6296V38.8064H37.2554V40.2038Z" fill="#B74217"/>
<path d="M35.864 40.2038H37.255V38.8064H35.864V40.2038Z" fill="#B74217"/>
<path d="M34.4897 40.2038H35.864V38.8064H34.4897V40.2038Z" fill="#F9632C"/>
<path d="M33.1157 40.2038H34.49V38.8064H33.1157V40.2038Z" fill="#F9632C"/>
<path d="M31.7583 40.2038H33.1325V38.8064H31.7583V40.2038Z" fill="#F9632C"/>
<path d="M30.3506 40.2038H31.7583V38.8064H30.3506V40.2038Z" fill="#F9632C"/>
<path d="M28.9763 40.2038H30.3506V38.8064H28.9763V40.2038Z" fill="#F9632C"/>
<path d="M27.5852 40.2038H28.9762V38.8064H27.5852V40.2038Z" fill="#F9632C"/>
<path d="M41.3945 41.5839H42.7688V40.2034H41.3945V41.5839Z" fill="black"/>
<path d="M40.0039 41.5839H41.3949V40.2034H40.0039V41.5839Z" fill="black"/>
<path d="M38.6294 41.5839H40.0036V40.2034H38.6294V41.5839Z" fill="#B74217"/>
<path d="M37.2554 41.5839H38.6296V40.2034H37.2554V41.5839Z" fill="#B74217"/>
<path d="M35.864 41.5839H37.255V40.2034H35.864V41.5839Z" fill="#B74217"/>
<path d="M34.4897 41.5839H35.864V40.2034H34.4897V41.5839Z" fill="#F9632C"/>
<path d="M33.1323 41.5839H34.5233V40.2034H33.1323V41.5839Z" fill="#F9632C"/>
<path d="M31.7583 41.5839H33.1325V40.2034H31.7583V41.5839Z" fill="#F9632C"/>
<path d="M30.3506 41.5839H31.7583V40.2034H30.3506V41.5839Z" fill="#F9632C"/>
<path d="M28.9763 41.5839H30.3506V40.2034H28.9763V41.5839Z" fill="#F9632C"/>
<path d="M27.5852 41.5839H28.9762V40.2034H27.5852V41.5839Z" fill="black"/>
<path d="M41.3945 42.9648H42.7688V41.5842H41.3945V42.9648Z" fill="black"/>
<path d="M40.0039 42.9648H41.3949V41.5842H40.0039V42.9648Z" fill="black"/>
<path d="M38.6294 42.9648H40.0036V41.5842H38.6294V42.9648Z" fill="#B74217"/>
<path d="M37.2554 42.9648H38.6296V41.5842H37.2554V42.9648Z" fill="#B74217"/>
<path d="M35.8977 42.9648H37.2719V41.5842H35.8977V42.9648Z" fill="#B74217"/>
<path d="M34.5237 42.9648H35.8979V41.5842H34.5237V42.9648Z" fill="#F9632C"/>
<path d="M33.1323 42.9648H34.5233V41.5842H33.1323V42.9648Z" fill="#F9632C"/>
<path d="M31.7583 42.9648H33.1325V41.5842H31.7583V42.9648Z" fill="#F9632C"/>
<path d="M30.3506 42.9648H31.7583V41.5842H30.3506V42.9648Z" fill="#F9632C"/>
<path d="M28.9763 42.9648H30.3506V41.5842H28.9763V42.9648Z" fill="black"/>
<path d="M27.5852 42.9648H28.9762V41.5842H27.5852V42.9648Z" fill="black"/>
<path d="M41.3945 44.3622H42.7688V42.9648H41.3945V44.3622Z" fill="black"/>
<path d="M40.0039 44.3622H41.3949V42.9648H40.0039V44.3622Z" fill="#B74217"/>
<path d="M38.6294 44.3622H40.0036V42.9648H38.6294V44.3622Z" fill="#B74217"/>
<path d="M37.2554 44.3622H38.6296V42.9648H37.2554V44.3622Z" fill="#F9632C"/>
<path d="M35.8977 44.3622H37.2719V42.9648H35.8977V44.3622Z" fill="#F9632C"/>
<path d="M34.5237 44.3622H35.8979V42.9648H34.5237V44.3622Z" fill="#F9632C"/>
<path d="M33.1323 44.3622H34.5233V42.9648H33.1323V44.3622Z" fill="#F9632C"/>
<path d="M31.7583 44.3622H33.1325V42.9648H31.7583V44.3622Z" fill="black"/>
<path d="M30.3506 44.3622H31.7583V42.9648H30.3506V44.3622Z" fill="black"/>
<path d="M28.9763 44.3622H30.3506V42.9648H28.9763V44.3622Z" fill="black"/>
<path d="M42.769 45.7426H44.1433V44.3621H42.769V45.7426Z" fill="black"/>
<path d="M41.3945 45.7426H42.7688V44.3621H41.3945V45.7426Z" fill="black"/>
<path d="M40.0039 45.7426H41.3949V44.3621H40.0039V45.7426Z" fill="#B74217"/>
<path d="M38.6294 45.7426H40.0036V44.3621H38.6294V45.7426Z" fill="#B74217"/>
<path d="M37.2554 45.7426H38.6296V44.3621H37.2554V45.7426Z" fill="#F9632C"/>
<path d="M35.864 45.7426H37.255V44.3621H35.864V45.7426Z" fill="#F9632C"/>
<path d="M34.5237 45.7426H35.8979V44.3621H34.5237V45.7426Z" fill="#F9632C"/>
<path d="M33.1323 45.7426H34.5233V44.3621H33.1323V45.7426Z" fill="black"/>
<path d="M31.7583 45.7426H33.1325V44.3621H31.7583V45.7426Z" fill="black"/>
<path d="M42.769 47.1232H44.1433V45.7427H42.769V47.1232Z" fill="black"/>
<path d="M41.3945 47.1232H42.7688V45.7427H41.3945V47.1232Z" fill="#B74217"/>
<path d="M40.0039 47.1232H41.3949V45.7427H40.0039V47.1232Z" fill="#B74217"/>
<path d="M38.6294 47.1232H40.0036V45.7427H38.6294V47.1232Z" fill="#F9632C"/>
<path d="M37.2554 47.1232H38.6296V45.7427H37.2554V47.1232Z" fill="#F9632C"/>
<path d="M35.864 47.1232H37.255V45.7427H35.864V47.1232Z" fill="black"/>
<path d="M34.5237 47.1232H35.8979V45.7427H34.5237V47.1232Z" fill="black"/>
<path d="M33.1323 47.1232H34.5233V45.7427H33.1323V47.1232Z" fill="black"/>
<path d="M42.769 48.5202H44.1433V47.1228H42.769V48.5202Z" fill="black"/>
<path d="M41.3945 48.5202H42.7688V47.1228H41.3945V48.5202Z" fill="#B74217"/>
<path d="M40.0039 48.5202H41.3949V47.1228H40.0039V48.5202Z" fill="#F9632C"/>
<path d="M38.6294 48.5202H40.0036V47.1228H38.6294V48.5202Z" fill="#F9632C"/>
<path d="M37.2554 48.5202H38.6296V47.1228H37.2554V48.5202Z" fill="black"/>
<path d="M35.8977 48.5202H37.2719V47.1228H35.8977V48.5202Z" fill="black"/>
<path d="M44.1431 49.9008H45.5341V48.5203H44.1431V49.9008Z" fill="black"/>
<path d="M42.769 49.9008H44.1433V48.5203H42.769V49.9008Z" fill="black"/>
<path d="M41.3945 49.9008H42.7688V48.5203H41.3945V49.9008Z" fill="#F9632C"/>
<path d="M40.0039 49.9008H41.3949V48.5203H40.0039V49.9008Z" fill="#F9632C"/>
<path d="M38.6294 49.9008H40.0036V48.5203H38.6294V49.9008Z" fill="black"/>
<path d="M37.2554 49.9008H38.6296V48.5203H37.2554V49.9008Z" fill="black"/>
<path d="M44.1431 51.2814H45.5341V49.9009H44.1431V51.2814Z" fill="black"/>
<path d="M42.769 51.2814H44.1433V49.9009H42.769V51.2814Z" fill="#B74217"/>
<path d="M41.3945 51.2814H42.7688V49.9009H41.3945V51.2814Z" fill="black"/>
<path d="M40.0039 51.2814H41.3949V49.9009H40.0039V51.2814Z" fill="black"/>
<path d="M38.6294 51.2814H40.0036V49.9009H38.6294V51.2814Z" fill="black"/>
<path d="M44.1431 52.6786H45.5341V51.2812H44.1431V52.6786Z" fill="black"/>
<path d="M42.769 52.6786H44.1433V51.2812H42.769V52.6786Z" fill="black"/>
<path d="M41.3945 52.6786H42.7688V51.2812H41.3945V52.6786Z" fill="black"/>
<path d="M45.7754 37.1672H44.9946V36.3733H45.7754V37.1672Z" fill="black"/>
<path d="M44.9947 37.9516H44.2139V37.1672H44.9947V37.9516Z" fill="black"/>
<path d="M45.7754 37.9516H44.9946V37.1672H45.7754V37.9516Z" fill="black"/>
<path d="M44.9947 38.736H44.2139V37.9517H44.9947V38.736Z" fill="black"/>
<path d="M45.7754 38.736H44.9946V37.9517H45.7754V38.736Z" fill="#B74217"/>
<path d="M44.9947 39.5303H44.2139V38.7363H44.9947V39.5303Z" fill="black"/>
<path d="M45.7754 39.5303H44.9946V38.7363H45.7754V39.5303Z" fill="#B74217"/>
<path d="M44.2137 40.3147H43.4233V39.5303H44.2137V40.3147Z" fill="black"/>
<path d="M44.9947 40.3147H44.2139V39.5303H44.9947V40.3147Z" fill="black"/>
<path d="M45.7754 40.3147H44.9946V39.5303H45.7754V40.3147Z" fill="#B74217"/>
<path d="M44.2137 41.0991H43.4233V40.3147H44.2137V41.0991Z" fill="black"/>
<path d="M44.9947 41.0991H44.2139V40.3147H44.9947V41.0991Z" fill="#B74217"/>
<path d="M45.7754 41.0991H44.9946V40.3147H45.7754V41.0991Z" fill="#B74217"/>
<path d="M44.2137 41.8833H43.4233V41.0989H44.2137V41.8833Z" fill="black"/>
<path d="M44.9947 41.8833H44.2139V41.0989H44.9947V41.8833Z" fill="#B74217"/>
<path d="M45.7754 41.8833H44.9946V41.0989H45.7754V41.8833Z" fill="#B74217"/>
<path d="M43.4234 42.6773H42.6426V41.8833H43.4234V42.6773Z" fill="black"/>
<path d="M44.2137 42.6773H43.4233V41.8833H44.2137V42.6773Z" fill="black"/>
<path d="M44.9947 42.6773H44.2139V41.8833H44.9947V42.6773Z" fill="#B74217"/>
<path d="M45.7754 42.6773H44.9946V41.8833H45.7754V42.6773Z" fill="#B74217"/>
<path d="M43.4234 43.4616H42.6426V42.6772H43.4234V43.4616Z" fill="black"/>
<path d="M44.2137 43.4616H43.4233V42.6772H44.2137V43.4616Z" fill="#B74217"/>
<path d="M44.9947 43.4616H44.2139V42.6772H44.9947V43.4616Z" fill="#B74217"/>
<path d="M45.7754 43.4616H44.9946V42.6772H45.7754V43.4616Z" fill="#B74217"/>
<path d="M43.4234 44.2461H42.6426V43.4617H43.4234V44.2461Z" fill="black"/>
<path d="M44.2137 44.2461H43.4233V43.4617H44.2137V44.2461Z" fill="#B74217"/>
<path d="M44.9947 44.2461H44.2139V43.4617H44.9947V44.2461Z" fill="#B74217"/>
<path d="M45.7754 44.2461H44.9946V43.4617H45.7754V44.2461Z" fill="#B74217"/>
<path d="M42.6426 45.04H41.8618V44.2461H42.6426V45.04Z" fill="black"/>
<path d="M43.4234 45.04H42.6426V44.2461H43.4234V45.04Z" fill="black"/>
<path d="M44.2137 45.04H43.4233V44.2461H44.2137V45.04Z" fill="#B74217"/>
<path d="M44.9947 45.04H44.2139V44.2461H44.9947V45.04Z" fill="#B74217"/>
<path d="M45.7754 45.04H44.9946V44.2461H45.7754V45.04Z" fill="#B74217"/>
<path d="M42.6426 45.8244H41.8618V45.04H42.6426V45.8244Z" fill="black"/>
<path d="M43.4234 45.8244H42.6426V45.04H43.4234V45.8244Z" fill="#B74217"/>
<path d="M44.2137 45.8244H43.4233V45.04H44.2137V45.8244Z" fill="#B74217"/>
<path d="M44.9947 45.8244H44.2139V45.04H44.9947V45.8244Z" fill="#B74217"/>
<path d="M45.7754 45.8244H44.9946V45.04H45.7754V45.8244Z" fill="#F9632C"/>
<path d="M42.6426 46.6088H41.8618V45.8245H42.6426V46.6088Z" fill="black"/>
<path d="M43.4234 46.6088H42.6426V45.8245H43.4234V46.6088Z" fill="#B74217"/>
<path d="M44.2137 46.6088H43.4233V45.8245H44.2137V46.6088Z" fill="#B74217"/>
<path d="M44.9947 46.6088H44.2139V45.8245H44.9947V46.6088Z" fill="#B74217"/>
<path d="M45.7754 46.6088H44.9946V45.8245H45.7754V46.6088Z" fill="#F9632C"/>
<path d="M42.6426 47.4026H41.8618V46.6086H42.6426V47.4026Z" fill="black"/>
<path d="M43.4234 47.4026H42.6426V46.6086H43.4234V47.4026Z" fill="#B74217"/>
<path d="M44.2137 47.4026H43.4233V46.6086H44.2137V47.4026Z" fill="#B74217"/>
<path d="M44.9947 47.4026H44.2139V46.6086H44.9947V47.4026Z" fill="#B74217"/>
<path d="M45.7754 47.4026H44.9946V46.6086H45.7754V47.4026Z" fill="#F9632C"/>
<path d="M30.8829 48.187H30.1021V47.4026H30.8829V48.187Z" fill="black"/>
<path d="M31.6639 48.187H30.8831V47.4026H31.6639V48.187Z" fill="black"/>
<path d="M32.4539 48.187H31.6636V47.4026H32.4539V48.187Z" fill="black"/>
<path d="M33.2349 48.187H32.4541V47.4026H33.2349V48.187Z" fill="black"/>
<path d="M34.0157 48.187H33.2349V47.4026H34.0157V48.187Z" fill="black"/>
<path d="M34.806 48.187H34.0156V47.4026H34.806V48.187Z" fill="black"/>
<path d="M35.5867 48.187H34.8059V47.4026H35.5867V48.187Z" fill="black"/>
<path d="M36.3675 48.187H35.5867V47.4026H36.3675V48.187Z" fill="black"/>
<path d="M37.158 48.187H36.3677V47.4026H37.158V48.187Z" fill="black"/>
<path d="M37.9385 48.187H37.1577V47.4026H37.9385V48.187Z" fill="black"/>
<path d="M38.7198 48.187H37.939V47.4026H38.7198V48.187Z" fill="black"/>
<path d="M39.5101 48.187H38.7197V47.4026H39.5101V48.187Z" fill="black"/>
<path d="M40.2906 48.187H39.5098V47.4026H40.2906V48.187Z" fill="black"/>
<path d="M41.0718 48.187H40.291V47.4026H41.0718V48.187Z" fill="black"/>
<path d="M41.8621 48.187H41.0718V47.4026H41.8621V48.187Z" fill="black"/>
<path d="M42.6426 48.187H41.8618V47.4026H42.6426V48.187Z" fill="black"/>
<path d="M43.4234 48.187H42.6426V47.4026H43.4234V48.187Z" fill="#B74217"/>
<path d="M44.2137 48.187H43.4233V47.4026H44.2137V48.187Z" fill="#B74217"/>
<path d="M44.9947 48.187H44.2139V47.4026H44.9947V48.187Z" fill="#F9632C"/>
<path d="M45.7754 48.187H44.9946V47.4026H45.7754V48.187Z" fill="#F9632C"/>
<path d="M30.8829 48.9716H30.1021V48.1873H30.8829V48.9716Z" fill="black"/>
<path d="M31.6639 48.9716H30.8831V48.1873H31.6639V48.9716Z" fill="black"/>
<path d="M32.4539 48.9716H31.6636V48.1873H32.4539V48.9716Z" fill="#F9632C"/>
<path d="M33.2349 48.9716H32.4541V48.1873H33.2349V48.9716Z" fill="#F9632C"/>
<path d="M34.0157 48.9716H33.2349V48.1873H34.0157V48.9716Z" fill="#F9632C"/>
<path d="M34.806 48.9716H34.0156V48.1873H34.806V48.9716Z" fill="#F9632C"/>
<path d="M35.5867 48.9716H34.8059V48.1873H35.5867V48.9716Z" fill="#F9632C"/>
<path d="M36.3675 48.9716H35.5867V48.1873H36.3675V48.9716Z" fill="#F9632C"/>
<path d="M37.158 48.9716H36.3677V48.1873H37.158V48.9716Z" fill="#F9632C"/>
<path d="M37.9385 48.9716H37.1577V48.1873H37.9385V48.9716Z" fill="#F9632C"/>
<path d="M38.7198 48.9716H37.939V48.1873H38.7198V48.9716Z" fill="#F9632C"/>
<path d="M39.5101 48.9716H38.7197V48.1873H39.5101V48.9716Z" fill="#F9632C"/>
<path d="M40.2906 48.9716H39.5098V48.1873H40.2906V48.9716Z" fill="#F9632C"/>
<path d="M41.0718 48.9716H40.291V48.1873H41.0718V48.9716Z" fill="#F9632C"/>
<path d="M41.8621 48.9716H41.0718V48.1873H41.8621V48.9716Z" fill="#F9632C"/>
<path d="M42.6426 48.9716H41.8618V48.1873H42.6426V48.9716Z" fill="#F9632C"/>
<path d="M43.4234 48.9716H42.6426V48.1873H43.4234V48.9716Z" fill="#F9632C"/>
<path d="M44.2137 48.9716H43.4233V48.1873H44.2137V48.9716Z" fill="#B74217"/>
<path d="M44.9947 48.9716H44.2139V48.1873H44.9947V48.9716Z" fill="#F9632C"/>
<path d="M45.7754 48.9716H44.9946V48.1873H45.7754V48.9716Z" fill="#F9632C"/>
<path d="M31.6639 49.7654H30.8831V48.9714H31.6639V49.7654Z" fill="black"/>
<path d="M32.4539 49.7654H31.6636V48.9714H32.4539V49.7654Z" fill="black"/>
<path d="M33.2349 49.7654H32.4541V48.9714H33.2349V49.7654Z" fill="#B74217"/>
<path d="M34.0157 49.7654H33.2349V48.9714H34.0157V49.7654Z" fill="#B74217"/>
<path d="M34.806 49.7654H34.0156V48.9714H34.806V49.7654Z" fill="#B74217"/>
<path d="M35.5867 49.7654H34.8059V48.9714H35.5867V49.7654Z" fill="#F9632C"/>
<path d="M36.3675 49.7654H35.5867V48.9714H36.3675V49.7654Z" fill="#F9632C"/>
<path d="M37.158 49.7654H36.3677V48.9714H37.158V49.7654Z" fill="#F9632C"/>
<path d="M37.9385 49.7654H37.1577V48.9714H37.9385V49.7654Z" fill="#F9632C"/>
<path d="M38.7198 49.7654H37.939V48.9714H38.7198V49.7654Z" fill="#F9632C"/>
<path d="M39.5101 49.7654H38.7197V48.9714H39.5101V49.7654Z" fill="#F9632C"/>
<path d="M40.2906 49.7654H39.5098V48.9714H40.2906V49.7654Z" fill="#F9632C"/>
<path d="M41.0718 49.7654H40.291V48.9714H41.0718V49.7654Z" fill="#F9632C"/>
<path d="M41.8621 49.7654H41.0718V48.9714H41.8621V49.7654Z" fill="#F9632C"/>
<path d="M42.6426 49.7654H41.8618V48.9714H42.6426V49.7654Z" fill="#F9632C"/>
<path d="M43.4234 49.7654H42.6426V48.9714H43.4234V49.7654Z" fill="#F9632C"/>
<path d="M44.2137 49.7654H43.4233V48.9714H44.2137V49.7654Z" fill="#F9632C"/>
<path d="M44.9947 49.7654H44.2139V48.9714H44.9947V49.7654Z" fill="#F9632C"/>
<path d="M45.7754 49.7654H44.9946V48.9714H45.7754V49.7654Z" fill="#F9632C"/>
<path d="M32.4539 50.5498H31.6636V49.7654H32.4539V50.5498Z" fill="black"/>
<path d="M33.2349 50.5498H32.4541V49.7654H33.2349V50.5498Z" fill="black"/>
<path d="M34.0157 50.5498H33.2349V49.7654H34.0157V50.5498Z" fill="black"/>
<path d="M34.806 50.5498H34.0156V49.7654H34.806V50.5498Z" fill="#B74217"/>
<path d="M35.5867 50.5498H34.8059V49.7654H35.5867V50.5498Z" fill="#B74217"/>
<path d="M36.3675 50.5498H35.5867V49.7654H36.3675V50.5498Z" fill="#B74217"/>
<path d="M37.158 50.5498H36.3677V49.7654H37.158V50.5498Z" fill="#B74217"/>
<path d="M37.9385 50.5498H37.1577V49.7654H37.9385V50.5498Z" fill="#F9632C"/>
<path d="M38.7198 50.5498H37.939V49.7654H38.7198V50.5498Z" fill="#F9632C"/>
<path d="M39.5101 50.5498H38.7197V49.7654H39.5101V50.5498Z" fill="#F9632C"/>
<path d="M40.2906 50.5498H39.5098V49.7654H40.2906V50.5498Z" fill="#F9632C"/>
<path d="M41.0718 50.5498H40.291V49.7654H41.0718V50.5498Z" fill="#F9632C"/>
<path d="M41.8621 50.5498H41.0718V49.7654H41.8621V50.5498Z" fill="#F9632C"/>
<path d="M42.6426 50.5498H41.8618V49.7654H42.6426V50.5498Z" fill="#F9632C"/>
<path d="M43.4234 50.5498H42.6426V49.7654H43.4234V50.5498Z" fill="#F9632C"/>
<path d="M44.2137 50.5498H43.4233V49.7654H44.2137V50.5498Z" fill="#F9632C"/>
<path d="M44.9947 50.5498H44.2139V49.7654H44.9947V50.5498Z" fill="#F9632C"/>
<path d="M45.7754 50.5498H44.9946V49.7654H45.7754V50.5498Z" fill="#F9632C"/>
<path d="M33.2349 51.3342H32.4541V50.5498H33.2349V51.3342Z" fill="black"/>
<path d="M34.0157 51.3342H33.2349V50.5498H34.0157V51.3342Z" fill="black"/>
<path d="M34.806 51.3342H34.0156V50.5498H34.806V51.3342Z" fill="black"/>
<path d="M35.5867 51.3342H34.8059V50.5498H35.5867V51.3342Z" fill="#B74217"/>
<path d="M36.3675 51.3342H35.5867V50.5498H36.3675V51.3342Z" fill="#B74217"/>
<path d="M37.158 51.3342H36.3677V50.5498H37.158V51.3342Z" fill="#B74217"/>
<path d="M37.9385 51.3342H37.1577V50.5498H37.9385V51.3342Z" fill="#B74217"/>
<path d="M38.7198 51.3342H37.939V50.5498H38.7198V51.3342Z" fill="#B74217"/>
<path d="M39.5101 51.3342H38.7197V50.5498H39.5101V51.3342Z" fill="#F9632C"/>
<path d="M40.2906 51.3342H39.5098V50.5498H40.2906V51.3342Z" fill="#F9632C"/>
<path d="M41.0718 51.3342H40.291V50.5498H41.0718V51.3342Z" fill="#F9632C"/>
<path d="M41.8621 51.3342H41.0718V50.5498H41.8621V51.3342Z" fill="#F9632C"/>
<path d="M42.6426 51.3342H41.8618V50.5498H42.6426V51.3342Z" fill="#F9632C"/>
<path d="M43.4234 51.3342H42.6426V50.5498H43.4234V51.3342Z" fill="#F9632C"/>
<path d="M44.2137 51.3342H43.4233V50.5498H44.2137V51.3342Z" fill="#F9632C"/>
<path d="M44.9947 51.3342H44.2139V50.5498H44.9947V51.3342Z" fill="#F9632C"/>
<path d="M45.7754 51.3342H44.9946V50.5498H45.7754V51.3342Z" fill="#F9632C"/>
<path d="M34.806 52.1284H34.0156V51.3345H34.806V52.1284Z" fill="black"/>
<path d="M35.5867 52.1284H34.8059V51.3345H35.5867V52.1284Z" fill="black"/>
<path d="M36.3675 52.1284H35.5867V51.3345H36.3675V52.1284Z" fill="#B74217"/>
<path d="M37.158 52.1284H36.3677V51.3345H37.158V52.1284Z" fill="#B74217"/>
<path d="M37.9385 52.1284H37.1577V51.3345H37.9385V52.1284Z" fill="#B74217"/>
<path d="M38.7198 52.1284H37.939V51.3345H38.7198V52.1284Z" fill="#B74217"/>
<path d="M39.5101 52.1284H38.7197V51.3345H39.5101V52.1284Z" fill="#B74217"/>
<path d="M40.2906 52.1284H39.5098V51.3345H40.2906V52.1284Z" fill="#F9632C"/>
<path d="M41.0718 52.1284H40.291V51.3345H41.0718V52.1284Z" fill="#F9632C"/>
<path d="M41.8621 52.1284H41.0718V51.3345H41.8621V52.1284Z" fill="#F9632C"/>
<path d="M42.6426 52.1284H41.8618V51.3345H42.6426V52.1284Z" fill="#F9632C"/>
<path d="M43.4234 52.1284H42.6426V51.3345H43.4234V52.1284Z" fill="#F9632C"/>
<path d="M44.2137 52.1284H43.4233V51.3345H44.2137V52.1284Z" fill="#F9632C"/>
<path d="M44.9947 52.1284H44.2139V51.3345H44.9947V52.1284Z" fill="#F9632C"/>
<path d="M45.7754 52.1284H44.9946V51.3345H45.7754V52.1284Z" fill="#F9632C"/>
<path d="M35.5867 52.9128H34.8059V52.1284H35.5867V52.9128Z" fill="black"/>
<path d="M36.3675 52.9128H35.5867V52.1284H36.3675V52.9128Z" fill="black"/>
<path d="M37.158 52.9128H36.3677V52.1284H37.158V52.9128Z" fill="#B74217"/>
<path d="M37.9385 52.9128H37.1577V52.1284H37.9385V52.9128Z" fill="#B74217"/>
<path d="M38.7198 52.9128H37.939V52.1284H38.7198V52.9128Z" fill="#B74217"/>
<path d="M39.5101 52.9128H38.7197V52.1284H39.5101V52.9128Z" fill="#B74217"/>
<path d="M40.2906 52.9128H39.5098V52.1284H40.2906V52.9128Z" fill="#B74217"/>
<path d="M41.0718 52.9128H40.291V52.1284H41.0718V52.9128Z" fill="#F9632C"/>
<path d="M41.8621 52.9128H41.0718V52.1284H41.8621V52.9128Z" fill="#F9632C"/>
<path d="M42.6426 52.9128H41.8618V52.1284H42.6426V52.9128Z" fill="#F9632C"/>
<path d="M43.4234 52.9128H42.6426V52.1284H43.4234V52.9128Z" fill="#F9632C"/>
<path d="M44.2137 52.9128H43.4233V52.1284H44.2137V52.9128Z" fill="#F9632C"/>
<path d="M44.9947 52.9128H44.2139V52.1284H44.9947V52.9128Z" fill="#F9632C"/>
<path d="M45.7754 52.9128H44.9946V52.1284H45.7754V52.9128Z" fill="#F9632C"/>
<path d="M36.3675 53.6972H35.5867V52.9128H36.3675V53.6972Z" fill="black"/>
<path d="M37.158 53.6972H36.3677V52.9128H37.158V53.6972Z" fill="black"/>
<path d="M37.9385 53.6972H37.1577V52.9128H37.9385V53.6972Z" fill="black"/>
<path d="M38.7198 53.6972H37.939V52.9128H38.7198V53.6972Z" fill="#B74217"/>
<path d="M39.5101 53.6972H38.7197V52.9128H39.5101V53.6972Z" fill="#B74217"/>
<path d="M40.2906 53.6972H39.5098V52.9128H40.2906V53.6972Z" fill="#B74217"/>
<path d="M41.0718 53.6972H40.291V52.9128H41.0718V53.6972Z" fill="#B74217"/>
<path d="M41.8621 53.6972H41.0718V52.9128H41.8621V53.6972Z" fill="#F9632C"/>
<path d="M42.6426 53.6972H41.8618V52.9128H42.6426V53.6972Z" fill="#F9632C"/>
<path d="M43.4234 53.6972H42.6426V52.9128H43.4234V53.6972Z" fill="#F9632C"/>
<path d="M44.2137 53.6972H43.4233V52.9128H44.2137V53.6972Z" fill="#F9632C"/>
<path d="M44.9947 53.6972H44.2139V52.9128H44.9947V53.6972Z" fill="#F9632C"/>
<path d="M45.7754 53.6972H44.9946V52.9128H45.7754V53.6972Z" fill="#F9632C"/>
<path d="M37.9385 54.491H37.1577V53.697H37.9385V54.491Z" fill="black"/>
<path d="M38.7198 54.491H37.939V53.697H38.7198V54.491Z" fill="black"/>
<path d="M39.5101 54.491H38.7197V53.697H39.5101V54.491Z" fill="#B74217"/>
<path d="M40.2906 54.491H39.5098V53.697H40.2906V54.491Z" fill="#B74217"/>
<path d="M41.0718 54.491H40.291V53.697H41.0718V54.491Z" fill="#B74217"/>
<path d="M41.8621 54.491H41.0718V53.697H41.8621V54.491Z" fill="#B74217"/>
<path d="M42.6426 54.491H41.8618V53.697H42.6426V54.491Z" fill="#F9632C"/>
<path d="M43.4234 54.491H42.6426V53.697H43.4234V54.491Z" fill="#F9632C"/>
<path d="M44.2137 54.491H43.4233V53.697H44.2137V54.491Z" fill="#F9632C"/>
<path d="M44.9947 54.491H44.2139V53.697H44.9947V54.491Z" fill="#F9632C"/>
<path d="M45.7754 54.491H44.9946V53.697H45.7754V54.491Z" fill="#F9632C"/>
<path d="M38.7198 55.2754H37.939V54.491H38.7198V55.2754Z" fill="black"/>
<path d="M39.5101 55.2754H38.7197V54.491H39.5101V55.2754Z" fill="black"/>
<path d="M40.2906 55.2754H39.5098V54.491H40.2906V55.2754Z" fill="#B74217"/>
<path d="M41.0718 55.2754H40.291V54.491H41.0718V55.2754Z" fill="#B74217"/>
<path d="M41.8621 55.2754H41.0718V54.491H41.8621V55.2754Z" fill="#B74217"/>
<path d="M42.6426 55.2754H41.8618V54.491H42.6426V55.2754Z" fill="#F9632C"/>
<path d="M43.4234 55.2754H42.6426V54.491H43.4234V55.2754Z" fill="#F9632C"/>
<path d="M44.2137 55.2754H43.4233V54.491H44.2137V55.2754Z" fill="#F9632C"/>
<path d="M44.9947 55.2754H44.2139V54.491H44.9947V55.2754Z" fill="#F9632C"/>
<path d="M45.7754 55.2754H44.9946V54.491H45.7754V55.2754Z" fill="#F9632C"/>
<path d="M39.5101 56.0595H38.7197V55.2751H39.5101V56.0595Z" fill="black"/>
<path d="M40.2906 56.0595H39.5098V55.2751H40.2906V56.0595Z" fill="black"/>
<path d="M41.0718 56.0595H40.291V55.2751H41.0718V56.0595Z" fill="#B74217"/>
<path d="M41.8621 56.0595H41.0718V55.2751H41.8621V56.0595Z" fill="#F9632C"/>
<path d="M42.6426 56.0595H41.8618V55.2751H42.6426V56.0595Z" fill="#F9632C"/>
<path d="M43.4234 56.0595H42.6426V55.2751H43.4234V56.0595Z" fill="#F9632C"/>
<path d="M44.2137 56.0595H43.4233V55.2751H44.2137V56.0595Z" fill="#F9632C"/>
<path d="M44.9947 56.0595H44.2139V55.2751H44.9947V56.0595Z" fill="#F9632C"/>
<path d="M45.7754 56.0595H44.9946V55.2751H45.7754V56.0595Z" fill="#F9632C"/>
<path d="M39.5101 56.8535H38.7197V56.0596H39.5101V56.8535Z" fill="black"/>
<path d="M40.2906 56.8535H39.5098V56.0596H40.2906V56.8535Z" fill="#F9632C"/>
<path d="M41.0718 56.8535H40.291V56.0596H41.0718V56.8535Z" fill="#F9632C"/>
<path d="M41.8621 56.8535H41.0718V56.0596H41.8621V56.8535Z" fill="#F9632C"/>
<path d="M42.6426 56.8535H41.8618V56.0596H42.6426V56.8535Z" fill="#F9632C"/>
<path d="M43.4234 56.8535H42.6426V56.0596H43.4234V56.8535Z" fill="#F9632C"/>
<path d="M44.2137 56.8535H43.4233V56.0596H44.2137V56.8535Z" fill="#F9632C"/>
<path d="M44.9947 56.8535H44.2139V56.0596H44.9947V56.8535Z" fill="#F9632C"/>
<path d="M45.7754 56.8535H44.9946V56.0596H45.7754V56.8535Z" fill="#F9632C"/>
<path d="M38.7198 57.6384H37.939V56.854H38.7198V57.6384Z" fill="black"/>
<path d="M39.5101 57.6384H38.7197V56.854H39.5101V57.6384Z" fill="black"/>
<path d="M40.2906 57.6384H39.5098V56.854H40.2906V57.6384Z" fill="#F9632C"/>
<path d="M41.0718 57.6384H40.291V56.854H41.0718V57.6384Z" fill="#F9632C"/>
<path d="M41.8621 57.6384H41.0718V56.854H41.8621V57.6384Z" fill="#F9632C"/>
<path d="M42.6426 57.6384H41.8618V56.854H42.6426V57.6384Z" fill="#F9632C"/>
<path d="M43.4139 57.6384H42.6235V56.854H43.4139V57.6384Z" fill="#F9632C"/>
<path d="M44.2139 57.6384H43.4141V56.854H44.2139V57.6384Z" fill="#F9632C"/>
<path d="M44.9947 57.6384H44.2139V56.854H44.9947V57.6384Z" fill="#F9632C"/>
<path d="M45.7754 57.6384H44.9946V56.854H45.7754V57.6384Z" fill="#B74217"/>
<path d="M38.7198 58.4226H37.939V57.6382H38.7198V58.4226Z" fill="black"/>
<path d="M39.5101 58.4226H38.7197V57.6382H39.5101V58.4226Z" fill="#F9632C"/>
<path d="M40.2906 58.4226H39.5098V57.6382H40.2906V58.4226Z" fill="#F9632C"/>
<path d="M41.0718 58.4226H40.291V57.6382H41.0718V58.4226Z" fill="#F9632C"/>
<path d="M41.8621 58.4226H41.0718V57.6382H41.8621V58.4226Z" fill="#F9632C"/>
<path d="M42.6426 58.4226H41.8618V57.6382H42.6426V58.4226Z" fill="#F9632C"/>
<path d="M43.4139 58.4226H42.6235V57.6382H43.4139V58.4226Z" fill="#F9632C"/>
<path d="M44.2139 58.4226H43.4141V57.6382H44.2139V58.4226Z" fill="#B74217"/>
<path d="M44.9947 58.4226H44.2139V57.6382H44.9947V58.4226Z" fill="#B74217"/>
<path d="M45.7754 58.4226H44.9946V57.6382H45.7754V58.4226Z" fill="#B74217"/>
<path d="M38.7198 59.2163H37.939V58.4224H38.7198V59.2163Z" fill="black"/>
<path d="M39.5101 59.2163H38.7197V58.4224H39.5101V59.2163Z" fill="#F9632C"/>
<path d="M40.2906 59.2163H39.5098V58.4224H40.2906V59.2163Z" fill="#F9632C"/>
<path d="M41.0718 59.2163H40.291V58.4224H41.0718V59.2163Z" fill="#F9632C"/>
<path d="M41.8621 59.2163H41.0718V58.4224H41.8621V59.2163Z" fill="#F9632C"/>
<path d="M42.6426 59.2163H41.8618V58.4224H42.6426V59.2163Z" fill="#F9632C"/>
<path d="M43.4139 59.2163H42.6235V58.4224H43.4139V59.2163Z" fill="#B74217"/>
<path d="M44.2139 59.2163H43.4141V58.4224H44.2139V59.2163Z" fill="#B74217"/>
<path d="M44.9947 59.2163H44.2139V58.4224H44.9947V59.2163Z" fill="#B74217"/>
<path d="M45.7754 59.2163H44.9946V58.4224H45.7754V59.2163Z" fill="#B74217"/>
<path d="M37.9385 60.0002H37.1577V59.2158H37.9385V60.0002Z" fill="black"/>
<path d="M38.7198 60.0002H37.939V59.2158H38.7198V60.0002Z" fill="black"/>
<path d="M39.5101 60.0002H38.7197V59.2158H39.5101V60.0002Z" fill="#F9632C"/>
<path d="M40.2906 60.0002H39.5098V59.2158H40.2906V60.0002Z" fill="#F9632C"/>
<path d="M41.0718 60.0002H40.291V59.2158H41.0718V60.0002Z" fill="#F9632C"/>
<path d="M41.8621 60.0002H41.0718V59.2158H41.8621V60.0002Z" fill="#F9632C"/>
<path d="M42.6236 60.0002H41.8428V59.2158H42.6236V60.0002Z" fill="#B74217"/>
<path d="M43.4139 60.0002H42.6235V59.2158H43.4139V60.0002Z" fill="#B74217"/>
<path d="M44.2139 60.0002H43.4141V59.2158H44.2139V60.0002Z" fill="#B74217"/>
<path d="M44.9947 60.0002H44.2139V59.2158H44.9947V60.0002Z" fill="#B74217"/>
<path d="M45.7754 60.0002H44.9946V59.2158H45.7754V60.0002Z" fill="black"/>
<path d="M37.9385 60.7851H37.1577V60.0007H37.9385V60.7851Z" fill="black"/>
<path d="M38.7198 60.7851H37.939V60.0007H38.7198V60.7851Z" fill="black"/>
<path d="M39.5101 60.7851H38.7197V60.0007H39.5101V60.7851Z" fill="#F9632C"/>
<path d="M40.2906 60.7851H39.5098V60.0007H40.2906V60.7851Z" fill="#F9632C"/>
<path d="M41.0618 60.7851H40.2715V60.0007H41.0618V60.7851Z" fill="#F9632C"/>
<path d="M41.8428 60.7851H41.062V60.0007H41.8428V60.7851Z" fill="#B74217"/>
<path d="M42.6236 60.7851H41.8428V60.0007H42.6236V60.7851Z" fill="#B74217"/>
<path d="M43.4139 60.7851H42.6235V60.0007H43.4139V60.7851Z" fill="#B74217"/>
<path d="M44.2139 60.7851H43.4141V60.0007H44.2139V60.7851Z" fill="#B74217"/>
<path d="M44.9947 60.7851H44.2139V60.0007H44.9947V60.7851Z" fill="black"/>
<path d="M45.7754 60.7851H44.9946V60.0007H45.7754V60.7851Z" fill="black"/>
<path d="M37.9385 61.5789H37.1577V60.7849H37.9385V61.5789Z" fill="black"/>
<path d="M38.7198 61.5789H37.939V60.7849H38.7198V61.5789Z" fill="#F9632C"/>
<path d="M39.5101 61.5789H38.7197V60.7849H39.5101V61.5789Z" fill="#F9632C"/>
<path d="M40.2906 61.5789H39.5098V60.7849H40.2906V61.5789Z" fill="#F9632C"/>
<path d="M41.0618 61.5789H40.2715V60.7849H41.0618V61.5789Z" fill="#B74217"/>
<path d="M41.8428 61.5789H41.062V60.7849H41.8428V61.5789Z" fill="#B74217"/>
<path d="M42.6236 61.5789H41.8428V60.7849H42.6236V61.5789Z" fill="#B74217"/>
<path d="M43.4139 61.5789H42.6235V60.7849H43.4139V61.5789Z" fill="black"/>
<path d="M44.2139 61.5789H43.4141V60.7849H44.2139V61.5789Z" fill="black"/>
<path d="M44.9947 61.5789H44.2139V60.7849H44.9947V61.5789Z" fill="black"/>
<path d="M37.158 62.3635H36.3677V61.5791H37.158V62.3635Z" fill="black"/>
<path d="M37.9385 62.3635H37.1577V61.5791H37.9385V62.3635Z" fill="black"/>
<path d="M38.7198 62.3635H37.939V61.5791H38.7198V62.3635Z" fill="#F9632C"/>
<path d="M39.5101 62.3635H38.7197V61.5791H39.5101V62.3635Z" fill="#F9632C"/>
<path d="M40.2906 62.3635H39.5098V61.5791H40.2906V62.3635Z" fill="#B74217"/>
<path d="M41.0718 62.3635H40.291V61.5791H41.0718V62.3635Z" fill="#B74217"/>
<path d="M41.8428 62.3635H41.062V61.5791H41.8428V62.3635Z" fill="#B74217"/>
<path d="M42.6236 62.3635H41.8428V61.5791H42.6236V62.3635Z" fill="black"/>
<path d="M43.4139 62.3635H42.6235V61.5791H43.4139V62.3635Z" fill="black"/>
<path d="M37.158 63.1477H36.3677V62.3633H37.158V63.1477Z" fill="black"/>
<path d="M37.9385 63.1477H37.1577V62.3633H37.9385V63.1477Z" fill="#F9632C"/>
<path d="M38.7198 63.1477H37.939V62.3633H38.7198V63.1477Z" fill="#F9632C"/>
<path d="M39.5101 63.1477H38.7197V62.3633H39.5101V63.1477Z" fill="#B74217"/>
<path d="M40.2906 63.1477H39.5098V62.3633H40.2906V63.1477Z" fill="#B74217"/>
<path d="M41.0718 63.1477H40.291V62.3633H41.0718V63.1477Z" fill="black"/>
<path d="M41.8428 63.1477H41.062V62.3633H41.8428V63.1477Z" fill="black"/>
<path d="M42.6236 63.1477H41.8428V62.3633H42.6236V63.1477Z" fill="black"/>
<path d="M37.158 63.9419H36.3677V63.1479H37.158V63.9419Z" fill="black"/>
<path d="M37.9385 63.9419H37.1577V63.1479H37.9385V63.9419Z" fill="#F9632C"/>
<path d="M38.7198 63.9419H37.939V63.1479H38.7198V63.9419Z" fill="#B74217"/>
<path d="M39.5101 63.9419H38.7197V63.1479H39.5101V63.9419Z" fill="#B74217"/>
<path d="M40.2906 63.9419H39.5098V63.1479H40.2906V63.9419Z" fill="black"/>
<path d="M41.0618 63.9419H40.2715V63.1479H41.0618V63.9419Z" fill="black"/>
<path d="M36.3675 64.7263H35.5867V63.9419H36.3675V64.7263Z" fill="black"/>
<path d="M37.158 64.7263H36.3677V63.9419H37.158V64.7263Z" fill="black"/>
<path d="M37.9385 64.7263H37.1577V63.9419H37.9385V64.7263Z" fill="#B74217"/>
<path d="M38.7198 64.7263H37.939V63.9419H38.7198V64.7263Z" fill="#B74217"/>
<path d="M39.5101 64.7263H38.7197V63.9419H39.5101V64.7263Z" fill="black"/>
<path d="M40.2906 64.7263H39.5098V63.9419H40.2906V64.7263Z" fill="black"/>
<path d="M36.3675 65.5107H35.5867V64.7263H36.3675V65.5107Z" fill="black"/>
<path d="M37.158 65.5107H36.3677V64.7263H37.158V65.5107Z" fill="#B74217"/>
<path d="M37.9385 65.5107H37.1577V64.7263H37.9385V65.5107Z" fill="black"/>
<path d="M38.7198 65.5107H37.939V64.7263H38.7198V65.5107Z" fill="black"/>
<path d="M39.5101 65.5107H38.7197V64.7263H39.5101V65.5107Z" fill="black"/>
<path d="M36.3675 66.3047H35.5867V65.5107H36.3675V66.3047Z" fill="black"/>
<path d="M37.158 66.3047H36.3677V65.5107H37.158V66.3047Z" fill="black"/>
<path d="M37.9385 66.3047H37.1577V65.5107H37.9385V66.3047Z" fill="black"/>
<path d="M45.7754 37.1672H46.5657V36.3733H45.7754V37.1672Z" fill="black"/>
<path d="M46.5659 37.9516H47.3467V37.1672H46.5659V37.9516Z" fill="black"/>
<path d="M45.7754 37.9516H46.5657V37.1672H45.7754V37.9516Z" fill="black"/>
<path d="M46.5659 38.736H47.3467V37.9517H46.5659V38.736Z" fill="black"/>
<path d="M45.7754 38.736H46.5657V37.9517H45.7754V38.736Z" fill="#F9632C"/>
<path d="M46.5659 39.5303H47.3467V38.7363H46.5659V39.5303Z" fill="black"/>
<path d="M45.7754 39.5303H46.5657V38.7363H45.7754V39.5303Z" fill="#F9632C"/>
<path d="M47.3467 40.3147H48.1275V39.5303H47.3467V40.3147Z" fill="black"/>
<path d="M46.5659 40.3147H47.3467V39.5303H46.5659V40.3147Z" fill="black"/>
<path d="M45.7754 40.3147H46.5657V39.5303H45.7754V40.3147Z" fill="#F9632C"/>
<path d="M47.3467 41.0991H48.1275V40.3147H47.3467V41.0991Z" fill="black"/>
<path d="M46.5659 41.0991H47.3467V40.3147H46.5659V41.0991Z" fill="#F9632C"/>
<path d="M45.7754 41.0991H46.5657V40.3147H45.7754V41.0991Z" fill="#F9632C"/>
<path d="M47.3467 41.8833H48.1275V41.0989H47.3467V41.8833Z" fill="black"/>
<path d="M46.5659 41.8833H47.3467V41.0989H46.5659V41.8833Z" fill="#F9632C"/>
<path d="M45.7754 41.8833H46.5657V41.0989H45.7754V41.8833Z" fill="#F9632C"/>
<path d="M48.1274 42.6773H48.9178V41.8833H48.1274V42.6773Z" fill="black"/>
<path d="M47.3467 42.6773H48.1275V41.8833H47.3467V42.6773Z" fill="black"/>
<path d="M46.5659 42.6773H47.3467V41.8833H46.5659V42.6773Z" fill="#F9632C"/>
<path d="M45.7754 42.6773H46.5657V41.8833H45.7754V42.6773Z" fill="#F9632C"/>
<path d="M48.1274 43.4616H48.9178V42.6772H48.1274V43.4616Z" fill="black"/>
<path d="M47.3467 43.4616H48.1275V42.6772H47.3467V43.4616Z" fill="#F9632C"/>
<path d="M46.5659 43.4616H47.3467V42.6772H46.5659V43.4616Z" fill="#F9632C"/>
<path d="M45.7754 43.4616H46.5657V42.6772H45.7754V43.4616Z" fill="#F9632C"/>
<path d="M48.1274 44.2461H48.9178V43.4617H48.1274V44.2461Z" fill="black"/>
<path d="M47.3467 44.2461H48.1275V43.4617H47.3467V44.2461Z" fill="#F9632C"/>
<path d="M46.5659 44.2461H47.3467V43.4617H46.5659V44.2461Z" fill="#F9632C"/>
<path d="M45.7754 44.2461H46.5657V43.4617H45.7754V44.2461Z" fill="#F9632C"/>
<path d="M48.918 45.04H49.6988V44.2461H48.918V45.04Z" fill="black"/>
<path d="M48.1274 45.04H48.9178V44.2461H48.1274V45.04Z" fill="black"/>
<path d="M47.3467 45.04H48.1275V44.2461H47.3467V45.04Z" fill="#F9632C"/>
<path d="M46.5659 45.04H47.3467V44.2461H46.5659V45.04Z" fill="#F9632C"/>
<path d="M45.7754 45.04H46.5657V44.2461H45.7754V45.04Z" fill="#F9632C"/>
<path d="M48.918 45.8244H49.6988V45.04H48.918V45.8244Z" fill="black"/>
<path d="M48.1274 45.8244H48.9178V45.04H48.1274V45.8244Z" fill="#F9632C"/>
<path d="M47.3467 45.8244H48.1275V45.04H47.3467V45.8244Z" fill="#F9632C"/>
<path d="M46.5659 45.8244H47.3467V45.04H46.5659V45.8244Z" fill="#F9632C"/>
<path d="M45.7754 45.8244H46.5657V45.04H45.7754V45.8244Z" fill="#F9632C"/>
<path d="M48.918 46.6088H49.6988V45.8245H48.918V46.6088Z" fill="black"/>
<path d="M48.1274 46.6088H48.9178V45.8245H48.1274V46.6088Z" fill="#F9632C"/>
<path d="M47.3467 46.6088H48.1275V45.8245H47.3467V46.6088Z" fill="#F9632C"/>
<path d="M46.5659 46.6088H47.3467V45.8245H46.5659V46.6088Z" fill="#F9632C"/>
<path d="M45.7754 46.6088H46.5657V45.8245H45.7754V46.6088Z" fill="#F9632C"/>
<path d="M48.918 47.4026H49.6988V46.6086H48.918V47.4026Z" fill="black"/>
<path d="M48.1274 47.4026H48.9178V46.6086H48.1274V47.4026Z" fill="#F9632C"/>
<path d="M47.3467 47.4026H48.1275V46.6086H47.3467V47.4026Z" fill="#F9632C"/>
<path d="M46.5659 47.4026H47.3467V46.6086H46.5659V47.4026Z" fill="#F9632C"/>
<path d="M45.7754 47.4026H46.5657V46.6086H45.7754V47.4026Z" fill="#F9632C"/>
<path d="M60.6777 48.187H61.4585V47.4026H60.6777V48.187Z" fill="black"/>
<path d="M59.8872 48.187H60.6775V47.4026H59.8872V48.187Z" fill="black"/>
<path d="M59.1064 48.187H59.8873V47.4026H59.1064V48.187Z" fill="black"/>
<path d="M58.3257 48.187H59.1065V47.4026H58.3257V48.187Z" fill="black"/>
<path d="M57.5352 48.187H58.3255V47.4026H57.5352V48.187Z" fill="black"/>
<path d="M56.7544 48.187H57.5352V47.4026H56.7544V48.187Z" fill="black"/>
<path d="M55.9736 48.187H56.7545V47.4026H55.9736V48.187Z" fill="black"/>
<path d="M55.1836 48.187H55.9739V47.4026H55.1836V48.187Z" fill="black"/>
<path d="M54.4028 48.187H55.1836V47.4026H54.4028V48.187Z" fill="black"/>
<path d="M53.6216 48.187H54.4024V47.4026H53.6216V48.187Z" fill="black"/>
<path d="M52.8315 48.187H53.6219V47.4026H52.8315V48.187Z" fill="black"/>
<path d="M52.0508 48.187H52.8316V47.4026H52.0508V48.187Z" fill="black"/>
<path d="M51.2695 48.187H52.0503V47.4026H51.2695V48.187Z" fill="black"/>
<path d="M50.4795 48.187H51.2698V47.4026H50.4795V48.187Z" fill="black"/>
<path d="M49.6987 48.187H50.4795V47.4026H49.6987V48.187Z" fill="black"/>
<path d="M48.918 48.187H49.6988V47.4026H48.918V48.187Z" fill="black"/>
<path d="M48.1274 48.187H48.9178V47.4026H48.1274V48.187Z" fill="#F9632C"/>
<path d="M47.3467 48.187H48.1275V47.4026H47.3467V48.187Z" fill="#F9632C"/>
<path d="M46.5659 48.187H47.3467V47.4026H46.5659V48.187Z" fill="#F9632C"/>
<path d="M45.7754 48.187H46.5657V47.4026H45.7754V48.187Z" fill="#F9632C"/>
<path d="M60.6777 48.9716H61.4585V48.1873H60.6777V48.9716Z" fill="black"/>
<path d="M59.8872 48.9716H60.6775V48.1873H59.8872V48.9716Z" fill="black"/>
<path d="M59.1064 48.9716H59.8873V48.1873H59.1064V48.9716Z" fill="#F9632C"/>
<path d="M58.3257 48.9716H59.1065V48.1873H58.3257V48.9716Z" fill="#B74217"/>
<path d="M57.5352 48.9716H58.3255V48.1873H57.5352V48.9716Z" fill="#B74217"/>
<path d="M56.7544 48.9716H57.5352V48.1873H56.7544V48.9716Z" fill="#B74217"/>
<path d="M55.9736 48.9716H56.7545V48.1873H55.9736V48.9716Z" fill="#B74217"/>
<path d="M55.1836 48.9716H55.9739V48.1873H55.1836V48.9716Z" fill="#B74217"/>
<path d="M54.4028 48.9716H55.1836V48.1873H54.4028V48.9716Z" fill="#B74217"/>
<path d="M53.6216 48.9716H54.4024V48.1873H53.6216V48.9716Z" fill="#B74217"/>
<path d="M52.8315 48.9716H53.6219V48.1873H52.8315V48.9716Z" fill="#B74217"/>
<path d="M52.0508 48.9716H52.8316V48.1873H52.0508V48.9716Z" fill="#B74217"/>
<path d="M51.2695 48.9716H52.0503V48.1873H51.2695V48.9716Z" fill="#B74217"/>
<path d="M50.4795 48.9716H51.2698V48.1873H50.4795V48.9716Z" fill="#B74217"/>
<path d="M49.6987 48.9716H50.4795V48.1873H49.6987V48.9716Z" fill="#B74217"/>
<path d="M48.918 48.9716H49.6988V48.1873H48.918V48.9716Z" fill="#B74217"/>
<path d="M48.1274 48.9716H48.9178V48.1873H48.1274V48.9716Z" fill="#F9632C"/>
<path d="M47.3467 48.9716H48.1275V48.1873H47.3467V48.9716Z" fill="#F9632C"/>
<path d="M46.5659 48.9716H47.3467V48.1873H46.5659V48.9716Z" fill="#F9632C"/>
<path d="M45.7754 48.9716H46.5657V48.1873H45.7754V48.9716Z" fill="#F9632C"/>
<path d="M59.8872 49.7654H60.6775V48.9714H59.8872V49.7654Z" fill="black"/>
<path d="M59.1064 49.7654H59.8873V48.9714H59.1064V49.7654Z" fill="black"/>
<path d="M58.3257 49.7654H59.1065V48.9714H58.3257V49.7654Z" fill="#F9632C"/>
<path d="M57.5352 49.7654H58.3255V48.9714H57.5352V49.7654Z" fill="#F9632C"/>
<path d="M56.7544 49.7654H57.5352V48.9714H56.7544V49.7654Z" fill="#F9632C"/>
<path d="M55.9736 49.7654H56.7545V48.9714H55.9736V49.7654Z" fill="#B74217"/>
<path d="M55.1836 49.7654H55.9739V48.9714H55.1836V49.7654Z" fill="#B74217"/>
<path d="M54.4028 49.7654H55.1836V48.9714H54.4028V49.7654Z" fill="#B74217"/>
<path d="M53.6216 49.7654H54.4024V48.9714H53.6216V49.7654Z" fill="#B74217"/>
<path d="M52.8315 49.7654H53.6219V48.9714H52.8315V49.7654Z" fill="#B74217"/>
<path d="M52.0508 49.7654H52.8316V48.9714H52.0508V49.7654Z" fill="#B74217"/>
<path d="M51.2695 49.7654H52.0503V48.9714H51.2695V49.7654Z" fill="#B74217"/>
<path d="M50.4795 49.7654H51.2698V48.9714H50.4795V49.7654Z" fill="#B74217"/>
<path d="M49.6987 49.7654H50.4795V48.9714H49.6987V49.7654Z" fill="#B74217"/>
<path d="M48.918 49.7654H49.6988V48.9714H48.918V49.7654Z" fill="#B74217"/>
<path d="M48.1274 49.7654H48.9178V48.9714H48.1274V49.7654Z" fill="#B74217"/>
<path d="M47.3467 49.7654H48.1275V48.9714H47.3467V49.7654Z" fill="#F9632C"/>
<path d="M46.5659 49.7654H47.3467V48.9714H46.5659V49.7654Z" fill="#F9632C"/>
<path d="M45.7754 49.7654H46.5657V48.9714H45.7754V49.7654Z" fill="#F9632C"/>
<path d="M59.1064 50.5498H59.8873V49.7654H59.1064V50.5498Z" fill="black"/>
<path d="M58.3257 50.5498H59.1065V49.7654H58.3257V50.5498Z" fill="black"/>
<path d="M57.5352 50.5498H58.3255V49.7654H57.5352V50.5498Z" fill="black"/>
<path d="M56.7544 50.5498H57.5352V49.7654H56.7544V50.5498Z" fill="#F9632C"/>
<path d="M55.9736 50.5498H56.7545V49.7654H55.9736V50.5498Z" fill="#F9632C"/>
<path d="M55.1836 50.5498H55.9739V49.7654H55.1836V50.5498Z" fill="#F9632C"/>
<path d="M54.4028 50.5498H55.1836V49.7654H54.4028V50.5498Z" fill="#B74217"/>
<path d="M53.6216 50.5498H54.4024V49.7654H53.6216V50.5498Z" fill="#B74217"/>
<path d="M52.8315 50.5498H53.6219V49.7654H52.8315V50.5498Z" fill="#B74217"/>
<path d="M52.0508 50.5498H52.8316V49.7654H52.0508V50.5498Z" fill="#B74217"/>
<path d="M51.2695 50.5498H52.0503V49.7654H51.2695V50.5498Z" fill="#B74217"/>
<path d="M50.4795 50.5498H51.2698V49.7654H50.4795V50.5498Z" fill="#B74217"/>
<path d="M49.6987 50.5498H50.4795V49.7654H49.6987V50.5498Z" fill="#B74217"/>
<path d="M48.918 50.5498H49.6988V49.7654H48.918V50.5498Z" fill="#B74217"/>
<path d="M48.1274 50.5498H48.9178V49.7654H48.1274V50.5498Z" fill="#B74217"/>
<path d="M47.3467 50.5498H48.1275V49.7654H47.3467V50.5498Z" fill="#F9632C"/>
<path d="M46.5659 50.5498H47.3467V49.7654H46.5659V50.5498Z" fill="#F9632C"/>
<path d="M45.7754 50.5498H46.5657V49.7654H45.7754V50.5498Z" fill="#F9632C"/>
<path d="M58.3257 51.3342H59.1065V50.5498H58.3257V51.3342Z" fill="black"/>
<path d="M57.5352 51.3342H58.3255V50.5498H57.5352V51.3342Z" fill="black"/>
<path d="M56.7544 51.3342H57.5352V50.5498H56.7544V51.3342Z" fill="black"/>
<path d="M55.9736 51.3342H56.7545V50.5498H55.9736V51.3342Z" fill="#F9632C"/>
<path d="M55.1836 51.3342H55.9739V50.5498H55.1836V51.3342Z" fill="#F9632C"/>
<path d="M54.4028 51.3342H55.1836V50.5498H54.4028V51.3342Z" fill="#F9632C"/>
<path d="M53.6216 51.3342H54.4024V50.5498H53.6216V51.3342Z" fill="#F9632C"/>
<path d="M52.8315 51.3342H53.6219V50.5498H52.8315V51.3342Z" fill="#F9632C"/>
<path d="M52.0508 51.3342H52.8316V50.5498H52.0508V51.3342Z" fill="#F9632C"/>
<path d="M51.2695 51.3342H52.0503V50.5498H51.2695V51.3342Z" fill="#F9632C"/>
<path d="M50.4795 51.3342H51.2698V50.5498H50.4795V51.3342Z" fill="#F9632C"/>
<path d="M49.6987 51.3342H50.4795V50.5498H49.6987V51.3342Z" fill="#F9632C"/>
<path d="M48.918 51.3342H49.6988V50.5498H48.918V51.3342Z" fill="#F9632C"/>
<path d="M48.1274 51.3342H48.9178V50.5498H48.1274V51.3342Z" fill="#F9632C"/>
<path d="M47.3467 51.3342H48.1275V50.5498H47.3467V51.3342Z" fill="#F9632C"/>
<path d="M46.5659 51.3342H47.3467V50.5498H46.5659V51.3342Z" fill="#F9632C"/>
<path d="M45.7754 51.3342H46.5657V50.5498H45.7754V51.3342Z" fill="#F9632C"/>
<path d="M56.7544 52.1284H57.5352V51.3345H56.7544V52.1284Z" fill="black"/>
<path d="M55.9736 52.1284H56.7545V51.3345H55.9736V52.1284Z" fill="black"/>
<path d="M55.1836 52.1284H55.9739V51.3345H55.1836V52.1284Z" fill="#F9632C"/>
<path d="M54.4028 52.1284H55.1836V51.3345H54.4028V52.1284Z" fill="#F9632C"/>
<path d="M53.6216 52.1284H54.4024V51.3345H53.6216V52.1284Z" fill="#F9632C"/>
<path d="M52.8315 52.1284H53.6219V51.3345H52.8315V52.1284Z" fill="#F9632C"/>
<path d="M52.0508 52.1284H52.8316V51.3345H52.0508V52.1284Z" fill="#F9632C"/>
<path d="M51.2695 52.1284H52.0503V51.3345H51.2695V52.1284Z" fill="#F9632C"/>
<path d="M50.4795 52.1284H51.2698V51.3345H50.4795V52.1284Z" fill="#F9632C"/>
<path d="M49.6987 52.1284H50.4795V51.3345H49.6987V52.1284Z" fill="#F9632C"/>
<path d="M48.918 52.1284H49.6988V51.3345H48.918V52.1284Z" fill="#F9632C"/>
<path d="M48.1274 52.1284H48.9178V51.3345H48.1274V52.1284Z" fill="#F9632C"/>
<path d="M47.3467 52.1284H48.1275V51.3345H47.3467V52.1284Z" fill="#F9632C"/>
<path d="M46.5659 52.1284H47.3467V51.3345H46.5659V52.1284Z" fill="#F9632C"/>
<path d="M45.7754 52.1284H46.5657V51.3345H45.7754V52.1284Z" fill="#F9632C"/>
<path d="M55.9736 52.9128H56.7545V52.1284H55.9736V52.9128Z" fill="black"/>
<path d="M55.1836 52.9128H55.9739V52.1284H55.1836V52.9128Z" fill="black"/>
<path d="M54.4028 52.9128H55.1836V52.1284H54.4028V52.9128Z" fill="#F9632C"/>
<path d="M53.6216 52.9128H54.4024V52.1284H53.6216V52.9128Z" fill="#F9632C"/>
<path d="M52.8315 52.9128H53.6219V52.1284H52.8315V52.9128Z" fill="#F9632C"/>
<path d="M52.0508 52.9128H52.8316V52.1284H52.0508V52.9128Z" fill="#F9632C"/>
<path d="M51.2695 52.9128H52.0503V52.1284H51.2695V52.9128Z" fill="#F9632C"/>
<path d="M50.4795 52.9128H51.2698V52.1284H50.4795V52.9128Z" fill="#F9632C"/>
<path d="M49.6987 52.9128H50.4795V52.1284H49.6987V52.9128Z" fill="#F9632C"/>
<path d="M48.918 52.9128H49.6988V52.1284H48.918V52.9128Z" fill="#F9632C"/>
<path d="M48.1274 52.9128H48.9178V52.1284H48.1274V52.9128Z" fill="#F9632C"/>
<path d="M47.3467 52.9128H48.1275V52.1284H47.3467V52.9128Z" fill="#F9632C"/>
<path d="M46.5659 52.9128H47.3467V52.1284H46.5659V52.9128Z" fill="#F9632C"/>
<path d="M45.7754 52.9128H46.5657V52.1284H45.7754V52.9128Z" fill="#F9632C"/>
<path d="M55.1836 53.6972H55.9739V52.9128H55.1836V53.6972Z" fill="black"/>
<path d="M54.4028 53.6972H55.1836V52.9128H54.4028V53.6972Z" fill="black"/>
<path d="M53.6216 53.6972H54.4024V52.9128H53.6216V53.6972Z" fill="black"/>
<path d="M52.8315 53.6972H53.6219V52.9128H52.8315V53.6972Z" fill="#F9632C"/>
<path d="M52.0508 53.6972H52.8316V52.9128H52.0508V53.6972Z" fill="#F9632C"/>
<path d="M51.2695 53.6972H52.0503V52.9128H51.2695V53.6972Z" fill="#F9632C"/>
<path d="M50.4795 53.6972H51.2698V52.9128H50.4795V53.6972Z" fill="#F9632C"/>
<path d="M49.6987 53.6972H50.4795V52.9128H49.6987V53.6972Z" fill="#F9632C"/>
<path d="M48.918 53.6972H49.6988V52.9128H48.918V53.6972Z" fill="#F9632C"/>
<path d="M48.1274 53.6972H48.9178V52.9128H48.1274V53.6972Z" fill="#F9632C"/>
<path d="M47.3467 53.6972H48.1275V52.9128H47.3467V53.6972Z" fill="#F9632C"/>
<path d="M46.5659 53.6972H47.3467V52.9128H46.5659V53.6972Z" fill="#F9632C"/>
<path d="M45.7754 53.6972H46.5657V52.9128H45.7754V53.6972Z" fill="#F9632C"/>
<path d="M53.6216 54.491H54.4024V53.697H53.6216V54.491Z" fill="black"/>
<path d="M52.8315 54.491H53.6219V53.697H52.8315V54.491Z" fill="black"/>
<path d="M52.0508 54.491H52.8316V53.697H52.0508V54.491Z" fill="#F9632C"/>
<path d="M51.2695 54.491H52.0503V53.697H51.2695V54.491Z" fill="#F9632C"/>
<path d="M50.4795 54.491H51.2698V53.697H50.4795V54.491Z" fill="#F9632C"/>
<path d="M49.6987 54.491H50.4795V53.697H49.6987V54.491Z" fill="#F9632C"/>
<path d="M48.918 54.491H49.6988V53.697H48.918V54.491Z" fill="#F9632C"/>
<path d="M48.1274 54.491H48.9178V53.697H48.1274V54.491Z" fill="#F9632C"/>
<path d="M47.3467 54.491H48.1275V53.697H47.3467V54.491Z" fill="#F9632C"/>
<path d="M46.5659 54.491H47.3467V53.697H46.5659V54.491Z" fill="#F9632C"/>
<path d="M45.7754 54.491H46.5657V53.697H45.7754V54.491Z" fill="#F9632C"/>
<path d="M52.8315 55.2754H53.6219V54.491H52.8315V55.2754Z" fill="black"/>
<path d="M52.0508 55.2754H52.8316V54.491H52.0508V55.2754Z" fill="black"/>
<path d="M51.2695 55.2754H52.0503V54.491H51.2695V55.2754Z" fill="#F9632C"/>
<path d="M50.4795 55.2754H51.2698V54.491H50.4795V55.2754Z" fill="#F9632C"/>
<path d="M49.6987 55.2754H50.4795V54.491H49.6987V55.2754Z" fill="#F9632C"/>
<path d="M48.918 55.2754H49.6988V54.491H48.918V55.2754Z" fill="#F9632C"/>
<path d="M48.1274 55.2754H48.9178V54.491H48.1274V55.2754Z" fill="#F9632C"/>
<path d="M47.3467 55.2754H48.1275V54.491H47.3467V55.2754Z" fill="#F9632C"/>
<path d="M46.5659 55.2754H47.3467V54.491H46.5659V55.2754Z" fill="#F9632C"/>
<path d="M45.7754 55.2754H46.5657V54.491H45.7754V55.2754Z" fill="#F9632C"/>
<path d="M52.0508 56.0595H52.8316V55.2751H52.0508V56.0595Z" fill="black"/>
<path d="M51.2695 56.0595H52.0503V55.2751H51.2695V56.0595Z" fill="black"/>
<path d="M50.4795 56.0595H51.2698V55.2751H50.4795V56.0595Z" fill="#F9632C"/>
<path d="M49.6987 56.0595H50.4795V55.2751H49.6987V56.0595Z" fill="#B74217"/>
<path d="M48.918 56.0595H49.6988V55.2751H48.918V56.0595Z" fill="#F9632C"/>
<path d="M48.1274 56.0595H48.9178V55.2751H48.1274V56.0595Z" fill="#F9632C"/>
<path d="M47.3467 56.0595H48.1275V55.2751H47.3467V56.0595Z" fill="#F9632C"/>
<path d="M46.5659 56.0595H47.3467V55.2751H46.5659V56.0595Z" fill="#F9632C"/>
<path d="M45.7754 56.0595H46.5657V55.2751H45.7754V56.0595Z" fill="#F9632C"/>
<path d="M52.0508 56.8535H52.8316V56.0596H52.0508V56.8535Z" fill="black"/>
<path d="M51.2695 56.8535H52.0503V56.0596H51.2695V56.8535Z" fill="#B74217"/>
<path d="M50.4795 56.8535H51.2698V56.0596H50.4795V56.8535Z" fill="#B74217"/>
<path d="M49.6987 56.8535H50.4795V56.0596H49.6987V56.8535Z" fill="#B74217"/>
<path d="M48.918 56.8535H49.6988V56.0596H48.918V56.8535Z" fill="#F9632C"/>
<path d="M48.1274 56.8535H48.9178V56.0596H48.1274V56.8535Z" fill="#F9632C"/>
<path d="M47.3467 56.8535H48.1275V56.0596H47.3467V56.8535Z" fill="#F9632C"/>
<path d="M46.5659 56.8535H47.3467V56.0596H46.5659V56.8535Z" fill="#F9632C"/>
<path d="M45.7754 56.8535H46.5657V56.0596H45.7754V56.8535Z" fill="#F9632C"/>
<path d="M52.8315 57.6384H53.6219V56.854H52.8315V57.6384Z" fill="black"/>
<path d="M52.0508 57.6384H52.8316V56.854H52.0508V57.6384Z" fill="black"/>
<path d="M51.2695 57.6384H52.0503V56.854H51.2695V57.6384Z" fill="#B74217"/>
<path d="M50.4795 57.6384H51.2698V56.854H50.4795V57.6384Z" fill="#B74217"/>
<path d="M49.6987 57.6384H50.4795V56.854H49.6987V57.6384Z" fill="#B74217"/>
<path d="M48.918 57.6384H49.6988V56.854H48.918V57.6384Z" fill="#F9632C"/>
<path d="M48.1465 57.6384H48.9273V56.854H48.1465V57.6384Z" fill="#F9632C"/>
<path d="M47.3467 57.6384H48.1465V56.854H47.3467V57.6384Z" fill="#F9632C"/>
<path d="M46.5659 57.6384H47.3467V56.854H46.5659V57.6384Z" fill="#F9632C"/>
<path d="M45.7754 57.6384H46.5657V56.854H45.7754V57.6384Z" fill="#F9632C"/>
<path d="M52.8315 58.4226H53.6219V57.6382H52.8315V58.4226Z" fill="black"/>
<path d="M52.0508 58.4226H52.8316V57.6382H52.0508V58.4226Z" fill="#B74217"/>
<path d="M51.2695 58.4226H52.0503V57.6382H51.2695V58.4226Z" fill="#B74217"/>
<path d="M50.4795 58.4226H51.2698V57.6382H50.4795V58.4226Z" fill="#B74217"/>
<path d="M49.6987 58.4226H50.4795V57.6382H49.6987V58.4226Z" fill="#F9632C"/>
<path d="M48.918 58.4226H49.6988V57.6382H48.918V58.4226Z" fill="#F9632C"/>
<path d="M48.1465 58.4226H48.9273V57.6382H48.1465V58.4226Z" fill="#F9632C"/>
<path d="M47.3467 58.4226H48.1465V57.6382H47.3467V58.4226Z" fill="#F9632C"/>
<path d="M46.5659 58.4226H47.3467V57.6382H46.5659V58.4226Z" fill="#F9632C"/>
<path d="M45.7754 58.4226H46.5657V57.6382H45.7754V58.4226Z" fill="#F9632C"/>
<path d="M52.8315 59.2163H53.6219V58.4224H52.8315V59.2163Z" fill="black"/>
<path d="M52.0508 59.2163H52.8316V58.4224H52.0508V59.2163Z" fill="#B74217"/>
<path d="M51.2695 59.2163H52.0503V58.4224H51.2695V59.2163Z" fill="#B74217"/>
<path d="M50.4795 59.2163H51.2698V58.4224H50.4795V59.2163Z" fill="#B74217"/>
<path d="M49.6987 59.2163H50.4795V58.4224H49.6987V59.2163Z" fill="#F9632C"/>
<path d="M48.918 59.2163H49.6988V58.4224H48.918V59.2163Z" fill="#F9632C"/>
<path d="M48.1465 59.2163H48.9273V58.4224H48.1465V59.2163Z" fill="#F9632C"/>
<path d="M47.3467 59.2163H48.1465V58.4224H47.3467V59.2163Z" fill="#F9632C"/>
<path d="M46.5659 59.2163H47.3467V58.4224H46.5659V59.2163Z" fill="#F9632C"/>
<path d="M45.7754 59.2163H46.5657V58.4224H45.7754V59.2163Z" fill="#F9632C"/>
<path d="M53.6216 60.0002H54.4024V59.2158H53.6216V60.0002Z" fill="black"/>
<path d="M52.8315 60.0002H53.6219V59.2158H52.8315V60.0002Z" fill="black"/>
<path d="M52.0508 60.0002H52.8316V59.2158H52.0508V60.0002Z" fill="#B74217"/>
<path d="M51.2695 60.0002H52.0503V59.2158H51.2695V60.0002Z" fill="#B74217"/>
<path d="M50.4795 60.0002H51.2698V59.2158H50.4795V60.0002Z" fill="#B74217"/>
<path d="M49.6987 60.0002H50.4795V59.2158H49.6987V60.0002Z" fill="#F9632C"/>
<path d="M48.9272 60.0002H49.7176V59.2158H48.9272V60.0002Z" fill="#F9632C"/>
<path d="M48.1465 60.0002H48.9273V59.2158H48.1465V60.0002Z" fill="#F9632C"/>
<path d="M47.3467 60.0002H48.1465V59.2158H47.3467V60.0002Z" fill="#F9632C"/>
<path d="M46.5659 60.0002H47.3467V59.2158H46.5659V60.0002Z" fill="#F9632C"/>
<path d="M45.7754 60.0002H46.5657V59.2158H45.7754V60.0002Z" fill="black"/>
<path d="M53.6216 60.7851H54.4024V60.0007H53.6216V60.7851Z" fill="black"/>
<path d="M52.8315 60.7851H53.6219V60.0007H52.8315V60.7851Z" fill="black"/>
<path d="M52.0508 60.7851H52.8316V60.0007H52.0508V60.7851Z" fill="#B74217"/>
<path d="M51.2695 60.7851H52.0503V60.0007H51.2695V60.7851Z" fill="#B74217"/>
<path d="M50.4985 60.7851H51.2794V60.0007H50.4985V60.7851Z" fill="#B74217"/>
<path d="M49.7178 60.7851H50.4986V60.0007H49.7178V60.7851Z" fill="#F9632C"/>
<path d="M48.9272 60.7851H49.7176V60.0007H48.9272V60.7851Z" fill="#F9632C"/>
<path d="M48.1465 60.7851H48.9273V60.0007H48.1465V60.7851Z" fill="#F9632C"/>
<path d="M47.3467 60.7851H48.1465V60.0007H47.3467V60.7851Z" fill="#F9632C"/>
<path d="M46.5659 60.7851H47.3467V60.0007H46.5659V60.7851Z" fill="black"/>
<path d="M45.7754 60.7851H46.5657V60.0007H45.7754V60.7851Z" fill="black"/>
<path d="M53.6216 61.5789H54.4024V60.7849H53.6216V61.5789Z" fill="black"/>
<path d="M52.8315 61.5789H53.6219V60.7849H52.8315V61.5789Z" fill="#B74217"/>
<path d="M52.0508 61.5789H52.8316V60.7849H52.0508V61.5789Z" fill="#B74217"/>
<path d="M51.2695 61.5789H52.0503V60.7849H51.2695V61.5789Z" fill="#F9632C"/>
<path d="M50.4985 61.5789H51.2794V60.7849H50.4985V61.5789Z" fill="#F9632C"/>
<path d="M49.7178 61.5789H50.4986V60.7849H49.7178V61.5789Z" fill="#F9632C"/>
<path d="M48.9272 61.5789H49.7176V60.7849H48.9272V61.5789Z" fill="#F9632C"/>
<path d="M48.1465 61.5789H48.9273V60.7849H48.1465V61.5789Z" fill="black"/>
<path d="M47.3467 61.5789H48.1465V60.7849H47.3467V61.5789Z" fill="black"/>
<path d="M46.5659 61.5789H47.3467V60.7849H46.5659V61.5789Z" fill="black"/>
<path d="M54.4028 62.3635H55.1836V61.5791H54.4028V62.3635Z" fill="black"/>
<path d="M53.6216 62.3635H54.4024V61.5791H53.6216V62.3635Z" fill="black"/>
<path d="M52.8315 62.3635H53.6219V61.5791H52.8315V62.3635Z" fill="#B74217"/>
<path d="M52.0508 62.3635H52.8316V61.5791H52.0508V62.3635Z" fill="#B74217"/>
<path d="M51.2695 62.3635H52.0503V61.5791H51.2695V62.3635Z" fill="#F9632C"/>
<path d="M50.4795 62.3635H51.2698V61.5791H50.4795V62.3635Z" fill="#F9632C"/>
<path d="M49.7178 62.3635H50.4986V61.5791H49.7178V62.3635Z" fill="#F9632C"/>
<path d="M48.9272 62.3635H49.7176V61.5791H48.9272V62.3635Z" fill="black"/>
<path d="M48.1465 62.3635H48.9273V61.5791H48.1465V62.3635Z" fill="black"/>
<path d="M54.4028 63.1477H55.1836V62.3633H54.4028V63.1477Z" fill="black"/>
<path d="M53.6216 63.1477H54.4024V62.3633H53.6216V63.1477Z" fill="#B74217"/>
<path d="M52.8315 63.1477H53.6219V62.3633H52.8315V63.1477Z" fill="#B74217"/>
<path d="M52.0508 63.1477H52.8316V62.3633H52.0508V63.1477Z" fill="#F9632C"/>
<path d="M51.2695 63.1477H52.0503V62.3633H51.2695V63.1477Z" fill="#F9632C"/>
<path d="M50.4795 63.1477H51.2698V62.3633H50.4795V63.1477Z" fill="black"/>
<path d="M49.7178 63.1477H50.4986V62.3633H49.7178V63.1477Z" fill="black"/>
<path d="M48.9272 63.1477H49.7176V62.3633H48.9272V63.1477Z" fill="black"/>
<path d="M54.4028 63.9419H55.1836V63.1479H54.4028V63.9419Z" fill="black"/>
<path d="M53.6216 63.9419H54.4024V63.1479H53.6216V63.9419Z" fill="#B74217"/>
<path d="M52.8315 63.9419H53.6219V63.1479H52.8315V63.9419Z" fill="#F9632C"/>
<path d="M52.0508 63.9419H52.8316V63.1479H52.0508V63.9419Z" fill="#F9632C"/>
<path d="M51.2695 63.9419H52.0503V63.1479H51.2695V63.9419Z" fill="black"/>
<path d="M50.4985 63.9419H51.2794V63.1479H50.4985V63.9419Z" fill="black"/>
<path d="M55.1836 64.7263H55.9739V63.9419H55.1836V64.7263Z" fill="black"/>
<path d="M54.4028 64.7263H55.1836V63.9419H54.4028V64.7263Z" fill="black"/>
<path d="M53.6216 64.7263H54.4024V63.9419H53.6216V64.7263Z" fill="#F9632C"/>
<path d="M52.8315 64.7263H53.6219V63.9419H52.8315V64.7263Z" fill="#F9632C"/>
<path d="M52.0508 64.7263H52.8316V63.9419H52.0508V64.7263Z" fill="black"/>
<path d="M51.2695 64.7263H52.0503V63.9419H51.2695V64.7263Z" fill="black"/>
<path d="M55.1836 65.5107H55.9739V64.7263H55.1836V65.5107Z" fill="black"/>
<path d="M54.4028 65.5107H55.1836V64.7263H54.4028V65.5107Z" fill="#B74217"/>
<path d="M53.6216 65.5107H54.4024V64.7263H53.6216V65.5107Z" fill="black"/>
<path d="M52.8315 65.5107H53.6219V64.7263H52.8315V65.5107Z" fill="black"/>
<path d="M52.0508 65.5107H52.8316V64.7263H52.0508V65.5107Z" fill="black"/>
<path d="M55.1836 66.3047H55.9739V65.5107H55.1836V66.3047Z" fill="black"/>
<path d="M54.4028 66.3047H55.1836V65.5107H54.4028V66.3047Z" fill="black"/>
<path d="M53.6216 66.3047H54.4024V65.5107H53.6216V66.3047Z" fill="black"/>
</svg>
