<svg width="41" height="39" viewBox="0 0 41 39" fill="none" xmlns="http://www.w3.org/2000/svg">
<path d="M20.1918 1.02285H19.1859V0H20.1918V1.02285Z" fill="#21201E"/>
<path d="M19.186 2.03346H18.1801V1.02295H19.186V2.03346Z" fill="#21201E"/>
<path d="M20.1918 2.03346H19.1859V1.02295H20.1918V2.03346Z" fill="#21201E"/>
<path d="M19.186 3.04373H18.1801V2.0332H19.186V3.04373Z" fill="#21201E"/>
<path d="M20.1918 3.04373H19.1859V2.0332H20.1918V3.04373Z" fill="#FCE002"/>
<path d="M19.186 4.06679H18.1801V3.04395H19.186V4.06679Z" fill="#21201E"/>
<path d="M20.1918 4.06679H19.1859V3.04395H20.1918V4.06679Z" fill="#FCE002"/>
<path d="M18.1802 5.07742H17.162V4.06689H18.1802V5.07742Z" fill="#21201E"/>
<path d="M19.186 5.07742H18.1801V4.06689H19.186V5.07742Z" fill="#21201E"/>
<path d="M20.1918 5.07742H19.1859V4.06689H20.1918V5.07742Z" fill="#FCE002"/>
<path d="M18.1802 6.08791H17.162V5.07739H18.1802V6.08791Z" fill="#21201E"/>
<path d="M19.186 6.08791H18.1801V5.07739H19.186V6.08791Z" fill="#FCE002"/>
<path d="M20.1918 6.08791H19.1859V5.07739H20.1918V6.08791Z" fill="#FCE002"/>
<path d="M18.1802 7.09817H17.162V6.08765H18.1802V7.09817Z" fill="#21201E"/>
<path d="M19.186 7.09817H18.1801V6.08765H19.186V7.09817Z" fill="#FCE002"/>
<path d="M20.1918 7.09817H19.1859V6.08765H20.1918V7.09817Z" fill="#FCE002"/>
<path d="M17.162 8.12123H16.1561V7.09839H17.162V8.12123Z" fill="#21201E"/>
<path d="M18.1802 8.12123H17.162V7.09839H18.1802V8.12123Z" fill="#21201E"/>
<path d="M19.186 8.12123H18.1801V7.09839H19.186V8.12123Z" fill="#FCE002"/>
<path d="M20.1918 8.12123H19.1859V7.09839H20.1918V8.12123Z" fill="#FCE002"/>
<path d="M17.162 9.13186H16.1561V8.12134H17.162V9.13186Z" fill="#21201E"/>
<path d="M18.1802 9.13186H17.162V8.12134H18.1802V9.13186Z" fill="#FCE002"/>
<path d="M19.186 9.13186H18.1801V8.12134H19.186V9.13186Z" fill="#FCE002"/>
<path d="M20.1918 9.13186H19.1859V8.12134H20.1918V9.13186Z" fill="#FCE002"/>
<path d="M17.162 10.1421H16.1561V9.13159H17.162V10.1421Z" fill="#21201E"/>
<path d="M18.1802 10.1421H17.162V9.13159H18.1802V10.1421Z" fill="#FCE002"/>
<path d="M19.186 10.1421H18.1801V9.13159H19.186V10.1421Z" fill="#FCE002"/>
<path d="M20.1918 10.1421H19.1859V9.13159H20.1918V10.1421Z" fill="#FCE002"/>
<path d="M16.1561 11.1652H15.1501V10.1423H16.1561V11.1652Z" fill="#21201E"/>
<path d="M17.162 11.1652H16.1561V10.1423H17.162V11.1652Z" fill="#21201E"/>
<path d="M18.1802 11.1652H17.162V10.1423H18.1802V11.1652Z" fill="#FCE002"/>
<path d="M19.186 11.1652H18.1801V10.1423H19.186V11.1652Z" fill="#FCE002"/>
<path d="M20.1918 11.1652H19.1859V10.1423H20.1918V11.1652Z" fill="#FCE002"/>
<path d="M16.1561 12.1756H15.1501V11.165H16.1561V12.1756Z" fill="#21201E"/>
<path d="M17.162 12.1756H16.1561V11.165H17.162V12.1756Z" fill="#FCE002"/>
<path d="M18.1802 12.1756H17.162V11.165H18.1802V12.1756Z" fill="#FCE002"/>
<path d="M19.186 12.1756H18.1801V11.165H19.186V12.1756Z" fill="#FCE002"/>
<path d="M20.1918 12.1756H19.1859V11.165H20.1918V12.1756Z" fill="#FFF9C6"/>
<path d="M16.1561 13.1861H15.1501V12.1755H16.1561V13.1861Z" fill="#21201E"/>
<path d="M17.162 13.1861H16.1561V12.1755H17.162V13.1861Z" fill="#FCE002"/>
<path d="M18.1802 13.1861H17.162V12.1755H18.1802V13.1861Z" fill="#FCE002"/>
<path d="M19.186 13.1861H18.1801V12.1755H19.186V13.1861Z" fill="#FCE002"/>
<path d="M20.1918 13.1861H19.1859V12.1755H20.1918V13.1861Z" fill="#FFF9C6"/>
<path d="M16.1561 14.2086H15.1501V13.1858H16.1561V14.2086Z" fill="#21201E"/>
<path d="M17.162 14.2086H16.1561V13.1858H17.162V14.2086Z" fill="#FCE002"/>
<path d="M18.1802 14.2086H17.162V13.1858H18.1802V14.2086Z" fill="#FCE002"/>
<path d="M19.186 14.2086H18.1801V13.1858H19.186V14.2086Z" fill="#FCE002"/>
<path d="M20.1918 14.2086H19.1859V13.1858H20.1918V14.2086Z" fill="#FFF9C6"/>
<path d="M1.00592 15.2195H0V14.209H1.00592V15.2195Z" fill="#21201E"/>
<path d="M2.0119 15.2195H1.00598V14.209H2.0119V15.2195Z" fill="#21201E"/>
<path d="M3.03003 15.2195H2.01184V14.209H3.03003V15.2195Z" fill="#21201E"/>
<path d="M4.03595 15.2195H3.03003V14.209H4.03595V15.2195Z" fill="#21201E"/>
<path d="M5.04193 15.2195H4.03601V14.209H5.04193V15.2195Z" fill="#21201E"/>
<path d="M6.06006 15.2195H5.04187V14.209H6.06006V15.2195Z" fill="#21201E"/>
<path d="M7.06586 15.2195H6.05994V14.209H7.06586V15.2195Z" fill="#21201E"/>
<path d="M8.07171 15.2195H7.0658V14.209H8.07171V15.2195Z" fill="#21201E"/>
<path d="M9.09009 15.2195H8.0719V14.209H9.09009V15.2195Z" fill="#21201E"/>
<path d="M10.0959 15.2195H9.08997V14.209H10.0959V15.2195Z" fill="#21201E"/>
<path d="M11.1019 15.2195H10.0959V14.209H11.1019V15.2195Z" fill="#21201E"/>
<path d="M12.1202 15.2195H11.1021V14.209H12.1202V15.2195Z" fill="#21201E"/>
<path d="M13.1259 15.2195H12.12V14.209H13.1259V15.2195Z" fill="#21201E"/>
<path d="M14.1319 15.2195H13.126V14.209H14.1319V15.2195Z" fill="#21201E"/>
<path d="M15.1501 15.2195H14.132V14.209H15.1501V15.2195Z" fill="#21201E"/>
<path d="M16.1561 15.2195H15.1501V14.209H16.1561V15.2195Z" fill="#21201E"/>
<path d="M17.162 15.2195H16.1561V14.209H17.162V15.2195Z" fill="#FCE002"/>
<path d="M18.1802 15.2195H17.162V14.209H18.1802V15.2195Z" fill="#FCE002"/>
<path d="M19.186 15.2195H18.1801V14.209H19.186V15.2195Z" fill="#FFF9C6"/>
<path d="M20.1918 15.2195H19.1859V14.209H20.1918V15.2195Z" fill="#FFF9C6"/>
<path d="M1.00592 16.23H0V15.2195H1.00592V16.23Z" fill="#21201E"/>
<path d="M2.0119 16.23H1.00598V15.2195H2.0119V16.23Z" fill="#21201E"/>
<path d="M3.03003 16.23H2.01184V15.2195H3.03003V16.23Z" fill="#FFF394"/>
<path d="M4.03595 16.23H3.03003V15.2195H4.03595V16.23Z" fill="#FFF394"/>
<path d="M5.04193 16.23H4.03601V15.2195H5.04193V16.23Z" fill="#FFF394"/>
<path d="M6.06006 16.23H5.04187V15.2195H6.06006V16.23Z" fill="#FFF394"/>
<path d="M7.06586 16.23H6.05994V15.2195H7.06586V16.23Z" fill="#FFF394"/>
<path d="M8.07171 16.23H7.0658V15.2195H8.07171V16.23Z" fill="#FFF394"/>
<path d="M9.09009 16.23H8.0719V15.2195H9.09009V16.23Z" fill="#FFF394"/>
<path d="M10.0959 16.23H9.08997V15.2195H10.0959V16.23Z" fill="#FFF394"/>
<path d="M11.1019 16.23H10.0959V15.2195H11.1019V16.23Z" fill="#FFF394"/>
<path d="M12.1202 16.23H11.1021V15.2195H12.1202V16.23Z" fill="#FFF394"/>
<path d="M13.1259 16.23H12.12V15.2195H13.1259V16.23Z" fill="#FFF394"/>
<path d="M14.1319 16.23H13.126V15.2195H14.1319V16.23Z" fill="#FFF394"/>
<path d="M15.1501 16.23H14.132V15.2195H15.1501V16.23Z" fill="#FFF394"/>
<path d="M16.1561 16.23H15.1501V15.2195H16.1561V16.23Z" fill="#FFF394"/>
<path d="M17.162 16.23H16.1561V15.2195H17.162V16.23Z" fill="#FFF394"/>
<path d="M18.1802 16.23H17.162V15.2195H18.1802V16.23Z" fill="#FCE002"/>
<path d="M19.186 16.23H18.1801V15.2195H19.186V16.23Z" fill="#FFF9C6"/>
<path d="M20.1918 16.23H19.1859V15.2195H20.1918V16.23Z" fill="#FFF9C6"/>
<path d="M2.0119 17.2531H1.00598V16.2302H2.0119V17.2531Z" fill="#21201E"/>
<path d="M3.03003 17.2531H2.01184V16.2302H3.03003V17.2531Z" fill="#21201E"/>
<path d="M4.03595 17.2531H3.03003V16.2302H4.03595V17.2531Z" fill="#FCE002"/>
<path d="M5.04193 17.2531H4.03601V16.2302H5.04193V17.2531Z" fill="#FCE002"/>
<path d="M6.06006 17.2531H5.04187V16.2302H6.06006V17.2531Z" fill="#FCE002"/>
<path d="M7.06586 17.2531H6.05994V16.2302H7.06586V17.2531Z" fill="#FFF394"/>
<path d="M8.07171 17.2531H7.0658V16.2302H8.07171V17.2531Z" fill="#FFF394"/>
<path d="M9.09009 17.2531H8.0719V16.2302H9.09009V17.2531Z" fill="#FFF394"/>
<path d="M10.0959 17.2531H9.08997V16.2302H10.0959V17.2531Z" fill="#FFF394"/>
<path d="M11.1019 17.2531H10.0959V16.2302H11.1019V17.2531Z" fill="#FFF394"/>
<path d="M12.1202 17.2531H11.1021V16.2302H12.1202V17.2531Z" fill="#FFF394"/>
<path d="M13.1259 17.2531H12.12V16.2302H13.1259V17.2531Z" fill="#FFF394"/>
<path d="M14.1319 17.2531H13.126V16.2302H14.1319V17.2531Z" fill="#FFF394"/>
<path d="M15.1501 17.2531H14.132V16.2302H15.1501V17.2531Z" fill="#FFF394"/>
<path d="M16.1561 17.2531H15.1501V16.2302H16.1561V17.2531Z" fill="#FFF394"/>
<path d="M17.162 17.2531H16.1561V16.2302H17.162V17.2531Z" fill="#FFF394"/>
<path d="M18.1802 17.2531H17.162V16.2302H18.1802V17.2531Z" fill="#FFF394"/>
<path d="M19.186 17.2531H18.1801V16.2302H19.186V17.2531Z" fill="#FFF9C6"/>
<path d="M20.1918 17.2531H19.1859V16.2302H20.1918V17.2531Z" fill="#FFF9C6"/>
<path d="M3.03003 18.2635H2.01184V17.2529H3.03003V18.2635Z" fill="#21201E"/>
<path d="M4.03595 18.2635H3.03003V17.2529H4.03595V18.2635Z" fill="#21201E"/>
<path d="M5.04193 18.2635H4.03601V17.2529H5.04193V18.2635Z" fill="#21201E"/>
<path d="M6.06006 18.2635H5.04187V17.2529H6.06006V18.2635Z" fill="#FCE002"/>
<path d="M7.06586 18.2635H6.05994V17.2529H7.06586V18.2635Z" fill="#FCE002"/>
<path d="M8.07171 18.2635H7.0658V17.2529H8.07171V18.2635Z" fill="#FCE002"/>
<path d="M9.09009 18.2635H8.0719V17.2529H9.09009V18.2635Z" fill="#FCE002"/>
<path d="M10.0959 18.2635H9.08997V17.2529H10.0959V18.2635Z" fill="#FFF394"/>
<path d="M11.1019 18.2635H10.0959V17.2529H11.1019V18.2635Z" fill="#FFF394"/>
<path d="M12.1202 18.2635H11.1021V17.2529H12.1202V18.2635Z" fill="#FFF394"/>
<path d="M13.1259 18.2635H12.12V17.2529H13.1259V18.2635Z" fill="#FFF394"/>
<path d="M14.1319 18.2635H13.126V17.2529H14.1319V18.2635Z" fill="#FFF394"/>
<path d="M15.1501 18.2635H14.132V17.2529H15.1501V18.2635Z" fill="#FFF394"/>
<path d="M16.1561 18.2635H15.1501V17.2529H16.1561V18.2635Z" fill="#FFF394"/>
<path d="M17.162 18.2635H16.1561V17.2529H17.162V18.2635Z" fill="#FFF394"/>
<path d="M18.1802 18.2635H17.162V17.2529H18.1802V18.2635Z" fill="#FFF9C6"/>
<path d="M19.186 18.2635H18.1801V17.2529H19.186V18.2635Z" fill="#FFF9C6"/>
<path d="M20.1918 18.2635H19.1859V17.2529H20.1918V18.2635Z" fill="#FFF9C6"/>
<path d="M4.03595 19.2737H3.03003V18.2632H4.03595V19.2737Z" fill="#21201E"/>
<path d="M5.04193 19.2737H4.03601V18.2632H5.04193V19.2737Z" fill="#21201E"/>
<path d="M6.06006 19.2737H5.04187V18.2632H6.06006V19.2737Z" fill="#21201E"/>
<path d="M7.06586 19.2737H6.05994V18.2632H7.06586V19.2737Z" fill="#FCE002"/>
<path d="M8.07171 19.2737H7.0658V18.2632H8.07171V19.2737Z" fill="#FCE002"/>
<path d="M9.09009 19.2737H8.0719V18.2632H9.09009V19.2737Z" fill="#FCE002"/>
<path d="M10.0959 19.2737H9.08997V18.2632H10.0959V19.2737Z" fill="#FCE002"/>
<path d="M11.1019 19.2737H10.0959V18.2632H11.1019V19.2737Z" fill="#FCE002"/>
<path d="M12.1202 19.2737H11.1021V18.2632H12.1202V19.2737Z" fill="#FFF9C6"/>
<path d="M13.1259 19.2737H12.12V18.2632H13.1259V19.2737Z" fill="#FFF9C6"/>
<path d="M14.1319 19.2737H13.126V18.2632H14.1319V19.2737Z" fill="#FFF9C6"/>
<path d="M15.1501 19.2737H14.132V18.2632H15.1501V19.2737Z" fill="#FFF9C6"/>
<path d="M16.1561 19.2737H15.1501V18.2632H16.1561V19.2737Z" fill="#FFF9C6"/>
<path d="M17.162 19.2737H16.1561V18.2632H17.162V19.2737Z" fill="#FFF9C6"/>
<path d="M18.1802 19.2737H17.162V18.2632H18.1802V19.2737Z" fill="#FFF9C6"/>
<path d="M19.186 19.2737H18.1801V18.2632H19.186V19.2737Z" fill="#FFF9C6"/>
<path d="M20.1918 19.2737H19.1859V18.2632H20.1918V19.2737Z" fill="#FFF9C6"/>
<path d="M6.06006 20.2965H5.04187V19.2737H6.06006V20.2965Z" fill="#21201E"/>
<path d="M7.06586 20.2965H6.05994V19.2737H7.06586V20.2965Z" fill="#21201E"/>
<path d="M8.07171 20.2965H7.0658V19.2737H8.07171V20.2965Z" fill="#FCE002"/>
<path d="M9.09009 20.2965H8.0719V19.2737H9.09009V20.2965Z" fill="#FCE002"/>
<path d="M10.0959 20.2965H9.08997V19.2737H10.0959V20.2965Z" fill="#FCE002"/>
<path d="M11.1019 20.2965H10.0959V19.2737H11.1019V20.2965Z" fill="#FCE002"/>
<path d="M12.1202 20.2965H11.1021V19.2737H12.1202V20.2965Z" fill="#FCE002"/>
<path d="M13.1259 20.2965H12.12V19.2737H13.1259V20.2965Z" fill="#FFF9C6"/>
<path d="M14.1319 20.2965H13.126V19.2737H14.1319V20.2965Z" fill="#FFF9C6"/>
<path d="M15.1501 20.2965H14.132V19.2737H15.1501V20.2965Z" fill="#FFF9C6"/>
<path d="M16.1561 20.2965H15.1501V19.2737H16.1561V20.2965Z" fill="#FFF9C6"/>
<path d="M17.162 20.2965H16.1561V19.2737H17.162V20.2965Z" fill="#FFF9C6"/>
<path d="M18.1802 20.2965H17.162V19.2737H18.1802V20.2965Z" fill="#FFF9C6"/>
<path d="M19.186 20.2965H18.1801V19.2737H19.186V20.2965Z" fill="#FFF9C6"/>
<path d="M20.1918 20.2965H19.1859V19.2737H20.1918V20.2965Z" fill="#FFF9C6"/>
<path d="M7.06586 21.3074H6.05994V20.2969H7.06586V21.3074Z" fill="#21201E"/>
<path d="M8.07171 21.3074H7.0658V20.2969H8.07171V21.3074Z" fill="#21201E"/>
<path d="M9.09009 21.3074H8.0719V20.2969H9.09009V21.3074Z" fill="#FCE002"/>
<path d="M10.0959 21.3074H9.08997V20.2969H10.0959V21.3074Z" fill="#FCE002"/>
<path d="M11.1019 21.3074H10.0959V20.2969H11.1019V21.3074Z" fill="#FCE002"/>
<path d="M12.1202 21.3074H11.1021V20.2969H12.1202V21.3074Z" fill="#FCE002"/>
<path d="M13.1259 21.3074H12.12V20.2969H13.1259V21.3074Z" fill="#FCE002"/>
<path d="M14.1319 21.3074H13.126V20.2969H14.1319V21.3074Z" fill="#FFF9C6"/>
<path d="M15.1501 21.3074H14.132V20.2969H15.1501V21.3074Z" fill="#FFF9C6"/>
<path d="M16.1561 21.3074H15.1501V20.2969H16.1561V21.3074Z" fill="#FFF9C6"/>
<path d="M17.162 21.3074H16.1561V20.2969H17.162V21.3074Z" fill="#FFF9C6"/>
<path d="M18.1802 21.3074H17.162V20.2969H18.1802V21.3074Z" fill="#FFF9C6"/>
<path d="M19.186 21.3074H18.1801V20.2969H19.186V21.3074Z" fill="#FFF9C6"/>
<path d="M20.1918 21.3074H19.1859V20.2969H20.1918V21.3074Z" fill="#FFF9C6"/>
<path d="M8.07171 22.3181H7.0658V21.3076H8.07171V22.3181Z" fill="#21201E"/>
<path d="M9.09009 22.3181H8.0719V21.3076H9.09009V22.3181Z" fill="#21201E"/>
<path d="M10.0959 22.3181H9.08997V21.3076H10.0959V22.3181Z" fill="#21201E"/>
<path d="M11.1019 22.3181H10.0959V21.3076H11.1019V22.3181Z" fill="#FCE002"/>
<path d="M12.1202 22.3181H11.1021V21.3076H12.1202V22.3181Z" fill="#FCE002"/>
<path d="M13.1259 22.3181H12.12V21.3076H13.1259V22.3181Z" fill="#FCE002"/>
<path d="M14.1319 22.3181H13.126V21.3076H14.1319V22.3181Z" fill="#FCE002"/>
<path d="M15.1501 22.3181H14.132V21.3076H15.1501V22.3181Z" fill="#FFF9C6"/>
<path d="M16.1561 22.3181H15.1501V21.3076H16.1561V22.3181Z" fill="#FFF9C6"/>
<path d="M17.162 22.3181H16.1561V21.3076H17.162V22.3181Z" fill="#FFF9C6"/>
<path d="M18.1802 22.3181H17.162V21.3076H18.1802V22.3181Z" fill="#FFF9C6"/>
<path d="M19.186 22.3181H18.1801V21.3076H19.186V22.3181Z" fill="#FFF9C6"/>
<path d="M20.1918 22.3181H19.1859V21.3076H20.1918V22.3181Z" fill="#FFF9C6"/>
<path d="M10.0959 23.3405H9.08997V22.3176H10.0959V23.3405Z" fill="#21201E"/>
<path d="M11.1019 23.3405H10.0959V22.3176H11.1019V23.3405Z" fill="#21201E"/>
<path d="M12.1202 23.3405H11.1021V22.3176H12.1202V23.3405Z" fill="#FCE002"/>
<path d="M13.1259 23.3405H12.12V22.3176H13.1259V23.3405Z" fill="#FCE002"/>
<path d="M14.1319 23.3405H13.126V22.3176H14.1319V23.3405Z" fill="#FCE002"/>
<path d="M15.1501 23.3405H14.132V22.3176H15.1501V23.3405Z" fill="#FCE002"/>
<path d="M16.1561 23.3405H15.1501V22.3176H16.1561V23.3405Z" fill="#FFF394"/>
<path d="M17.162 23.3405H16.1561V22.3176H17.162V23.3405Z" fill="#FFF9C6"/>
<path d="M18.1802 23.3405H17.162V22.3176H18.1802V23.3405Z" fill="#FFF9C6"/>
<path d="M19.186 23.3405H18.1801V22.3176H19.186V23.3405Z" fill="#FFF9C6"/>
<path d="M20.1918 23.3405H19.1859V22.3176H20.1918V23.3405Z" fill="#FFF9C6"/>
<path d="M11.1019 24.3511H10.0959V23.3406H11.1019V24.3511Z" fill="#21201E"/>
<path d="M12.1202 24.3511H11.1021V23.3406H12.1202V24.3511Z" fill="#21201E"/>
<path d="M13.1259 24.3511H12.12V23.3406H13.1259V24.3511Z" fill="#FCE002"/>
<path d="M14.1319 24.3511H13.126V23.3406H14.1319V24.3511Z" fill="#FCE002"/>
<path d="M15.1501 24.3511H14.132V23.3406H15.1501V24.3511Z" fill="#FCE002"/>
<path d="M16.1561 24.3511H15.1501V23.3406H16.1561V24.3511Z" fill="#FFF394"/>
<path d="M17.162 24.3511H16.1561V23.3406H17.162V24.3511Z" fill="#FFF9C6"/>
<path d="M18.1802 24.3511H17.162V23.3406H18.1802V24.3511Z" fill="#FFF9C6"/>
<path d="M19.186 24.3511H18.1801V23.3406H19.186V24.3511Z" fill="#FFF9C6"/>
<path d="M20.1918 24.3511H19.1859V23.3406H20.1918V24.3511Z" fill="#FFF9C6"/>
<path d="M12.1202 25.3616H11.1021V24.3511H12.1202V25.3616Z" fill="#21201E"/>
<path d="M13.1259 25.3616H12.12V24.3511H13.1259V25.3616Z" fill="#21201E"/>
<path d="M14.1319 25.3616H13.126V24.3511H14.1319V25.3616Z" fill="#FCE002"/>
<path d="M15.1501 25.3616H14.132V24.3511H15.1501V25.3616Z" fill="#FFF394"/>
<path d="M16.1561 25.3616H15.1501V24.3511H16.1561V25.3616Z" fill="#FFF9C6"/>
<path d="M17.162 25.3616H16.1561V24.3511H17.162V25.3616Z" fill="#FFF9C6"/>
<path d="M18.1802 25.3616H17.162V24.3511H18.1802V25.3616Z" fill="#FFF9C6"/>
<path d="M19.186 25.3616H18.1801V24.3511H19.186V25.3616Z" fill="#FFF9C6"/>
<path d="M20.1918 25.3616H19.1859V24.3511H20.1918V25.3616Z" fill="#FFF9C6"/>
<path d="M12.1202 26.3842H11.1021V25.3613H12.1202V26.3842Z" fill="#21201E"/>
<path d="M13.1259 26.3842H12.12V25.3613H13.1259V26.3842Z" fill="#FFF394"/>
<path d="M14.1319 26.3842H13.126V25.3613H14.1319V26.3842Z" fill="#FFF394"/>
<path d="M15.1501 26.3842H14.132V25.3613H15.1501V26.3842Z" fill="#FFF394"/>
<path d="M16.1561 26.3842H15.1501V25.3613H16.1561V26.3842Z" fill="#FFF9C6"/>
<path d="M17.162 26.3842H16.1561V25.3613H17.162V26.3842Z" fill="#FFF9C6"/>
<path d="M18.1802 26.3842H17.162V25.3613H18.1802V26.3842Z" fill="#FFF9C6"/>
<path d="M19.186 26.3842H18.1801V25.3613H19.186V26.3842Z" fill="#FFF9C6"/>
<path d="M20.1918 26.3842H19.1859V25.3613H20.1918V26.3842Z" fill="#FFF9C6"/>
<path d="M11.1019 27.395H10.0959V26.3845H11.1019V27.395Z" fill="#21201E"/>
<path d="M12.1202 27.395H11.1021V26.3845H12.1202V27.395Z" fill="#21201E"/>
<path d="M13.1259 27.395H12.12V26.3845H13.1259V27.395Z" fill="#FFF394"/>
<path d="M14.1319 27.395H13.126V26.3845H14.1319V27.395Z" fill="#FFF394"/>
<path d="M15.1501 27.395H14.132V26.3845H15.1501V27.395Z" fill="#FFF394"/>
<path d="M16.1561 27.395H15.1501V26.3845H16.1561V27.395Z" fill="#FFF9C6"/>
<path d="M17.1497 27.395H16.1315V26.3845H17.1497V27.395Z" fill="#FFF9C6"/>
<path d="M18.1801 27.395H17.1497V26.3845H18.1801V27.395Z" fill="#FFF9C6"/>
<path d="M19.186 27.395H18.1801V26.3845H19.186V27.395Z" fill="#FFF9C6"/>
<path d="M20.1918 27.395H19.1859V26.3845H20.1918V27.395Z" fill="#FCE002"/>
<path d="M11.1019 28.4055H10.0959V27.395H11.1019V28.4055Z" fill="#21201E"/>
<path d="M12.1202 28.4055H11.1021V27.395H12.1202V28.4055Z" fill="#FFF394"/>
<path d="M13.1259 28.4055H12.12V27.395H13.1259V28.4055Z" fill="#FFF394"/>
<path d="M14.1319 28.4055H13.126V27.395H14.1319V28.4055Z" fill="#FFF394"/>
<path d="M15.1501 28.4055H14.132V27.395H15.1501V28.4055Z" fill="#FFF9C6"/>
<path d="M16.1561 28.4055H15.1501V27.395H16.1561V28.4055Z" fill="#FFF9C6"/>
<path d="M17.1497 28.4055H16.1315V27.395H17.1497V28.4055Z" fill="#FFF9C6"/>
<path d="M18.1801 28.4055H17.1497V27.395H18.1801V28.4055Z" fill="#FCE002"/>
<path d="M19.186 28.4055H18.1801V27.395H19.186V28.4055Z" fill="#FCE002"/>
<path d="M20.1918 28.4055H19.1859V27.395H20.1918V28.4055Z" fill="#FCE002"/>
<path d="M11.1019 29.4286H10.0959V28.4058H11.1019V29.4286Z" fill="#21201E"/>
<path d="M12.1202 29.4286H11.1021V28.4058H12.1202V29.4286Z" fill="#FFF394"/>
<path d="M13.1259 29.4286H12.12V28.4058H13.1259V29.4286Z" fill="#FFF394"/>
<path d="M14.1319 29.4286H13.126V28.4058H14.1319V29.4286Z" fill="#FFF394"/>
<path d="M15.1501 29.4286H14.132V28.4058H15.1501V29.4286Z" fill="#FFF9C6"/>
<path d="M16.1561 29.4286H15.1501V28.4058H16.1561V29.4286Z" fill="#FFF9C6"/>
<path d="M17.1497 29.4286H16.1315V28.4058H17.1497V29.4286Z" fill="#FCE002"/>
<path d="M18.1801 29.4286H17.1497V28.4058H18.1801V29.4286Z" fill="#FCE002"/>
<path d="M19.186 29.4286H18.1801V28.4058H19.186V29.4286Z" fill="#FCE002"/>
<path d="M20.1918 29.4286H19.1859V28.4058H20.1918V29.4286Z" fill="#FCE002"/>
<path d="M10.0959 30.4387H9.08997V29.4282H10.0959V30.4387Z" fill="#21201E"/>
<path d="M11.1019 30.4387H10.0959V29.4282H11.1019V30.4387Z" fill="#21201E"/>
<path d="M12.1202 30.4387H11.1021V29.4282H12.1202V30.4387Z" fill="#FFF394"/>
<path d="M13.1259 30.4387H12.12V29.4282H13.1259V30.4387Z" fill="#FFF394"/>
<path d="M14.1319 30.4387H13.126V29.4282H14.1319V30.4387Z" fill="#FFF394"/>
<path d="M15.1501 30.4387H14.132V29.4282H15.1501V30.4387Z" fill="#FFF9C6"/>
<path d="M16.1314 30.4387H15.1255V29.4282H16.1314V30.4387Z" fill="#FCE002"/>
<path d="M17.1497 30.4387H16.1315V29.4282H17.1497V30.4387Z" fill="#FCE002"/>
<path d="M18.1801 30.4387H17.1497V29.4282H18.1801V30.4387Z" fill="#FCE002"/>
<path d="M19.186 30.4387H18.1801V29.4282H19.186V30.4387Z" fill="#FCE002"/>
<path d="M20.1918 30.4387H19.1859V29.4282H20.1918V30.4387Z" fill="#21201E"/>
<path d="M10.0959 31.4495H9.08997V30.439H10.0959V31.4495Z" fill="#21201E"/>
<path d="M11.1019 31.4495H10.0959V30.439H11.1019V31.4495Z" fill="#21201E"/>
<path d="M12.1202 31.4495H11.1021V30.439H12.1202V31.4495Z" fill="#FFF394"/>
<path d="M13.1259 31.4495H12.12V30.439H13.1259V31.4495Z" fill="#FFF394"/>
<path d="M14.1196 31.4495H13.1014V30.439H14.1196V31.4495Z" fill="#FFF394"/>
<path d="M15.1255 31.4495H14.1196V30.439H15.1255V31.4495Z" fill="#FCE002"/>
<path d="M16.1314 31.4495H15.1255V30.439H16.1314V31.4495Z" fill="#FCE002"/>
<path d="M17.1497 31.4495H16.1315V30.439H17.1497V31.4495Z" fill="#FCE002"/>
<path d="M18.1801 31.4495H17.1497V30.439H18.1801V31.4495Z" fill="#FCE002"/>
<path d="M19.186 31.4495H18.1801V30.439H19.186V31.4495Z" fill="#21201E"/>
<path d="M20.1918 31.4495H19.1859V30.439H20.1918V31.4495Z" fill="#21201E"/>
<path d="M10.0959 32.4723H9.08997V31.4495H10.0959V32.4723Z" fill="#21201E"/>
<path d="M11.1019 32.4723H10.0959V31.4495H11.1019V32.4723Z" fill="#FFF394"/>
<path d="M12.1202 32.4723H11.1021V31.4495H12.1202V32.4723Z" fill="#FFF394"/>
<path d="M13.1259 32.4723H12.12V31.4495H13.1259V32.4723Z" fill="#FFF394"/>
<path d="M14.1196 32.4723H13.1014V31.4495H14.1196V32.4723Z" fill="#FCE002"/>
<path d="M15.1255 32.4723H14.1196V31.4495H15.1255V32.4723Z" fill="#FCE002"/>
<path d="M16.1314 32.4723H15.1255V31.4495H16.1314V32.4723Z" fill="#FCE002"/>
<path d="M17.1497 32.4723H16.1315V31.4495H17.1497V32.4723Z" fill="#21201E"/>
<path d="M18.1801 32.4723H17.1497V31.4495H18.1801V32.4723Z" fill="#21201E"/>
<path d="M19.186 32.4723H18.1801V31.4495H19.186V32.4723Z" fill="#21201E"/>
<path d="M9.09009 33.4827H8.0719V32.4722H9.09009V33.4827Z" fill="#21201E"/>
<path d="M10.0959 33.4827H9.08997V32.4722H10.0959V33.4827Z" fill="#21201E"/>
<path d="M11.1019 33.4827H10.0959V32.4722H11.1019V33.4827Z" fill="#FFF394"/>
<path d="M12.1202 33.4827H11.1021V32.4722H12.1202V33.4827Z" fill="#FFF394"/>
<path d="M13.1259 33.4827H12.12V32.4722H13.1259V33.4827Z" fill="#FCE002"/>
<path d="M14.1319 33.4827H13.126V32.4722H14.1319V33.4827Z" fill="#FCE002"/>
<path d="M15.1255 33.4827H14.1196V32.4722H15.1255V33.4827Z" fill="#FCE002"/>
<path d="M16.1314 33.4827H15.1255V32.4722H16.1314V33.4827Z" fill="#21201E"/>
<path d="M17.1497 33.4827H16.1315V32.4722H17.1497V33.4827Z" fill="#21201E"/>
<path d="M9.09009 34.4934H8.0719V33.4829H9.09009V34.4934Z" fill="#21201E"/>
<path d="M10.0959 34.4934H9.08997V33.4829H10.0959V34.4934Z" fill="#FFF394"/>
<path d="M11.1019 34.4934H10.0959V33.4829H11.1019V34.4934Z" fill="#FFF394"/>
<path d="M12.1202 34.4934H11.1021V33.4829H12.1202V34.4934Z" fill="#FCE002"/>
<path d="M13.1259 34.4934H12.12V33.4829H13.1259V34.4934Z" fill="#FCE002"/>
<path d="M14.1319 34.4934H13.126V33.4829H14.1319V34.4934Z" fill="#21201E"/>
<path d="M15.1255 34.4934H14.1196V33.4829H15.1255V34.4934Z" fill="#21201E"/>
<path d="M16.1314 34.4934H15.1255V33.4829H16.1314V34.4934Z" fill="#21201E"/>
<path d="M9.09009 35.516H8.0719V34.4932H9.09009V35.516Z" fill="#21201E"/>
<path d="M10.0959 35.516H9.08997V34.4932H10.0959V35.516Z" fill="#FFF394"/>
<path d="M11.1019 35.516H10.0959V34.4932H11.1019V35.516Z" fill="#FCE002"/>
<path d="M12.1202 35.516H11.1021V34.4932H12.1202V35.516Z" fill="#FCE002"/>
<path d="M13.1259 35.516H12.12V34.4932H13.1259V35.516Z" fill="#21201E"/>
<path d="M14.1196 35.516H13.1014V34.4932H14.1196V35.516Z" fill="#21201E"/>
<path d="M8.07171 36.5266H7.0658V35.5161H8.07171V36.5266Z" fill="#21201E"/>
<path d="M9.09009 36.5266H8.0719V35.5161H9.09009V36.5266Z" fill="#21201E"/>
<path d="M10.0959 36.5266H9.08997V35.5161H10.0959V36.5266Z" fill="#FCE002"/>
<path d="M11.1019 36.5266H10.0959V35.5161H11.1019V36.5266Z" fill="#FCE002"/>
<path d="M12.1202 36.5266H11.1021V35.5161H12.1202V36.5266Z" fill="#21201E"/>
<path d="M13.1259 36.5266H12.12V35.5161H13.1259V36.5266Z" fill="#21201E"/>
<path d="M8.07171 37.5371H7.0658V36.5266H8.07171V37.5371Z" fill="#21201E"/>
<path d="M9.09009 37.5371H8.0719V36.5266H9.09009V37.5371Z" fill="#FCE002"/>
<path d="M10.0959 37.5371H9.08997V36.5266H10.0959V37.5371Z" fill="#21201E"/>
<path d="M11.1019 37.5371H10.0959V36.5266H11.1019V37.5371Z" fill="#21201E"/>
<path d="M12.1202 37.5371H11.1021V36.5266H12.1202V37.5371Z" fill="#21201E"/>
<path d="M8.07171 38.56H7.0658V37.5371H8.07171V38.56Z" fill="#21201E"/>
<path d="M9.09009 38.56H8.0719V37.5371H9.09009V38.56Z" fill="#21201E"/>
<path d="M10.0959 38.56H9.08997V37.5371H10.0959V38.56Z" fill="#21201E"/>
<path d="M20.1919 1.02285H21.2101V0H20.1919V1.02285Z" fill="#21201E"/>
<path d="M21.2102 2.03346H22.2161V1.02295H21.2102V2.03346Z" fill="#21201E"/>
<path d="M20.1919 2.03346H21.2101V1.02295H20.1919V2.03346Z" fill="#21201E"/>
<path d="M21.2102 3.04373H22.2161V2.0332H21.2102V3.04373Z" fill="#21201E"/>
<path d="M20.1919 3.04373H21.2101V2.0332H20.1919V3.04373Z" fill="#FFF394"/>
<path d="M21.2102 4.06679H22.2161V3.04395H21.2102V4.06679Z" fill="#21201E"/>
<path d="M20.1919 4.06679H21.2101V3.04395H20.1919V4.06679Z" fill="#FFF394"/>
<path d="M22.2161 5.07742H23.222V4.06689H22.2161V5.07742Z" fill="#21201E"/>
<path d="M21.2102 5.07742H22.2161V4.06689H21.2102V5.07742Z" fill="#21201E"/>
<path d="M20.1919 5.07742H21.2101V4.06689H20.1919V5.07742Z" fill="#FFF394"/>
<path d="M22.2161 6.08791H23.222V5.07739H22.2161V6.08791Z" fill="#21201E"/>
<path d="M21.2102 6.08791H22.2161V5.07739H21.2102V6.08791Z" fill="#FFF394"/>
<path d="M20.1919 6.08791H21.2101V5.07739H20.1919V6.08791Z" fill="#FFF394"/>
<path d="M22.2161 7.09817H23.222V6.08765H22.2161V7.09817Z" fill="#21201E"/>
<path d="M21.2102 7.09817H22.2161V6.08765H21.2102V7.09817Z" fill="#FFF394"/>
<path d="M20.1919 7.09817H21.2101V6.08765H20.1919V7.09817Z" fill="#FFF394"/>
<path d="M23.2219 8.12123H24.2401V7.09839H23.2219V8.12123Z" fill="#21201E"/>
<path d="M22.2161 8.12123H23.222V7.09839H22.2161V8.12123Z" fill="#21201E"/>
<path d="M21.2102 8.12123H22.2161V7.09839H21.2102V8.12123Z" fill="#FFF394"/>
<path d="M20.1919 8.12123H21.2101V7.09839H20.1919V8.12123Z" fill="#FFF394"/>
<path d="M23.2219 9.13186H24.2401V8.12134H23.2219V9.13186Z" fill="#21201E"/>
<path d="M22.2161 9.13186H23.222V8.12134H22.2161V9.13186Z" fill="#FFF394"/>
<path d="M21.2102 9.13186H22.2161V8.12134H21.2102V9.13186Z" fill="#FFF394"/>
<path d="M20.1919 9.13186H21.2101V8.12134H20.1919V9.13186Z" fill="#FFF394"/>
<path d="M23.2219 10.1421H24.2401V9.13159H23.2219V10.1421Z" fill="#21201E"/>
<path d="M22.2161 10.1421H23.222V9.13159H22.2161V10.1421Z" fill="#FFF394"/>
<path d="M21.2102 10.1421H22.2161V9.13159H21.2102V10.1421Z" fill="#FFF394"/>
<path d="M20.1919 10.1421H21.2101V9.13159H20.1919V10.1421Z" fill="#FFF394"/>
<path d="M24.2402 11.1652H25.2462V10.1423H24.2402V11.1652Z" fill="#21201E"/>
<path d="M23.2219 11.1652H24.2401V10.1423H23.2219V11.1652Z" fill="#21201E"/>
<path d="M22.2161 11.1652H23.222V10.1423H22.2161V11.1652Z" fill="#FFF394"/>
<path d="M21.2102 11.1652H22.2161V10.1423H21.2102V11.1652Z" fill="#FFF394"/>
<path d="M20.1919 11.1652H21.2101V10.1423H20.1919V11.1652Z" fill="#FFF394"/>
<path d="M24.2402 12.1756H25.2462V11.165H24.2402V12.1756Z" fill="#21201E"/>
<path d="M23.2219 12.1756H24.2401V11.165H23.2219V12.1756Z" fill="#FFF394"/>
<path d="M22.2161 12.1756H23.222V11.165H22.2161V12.1756Z" fill="#FFF394"/>
<path d="M21.2102 12.1756H22.2161V11.165H21.2102V12.1756Z" fill="#FFF394"/>
<path d="M20.1919 12.1756H21.2101V11.165H20.1919V12.1756Z" fill="#FFF9C6"/>
<path d="M24.2402 13.1861H25.2462V12.1755H24.2402V13.1861Z" fill="#21201E"/>
<path d="M23.2219 13.1861H24.2401V12.1755H23.2219V13.1861Z" fill="#FFF394"/>
<path d="M22.2161 13.1861H23.222V12.1755H22.2161V13.1861Z" fill="#FFF394"/>
<path d="M21.2102 13.1861H22.2161V12.1755H21.2102V13.1861Z" fill="#FFF394"/>
<path d="M20.1919 13.1861H21.2101V12.1755H20.1919V13.1861Z" fill="#FFF9C6"/>
<path d="M24.2402 14.2086H25.2462V13.1858H24.2402V14.2086Z" fill="#21201E"/>
<path d="M23.2219 14.2086H24.2401V13.1858H23.2219V14.2086Z" fill="#FFF394"/>
<path d="M22.2161 14.2086H23.222V13.1858H22.2161V14.2086Z" fill="#FFF394"/>
<path d="M21.2102 14.2086H22.2161V13.1858H21.2102V14.2086Z" fill="#FFF394"/>
<path d="M20.1919 14.2086H21.2101V13.1858H20.1919V14.2086Z" fill="#FFF9C6"/>
<path d="M39.3904 15.2195H40.3963V14.209H39.3904V15.2195Z" fill="#21201E"/>
<path d="M38.3721 15.2195H39.3903V14.209H38.3721V15.2195Z" fill="#21201E"/>
<path d="M37.3662 15.2195H38.3721V14.209H37.3662V15.2195Z" fill="#21201E"/>
<path d="M36.3602 15.2195H37.3662V14.209H36.3602V15.2195Z" fill="#21201E"/>
<path d="M35.342 15.2195H36.3602V14.209H35.342V15.2195Z" fill="#21201E"/>
<path d="M34.3362 15.2195H35.3421V14.209H34.3362V15.2195Z" fill="#21201E"/>
<path d="M33.3302 15.2195H34.3361V14.209H33.3302V15.2195Z" fill="#21201E"/>
<path d="M32.3121 15.2195H33.3303V14.209H32.3121V15.2195Z" fill="#21201E"/>
<path d="M31.3063 15.2195H32.3122V14.209H31.3063V15.2195Z" fill="#21201E"/>
<path d="M30.3003 15.2195H31.3062V14.209H30.3003V15.2195Z" fill="#21201E"/>
<path d="M29.2821 15.2195H30.3003V14.209H29.2821V15.2195Z" fill="#21201E"/>
<path d="M28.2761 15.2195H29.282V14.209H28.2761V15.2195Z" fill="#21201E"/>
<path d="M27.2701 15.2195H28.2761V14.209H27.2701V15.2195Z" fill="#21201E"/>
<path d="M26.252 15.2195H27.2701V14.209H26.252V15.2195Z" fill="#21201E"/>
<path d="M25.2461 15.2195H26.252V14.209H25.2461V15.2195Z" fill="#21201E"/>
<path d="M24.2402 15.2195H25.2462V14.209H24.2402V15.2195Z" fill="#21201E"/>
<path d="M23.2219 15.2195H24.2401V14.209H23.2219V15.2195Z" fill="#FFF394"/>
<path d="M22.2161 15.2195H23.222V14.209H22.2161V15.2195Z" fill="#FFF394"/>
<path d="M21.2102 15.2195H22.2161V14.209H21.2102V15.2195Z" fill="#FFF9C6"/>
<path d="M20.1919 15.2195H21.2101V14.209H20.1919V15.2195Z" fill="#FFF9C6"/>
<path d="M39.3904 16.23H40.3963V15.2195H39.3904V16.23Z" fill="#21201E"/>
<path d="M38.3721 16.23H39.3903V15.2195H38.3721V16.23Z" fill="#21201E"/>
<path d="M37.3662 16.23H38.3721V15.2195H37.3662V16.23Z" fill="#FFF394"/>
<path d="M36.3602 16.23H37.3662V15.2195H36.3602V16.23Z" fill="#FCE002"/>
<path d="M35.342 16.23H36.3602V15.2195H35.342V16.23Z" fill="#FCE002"/>
<path d="M34.3362 16.23H35.3421V15.2195H34.3362V16.23Z" fill="#FCE002"/>
<path d="M33.3302 16.23H34.3361V15.2195H33.3302V16.23Z" fill="#FCE002"/>
<path d="M32.3121 16.23H33.3303V15.2195H32.3121V16.23Z" fill="#FCE002"/>
<path d="M31.3063 16.23H32.3122V15.2195H31.3063V16.23Z" fill="#FCE002"/>
<path d="M30.3003 16.23H31.3062V15.2195H30.3003V16.23Z" fill="#FCE002"/>
<path d="M29.2821 16.23H30.3003V15.2195H29.2821V16.23Z" fill="#FCE002"/>
<path d="M28.2761 16.23H29.282V15.2195H28.2761V16.23Z" fill="#FCE002"/>
<path d="M27.2701 16.23H28.2761V15.2195H27.2701V16.23Z" fill="#FCE002"/>
<path d="M26.252 16.23H27.2701V15.2195H26.252V16.23Z" fill="#FCE002"/>
<path d="M25.2461 16.23H26.252V15.2195H25.2461V16.23Z" fill="#FCE002"/>
<path d="M24.2402 16.23H25.2462V15.2195H24.2402V16.23Z" fill="#FCE002"/>
<path d="M23.2219 16.23H24.2401V15.2195H23.2219V16.23Z" fill="#FFF394"/>
<path d="M22.2161 16.23H23.222V15.2195H22.2161V16.23Z" fill="#FFF394"/>
<path d="M21.2102 16.23H22.2161V15.2195H21.2102V16.23Z" fill="#FFF9C6"/>
<path d="M20.1919 16.23H21.2101V15.2195H20.1919V16.23Z" fill="#FFF9C6"/>
<path d="M38.3721 17.2531H39.3903V16.2302H38.3721V17.2531Z" fill="#21201E"/>
<path d="M37.3662 17.2531H38.3721V16.2302H37.3662V17.2531Z" fill="#21201E"/>
<path d="M36.3602 17.2531H37.3662V16.2302H36.3602V17.2531Z" fill="#FFF394"/>
<path d="M35.342 17.2531H36.3602V16.2302H35.342V17.2531Z" fill="#FFF394"/>
<path d="M34.3362 17.2531H35.3421V16.2302H34.3362V17.2531Z" fill="#FFF394"/>
<path d="M33.3302 17.2531H34.3361V16.2302H33.3302V17.2531Z" fill="#FCE002"/>
<path d="M32.3121 17.2531H33.3303V16.2302H32.3121V17.2531Z" fill="#FCE002"/>
<path d="M31.3063 17.2531H32.3122V16.2302H31.3063V17.2531Z" fill="#FCE002"/>
<path d="M30.3003 17.2531H31.3062V16.2302H30.3003V17.2531Z" fill="#FCE002"/>
<path d="M29.2821 17.2531H30.3003V16.2302H29.2821V17.2531Z" fill="#FCE002"/>
<path d="M28.2761 17.2531H29.282V16.2302H28.2761V17.2531Z" fill="#FCE002"/>
<path d="M27.2701 17.2531H28.2761V16.2302H27.2701V17.2531Z" fill="#FCE002"/>
<path d="M26.252 17.2531H27.2701V16.2302H26.252V17.2531Z" fill="#FCE002"/>
<path d="M25.2461 17.2531H26.252V16.2302H25.2461V17.2531Z" fill="#FCE002"/>
<path d="M24.2402 17.2531H25.2462V16.2302H24.2402V17.2531Z" fill="#FCE002"/>
<path d="M23.2219 17.2531H24.2401V16.2302H23.2219V17.2531Z" fill="#FCE002"/>
<path d="M22.2161 17.2531H23.222V16.2302H22.2161V17.2531Z" fill="#FFF394"/>
<path d="M21.2102 17.2531H22.2161V16.2302H21.2102V17.2531Z" fill="#FFF9C6"/>
<path d="M20.1919 17.2531H21.2101V16.2302H20.1919V17.2531Z" fill="#FFF9C6"/>
<path d="M37.3662 18.2635H38.3721V17.2529H37.3662V18.2635Z" fill="#21201E"/>
<path d="M36.3602 18.2635H37.3662V17.2529H36.3602V18.2635Z" fill="#21201E"/>
<path d="M35.342 18.2635H36.3602V17.2529H35.342V18.2635Z" fill="#21201E"/>
<path d="M34.3362 18.2635H35.3421V17.2529H34.3362V18.2635Z" fill="#FFF394"/>
<path d="M33.3302 18.2635H34.3361V17.2529H33.3302V18.2635Z" fill="#FFF394"/>
<path d="M32.3121 18.2635H33.3303V17.2529H32.3121V18.2635Z" fill="#FFF394"/>
<path d="M31.3063 18.2635H32.3122V17.2529H31.3063V18.2635Z" fill="#FCE002"/>
<path d="M30.3003 18.2635H31.3062V17.2529H30.3003V18.2635Z" fill="#FCE002"/>
<path d="M29.2821 18.2635H30.3003V17.2529H29.2821V18.2635Z" fill="#FCE002"/>
<path d="M28.2761 18.2635H29.282V17.2529H28.2761V18.2635Z" fill="#FCE002"/>
<path d="M27.2701 18.2635H28.2761V17.2529H27.2701V18.2635Z" fill="#FCE002"/>
<path d="M26.252 18.2635H27.2701V17.2529H26.252V18.2635Z" fill="#FCE002"/>
<path d="M25.2461 18.2635H26.252V17.2529H25.2461V18.2635Z" fill="#FCE002"/>
<path d="M24.2402 18.2635H25.2462V17.2529H24.2402V18.2635Z" fill="#FCE002"/>
<path d="M23.2219 18.2635H24.2401V17.2529H23.2219V18.2635Z" fill="#FCE002"/>
<path d="M22.2161 18.2635H23.222V17.2529H22.2161V18.2635Z" fill="#FFF9C6"/>
<path d="M21.2102 18.2635H22.2161V17.2529H21.2102V18.2635Z" fill="#FFF9C6"/>
<path d="M20.1919 18.2635H21.2101V17.2529H20.1919V18.2635Z" fill="#FFF9C6"/>
<path d="M36.3602 19.2737H37.3662V18.2632H36.3602V19.2737Z" fill="#21201E"/>
<path d="M35.342 19.2737H36.3602V18.2632H35.342V19.2737Z" fill="#21201E"/>
<path d="M34.3362 19.2737H35.3421V18.2632H34.3362V19.2737Z" fill="#21201E"/>
<path d="M33.3302 19.2737H34.3361V18.2632H33.3302V19.2737Z" fill="#FFF394"/>
<path d="M32.3121 19.2737H33.3303V18.2632H32.3121V19.2737Z" fill="#FFF394"/>
<path d="M31.3063 19.2737H32.3122V18.2632H31.3063V19.2737Z" fill="#FFF394"/>
<path d="M30.3003 19.2737H31.3062V18.2632H30.3003V19.2737Z" fill="#FFF394"/>
<path d="M29.2821 19.2737H30.3003V18.2632H29.2821V19.2737Z" fill="#FFF394"/>
<path d="M28.2761 19.2737H29.282V18.2632H28.2761V19.2737Z" fill="#FFF9C6"/>
<path d="M27.2701 19.2737H28.2761V18.2632H27.2701V19.2737Z" fill="#FFF9C6"/>
<path d="M26.252 19.2737H27.2701V18.2632H26.252V19.2737Z" fill="#FFF9C6"/>
<path d="M25.2461 19.2737H26.252V18.2632H25.2461V19.2737Z" fill="#FFF9C6"/>
<path d="M24.2402 19.2737H25.2462V18.2632H24.2402V19.2737Z" fill="#FFF9C6"/>
<path d="M23.2219 19.2737H24.2401V18.2632H23.2219V19.2737Z" fill="#FFF9C6"/>
<path d="M22.2161 19.2737H23.222V18.2632H22.2161V19.2737Z" fill="#FFF9C6"/>
<path d="M21.2102 19.2737H22.2161V18.2632H21.2102V19.2737Z" fill="#FFF9C6"/>
<path d="M20.1919 19.2737H21.2101V18.2632H20.1919V19.2737Z" fill="#FFF9C6"/>
<path d="M34.3362 20.2965H35.3421V19.2737H34.3362V20.2965Z" fill="#21201E"/>
<path d="M33.3302 20.2965H34.3361V19.2737H33.3302V20.2965Z" fill="#21201E"/>
<path d="M32.3121 20.2965H33.3303V19.2737H32.3121V20.2965Z" fill="#FFF394"/>
<path d="M31.3063 20.2965H32.3122V19.2737H31.3063V20.2965Z" fill="#FFF394"/>
<path d="M30.3003 20.2965H31.3062V19.2737H30.3003V20.2965Z" fill="#FFF394"/>
<path d="M29.2821 20.2965H30.3003V19.2737H29.2821V20.2965Z" fill="#FFF394"/>
<path d="M28.2761 20.2965H29.282V19.2737H28.2761V20.2965Z" fill="#FFF394"/>
<path d="M27.2701 20.2965H28.2761V19.2737H27.2701V20.2965Z" fill="#FFF9C6"/>
<path d="M26.252 20.2965H27.2701V19.2737H26.252V20.2965Z" fill="#FFF9C6"/>
<path d="M25.2461 20.2965H26.252V19.2737H25.2461V20.2965Z" fill="#FFF9C6"/>
<path d="M24.2402 20.2965H25.2462V19.2737H24.2402V20.2965Z" fill="#FFF9C6"/>
<path d="M23.2219 20.2965H24.2401V19.2737H23.2219V20.2965Z" fill="#FFF9C6"/>
<path d="M22.2161 20.2965H23.222V19.2737H22.2161V20.2965Z" fill="#FFF9C6"/>
<path d="M21.2102 20.2965H22.2161V19.2737H21.2102V20.2965Z" fill="#FFF9C6"/>
<path d="M20.1919 20.2965H21.2101V19.2737H20.1919V20.2965Z" fill="#FFF9C6"/>
<path d="M33.3302 21.3074H34.3361V20.2969H33.3302V21.3074Z" fill="#21201E"/>
<path d="M32.3121 21.3074H33.3303V20.2969H32.3121V21.3074Z" fill="#21201E"/>
<path d="M31.3063 21.3074H32.3122V20.2969H31.3063V21.3074Z" fill="#FFF394"/>
<path d="M30.3003 21.3074H31.3062V20.2969H30.3003V21.3074Z" fill="#FFF394"/>
<path d="M29.2821 21.3074H30.3003V20.2969H29.2821V21.3074Z" fill="#FFF394"/>
<path d="M28.2761 21.3074H29.282V20.2969H28.2761V21.3074Z" fill="#FFF394"/>
<path d="M27.2701 21.3074H28.2761V20.2969H27.2701V21.3074Z" fill="#FFF394"/>
<path d="M26.252 21.3074H27.2701V20.2969H26.252V21.3074Z" fill="#FFF9C6"/>
<path d="M25.2461 21.3074H26.252V20.2969H25.2461V21.3074Z" fill="#FFF9C6"/>
<path d="M24.2402 21.3074H25.2462V20.2969H24.2402V21.3074Z" fill="#FFF9C6"/>
<path d="M23.2219 21.3074H24.2401V20.2969H23.2219V21.3074Z" fill="#FFF9C6"/>
<path d="M22.2161 21.3074H23.222V20.2969H22.2161V21.3074Z" fill="#FFF9C6"/>
<path d="M21.2102 21.3074H22.2161V20.2969H21.2102V21.3074Z" fill="#FFF9C6"/>
<path d="M20.1919 21.3074H21.2101V20.2969H20.1919V21.3074Z" fill="#FFF9C6"/>
<path d="M32.3121 22.3181H33.3303V21.3076H32.3121V22.3181Z" fill="#21201E"/>
<path d="M31.3063 22.3181H32.3122V21.3076H31.3063V22.3181Z" fill="#21201E"/>
<path d="M30.3003 22.3181H31.3062V21.3076H30.3003V22.3181Z" fill="#21201E"/>
<path d="M29.2821 22.3181H30.3003V21.3076H29.2821V22.3181Z" fill="#FFF394"/>
<path d="M28.2761 22.3181H29.282V21.3076H28.2761V22.3181Z" fill="#FFF394"/>
<path d="M27.2701 22.3181H28.2761V21.3076H27.2701V22.3181Z" fill="#FFF394"/>
<path d="M26.252 22.3181H27.2701V21.3076H26.252V22.3181Z" fill="#FFF394"/>
<path d="M25.2461 22.3181H26.252V21.3076H25.2461V22.3181Z" fill="#FFF9C6"/>
<path d="M24.2402 22.3181H25.2462V21.3076H24.2402V22.3181Z" fill="#FFF9C6"/>
<path d="M23.2219 22.3181H24.2401V21.3076H23.2219V22.3181Z" fill="#FFF9C6"/>
<path d="M22.2161 22.3181H23.222V21.3076H22.2161V22.3181Z" fill="#FFF9C6"/>
<path d="M21.2102 22.3181H22.2161V21.3076H21.2102V22.3181Z" fill="#FFF9C6"/>
<path d="M20.1919 22.3181H21.2101V21.3076H20.1919V22.3181Z" fill="#FFF9C6"/>
<path d="M30.3003 23.3405H31.3062V22.3176H30.3003V23.3405Z" fill="#21201E"/>
<path d="M29.2821 23.3405H30.3003V22.3176H29.2821V23.3405Z" fill="#21201E"/>
<path d="M28.2761 23.3405H29.282V22.3176H28.2761V23.3405Z" fill="#FFF394"/>
<path d="M27.2701 23.3405H28.2761V22.3176H27.2701V23.3405Z" fill="#FFF394"/>
<path d="M26.252 23.3405H27.2701V22.3176H26.252V23.3405Z" fill="#FFF394"/>
<path d="M25.2461 23.3405H26.252V22.3176H25.2461V23.3405Z" fill="#FFF394"/>
<path d="M24.2402 23.3405H25.2462V22.3176H24.2402V23.3405Z" fill="#FFF394"/>
<path d="M23.2219 23.3405H24.2401V22.3176H23.2219V23.3405Z" fill="#FFF9C6"/>
<path d="M22.2161 23.3405H23.222V22.3176H22.2161V23.3405Z" fill="#FFF9C6"/>
<path d="M21.2102 23.3405H22.2161V22.3176H21.2102V23.3405Z" fill="#FFF9C6"/>
<path d="M20.1919 23.3405H21.2101V22.3176H20.1919V23.3405Z" fill="#FFF9C6"/>
<path d="M29.2821 24.3511H30.3003V23.3406H29.2821V24.3511Z" fill="#21201E"/>
<path d="M28.2761 24.3511H29.282V23.3406H28.2761V24.3511Z" fill="#21201E"/>
<path d="M27.2701 24.3511H28.2761V23.3406H27.2701V24.3511Z" fill="#FFF394"/>
<path d="M26.252 24.3511H27.2701V23.3406H26.252V24.3511Z" fill="#FFF394"/>
<path d="M25.2461 24.3511H26.252V23.3406H25.2461V24.3511Z" fill="#FFF394"/>
<path d="M24.2402 24.3511H25.2462V23.3406H24.2402V24.3511Z" fill="#FFF394"/>
<path d="M23.2219 24.3511H24.2401V23.3406H23.2219V24.3511Z" fill="#FFF9C6"/>
<path d="M22.2161 24.3511H23.222V23.3406H22.2161V24.3511Z" fill="#FFF9C6"/>
<path d="M21.2102 24.3511H22.2161V23.3406H21.2102V24.3511Z" fill="#FFF9C6"/>
<path d="M20.1919 24.3511H21.2101V23.3406H20.1919V24.3511Z" fill="#FFF9C6"/>
<path d="M28.2761 25.3616H29.282V24.3511H28.2761V25.3616Z" fill="#21201E"/>
<path d="M27.2701 25.3616H28.2761V24.3511H27.2701V25.3616Z" fill="#21201E"/>
<path d="M26.252 25.3616H27.2701V24.3511H26.252V25.3616Z" fill="#FFF394"/>
<path d="M25.2461 25.3616H26.252V24.3511H25.2461V25.3616Z" fill="#FCE002"/>
<path d="M24.2402 25.3616H25.2462V24.3511H24.2402V25.3616Z" fill="#FFF9C6"/>
<path d="M23.2219 25.3616H24.2401V24.3511H23.2219V25.3616Z" fill="#FFF9C6"/>
<path d="M22.2161 25.3616H23.222V24.3511H22.2161V25.3616Z" fill="#FFF9C6"/>
<path d="M21.2102 25.3616H22.2161V24.3511H21.2102V25.3616Z" fill="#FFF9C6"/>
<path d="M20.1919 25.3616H21.2101V24.3511H20.1919V25.3616Z" fill="#FFF9C6"/>
<path d="M28.2761 26.3842H29.282V25.3613H28.2761V26.3842Z" fill="#21201E"/>
<path d="M27.2701 26.3842H28.2761V25.3613H27.2701V26.3842Z" fill="#FCE002"/>
<path d="M26.252 26.3842H27.2701V25.3613H26.252V26.3842Z" fill="#FCE002"/>
<path d="M25.2461 26.3842H26.252V25.3613H25.2461V26.3842Z" fill="#FCE002"/>
<path d="M24.2402 26.3842H25.2462V25.3613H24.2402V26.3842Z" fill="#FFF9C6"/>
<path d="M23.2219 26.3842H24.2401V25.3613H23.2219V26.3842Z" fill="#FFF9C6"/>
<path d="M22.2161 26.3842H23.222V25.3613H22.2161V26.3842Z" fill="#FFF9C6"/>
<path d="M21.2102 26.3842H22.2161V25.3613H21.2102V26.3842Z" fill="#FFF9C6"/>
<path d="M20.1919 26.3842H21.2101V25.3613H20.1919V26.3842Z" fill="#FFF9C6"/>
<path d="M29.2821 27.395H30.3003V26.3845H29.2821V27.395Z" fill="#21201E"/>
<path d="M28.2761 27.395H29.282V26.3845H28.2761V27.395Z" fill="#21201E"/>
<path d="M27.2701 27.395H28.2761V26.3845H27.2701V27.395Z" fill="#FCE002"/>
<path d="M26.252 27.395H27.2701V26.3845H26.252V27.395Z" fill="#FCE002"/>
<path d="M25.2461 27.395H26.252V26.3845H25.2461V27.395Z" fill="#FCE002"/>
<path d="M24.2402 27.395H25.2462V26.3845H24.2402V27.395Z" fill="#FFF9C6"/>
<path d="M23.2466 27.395H24.2525V26.3845H23.2466V27.395Z" fill="#FFF9C6"/>
<path d="M22.2161 27.395H23.2465V26.3845H22.2161V27.395Z" fill="#FFF9C6"/>
<path d="M21.2102 27.395H22.2161V26.3845H21.2102V27.395Z" fill="#FFF9C6"/>
<path d="M20.1919 27.395H21.2101V26.3845H20.1919V27.395Z" fill="#FFF394"/>
<path d="M29.2821 28.4055H30.3003V27.395H29.2821V28.4055Z" fill="#21201E"/>
<path d="M28.2761 28.4055H29.282V27.395H28.2761V28.4055Z" fill="#FCE002"/>
<path d="M27.2701 28.4055H28.2761V27.395H27.2701V28.4055Z" fill="#FCE002"/>
<path d="M26.252 28.4055H27.2701V27.395H26.252V28.4055Z" fill="#FCE002"/>
<path d="M25.2461 28.4055H26.252V27.395H25.2461V28.4055Z" fill="#FFF9C6"/>
<path d="M24.2402 28.4055H25.2462V27.395H24.2402V28.4055Z" fill="#FFF9C6"/>
<path d="M23.2466 28.4055H24.2525V27.395H23.2466V28.4055Z" fill="#FFF9C6"/>
<path d="M22.2161 28.4055H23.2465V27.395H22.2161V28.4055Z" fill="#FFF394"/>
<path d="M21.2102 28.4055H22.2161V27.395H21.2102V28.4055Z" fill="#FFF394"/>
<path d="M20.1919 28.4055H21.2101V27.395H20.1919V28.4055Z" fill="#FFF394"/>
<path d="M29.2821 29.4286H30.3003V28.4058H29.2821V29.4286Z" fill="#21201E"/>
<path d="M28.2761 29.4286H29.282V28.4058H28.2761V29.4286Z" fill="#FCE002"/>
<path d="M27.2701 29.4286H28.2761V28.4058H27.2701V29.4286Z" fill="#FCE002"/>
<path d="M26.252 29.4286H27.2701V28.4058H26.252V29.4286Z" fill="#FCE002"/>
<path d="M25.2461 29.4286H26.252V28.4058H25.2461V29.4286Z" fill="#FFF9C6"/>
<path d="M24.2402 29.4286H25.2462V28.4058H24.2402V29.4286Z" fill="#FFF9C6"/>
<path d="M23.2466 29.4286H24.2525V28.4058H23.2466V29.4286Z" fill="#FFF394"/>
<path d="M22.2161 29.4286H23.2465V28.4058H22.2161V29.4286Z" fill="#FFF394"/>
<path d="M21.2102 29.4286H22.2161V28.4058H21.2102V29.4286Z" fill="#FFF394"/>
<path d="M20.1919 29.4286H21.2101V28.4058H20.1919V29.4286Z" fill="#FFF394"/>
<path d="M30.3003 30.4387H31.3062V29.4282H30.3003V30.4387Z" fill="#21201E"/>
<path d="M29.2821 30.4387H30.3003V29.4282H29.2821V30.4387Z" fill="#21201E"/>
<path d="M28.2761 30.4387H29.282V29.4282H28.2761V30.4387Z" fill="#FCE002"/>
<path d="M27.2701 30.4387H28.2761V29.4282H27.2701V30.4387Z" fill="#FCE002"/>
<path d="M26.252 30.4387H27.2701V29.4282H26.252V30.4387Z" fill="#FCE002"/>
<path d="M25.2461 30.4387H26.252V29.4282H25.2461V30.4387Z" fill="#FFF9C6"/>
<path d="M24.2524 30.4387H25.2706V29.4282H24.2524V30.4387Z" fill="#FFF394"/>
<path d="M23.2466 30.4387H24.2525V29.4282H23.2466V30.4387Z" fill="#FFF394"/>
<path d="M22.2161 30.4387H23.2465V29.4282H22.2161V30.4387Z" fill="#FFF394"/>
<path d="M21.2102 30.4387H22.2161V29.4282H21.2102V30.4387Z" fill="#FFF394"/>
<path d="M20.1919 30.4387H21.2101V29.4282H20.1919V30.4387Z" fill="#21201E"/>
<path d="M30.3003 31.4495H31.3062V30.439H30.3003V31.4495Z" fill="#21201E"/>
<path d="M29.2821 31.4495H30.3003V30.439H29.2821V31.4495Z" fill="#21201E"/>
<path d="M28.2761 31.4495H29.282V30.439H28.2761V31.4495Z" fill="#FCE002"/>
<path d="M27.2701 31.4495H28.2761V30.439H27.2701V31.4495Z" fill="#FCE002"/>
<path d="M26.2766 31.4495H27.2825V30.439H26.2766V31.4495Z" fill="#FCE002"/>
<path d="M25.2708 31.4495H26.2767V30.439H25.2708V31.4495Z" fill="#FFF394"/>
<path d="M24.2524 31.4495H25.2706V30.439H24.2524V31.4495Z" fill="#FFF394"/>
<path d="M23.2466 31.4495H24.2525V30.439H23.2466V31.4495Z" fill="#FFF394"/>
<path d="M22.2161 31.4495H23.2465V30.439H22.2161V31.4495Z" fill="#FFF394"/>
<path d="M21.2102 31.4495H22.2161V30.439H21.2102V31.4495Z" fill="#21201E"/>
<path d="M20.1919 31.4495H21.2101V30.439H20.1919V31.4495Z" fill="#21201E"/>
<path d="M30.3003 32.4723H31.3062V31.4495H30.3003V32.4723Z" fill="#21201E"/>
<path d="M29.2821 32.4723H30.3003V31.4495H29.2821V32.4723Z" fill="#FCE002"/>
<path d="M28.2761 32.4723H29.282V31.4495H28.2761V32.4723Z" fill="#FCE002"/>
<path d="M27.2701 32.4723H28.2761V31.4495H27.2701V32.4723Z" fill="#FFF394"/>
<path d="M26.2766 32.4723H27.2825V31.4495H26.2766V32.4723Z" fill="#FFF394"/>
<path d="M25.2708 32.4723H26.2767V31.4495H25.2708V32.4723Z" fill="#FFF394"/>
<path d="M24.2524 32.4723H25.2706V31.4495H24.2524V32.4723Z" fill="#FFF394"/>
<path d="M23.2466 32.4723H24.2525V31.4495H23.2466V32.4723Z" fill="#21201E"/>
<path d="M22.2161 32.4723H23.2465V31.4495H22.2161V32.4723Z" fill="#21201E"/>
<path d="M21.2102 32.4723H22.2161V31.4495H21.2102V32.4723Z" fill="#21201E"/>
<path d="M31.3063 33.4827H32.3122V32.4722H31.3063V33.4827Z" fill="#21201E"/>
<path d="M30.3003 33.4827H31.3062V32.4722H30.3003V33.4827Z" fill="#21201E"/>
<path d="M29.2821 33.4827H30.3003V32.4722H29.2821V33.4827Z" fill="#FCE002"/>
<path d="M28.2761 33.4827H29.282V32.4722H28.2761V33.4827Z" fill="#FCE002"/>
<path d="M27.2701 33.4827H28.2761V32.4722H27.2701V33.4827Z" fill="#FFF394"/>
<path d="M26.252 33.4827H27.2701V32.4722H26.252V33.4827Z" fill="#FFF394"/>
<path d="M25.2708 33.4827H26.2767V32.4722H25.2708V33.4827Z" fill="#FFF394"/>
<path d="M24.2524 33.4827H25.2706V32.4722H24.2524V33.4827Z" fill="#21201E"/>
<path d="M23.2466 33.4827H24.2525V32.4722H23.2466V33.4827Z" fill="#21201E"/>
<path d="M31.3063 34.4934H32.3122V33.4829H31.3063V34.4934Z" fill="#21201E"/>
<path d="M30.3003 34.4934H31.3062V33.4829H30.3003V34.4934Z" fill="#FCE002"/>
<path d="M29.2821 34.4934H30.3003V33.4829H29.2821V34.4934Z" fill="#FCE002"/>
<path d="M28.2761 34.4934H29.282V33.4829H28.2761V34.4934Z" fill="#FFF394"/>
<path d="M27.2701 34.4934H28.2761V33.4829H27.2701V34.4934Z" fill="#FFF394"/>
<path d="M26.252 34.4934H27.2701V33.4829H26.252V34.4934Z" fill="#21201E"/>
<path d="M25.2708 34.4934H26.2767V33.4829H25.2708V34.4934Z" fill="#21201E"/>
<path d="M24.2524 34.4934H25.2706V33.4829H24.2524V34.4934Z" fill="#21201E"/>
<path d="M31.3063 35.516H32.3122V34.4932H31.3063V35.516Z" fill="#21201E"/>
<path d="M30.3003 35.516H31.3062V34.4932H30.3003V35.516Z" fill="#FCE002"/>
<path d="M29.2821 35.516H30.3003V34.4932H29.2821V35.516Z" fill="#FFF394"/>
<path d="M28.2761 35.516H29.282V34.4932H28.2761V35.516Z" fill="#FFF394"/>
<path d="M27.2701 35.516H28.2761V34.4932H27.2701V35.516Z" fill="#21201E"/>
<path d="M26.2766 35.516H27.2825V34.4932H26.2766V35.516Z" fill="#21201E"/>
<path d="M32.3121 36.5266H33.3303V35.5161H32.3121V36.5266Z" fill="#21201E"/>
<path d="M31.3063 36.5266H32.3122V35.5161H31.3063V36.5266Z" fill="#21201E"/>
<path d="M30.3003 36.5266H31.3062V35.5161H30.3003V36.5266Z" fill="#FFF394"/>
<path d="M29.2821 36.5266H30.3003V35.5161H29.2821V36.5266Z" fill="#FFF394"/>
<path d="M28.2761 36.5266H29.282V35.5161H28.2761V36.5266Z" fill="#21201E"/>
<path d="M27.2701 36.5266H28.2761V35.5161H27.2701V36.5266Z" fill="#21201E"/>
<path d="M32.3121 37.5371H33.3303V36.5266H32.3121V37.5371Z" fill="#21201E"/>
<path d="M31.3063 37.5371H32.3122V36.5266H31.3063V37.5371Z" fill="#FCE002"/>
<path d="M30.3003 37.5371H31.3062V36.5266H30.3003V37.5371Z" fill="#21201E"/>
<path d="M29.2821 37.5371H30.3003V36.5266H29.2821V37.5371Z" fill="#21201E"/>
<path d="M28.2761 37.5371H29.282V36.5266H28.2761V37.5371Z" fill="#21201E"/>
<path d="M32.3121 38.56H33.3303V37.5371H32.3121V38.56Z" fill="#21201E"/>
<path d="M31.3063 38.56H32.3122V37.5371H31.3063V38.56Z" fill="#21201E"/>
<path d="M30.3003 38.56H31.3062V37.5371H30.3003V38.56Z" fill="#21201E"/>
</svg>
