<svg width="22" height="19" viewBox="0 0 22 19" fill="none" xmlns="http://www.w3.org/2000/svg">
<path d="M20.7656 15.7891C21.3906 16.8828 20.6094 18.25 19.3203 18.25H2.64062C1.35156 18.25 0.570312 16.8828 1.15625 15.7891L9.51562 1.57031C9.86719 1.02344 10.4141 0.75 11 0.75C11.5469 0.75 12.0938 1.02344 12.4453 1.57031L20.7656 15.7891ZM3.03125 16.375H18.9297L10.9609 2.82031L3.03125 16.375ZM11 12.7031C11.6641 12.7031 12.2109 13.25 12.2109 13.9141C12.2109 14.5781 11.6641 15.125 11 15.125C10.2969 15.125 9.75 14.5781 9.75 13.9141C9.75 13.25 10.2969 12.7031 11 12.7031ZM10.0625 6.6875C10.0625 6.17969 10.4531 5.75 11 5.75C11.5078 5.75 11.9375 6.17969 11.9375 6.6875V10.4375C11.9375 10.9844 11.5078 11.375 11 11.375C10.4531 11.375 10.0625 10.9844 10.0625 10.4375V6.6875Z" fill="white"/>
</svg>
