<svg width="36" height="60" viewBox="0 0 36 60" fill="none" xmlns="http://www.w3.org/2000/svg">
<rect x="10" y="18.0002" width="4" height="4" fill="white"/>
<rect x="14" y="18.0002" width="4" height="4" fill="#FEED64"/>
<rect x="26" y="18.0002" width="4" height="4" fill="#FEED64"/>
<rect x="2" y="18.0002" width="4" height="4" fill="#FEED64"/>
<rect x="14" y="14.0002" width="4" height="4" fill="white"/>
<rect x="14" y="42.0002" width="4" height="4" fill="white"/>
<rect x="18" y="18.0002" width="4" height="4" fill="#FEED64"/>
<rect x="30" y="18.0002" width="4" height="4" fill="#FEED64"/>
<rect x="6" y="18.0002" width="4" height="4" fill="#FEED64"/>
<rect x="18" y="14.0002" width="4" height="4" fill="#9A8900"/>
<rect x="18" y="42.0002" width="4" height="4" fill="#9A8900"/>
<rect x="22" y="18.0002" width="4" height="4" fill="#9A8900"/>
<rect x="10" y="22.0002" width="4" height="4" fill="white"/>
<rect x="14" y="22.0002" width="4" height="4" fill="#FEED64"/>
<rect x="26" y="22.0002" width="4" height="4" fill="#FEED64"/>
<rect x="2" y="22.0002" width="4" height="4" fill="#FEED64"/>
<rect x="18" y="22.0002" width="4" height="4" fill="#FEED64"/>
<rect x="30" y="22.0002" width="4" height="4" fill="#FEED64"/>
<rect x="6" y="22.0002" width="4" height="4" fill="#FEED64"/>
<rect x="22" y="22.0002" width="4" height="4" fill="#9A8900"/>
<rect x="10" y="26" width="4" height="4" fill="white"/>
<rect x="14" y="26" width="4" height="4" fill="#FEED64"/>
<rect x="26" y="26" width="4" height="4" fill="#FEED64"/>
<rect x="2" y="26" width="4" height="4" fill="#FEED64"/>
<rect x="18" y="26" width="4" height="4" fill="#FEED64"/>
<rect x="30" y="26" width="4" height="4" fill="#FEED64"/>
<rect x="6" y="26" width="4" height="4" fill="#FEED64"/>
<rect x="22" y="26" width="4" height="4" fill="#9A8900"/>
<rect x="10" y="30" width="4" height="4" fill="white"/>
<rect x="14" y="30" width="4" height="4" fill="#FEED64"/>
<rect x="26" y="30" width="4" height="4" fill="#FEED64"/>
<rect x="2" y="30" width="4" height="4" fill="#FEED64"/>
<rect x="18" y="30" width="4" height="4" fill="#FEED64"/>
<rect x="30" y="30" width="4" height="4" fill="#FEED64"/>
<rect x="6" y="30" width="4" height="4" fill="#FEED64"/>
<rect x="22" y="30" width="4" height="4" fill="#9A8900"/>
<rect x="10" y="34.0005" width="4" height="4" fill="white"/>
<rect x="14" y="34.0005" width="4" height="4" fill="#FEED64"/>
<rect x="26" y="34.0005" width="4" height="4" fill="#FEED64"/>
<rect x="2" y="34.0005" width="4" height="4" fill="#FEED64"/>
<rect x="6" y="42.0002" width="4" height="4" fill="#FEED64"/>
<rect width="4" height="4" transform="matrix(1 0 0 -1 6 18.0002)" fill="#FEED64"/>
<rect x="22" y="42.0002" width="4" height="4" fill="#FEED64"/>
<rect width="4" height="4" transform="matrix(1 0 0 -1 22 18.0002)" fill="#FEED64"/>
<rect x="14" y="46.0002" width="4" height="4" fill="#FEED64"/>
<rect width="4" height="4" transform="matrix(1 0 0 -1 14 14.0002)" fill="#FEED64"/>
<rect x="18" y="34.0005" width="4" height="4" fill="#FEED64"/>
<rect x="30" y="34.0005" width="4" height="4" fill="#FEED64"/>
<rect x="6" y="34.0005" width="4" height="4" fill="#FEED64"/>
<rect x="10" y="42.0002" width="4" height="4" fill="#FEED64"/>
<rect width="4" height="4" transform="matrix(1 0 0 -1 10 18.0002)" fill="#FEED64"/>
<rect x="26" y="42.0002" width="4" height="4" fill="#FEED64"/>
<rect width="4" height="4" transform="matrix(1 0 0 -1 26 18.0002)" fill="#FEED64"/>
<rect x="18" y="46.0002" width="4" height="4" fill="#FEED64"/>
<rect width="4" height="4" transform="matrix(1 0 0 -1 18 14.0002)" fill="#FEED64"/>
<rect x="22" y="34.0005" width="4" height="4" fill="#9A8900"/>
<rect x="10" y="38.0002" width="4" height="4" fill="white"/>
<rect x="14" y="38.0002" width="4" height="4" fill="#FEED64"/>
<rect x="26" y="38.0002" width="4" height="4" fill="#FEED64"/>
<rect x="2" y="38.0002" width="4" height="4" fill="#FEED64"/>
<rect x="6" y="46.0002" width="4" height="4" fill="#FEED64"/>
<rect width="4" height="4" transform="matrix(1 0 0 -1 6 14.0002)" fill="#FEED64"/>
<rect x="22" y="46.0002" width="4" height="4" fill="#FEED64"/>
<rect width="4" height="4" transform="matrix(1 0 0 -1 22 14.0002)" fill="#FEED64"/>
<rect x="14" y="50" width="4" height="4" fill="#FEED64"/>
<rect width="4" height="4" transform="matrix(1 0 0 -1 14 10)" fill="#FEED64"/>
<rect x="14" y="54" width="4" height="4" fill="#FEED64"/>
<rect width="4" height="4" transform="matrix(1 0 0 -1 14 6)" fill="#FEED64"/>
<rect x="10" y="50" width="4" height="4" fill="#FEED64"/>
<rect width="4" height="4" transform="matrix(1 0 0 -1 10 10)" fill="#FEED64"/>
<rect x="18" y="38.0002" width="4" height="4" fill="#FEED64"/>
<rect x="30" y="38.0002" width="4" height="4" fill="#FEED64"/>
<rect x="6" y="38.0002" width="4" height="4" fill="#FEED64"/>
<rect x="10" y="46.0002" width="4" height="4" fill="#FEED64"/>
<rect width="4" height="4" transform="matrix(1 0 0 -1 10 14.0002)" fill="#FEED64"/>
<rect x="26" y="46.0002" width="4" height="4" fill="#FEED64"/>
<rect width="4" height="4" transform="matrix(1 0 0 -1 26 14.0002)" fill="#FEED64"/>
<rect x="18" y="50" width="4" height="4" fill="#FEED64"/>
<rect width="4" height="4" transform="matrix(1 0 0 -1 18 10)" fill="#FEED64"/>
<rect x="22" y="50" width="4" height="4" fill="#FEED64"/>
<rect width="4" height="4" transform="matrix(1 0 0 -1 22 10)" fill="#FEED64"/>
<rect x="18" y="54" width="4" height="4" fill="#FEED64"/>
<rect width="4" height="4" transform="matrix(1 0 0 -1 18 6)" fill="#FEED64"/>
<rect x="22" y="38.0002" width="4" height="4" fill="#9A8900"/>
<path d="M2 16.9999H1V17.9999V20.9999V21.9999V22.9999V24.9999V25.9999V26.9999V28.9998V29.9998V30.9998V32.9999V33.9999V34.9999V37V38V39V41.9999V42.9999L1.99998 42.9999L5 42.9999V45V46V47V49.9999V50.9999H6H8.99999L8.99999 53.9999L8.99999 55L10 54.9999L13 54.9999V57.9998V58.9998H14H17H18H19H22H23V57.9998L23 54.9999H26H27V53.9999L27 50.9999H30H31V49.9999V47V46V45V42.9999L34 42.9999L35 42.9999V41.9999V39V38V37V34.9999V33.9999V32.9999V30.9998V29.9998V28.9998V26.9999V25.9999V24.9999V22.9999V21.9999V20.9999V17.9999V16.9999H34H31L31 14.9999V13.9999V12.9999V9.99997V8.99997H30H27L27 5.99989V4.99989H26H23L23 2V1H22H19H18H17H14H13V2V4.99997L10 4.99989L8.99999 4.99987L8.99999 5.99989L8.99999 8.99997H6H5V9.99997L5 12.9999L5 13.9999V14.9999L5 16.9999H2ZM7 33.9999V32.9999V30.9998V29.9998V28.9998V26.9999V25.9999V24.9999V22.9999V21.9999V20.9999V18.9999H10H11V17.9999V14.9999V13.9999V12.9999V11L14 10.9999L15 10.9999L15 9.99989L15 7H17V7.00003L18 7H19L21 6.99992V9.99989V10.9999L22 10.9999L25 11V12.9999V13.9999V14.9999V17.9999V18.9999H26H29V20.9999V21.9999V22.9999V24.9999V25.9999V26.9999V28.9998V29.9998V30.9998V32.9999V33.9999V34.9999V37V38V39L29 41H26H25V42V45V46V47V48.9999L22 48.9999L21 49V49.9999V52.9999L19 52.9998H18L17 52.9998L15 52.9998L15 49.9999L15 49L14 48.9999L11 48.9999V47V46V45V42V41H10H7L7 39V38L7 37L7 34.9999V33.9999Z" fill="#FEED64" stroke="black" stroke-width="2"/>
</svg>
